<svg width="21" height="21" viewBox="0 0 21 21" fill="none" xmlns="http://www.w3.org/2000/svg">
<g id="01 align center">
<path id="Path 6" d="M10.294 4.85765e-08C8.25806 0.000197826 6.26792 0.604098 4.57521 1.73534C2.88251 2.86658 1.56325 4.47435 0.784278 6.35535C0.00530314 8.23635 -0.19841 10.3061 0.198899 12.3029C0.596209 14.2996 1.5767 16.1338 3.01638 17.5733C4.45606 19.0129 6.29028 19.9932 8.28709 20.3903C10.2839 20.7874 12.3536 20.5835 14.2346 19.8043C16.1155 19.0252 17.7231 17.7058 18.8542 16.0129C19.9853 14.3201 20.589 12.3299 20.589 10.294C20.589 8.94209 20.3227 7.60342 19.8053 6.35443C19.2879 5.10544 18.5296 3.97059 17.5736 3.01469C16.6176 2.05879 15.4827 1.30056 14.2336 0.783297C12.9846 0.266034 11.6459 -0.000131281 10.294 4.85765e-08ZM17.712 6H14.949C14.3305 4.56647 13.516 3.22569 12.529 2.016C14.7135 2.61048 16.5757 4.0419 17.712 6ZM14.154 10.289C14.1471 11.1625 14.0096 12.0301 13.746 12.863H6.84598C6.5824 12.0301 6.44488 11.1625 6.43798 10.289C6.44488 9.41546 6.5824 8.54786 6.84598 7.715H13.746C14.0096 8.54786 14.1471 9.41546 14.154 10.289ZM7.52998 14.584H13.058C12.3299 16.0216 11.399 17.3471 10.294 18.52C9.18851 17.3475 8.25763 16.0219 7.52998 14.584ZM7.52998 6C8.25808 4.56241 9.18892 3.23687 10.294 2.064C11.3994 3.23654 12.3303 4.56214 13.058 6H7.52998ZM8.06398 2.016C7.07553 3.22544 6.25975 4.56624 5.63998 6H2.87598C4.01445 4.04275 5.87849 2.6131 8.06398 2.021V2.016ZM2.11098 7.716H5.06098C4.8386 8.55611 4.72335 9.42097 4.71798 10.29C4.72335 11.159 4.8386 12.0239 5.06098 12.864H2.11098C1.58374 11.1888 1.58374 9.39116 2.11098 7.716ZM2.87598 14.579H5.63998C6.25975 16.0128 7.07553 17.3536 8.06398 18.563C5.87801 17.9695 4.01423 16.5379 2.87698 14.579H2.87598ZM12.529 18.563C13.516 17.3533 14.3305 16.0125 14.949 14.579H17.712C16.5757 16.5371 14.7135 17.9685 12.529 18.563ZM18.477 12.863H15.527C15.7494 12.0229 15.8646 11.158 15.87 10.289C15.8646 9.41997 15.7494 8.55511 15.527 7.715H18.475C19.0022 9.39016 19.0022 11.1868 18.475 12.862L18.477 12.863Z" fill="#A6A6A6"/>
</g>
</svg>
