<svg width="659" height="507" viewBox="0 0 659 507" fill="none" xmlns="http://www.w3.org/2000/svg">
<mask id="mask0_0_143" style="mask-type:luminance" maskUnits="userSpaceOnUse" x="0" y="0" width="659" height="507">
<path d="M658.145 0.0759277H0V507H658.145V0.0759277Z" fill="white"/>
</mask>
<g mask="url(#mask0_0_143)">
<mask id="mask1_0_143" style="mask-type:luminance" maskUnits="userSpaceOnUse" x="0" y="0" width="659" height="507">
<path d="M658.145 0.0759277H0V507H658.145V0.0759277Z" fill="white"/>
</mask>
<g mask="url(#mask1_0_143)">
<path d="M485.375 502.031C522.789 502.031 572.761 499.669 619.875 499.669C629.717 419.836 635.045 358.692 657.142 273.669C610.247 271.587 509.786 272.239 495.507 275.969C492.647 352.407 489.794 427.622 485.37 502.025" fill="white"/>
<path d="M485.375 503.031C485.239 503.031 485.104 503.004 484.978 502.95C484.853 502.896 484.74 502.817 484.646 502.718C484.553 502.618 484.48 502.501 484.434 502.373C484.387 502.245 484.367 502.108 484.375 501.972C488.897 425.915 491.875 346.236 494.51 275.938C494.518 275.723 494.595 275.517 494.73 275.349C494.864 275.182 495.049 275.062 495.257 275.008C509.899 271.179 611.72 270.654 657.189 272.675C657.338 272.682 657.483 272.721 657.614 272.791C657.746 272.862 657.86 272.96 657.948 273.08C658.036 273.199 658.097 273.337 658.125 273.483C658.154 273.629 658.149 273.78 658.112 273.924C639.153 346.87 632.512 402.518 624.83 466.957C623.563 477.553 622.242 488.498 620.867 499.793C620.837 500.035 620.719 500.257 620.537 500.418C620.355 500.579 620.12 500.669 619.876 500.669C594.976 500.669 569.589 501.321 545.039 501.953C523.429 502.507 503.015 503.032 485.374 503.032M496.48 276.773C493.869 346.573 490.906 425.544 486.433 501.031C503.806 501.012 523.822 500.497 544.988 499.955C569.258 499.33 594.347 498.686 618.988 498.671C620.337 487.704 621.622 477.054 622.841 466.721C630.492 402.565 637.108 347.105 655.862 274.621C610.62 272.698 513.167 273.171 496.475 276.776" fill="black"/>
<path d="M300.959 504.673C303.441 456.526 298.697 405.432 279.444 361.236C268.391 385.755 255.418 409.362 240.644 431.836C235.915 423.763 231.729 415.251 227.544 406.741C226.47 404.557 225.395 402.373 224.32 400.188C218.428 388.223 212.539 376.25 207.184 364.034C214.373 334.962 222.314 306.077 231.537 277.605C232.656 273.632 234.26 269.813 236.313 266.233C240.85 259.009 248.62 254.533 256.251 250.715C277.112 240.238 299.297 232.635 322.2 228.115C324.326 224.774 327.353 222.102 330.932 220.408C334.043 232.298 341.432 242.674 350.016 251.462C353.957 255.501 359.165 259.552 364.509 258.978C379.09 253.978 387.409 238.898 399.636 229.503C403.904 226.223 409.09 223.536 414.898 224.068C427.485 226.496 440.074 228.923 452.663 231.35C473.445 235.35 494.931 239.65 512.216 251.871C516.273 254.703 519.946 258.048 523.144 261.823C543.044 306.992 558.256 354.128 570.444 401.958C576.372 425.21 581.606 449.59 576.418 473.581C573.277 480.653 568.05 486.64 562.139 491.64C558.615 494.807 554.54 497.3 550.115 498.995C545.044 500.755 539.572 500.877 534.206 500.982C522.824 501.204 511.44 501.425 500.055 501.646L300.959 504.673Z" fill="white"/>
<path d="M300.84 429.185C287.319 437.784 277.03 450.623 271.582 465.693C270.852 467.716 270.206 469.917 270.782 471.993C270.925 472.542 271.179 473.057 271.527 473.506C271.875 473.955 272.311 474.329 272.807 474.605C273.304 474.881 273.851 475.053 274.416 475.111C274.982 475.169 275.553 475.112 276.095 474.943C275.853 476.104 276.057 477.314 276.666 478.332C277.274 479.35 278.243 480.102 279.381 480.439C280.518 480.775 281.74 480.672 282.805 480.15C283.87 479.627 284.699 478.723 285.129 477.618C285.51 478.264 286.092 478.766 286.787 479.048C287.482 479.33 288.25 479.375 288.973 479.177C290.409 478.742 291.729 477.99 292.836 476.977C295.896 474.556 298.955 472.138 302.014 469.724C305.965 466.6 309.953 463.46 314.47 461.236C316.932 460.023 319.556 459.084 321.77 457.466C324.046 455.775 325.76 453.438 326.687 450.759C327.615 448.08 327.714 445.184 326.97 442.448C325.513 437.614 321.46 434.053 317.37 431.086C315.244 429.544 312.948 428.045 310.342 427.733C306.52 427.279 302.801 429.461 300.837 429.187" fill="white"/>
<path d="M274.918 505.931C274.713 505.931 274.513 505.868 274.345 505.751C274.177 505.634 274.049 505.467 273.978 505.275L268.006 488.924C267.952 488.775 267.934 488.614 267.953 488.457C267.973 488.299 268.03 488.148 268.12 488.017C268.21 487.886 268.33 487.778 268.469 487.702C268.609 487.627 268.765 487.585 268.924 487.582L341.482 485.382C341.747 485.378 342.004 485.478 342.197 485.66C342.388 485.844 342.498 486.095 342.505 486.36L342.834 503.516C342.837 503.648 342.813 503.779 342.765 503.902C342.717 504.024 342.645 504.136 342.553 504.231C342.462 504.326 342.352 504.402 342.231 504.454C342.11 504.506 341.98 504.534 341.848 504.536L274.933 505.936L274.918 505.931ZM270.364 489.549L275.613 503.923L340.813 502.551L340.523 487.401L270.364 489.549Z" fill="black"/>
<path d="M326.94 172.275C330.321 194.889 331.741 217.754 331.186 240.613C330.981 242.515 331.246 244.437 331.957 246.213C332.981 247.893 334.453 249.254 336.208 250.144C347.746 257.144 361.976 260.344 375.03 256.911C388.084 253.478 399.454 242.766 400.664 228.278C395.154 209.714 385.941 183.826 378.822 154.044C362.833 161.126 346.094 166.51 326.939 172.271" fill="white"/>
<path d="M364.055 259.297C354.022 259.162 344.215 256.295 335.69 251.002C333.772 250.021 332.169 248.518 331.065 246.668C330.274 244.745 329.972 242.657 330.186 240.589C330.736 217.787 329.319 194.98 325.952 172.422C325.917 172.184 325.968 171.942 326.096 171.739C326.225 171.536 326.422 171.386 326.652 171.317C347.252 165.117 363.104 159.917 378.415 153.136C378.549 153.076 378.695 153.047 378.842 153.05C378.988 153.053 379.133 153.088 379.264 153.153C379.396 153.218 379.512 153.311 379.603 153.426C379.695 153.541 379.76 153.674 379.794 153.817C384.831 174.885 391.022 194.34 396.001 209.973C398.066 216.457 400.015 222.58 401.624 228C401.659 228.118 401.672 228.243 401.661 228.366C400.507 242.181 389.903 254.041 375.285 257.88C371.618 258.833 367.843 259.31 364.054 259.298M328.054 172.984C331.347 195.377 332.728 218.01 332.183 240.637C331.991 242.376 332.219 244.136 332.847 245.769C333.795 247.274 335.135 248.492 336.722 249.295C348.892 256.677 362.763 259.105 374.775 255.948C386.213 252.948 398.31 243.263 399.65 228.386C398.059 223.032 396.131 216.98 394.093 210.578C389.2 195.203 383.131 176.137 378.128 155.445C363.266 161.945 347.84 167.02 328.054 172.984Z" fill="black"/>
<path d="M520.023 496.367C494.77 496.367 467.323 495.757 430.892 490.767C410.376 487.958 390.999 485.305 374.592 483.69C374.461 483.677 374.334 483.638 374.219 483.576C374.103 483.514 374.001 483.429 373.917 483.328C373.834 483.226 373.772 483.109 373.734 482.983C373.696 482.857 373.683 482.725 373.697 482.594C373.71 482.464 373.748 482.337 373.811 482.221C373.873 482.105 373.957 482.003 374.059 481.92C374.161 481.837 374.278 481.774 374.403 481.736C374.529 481.698 374.661 481.686 374.792 481.699C391.228 483.319 410.624 485.975 431.16 488.786C482.945 495.875 541.642 503.912 556.045 494.686C568.101 486.962 576.359 475.378 577.084 465.174C577.916 453.465 575.622 426.525 573.365 415.71C563.991 370.777 530.739 272.769 518.527 259.017C506.84 245.858 488.908 240.504 473.019 236.517C449.376 230.593 425.379 226.187 401.174 223.327C396.254 239.183 386.071 252.885 372.308 262.169C368.899 264.478 364.821 262.498 361.224 260.754C360.543 260.425 359.874 260.1 359.23 259.814C358.359 259.574 357.474 259.39 356.58 259.265C350.518 258.206 337.909 256.005 331.786 246.707C328.511 241.738 327.615 235.44 329.119 227.967C307.191 231.576 285.813 237.967 265.503 246.987C256.625 250.899 246.678 256.009 240.189 264.245C234.356 271.652 231.596 281.13 229.158 289.491C215.258 337.201 219.276 315.473 207.789 363.813C207.762 363.944 207.71 364.069 207.634 364.18C207.558 364.29 207.461 364.385 207.348 364.457C207.235 364.529 207.109 364.578 206.976 364.601C206.844 364.623 206.709 364.619 206.578 364.588C206.448 364.557 206.325 364.5 206.217 364.421C206.109 364.341 206.018 364.241 205.949 364.125C205.881 364.01 205.836 363.882 205.818 363.749C205.8 363.616 205.809 363.481 205.844 363.352C217.338 314.978 213.33 336.674 227.244 288.933C229.731 280.397 232.549 270.72 238.624 263.009C245.381 254.426 255.599 249.17 264.702 245.158C285.618 235.869 307.656 229.347 330.258 225.758C330.42 225.732 330.586 225.747 330.741 225.8C330.897 225.854 331.036 225.945 331.148 226.065C331.26 226.186 331.34 226.332 331.382 226.491C331.424 226.649 331.426 226.816 331.388 226.976C329.594 234.529 330.288 240.796 333.46 245.608C339.107 254.184 351.143 256.285 356.929 257.295C357.987 257.426 359.029 257.657 360.043 257.986C360.709 258.279 361.397 258.613 362.1 258.955C365.365 260.539 368.738 262.174 371.193 260.514C384.808 251.319 394.815 237.688 399.508 221.944C399.575 221.719 399.719 221.526 399.915 221.398C400.111 221.27 400.347 221.215 400.579 221.244C425.151 224.109 449.512 228.562 473.508 234.576C489.688 238.634 507.961 244.103 520.024 257.687C533.209 272.534 566.733 374.111 575.324 415.3C577.606 426.228 579.924 453.468 579.08 465.313C578.314 476.124 569.697 488.313 557.129 496.367C552.114 499.578 542.477 500.857 529.836 500.857" fill="black"/>
<path d="M361.144 275.577C354.816 306.995 348.885 338.534 343.351 370.194C342.414 375.558 341.484 381.039 341.962 386.494C342.636 394.184 346.015 401.014 349.31 407.545C353.334 415.52 357.358 423.495 362.774 431.407C369.271 416.659 374.986 401.579 379.898 386.23C381.565 351.169 370.129 317.079 369.207 281.974C369.148 279.802 369.107 277.52 368.236 275.646C367.365 273.772 365.336 272.556 361.144 275.575" fill="#0086D5"/>
<path d="M362.777 432.409C362.614 432.409 362.454 432.369 362.31 432.293C362.167 432.216 362.044 432.106 361.952 431.972C356.5 424.009 352.393 415.872 348.422 408.003C345.257 401.726 341.669 394.617 340.967 386.584C340.467 380.893 341.479 375.119 342.367 370.023C347.877 338.5 353.867 306.658 360.167 275.38C360.217 275.132 360.36 274.913 360.567 274.767C362.893 273.088 364.891 272.454 366.517 272.876C367.105 273.043 367.648 273.341 368.104 273.748C368.56 274.155 368.917 274.66 369.15 275.226C369.946 277.324 370.306 279.563 370.209 281.805V281.949C370.621 297.538 373.157 313.208 375.609 328.358C378.667 347.234 381.827 366.753 380.9 386.278C380.896 386.365 380.88 386.451 380.854 386.534C375.929 401.917 370.2 417.032 363.692 431.816C363.62 431.979 363.506 432.12 363.362 432.224C363.217 432.328 363.047 432.392 362.87 432.409C362.838 432.409 362.807 432.409 362.777 432.409ZM362.047 276.165C355.778 307.3 349.821 338.991 344.337 370.365C343.468 375.341 342.482 380.981 342.958 386.408C343.629 394.061 347.121 400.987 350.206 407.095C353.888 414.75 358.023 422.179 362.589 429.342C368.753 415.196 374.199 400.748 378.908 386.054C379.808 366.777 376.67 347.41 373.637 328.68C371.172 313.462 368.622 297.726 368.21 282V281.856C368.299 279.889 368.003 277.923 367.336 276.07C367.225 275.773 367.048 275.505 366.818 275.287C366.589 275.068 366.313 274.905 366.011 274.808C365.342 274.635 364.127 274.74 362.053 276.165" fill="black"/>
<path d="M374.696 483.697C374.458 483.697 374.227 483.611 374.046 483.456C373.865 483.301 373.746 483.087 373.709 482.851C373.672 482.616 373.721 482.375 373.846 482.172C373.971 481.969 374.164 481.818 374.391 481.745C382.471 479.156 385.734 472.662 385.307 460.026C384.394 433.05 380.297 429.453 378.576 429.16C378.333 429.118 378.115 428.987 377.963 428.794C377.81 428.601 377.734 428.358 377.75 428.112C377.765 427.867 377.87 427.635 378.046 427.462C378.221 427.29 378.454 427.188 378.7 427.176L383.554 426.961C424.96 425.133 471.816 423.061 500.798 419.506C495.898 404.193 491.222 390.206 486.693 376.66C481.976 362.56 477.1 347.971 472.019 332.018C471.977 331.892 471.96 331.759 471.97 331.627C471.979 331.494 472.015 331.365 472.075 331.247C472.135 331.128 472.218 331.023 472.319 330.937C472.421 330.851 472.538 330.786 472.664 330.746C472.791 330.706 472.924 330.691 473.056 330.703C473.189 330.715 473.317 330.753 473.434 330.815C473.552 330.877 473.656 330.962 473.74 331.065C473.824 331.167 473.887 331.286 473.925 331.413C478.999 347.351 483.875 361.928 488.589 376.028C493.233 389.911 498.036 404.268 503.07 420.043C503.115 420.183 503.129 420.331 503.111 420.477C503.092 420.623 503.041 420.763 502.962 420.887C502.883 421.012 502.778 421.117 502.654 421.195C502.529 421.274 502.389 421.324 502.243 421.343C473.285 425.004 425.661 427.107 383.643 428.962L381.835 429.043C384.046 431.923 386.613 439.495 387.306 459.965C387.614 469.065 386.493 479.971 375.006 483.654C374.908 483.687 374.805 483.703 374.701 483.703" fill="black"/>
<path d="M69.607 506.999C69.417 506.999 69.231 506.944 69.0707 506.842C68.9105 506.74 68.7826 506.595 68.702 506.423L0.100002 359.485C0.0290773 359.333 -0.00251035 359.166 0.00814384 358.998C0.018798 358.831 0.0713521 358.669 0.160973 358.527C0.250593 358.386 0.374404 358.269 0.521018 358.187C0.667631 358.106 0.832342 358.063 1 358.062L205.288 359.182C205.474 359.183 205.657 359.236 205.814 359.335C205.972 359.434 206.099 359.575 206.181 359.743L276.6 504.364C276.674 504.516 276.708 504.684 276.699 504.853C276.69 505.021 276.639 505.185 276.55 505.329C276.461 505.472 276.337 505.591 276.189 505.673C276.042 505.756 275.876 505.8 275.707 505.801L69.607 507.001V506.999ZM2.574 360.07L70.242 504.996L274.108 503.812L204.661 361.178L2.574 360.07Z" fill="black"/>
<path d="M130.217 417.991C124.417 417.422 118.081 418.972 115.717 424.299C113.353 429.626 115.165 436.299 119.47 440.227C123.775 444.155 130.137 445.42 135.821 444.141C138.891 443.45 141.934 441.962 143.701 439.355C144.885 437.503 145.498 435.344 145.463 433.147C145.512 425.975 142.242 419.168 130.215 417.99" fill="white"/>
<path d="M131.471 445.626C126.816 445.693 122.302 444.033 118.798 440.968C114.027 436.614 112.348 429.432 114.806 423.895C117.046 418.843 122.842 416.269 130.315 416.995C143.745 418.313 146.509 426.51 146.463 433.153C146.503 435.55 145.831 437.904 144.53 439.918C142.356 443.125 138.715 444.518 136.042 445.118C134.541 445.453 133.009 445.624 131.471 445.626ZM128.035 418.883C124.575 418.883 118.854 419.693 116.635 424.701C114.517 429.477 115.993 435.695 120.147 439.487C122.248 441.279 124.744 442.546 127.43 443.186C130.116 443.826 132.915 443.819 135.598 443.166C138.484 442.673 141.079 441.114 142.87 438.798C143.939 437.107 144.491 435.141 144.459 433.141C144.518 424.687 139.69 419.926 130.114 418.987C129.621 418.938 128.896 418.887 128.03 418.887" fill="black"/>
<path d="M369.161 259.51C366.381 257.487 362.633 257.658 359.629 258.902C355.207 260.732 351.473 263.329 350.648 268.044C350.438 269.25 352.764 274.284 353.962 276.102C355.38 278.257 358.979 282.188 362.096 282.442C364.756 282.659 367.231 281.083 369.222 279.306C372.822 276.09 375.767 271.316 374.622 266.626C373.931 263.81 371.922 261.513 369.165 259.51" fill="#0086D5"/>
<path d="M362.606 283.462C362.406 283.462 362.213 283.455 362.015 283.438C358.184 283.126 354.301 278.433 353.127 276.651C352.175 275.206 349.357 269.635 349.667 267.87C350.667 262.145 355.614 259.482 359.248 257.977C363.043 256.408 366.969 256.677 369.748 258.699C372.986 261.054 374.897 263.57 375.588 266.386C376.667 270.793 374.536 275.901 369.888 280.05C367.321 282.342 364.932 283.462 362.606 283.462ZM364.153 258.982C362.731 258.993 361.325 259.279 360.012 259.824C354.86 261.957 352.276 264.546 351.634 268.214C351.563 269.066 353.513 273.6 354.799 275.55C356.283 277.805 359.655 281.239 362.179 281.444C364.124 281.612 366.203 280.661 368.556 278.559C370.089 277.192 374.984 272.309 373.649 266.859C373.075 264.521 371.416 262.378 368.575 260.314C367.281 259.409 365.732 258.942 364.153 258.979" fill="black"/>
<path d="M308.005 483.884C306.935 483.843 305.916 483.414 305.14 482.676C303 480.868 304.469 477.388 304.95 476.243C305.769 474.49 306.891 472.895 308.264 471.531C312.626 466.869 317.693 462.921 323.28 459.831C320.08 459.194 316.493 460.631 313.85 462.101C308.879 464.876 304.44 468.693 300.15 472.385C297.978 474.254 295.73 476.185 293.427 477.976C292.344 478.91 291.093 479.629 289.74 480.092C288.953 480.352 288.112 480.401 287.3 480.232C286.489 480.064 285.736 479.685 285.118 479.133C284.296 478.254 283.821 477.105 283.783 475.902C283.561 472.585 285.567 469.633 287.095 467.702C296.246 456.135 305.888 449.694 316.577 448.015C316.833 447.986 317.091 448.057 317.296 448.213C317.501 448.369 317.638 448.599 317.678 448.853C317.718 449.108 317.658 449.368 317.511 449.58C317.363 449.792 317.14 449.938 316.887 449.989C306.72 451.589 297.487 457.789 288.664 468.941C287.341 470.615 285.601 473.141 285.779 475.772C285.785 476.486 286.047 477.173 286.518 477.71C286.886 478.01 287.326 478.209 287.794 478.29C288.262 478.371 288.742 478.33 289.19 478.171C290.295 477.775 291.316 477.173 292.199 476.399C294.464 474.642 296.692 472.724 298.847 470.871C303.213 467.115 307.73 463.23 312.877 460.358C316.518 458.325 321.784 456.402 326.197 458.777C326.357 458.863 326.49 458.992 326.582 459.148C326.675 459.305 326.723 459.483 326.721 459.665C326.72 459.847 326.669 460.024 326.574 460.179C326.479 460.334 326.343 460.46 326.182 460.544C320.024 463.678 314.458 467.857 309.731 472.897C308.522 474.094 307.529 475.491 306.795 477.026C305.895 479.166 305.768 480.594 306.434 481.155C307.934 482.429 308.801 481.885 310.456 480.643L310.571 480.555C316.743 475.33 323.437 470.756 330.546 466.903C332.846 465.666 335.817 464.414 338.446 465.695C341.636 467.257 350.792 470.771 366.874 469.763C373.051 469.426 379.236 470.242 385.114 472.169C385.363 472.253 385.568 472.43 385.687 472.664C385.806 472.898 385.828 473.169 385.749 473.419C385.669 473.669 385.495 473.878 385.263 474.001C385.031 474.123 384.76 474.15 384.509 474.075C378.867 472.223 372.929 471.438 366.999 471.759C350.441 472.796 340.899 469.123 337.568 467.493C335.768 466.612 333.488 467.593 331.494 468.662C324.489 472.46 317.895 476.97 311.815 482.121L311.659 482.241C310.654 483.171 309.374 483.75 308.011 483.891" fill="black"/>
<path d="M279.976 482.269C279.551 482.271 279.129 482.207 278.724 482.081C276.379 481.344 275.371 478.74 275.207 476.549C274.814 471.261 277.638 466.349 279.795 463.11C287.075 452.192 294.595 445.305 302.137 442.638C302.387 442.55 302.662 442.564 302.901 442.679C303.141 442.793 303.325 442.998 303.413 443.248C303.501 443.498 303.487 443.773 303.372 444.012C303.258 444.252 303.053 444.436 302.803 444.524C295.672 447.043 288.492 453.668 281.457 464.224C279.463 467.214 276.857 471.731 277.201 476.404C277.311 477.871 277.931 479.74 279.324 480.177C279.754 480.278 280.201 480.284 280.634 480.194C281.067 480.105 281.475 479.923 281.83 479.66C282.696 479.023 283.459 478.256 284.092 477.386C284.173 477.278 284.274 477.188 284.391 477.12C284.507 477.052 284.636 477.009 284.77 476.992C284.903 476.976 285.039 476.986 285.168 477.023C285.298 477.061 285.418 477.123 285.523 477.208C285.627 477.293 285.714 477.398 285.777 477.517C285.84 477.636 285.878 477.767 285.889 477.901C285.901 478.035 285.885 478.17 285.843 478.298C285.8 478.426 285.733 478.544 285.644 478.645C284.885 479.677 283.968 480.584 282.928 481.332C282.056 481.926 281.03 482.254 279.975 482.274" fill="black"/>
<path d="M273.778 476.348C272.554 476.342 271.361 475.962 270.359 475.26C267.211 473.06 270.825 461.094 274.847 454.453C282.966 441.045 293.335 431.374 304.827 426.476C310.718 422.53 336.745 430.456 347.707 434.061C350.985 435.233 354.413 435.936 357.888 436.148C367.503 436.448 379.888 436.617 383.134 436.109C383.396 436.068 383.664 436.133 383.878 436.289C384.093 436.445 384.236 436.68 384.277 436.942C384.319 437.205 384.254 437.472 384.098 437.687C383.941 437.901 383.706 438.045 383.444 438.086C379.081 438.764 361.339 438.254 357.825 438.145C354.16 437.928 350.544 437.194 347.085 435.963C329.309 430.116 309.679 425.44 305.898 428.163C305.836 428.207 305.769 428.244 305.698 428.273C294.714 432.927 284.362 442.591 276.552 455.486C272.052 462.905 270.224 472.727 271.503 473.621C272.052 474.026 272.703 474.27 273.383 474.326C274.064 474.382 274.746 474.248 275.354 473.938C275.467 473.867 275.593 473.82 275.724 473.799C275.856 473.777 275.99 473.782 276.12 473.814C276.249 473.845 276.371 473.902 276.478 473.981C276.585 474.06 276.676 474.16 276.744 474.274C276.812 474.388 276.856 474.515 276.875 474.647C276.893 474.779 276.885 474.913 276.851 475.042C276.817 475.171 276.757 475.291 276.676 475.397C276.595 475.502 276.493 475.59 276.377 475.656C275.588 476.116 274.69 476.355 273.777 476.347" fill="black"/>
<path d="M331.132 219.306C336.532 232.555 348.132 250.897 359.924 257.976C353.508 263.586 345.455 272.416 331.957 282.46C327.206 258.66 322.273 247.338 319.411 228.737C322.505 226.437 327.279 221.622 331.132 219.306Z" fill="white"/>
<path d="M331.957 283.461C331.726 283.461 331.503 283.382 331.324 283.236C331.145 283.09 331.022 282.887 330.976 282.661C328.76 271.561 326.464 263.028 324.436 255.499C321.909 246.757 319.901 237.873 318.423 228.894C318.395 228.714 318.417 228.53 318.486 228.361C318.554 228.193 318.668 228.046 318.813 227.937C319.965 227.083 321.383 225.843 322.884 224.537C325.295 222.306 327.881 220.272 330.618 218.456C330.742 218.382 330.88 218.335 331.023 218.319C331.166 218.303 331.311 218.319 331.448 218.364C331.585 218.41 331.71 218.484 331.815 218.582C331.921 218.681 332.003 218.801 332.058 218.934C337.734 232.856 349.307 250.444 360.44 257.126C360.575 257.207 360.688 257.319 360.772 257.452C360.855 257.586 360.906 257.737 360.92 257.893C360.934 258.05 360.911 258.208 360.853 258.354C360.794 258.5 360.702 258.63 360.584 258.734C358.705 260.376 356.714 262.273 354.405 264.466C347.532 271.194 340.233 277.474 332.554 283.266C332.381 283.396 332.17 283.466 331.954 283.466M320.49 229.172C321.957 237.877 323.92 246.491 326.369 254.972C328.307 262.172 330.493 270.298 332.624 280.706C339.768 275.215 346.58 269.305 353.024 263.006C354.945 261.178 356.65 259.555 358.264 258.106C347.416 250.931 336.418 234.351 330.664 220.787C328.412 222.412 326.252 224.163 324.197 226.031C322.865 227.195 321.597 228.303 320.488 229.167" fill="black"/>
<path d="M367.975 257.913C374.701 266.386 381.426 274.862 389.519 283.559C399.31 264.443 409.213 244.732 413.669 223.723C409.479 221.78 400.369 215.758 396.176 213.815C397.394 218.281 399.876 222.315 399.285 223.723C398.904 224.623 378.461 248.068 367.975 257.913Z" fill="white"/>
<path d="M389.518 284.56C389.381 284.56 389.245 284.531 389.119 284.476C388.993 284.421 388.879 284.341 388.786 284.24C380.657 275.506 373.812 266.879 367.186 258.54C367.03 258.343 366.954 258.095 366.973 257.845C366.991 257.595 367.103 257.361 367.286 257.19C377.765 247.353 397.166 225.06 398.369 223.305C398.489 222.766 397.7 220.833 397.122 219.415C396.376 217.678 395.736 215.897 395.206 214.083C395.154 213.898 395.157 213.702 395.213 213.518C395.27 213.335 395.378 213.171 395.525 213.048C395.672 212.924 395.851 212.845 396.042 212.821C396.232 212.796 396.426 212.827 396.599 212.91C398.742 213.903 402.146 215.941 405.438 217.91C408.686 219.855 412.044 221.866 414.092 222.815C414.298 222.91 414.465 223.072 414.567 223.274C414.668 223.477 414.698 223.708 414.651 223.93C410.029 245.715 399.606 266.061 390.411 284.013C390.338 284.156 390.231 284.279 390.1 284.372C389.969 284.465 389.818 284.525 389.659 284.547C389.614 284.554 389.568 284.557 389.522 284.557M369.33 258.008C375.485 265.761 381.859 273.756 389.285 281.829C398.148 264.514 407.993 245.011 412.53 224.28C410.387 223.206 407.356 221.391 404.411 219.626C402.117 218.252 399.767 216.844 397.863 215.804C398.224 216.804 398.615 217.761 398.978 218.652C400.025 221.217 400.718 222.91 400.208 224.111C399.678 225.363 379.808 248 369.33 258.011" fill="black"/>
<path d="M298.694 431.778C298.451 431.778 298.217 431.689 298.034 431.529C297.852 431.369 297.734 431.148 297.703 430.907C293.242 396.537 280.681 360.541 263.245 332.149C263.167 332.037 263.112 331.911 263.085 331.777C263.057 331.644 263.057 331.506 263.085 331.373C263.113 331.239 263.167 331.113 263.245 331.001C263.324 330.89 263.424 330.795 263.54 330.724C263.656 330.653 263.785 330.606 263.92 330.586C264.055 330.566 264.192 330.574 264.324 330.61C264.456 330.645 264.578 330.707 264.685 330.792C264.792 330.876 264.88 330.982 264.945 331.102C282.526 359.725 295.186 396.009 299.684 430.651C299.701 430.781 299.692 430.914 299.658 431.04C299.623 431.167 299.564 431.286 299.484 431.39C299.404 431.494 299.304 431.581 299.19 431.647C299.076 431.712 298.95 431.754 298.82 431.771C298.777 431.776 298.734 431.778 298.691 431.778" fill="black"/>
<path d="M240.513 433.532C240.333 433.532 240.157 433.483 240.003 433.392C239.848 433.3 239.721 433.168 239.635 433.01C239.549 432.853 239.507 432.675 239.514 432.495C239.521 432.315 239.576 432.141 239.673 431.99C252.363 412.328 268.233 386.45 278.397 360.677C278.442 360.551 278.512 360.434 278.602 360.336C278.693 360.237 278.803 360.157 278.925 360.101C279.047 360.046 279.179 360.015 279.313 360.012C279.447 360.008 279.581 360.032 279.706 360.081C279.83 360.13 279.944 360.204 280.04 360.298C280.136 360.392 280.211 360.504 280.263 360.628C280.314 360.752 280.34 360.885 280.339 361.019C280.338 361.153 280.31 361.286 280.257 361.409C270.027 387.348 254.094 413.333 241.357 433.076C241.266 433.216 241.141 433.332 240.994 433.411C240.847 433.491 240.682 433.532 240.515 433.532" fill="black"/>
<path d="M300.96 487.235H300.95C300.819 487.234 300.689 487.207 300.568 487.155C300.447 487.104 300.337 487.029 300.245 486.935C300.153 486.842 300.08 486.731 300.031 486.609C299.982 486.487 299.958 486.356 299.959 486.225L300.118 470.275C300.12 470.011 300.227 469.759 300.414 469.574C300.601 469.388 300.854 469.284 301.118 469.284H301.128C301.259 469.285 301.389 469.312 301.51 469.364C301.631 469.415 301.741 469.49 301.833 469.584C301.925 469.677 301.998 469.788 302.047 469.91C302.096 470.032 302.12 470.163 302.119 470.294L301.96 486.244C301.958 486.508 301.851 486.76 301.664 486.945C301.477 487.131 301.224 487.235 300.96 487.235Z" fill="black"/>
<path d="M399.023 119.858C398.944 119.858 398.865 119.848 398.789 119.829C398.531 119.766 398.309 119.604 398.171 119.378C398.033 119.152 397.99 118.88 398.052 118.623C399.052 114.489 399.497 112.258 400.309 108.21C400.331 108.078 400.38 107.951 400.452 107.838C400.524 107.725 400.618 107.628 400.728 107.552C400.838 107.476 400.963 107.423 401.094 107.396C401.225 107.369 401.36 107.369 401.492 107.395C401.623 107.421 401.748 107.474 401.859 107.549C401.969 107.625 402.064 107.722 402.136 107.834C402.209 107.947 402.258 108.073 402.281 108.205C402.303 108.337 402.299 108.472 402.269 108.603C401.451 112.676 401.002 114.921 399.995 119.094C399.942 119.312 399.818 119.505 399.642 119.644C399.466 119.782 399.247 119.858 399.023 119.858Z" fill="black"/>
<path d="M501.321 421.43C501.056 421.435 500.799 421.335 500.608 421.152C500.416 420.968 500.306 420.716 500.3 420.451C500.294 420.186 500.394 419.929 500.578 419.738C500.762 419.546 501.014 419.435 501.279 419.43C508.279 419.13 515.379 418.944 522.388 418.859H522.398C522.663 418.857 522.918 418.961 523.107 419.148C523.296 419.334 523.402 419.588 523.404 419.853C523.406 420.118 523.302 420.373 523.115 420.562C522.929 420.75 522.675 420.857 522.41 420.859C515.423 420.944 508.344 421.135 501.364 421.43H501.32" fill="black"/>
<path d="M563.019 337.297C562.888 337.301 562.757 337.279 562.634 337.232C562.511 337.186 562.399 337.116 562.303 337.026C562.207 336.936 562.13 336.828 562.076 336.708C562.022 336.588 561.993 336.459 561.989 336.327C561.984 336.196 562.006 336.065 562.053 335.942C562.1 335.82 562.17 335.707 562.26 335.611C562.35 335.516 562.458 335.439 562.578 335.385C562.697 335.331 562.827 335.301 562.958 335.297C584.104 334.004 605.558 333.618 626.733 334.148C626.864 334.151 626.994 334.18 627.114 334.233C627.234 334.287 627.342 334.363 627.433 334.458C627.524 334.553 627.594 334.665 627.642 334.788C627.689 334.91 627.712 335.041 627.709 335.172C627.705 335.304 627.676 335.433 627.623 335.553C627.57 335.673 627.493 335.782 627.398 335.872C627.303 335.963 627.191 336.034 627.069 336.081C626.946 336.128 626.815 336.151 626.684 336.148C605.565 335.618 584.167 336.004 563.084 337.293H563.023" fill="black"/>
<path d="M571.259 356.774C570.994 356.776 570.738 356.674 570.549 356.488C570.36 356.302 570.252 356.049 570.249 355.784C570.246 355.519 570.349 355.263 570.535 355.074C570.721 354.884 570.974 354.776 571.239 354.774L616.655 353.893C616.786 353.89 616.917 353.914 617.039 353.961C617.161 354.009 617.273 354.081 617.368 354.172C617.462 354.263 617.538 354.372 617.591 354.492C617.644 354.612 617.672 354.742 617.675 354.873C617.677 355.005 617.654 355.135 617.606 355.257C617.558 355.38 617.486 355.491 617.395 355.586C617.304 355.681 617.196 355.757 617.075 355.809C616.955 355.862 616.825 355.89 616.694 355.893L571.278 356.772L571.259 356.774Z" fill="black"/>
<path d="M594.861 440.957C594.73 440.96 594.599 440.936 594.477 440.889C594.354 440.841 594.243 440.769 594.148 440.678C594.053 440.587 593.977 440.479 593.924 440.358C593.872 440.238 593.843 440.109 593.84 439.977C593.838 439.846 593.861 439.715 593.909 439.593C593.957 439.471 594.028 439.359 594.119 439.264C594.21 439.169 594.319 439.094 594.439 439.041C594.559 438.988 594.689 438.96 594.82 438.957L618.209 437.949C618.341 437.941 618.472 437.96 618.597 438.005C618.721 438.049 618.835 438.118 618.932 438.207C619.029 438.297 619.107 438.404 619.162 438.524C619.217 438.644 619.247 438.774 619.251 438.906C619.262 439.17 619.168 439.429 618.989 439.624C618.811 439.819 618.562 439.936 618.297 439.948L594.906 440.956H594.862" fill="black"/>
<path d="M419.409 255.102C419.335 255.102 419.261 255.094 419.189 255.078C418.931 255.02 418.706 254.862 418.564 254.638C418.422 254.414 418.374 254.143 418.432 253.885C419.725 248.121 420.797 242.235 421.617 236.385C421.654 236.122 421.794 235.885 422.006 235.725C422.217 235.565 422.484 235.496 422.747 235.533C423.01 235.57 423.247 235.71 423.407 235.921C423.567 236.133 423.636 236.4 423.599 236.663C422.772 242.563 421.688 248.504 420.385 254.319C420.335 254.541 420.211 254.739 420.034 254.881C419.857 255.023 419.636 255.1 419.409 255.1" fill="black"/>
<path d="M431.774 246.431C431.745 246.431 431.713 246.431 431.684 246.431C431.42 246.407 431.176 246.279 431.007 246.075C430.837 245.872 430.755 245.609 430.779 245.345L431.706 235.076C431.737 234.817 431.867 234.581 432.07 234.417C432.272 234.253 432.53 234.175 432.79 234.198C433.049 234.222 433.289 234.346 433.458 234.543C433.628 234.741 433.713 234.997 433.697 235.257L432.77 245.526C432.747 245.775 432.632 246.007 432.447 246.175C432.262 246.344 432.02 246.437 431.77 246.436" fill="black"/>
<path d="M373.312 438.378C373.278 438.378 373.241 438.378 373.212 438.378C373.081 438.364 372.954 438.325 372.839 438.262C372.723 438.2 372.621 438.115 372.538 438.013C372.456 437.91 372.394 437.793 372.357 437.667C372.319 437.541 372.307 437.409 372.321 437.278C372.455 435.996 372.674 434.724 372.977 433.471C373.266 432.047 373.833 430.695 374.646 429.491C375.108 428.824 375.715 428.269 376.421 427.869C377.127 427.468 377.914 427.232 378.724 427.178H378.749C378.88 427.176 379.011 427.201 379.133 427.249C379.255 427.298 379.366 427.37 379.46 427.462C379.554 427.554 379.629 427.663 379.68 427.784C379.732 427.905 379.759 428.034 379.761 428.166C379.763 428.297 379.738 428.427 379.689 428.549C379.641 428.671 379.568 428.782 379.477 428.876C379.385 428.97 379.275 429.045 379.155 429.097C379.034 429.149 378.904 429.176 378.773 429.178C378.268 429.224 377.779 429.383 377.343 429.643C376.907 429.902 376.534 430.256 376.252 430.678C375.597 431.667 375.144 432.776 374.917 433.941C374.636 435.108 374.432 436.293 374.307 437.487C374.282 437.733 374.167 437.962 373.984 438.128C373.8 438.294 373.562 438.386 373.314 438.387" fill="black"/>
<path d="M374.407 483.398C373.953 483.382 373.508 483.265 373.106 483.055C372.703 482.845 372.352 482.548 372.079 482.185C371.64 481.589 371.317 480.916 371.127 480.201C370.236 477.312 369.988 474.264 370.4 471.269C370.439 471.008 370.579 470.772 370.79 470.613C371 470.453 371.265 470.383 371.527 470.417C371.789 470.454 372.026 470.593 372.186 470.804C372.346 471.015 372.415 471.281 372.379 471.544C372.008 474.247 372.232 476.999 373.035 479.607C373.157 480.085 373.364 480.537 373.645 480.942C373.734 481.068 373.849 481.173 373.982 481.252C374.115 481.33 374.263 481.38 374.416 481.398C374.68 481.397 374.934 481.498 375.124 481.681C375.315 481.864 375.426 482.113 375.436 482.377C375.439 482.508 375.415 482.639 375.367 482.761C375.32 482.884 375.248 482.995 375.157 483.09C375.066 483.185 374.957 483.261 374.837 483.313C374.716 483.366 374.586 483.394 374.455 483.397L374.407 483.398Z" fill="black"/>
<path d="M408.566 49.0408C409.14 68.1559 408.631 87.2883 407.041 106.346C406.036 118.201 403.498 129.877 399.49 141.08C397.638 146.151 395.956 148.755 391.029 152.218C389.906 147.618 384.652 146.171 383.081 141.676C381.146 136.149 383.911 130.487 379.591 126.055C371.526 117.876 365.214 108.139 361.039 97.4388C357.752 88.8708 356.031 79.5458 358.757 70.6088C360.321 65.7453 363.092 61.3578 366.813 57.8568C370.533 54.3557 375.081 51.8554 380.03 50.5898C388.169 48.5638 401.178 44.9848 408.566 49.0408Z" fill="black"/>
<path d="M391.307 153.179C391.177 153.216 391.042 153.227 390.908 153.211C390.774 153.195 390.645 153.152 390.528 153.084C390.411 153.017 390.309 152.927 390.228 152.819C390.147 152.711 390.089 152.588 390.057 152.457C389.547 150.363 387.997 148.957 386.357 147.474C384.695 145.966 382.975 144.406 382.135 142.008C381.459 139.773 381.163 137.441 381.259 135.108C381.222 131.908 381.193 129.139 378.872 126.759C370.704 118.489 364.316 108.634 360.104 97.8008C356.104 87.3608 355.345 78.3708 357.798 70.3218C359.412 65.2925 362.276 60.7552 366.122 57.1348C369.968 53.5144 374.67 50.9294 379.788 49.6218L381.067 49.3018C389.279 47.2418 401.691 44.1308 409.046 48.1698C409.2 48.2537 409.328 48.3767 409.419 48.5263C409.51 48.6759 409.559 48.8468 409.563 49.0218C410.145 68.1713 409.634 87.3384 408.035 106.43C407.027 118.377 404.469 130.142 400.426 141.43C398.591 146.46 396.88 149.33 391.604 153.044C391.512 153.106 391.411 153.154 391.304 153.186M379.254 51.8318C374.688 53.1749 370.52 55.6147 367.114 58.9385C363.707 62.2624 361.166 66.3692 359.711 70.9008C357.393 78.5078 358.132 87.0708 361.973 97.0818C366.087 107.661 372.326 117.285 380.305 125.359C383.182 128.312 383.221 131.753 383.258 135.082C383.168 137.199 383.426 139.316 384.022 141.349C384.693 143.267 386.155 144.592 387.702 145.993C389.291 147.246 390.597 148.821 391.533 150.615C395.56 147.569 396.963 145.085 398.549 140.739C402.53 129.623 405.049 118.036 406.043 106.271C407.619 87.4447 408.132 68.5446 407.578 49.6608C400.825 46.4078 389.265 49.3048 381.551 51.2398L380.27 51.5598C379.931 51.6448 379.592 51.7358 379.255 51.8328" fill="black"/>
<path d="M282.956 99.2138C285.631 114.54 284.393 130.302 286.177 145.75C287.961 161.198 293.322 177.068 306.584 187.42C318.259 196.532 335.53 200.286 351.47 197.172C367.41 194.058 381.606 184.172 388.37 171.453C394.725 159.5 393.224 135.284 392.943 123.109C400.23 123.343 407.91 120.163 411.643 114.714C413.502 112.115 414.261 108.888 413.755 105.734C413.25 102.579 411.521 99.7507 408.943 97.8628C403.455 93.9728 397.066 94.0358 390.681 101.599C389.976 91.6248 387.101 82.1508 385.803 77.7928C382.281 65.9618 379.883 48.0638 370.848 43.9368C365.733 41.5988 355.381 40.2688 349.578 39.4858C339.553 38.1338 326.778 45.9258 316.603 47.1288C306.428 48.3318 296.603 54.4428 289.017 60.5098C279.941 67.7648 280.964 87.7468 282.965 99.2098" fill="white"/>
<path d="M356.737 196.925C355.07 197.408 353.379 197.817 351.663 198.153C335.405 201.326 317.895 197.516 305.969 188.206C294.375 179.157 287.383 164.906 285.184 145.865C284.403 139.093 284.196 132.165 283.996 125.473C283.737 116.866 283.469 107.963 281.973 99.3848C281.09 94.3238 277.251 68.6288 288.386 59.7258C298.394 51.7258 307.846 47.1558 316.48 46.1348C320.543 45.6538 325.002 44.1048 329.722 42.4668C336.522 40.1048 343.552 37.6668 349.706 38.4938L350.343 38.5788C356.271 39.3788 366.191 40.7088 371.257 43.0248C378.849 46.4948 381.929 58.7508 384.647 69.5638C385.357 72.3918 386.028 75.0638 386.756 77.5048L386.841 77.7948C389.05 84.7851 390.601 91.9667 391.473 99.2458C397.149 93.5748 403.492 92.7768 409.515 97.0458C412.32 99.0753 414.206 102.135 414.758 105.553C415.31 108.971 414.484 112.468 412.461 115.278C408.844 120.566 401.509 124.041 393.968 124.117C393.995 125.081 394.024 126.108 394.058 127.189C394.463 140.638 395.078 160.964 389.25 171.921C383.064 183.554 370.884 192.821 356.737 196.921M283.942 99.0408C285.465 107.761 285.733 116.734 285.992 125.412C286.192 132.067 286.4 138.946 287.171 145.636C289.304 164.129 296.044 177.922 307.202 186.63C318.684 195.594 335.574 199.257 351.28 196.191C366.986 193.125 380.848 183.467 387.486 170.984C393.062 160.493 392.433 139.684 392.059 127.25C392.013 125.766 391.971 124.385 391.942 123.131C391.94 122.994 391.965 122.859 392.016 122.732C392.068 122.606 392.145 122.492 392.242 122.396C392.339 122.3 392.454 122.226 392.58 122.176C392.706 122.127 392.841 122.103 392.977 122.108C400.227 122.342 407.397 119.143 410.816 114.147C412.539 111.769 413.248 108.804 412.787 105.904C412.327 103.004 410.735 100.405 408.361 98.6768C402.585 94.5838 396.891 95.7848 391.439 102.24C391.311 102.391 391.14 102.501 390.949 102.555C390.758 102.609 390.555 102.605 390.367 102.544C390.178 102.482 390.012 102.366 389.889 102.21C389.767 102.054 389.694 101.865 389.679 101.667C388.996 92.0228 386.248 82.7998 384.928 78.3668L384.84 78.0738C384.103 75.5968 383.425 72.9028 382.71 70.0498C380.101 59.6758 377.148 47.9128 370.427 44.8428C365.627 42.6488 355.894 41.3428 350.079 40.5598L349.44 40.4748C343.761 39.7088 336.96 42.0748 330.38 44.3548C325.765 45.9548 320.994 47.6128 316.716 48.1178C308.458 49.0968 299.348 53.5258 289.637 61.2858C281.684 67.6428 281.598 85.5968 283.944 99.0388" fill="black"/>
<path d="M326.769 68.2088C326.469 75.2448 317.664 86.6728 311.18 88.5198C304.696 90.3668 301.675 87.7588 297.89 81.8848C292.948 88.1298 289.497 94.2188 283.919 97.5568C275.395 102.662 263.066 98.9428 258.324 89.8358C253.582 80.7288 257.341 67.9868 266.124 63.3848C260.143 65.9938 252.777 60.7688 251.462 54.0848C250.147 47.4008 253.762 40.5068 259.005 36.5388C264.248 32.5708 270.836 31.0478 277.142 28.9638C273.55 22.9018 275.248 14.5338 279.895 9.41183C284.542 4.28983 291.488 2.03483 298.261 1.66483C302.712 1.42583 307.334 1.95783 311.276 4.18583C313.344 5.35659 315.118 6.98231 316.465 8.94C317.812 10.8977 318.697 13.1361 319.051 15.4858C323.548 7.14583 332.028 0.564829 341.226 1.10583C350.424 1.64683 358.999 11.2648 360.986 18.5768C364.342 12.5348 369.186 7.19683 375.858 6.37683C389.104 4.74883 394.051 15.3918 390.698 30.8148C397.072 26.1268 408.017 27.2838 413.142 36.8568C416.956 43.9848 416.327 56.5218 412.117 63.3788C407.907 70.2358 390.239 78.5898 375.601 71.6008C367.467 67.7178 362.801 61.2778 359.521 55.0328C356.854 62.3268 354.848 67.3768 345.784 72.2518C339.17 75.8078 330.324 74.4948 326.768 68.2078" fill="black"/>
<path d="M397.445 73.8289C390.617 75.8059 382.571 76.0349 375.169 72.5009C367.145 68.6699 362.547 62.4369 359.697 57.4389C357.405 63.5159 354.897 68.4819 346.258 73.1279C339.706 76.6539 331.658 75.4829 327.377 70.7489C325.532 78.0359 317.608 87.6979 311.488 89.4689L311.451 89.4789C304.911 91.3429 301.46 88.9059 297.821 83.5929C296.921 84.7669 296.061 85.9309 295.227 87.0659C291.918 91.5589 288.794 95.8029 284.427 98.4139C282.223 99.672 279.786 100.469 277.264 100.756C274.742 101.043 272.189 100.814 269.758 100.083C267.147 99.3732 264.708 98.1397 262.59 96.4573C260.471 94.7749 258.717 92.6789 257.434 90.2969C253.115 82.0049 255.394 71.0639 262.034 65.0389C260.496 64.9048 259.001 64.4587 257.641 63.7279C255.829 62.7724 254.249 61.4314 253.011 59.7992C251.774 58.167 250.909 56.2834 250.478 54.2809C248.994 46.7399 253.387 39.5359 258.4 35.7439C262.812 32.4029 268.154 30.7389 273.321 29.1309C274.114 28.8819 274.91 28.6309 275.703 28.3819C272.848 22.3819 274.231 14.1669 279.154 8.74187C283.486 3.96387 290.254 1.09887 298.206 0.668872C303.582 0.380872 308.143 1.26887 311.767 3.31687C315.441 5.39506 318.191 8.78656 319.467 12.8099C324.767 4.54387 333.101 -0.380128 341.279 0.109872C349.879 0.619872 358.171 8.58787 361.224 16.1869C365.278 9.70287 370.144 6.06687 375.724 5.38687C381.215 4.71087 385.676 6.06787 388.631 9.30587C392.357 13.3749 393.568 20.2409 392.108 28.7749C395.412 27.155 399.171 26.719 402.758 27.5399C405.165 28.1053 407.42 29.1889 409.366 30.7151C411.311 32.2413 412.901 34.1735 414.023 36.3769C417.952 43.7199 417.462 56.5769 412.966 63.8949C410.716 67.5579 404.781 71.6949 397.445 73.8249M359.241 54.0749C359.311 54.055 359.383 54.0426 359.456 54.0379C359.649 54.0259 359.841 54.0697 360.01 54.164C360.179 54.2583 360.317 54.3992 360.408 54.5699C363.008 59.5359 367.461 66.6079 376.034 70.7009C389.856 77.3009 407.149 69.5539 411.261 62.8549C415.361 56.1809 415.837 44.0129 412.261 37.3279C411.272 35.3786 409.871 33.6683 408.154 32.3159C406.437 30.9635 404.446 30.0015 402.319 29.4969C400.435 29.0515 398.478 29.0105 396.577 29.3764C394.677 29.7424 392.875 30.507 391.291 31.6199C391.127 31.7411 390.931 31.8094 390.727 31.8159C390.524 31.8223 390.323 31.7664 390.152 31.6557C389.981 31.545 389.848 31.3848 389.771 31.1965C389.693 31.0082 389.675 30.8007 389.719 30.6019C391.659 21.6729 390.751 14.5859 387.164 10.6519C384.628 7.87187 380.864 6.76887 375.977 7.36987C370.547 8.03587 365.798 11.9699 361.859 19.0619C361.763 19.236 361.616 19.3775 361.439 19.4681C361.262 19.5587 361.062 19.5943 360.864 19.5705C360.667 19.5467 360.481 19.4644 360.33 19.3342C360.179 19.2041 360.071 19.0319 360.019 18.8399C358.219 12.2119 350.172 2.63987 341.165 2.10387C333.065 1.62587 324.727 7.06487 319.931 15.9679C319.831 16.1539 319.675 16.3037 319.486 16.3957C319.296 16.4877 319.082 16.5173 318.874 16.4803C318.666 16.4432 318.475 16.3414 318.329 16.1893C318.183 16.0373 318.088 15.8429 318.059 15.6339C317.721 13.4373 316.891 11.3455 315.631 9.51453C314.372 7.68358 312.715 6.16081 310.784 5.05987C307.497 3.20487 303.304 2.39987 298.318 2.66787C290.892 3.06787 284.61 5.70387 280.632 10.0889C275.971 15.2259 274.839 23.1229 278.001 28.4579C278.077 28.5865 278.123 28.7306 278.137 28.8795C278.15 29.0284 278.129 29.1784 278.077 29.3183C278.024 29.4583 277.941 29.5847 277.833 29.6883C277.726 29.7919 277.596 29.87 277.454 29.9169C276.28 30.3049 275.097 30.6739 273.915 31.0419C268.685 32.6719 263.741 34.2119 259.607 37.3419C255.087 40.7589 251.119 47.2039 252.44 53.8979C252.81 55.6081 253.55 57.2166 254.608 58.6101C255.666 60.0036 257.017 61.1484 258.565 61.9639C259.642 62.5856 260.845 62.9544 262.085 63.0424C263.326 63.1305 264.569 62.9353 265.723 62.4719C265.959 62.375 266.223 62.372 266.461 62.4636C266.7 62.5551 266.894 62.7343 267.004 62.9643C267.115 63.1943 267.133 63.4579 267.055 63.7009C266.978 63.944 266.81 64.1483 266.587 64.2719C258.326 68.5989 254.741 80.8009 259.205 89.3719C260.363 91.5127 261.944 93.3956 263.852 94.9064C265.76 96.4171 267.956 97.524 270.305 98.1599C272.474 98.816 274.753 99.0248 277.005 98.7735C279.257 98.5222 281.434 97.816 283.405 96.6979C287.424 94.2919 290.294 90.3979 293.618 85.8819C294.723 84.3819 295.866 82.8289 297.103 81.2619C297.202 81.1366 297.329 81.0368 297.474 80.9708C297.62 80.9047 297.779 80.8744 297.938 80.8823C298.097 80.8903 298.252 80.9362 298.39 81.0163C298.528 81.0964 298.645 81.2084 298.731 81.3429C302.375 86.9999 305 89.2429 310.904 87.5559L310.936 87.5489C317.052 85.7769 325.498 74.7489 325.771 68.1649C325.779 67.9476 325.858 67.7391 325.996 67.5711C326.134 67.4031 326.323 67.285 326.535 67.2349C326.747 67.184 326.969 67.2031 327.169 67.2893C327.368 67.3755 327.535 67.5241 327.643 67.7129C331.052 73.7509 339.543 74.4779 345.311 71.3689C354.24 66.5689 356.061 61.5849 358.584 54.6889C358.638 54.5416 358.725 54.409 358.84 54.3018C358.954 54.1946 359.092 54.1158 359.243 54.0719" fill="black"/>
<path d="M301.084 118.865C300.837 118.171 300.804 117.419 300.989 116.707C301.174 115.994 301.568 115.353 302.121 114.867C302.674 114.38 303.36 114.071 304.09 113.979C304.821 113.886 305.562 114.015 306.219 114.348C306.875 114.682 307.417 115.205 307.773 115.849C308.129 116.493 308.284 117.23 308.218 117.963C308.151 118.696 307.866 119.393 307.4 119.963C306.933 120.532 306.307 120.949 305.601 121.159C304.698 121.453 303.715 121.377 302.868 120.947C302.021 120.517 301.379 119.768 301.084 118.865Z" fill="black"/>
<path d="M351.993 112.612C351.746 111.918 351.713 111.166 351.898 110.454C352.083 109.741 352.477 109.1 353.03 108.614C353.583 108.127 354.269 107.818 354.999 107.726C355.73 107.633 356.471 107.762 357.128 108.096C357.784 108.429 358.326 108.952 358.682 109.596C359.038 110.24 359.193 110.977 359.127 111.71C359.06 112.443 358.775 113.14 358.309 113.71C357.842 114.279 357.216 114.696 356.51 114.906C355.607 115.2 354.624 115.124 353.777 114.694C352.93 114.264 352.288 113.515 351.993 112.612Z" fill="black"/>
<path d="M349.435 173.8C347.282 174.43 345.031 174.662 342.795 174.483C342.66 174.478 342.527 174.446 342.405 174.388C342.283 174.33 342.174 174.248 342.084 174.147C341.994 174.046 341.926 173.927 341.883 173.799C341.841 173.671 341.825 173.535 341.836 173.401C341.847 173.266 341.886 173.135 341.949 173.015C342.012 172.896 342.099 172.791 342.204 172.706C342.309 172.621 342.431 172.558 342.561 172.521C342.691 172.485 342.827 172.475 342.961 172.492C346.114 172.717 349.268 172.066 352.074 170.611C354.88 169.156 357.229 166.953 358.861 164.246C358.925 164.128 359.012 164.024 359.117 163.94C359.222 163.856 359.343 163.794 359.472 163.758C359.602 163.722 359.737 163.713 359.87 163.73C360.003 163.747 360.132 163.792 360.247 163.86C360.363 163.928 360.464 164.018 360.544 164.126C360.624 164.234 360.681 164.357 360.713 164.488C360.744 164.618 360.749 164.754 360.727 164.887C360.705 165.019 360.656 165.146 360.584 165.259C358.084 169.414 354.101 172.467 349.439 173.8" fill="black"/>
<path d="M337.275 156.401C334.161 157.229 330.901 157.34 327.738 156.726C326.113 156.543 324.563 155.943 323.238 154.986C322.34 154.182 321.64 153.181 321.194 152.062C320.748 150.942 320.567 149.735 320.666 148.534C320.802 146.646 321.176 144.783 321.779 142.989L322.016 142.169C324.789 132.387 325.288 122.1 323.474 112.095C323.433 111.837 323.494 111.573 323.645 111.36C323.796 111.146 324.025 111.001 324.282 110.954C324.539 110.907 324.804 110.962 325.021 111.109C325.238 111.255 325.388 111.48 325.441 111.736C327.311 122.043 326.798 132.641 323.941 142.719L323.702 143.551C323.147 145.182 322.799 146.877 322.666 148.595C322.586 149.487 322.71 150.385 323.027 151.222C323.345 152.06 323.848 152.814 324.499 153.429C325.56 154.16 326.787 154.616 328.069 154.754C331.153 155.366 334.34 155.203 337.345 154.281C338.787 153.824 340.121 153.079 341.266 152.091C342.411 151.103 343.343 149.893 344.007 148.534C344.122 148.305 344.32 148.129 344.561 148.042C344.802 147.955 345.067 147.963 345.301 148.066C345.536 148.168 345.722 148.357 345.822 148.593C345.922 148.829 345.927 149.094 345.837 149.334C345.07 150.952 343.978 152.395 342.628 153.571C341.277 154.747 339.699 155.632 337.991 156.17C337.754 156.251 337.513 156.326 337.271 156.397" fill="black"/>
<path d="M396.952 59.873C396.726 59.9378 396.484 59.9208 396.269 59.8249C396.054 59.729 395.88 59.5604 395.777 59.3487C395.674 59.137 395.649 58.8959 395.707 58.6676C395.764 58.4394 395.9 58.2388 396.091 58.101C398.717 56.133 400.69 53.4202 401.754 50.3154C402.817 47.2107 402.921 43.8578 402.053 40.693C401.978 40.4386 402.007 40.1649 402.134 39.932C402.261 39.6991 402.475 39.5261 402.729 39.451C402.983 39.3776 403.256 39.4077 403.487 39.5347C403.719 39.6618 403.891 39.8754 403.966 40.129C404.944 43.6908 404.827 47.4645 403.63 50.9588C402.433 54.4531 400.212 57.506 397.255 59.72C397.163 59.7871 397.059 59.8381 396.95 59.871" fill="black"/>
<g opacity="0.129">
<mask id="mask2_0_143" style="mask-type:luminance" maskUnits="userSpaceOnUse" x="284" y="55" width="79" height="48">
<path d="M362.267 55.5898H284.228V102.167H362.267V55.5898Z" fill="white"/>
</mask>
<g mask="url(#mask2_0_143)">
<path d="M359.121 55.6798C358.467 56.8508 357.769 57.9958 357.042 59.1228C356.993 59.3568 356.898 59.7228 356.666 60.5478C356.274 61.6885 355.813 62.8042 355.285 63.8888C353.568 66.9949 351.297 69.7607 348.585 72.0498C348.273 71.6536 347.827 71.3854 347.331 71.2958C346.835 71.2063 346.324 71.3016 345.893 71.5638C345.747 71.6448 345.593 71.7178 345.441 71.7908C345.37 71.8178 345.287 71.8468 345.175 71.8908C343.372 72.4965 341.532 72.9865 339.667 73.3578L340.275 73.2678C338.337 73.5056 336.378 73.5056 334.44 73.2678C334.306 73.2478 334.04 73.2138 333.796 73.1798C333.307 73.0604 332.793 73.1014 332.329 73.2968C332.208 73.2705 332.085 73.2518 331.961 73.2408C331.937 73.2068 331.9 73.1578 331.834 73.0748C331.814 73.0358 331.792 72.9988 331.773 72.9598C331.775 72.7459 331.759 72.5323 331.727 72.3208C331.645 71.9358 331.483 71.5726 331.249 71.2556C331.016 70.9385 330.718 70.6748 330.375 70.4822C330.032 70.2896 329.651 70.1724 329.259 70.1386C328.867 70.1047 328.472 70.1549 328.101 70.2858C326.576 70.7368 325.973 72.4858 326.176 73.9778C325.986 74.5256 325.767 75.0633 325.522 75.5888C324.431 77.5628 323.138 79.4298 321.857 81.2888C321.613 81.6478 320.9 82.5528 320.791 82.7218C320.732 82.7948 320.674 82.8658 320.615 82.9368C319.115 84.7038 315.981 87.7368 312.815 89.0038L312.769 89.0208C312.007 89.2431 311.226 89.3927 310.436 89.4678C310.221 89.4678 309.95 89.4678 309.711 89.4408C309.594 89.4118 309.474 89.3898 309.362 89.3528C309.079 89.2528 308.803 89.1458 308.53 89.0258L308.313 88.9058C308.213 88.8448 308.113 88.7768 308.013 88.7128C307.128 88.7909 306.237 88.6483 305.421 88.2978C304.549 88.1498 303.733 87.7734 303.054 87.2068C302.68 86.886 302.343 86.524 302.049 86.1278C302.007 86.0738 301.966 86.0158 301.922 85.9598C301.866 85.9172 301.812 85.8715 301.761 85.8228C301.617 85.6838 301.473 85.5448 301.331 85.4058C300.375 84.4726 299.536 83.427 298.831 82.2918L298.76 82.3018C298.27 82.4114 297.816 82.643 297.44 82.9752C297.063 83.3074 296.777 83.7294 296.608 84.2018C296.503 84.6313 296.365 85.0522 296.196 85.4608C296.147 85.5778 296.096 85.6898 296.04 85.8048C296.023 85.8388 295.986 85.9048 295.923 86.0438L295.933 86.0318L295.884 86.1318C295.237 87.0008 294.764 88.0038 294.076 88.8478C293.81 89.1798 293.524 89.4998 293.244 89.8188C293.168 89.9038 293.078 90.0038 292.988 90.1088C292.951 90.1478 292.915 90.1898 292.871 90.2378C291.423 91.8345 289.836 93.2995 288.129 94.6158C286.994 95.6698 285.31 96.2948 284.59 97.7078C283.014 100.646 286.908 103.631 289.39 101.398C293.053 98.8392 296.231 95.6488 298.776 91.9758C299.186 91.3658 299.569 90.7388 299.918 90.0918C301.938 92.3116 304.402 94.083 307.149 95.2918C311.307 96.7048 315.856 95.1238 319.249 92.5858C321.577 90.8858 323.627 88.8351 325.326 86.5068C326.966 84.3627 328.39 82.0615 329.577 79.6368C330.819 80.8447 332.281 81.8033 333.884 82.4608C336.124 83.3078 338.575 83.423 340.884 82.7898C340.784 82.8238 340.677 82.8628 340.596 82.8898C340.825 82.8438 341.052 82.7898 341.279 82.7338C344.14 81.865 346.825 80.497 349.21 78.6928C352.802 76.2028 355.881 73.0455 358.281 69.3928C359.763 67.072 360.845 64.5189 361.481 61.8398C361.581 61.1688 361.52 61.7618 361.425 62.1128C361.718 61.1128 361.925 60.0868 362.118 59.0628C362.316 58.475 362.313 57.8381 362.111 57.2518C361.92 56.6499 361.499 56.1479 360.939 55.8557C360.38 55.5636 359.727 55.505 359.124 55.6928" fill="black"/>
</g>
</g>
<g opacity="0.129">
<mask id="mask3_0_143" style="mask-type:luminance" maskUnits="userSpaceOnUse" x="384" y="69" width="25" height="21">
<path d="M408.615 69.1028H384.494V89.2628H408.615V69.1028Z" fill="white"/>
</mask>
<g mask="url(#mask3_0_143)">
<path d="M408.026 69.8907C406.698 68.3557 404.905 69.4077 403.45 70.1467C401.29 71.2107 398.999 71.9697 396.817 72.9797C395.238 73.7931 393.615 74.5188 391.956 75.1537L392.002 75.1367C391.482 75.3217 391.077 75.4737 392.002 75.1467C391.123 75.5007 390.15 75.6667 389.302 76.0767C388.997 75.6911 388.587 75.4021 388.121 75.2447C387.61 75.081 387.063 75.0704 386.546 75.2141C386.029 75.3579 385.565 75.6498 385.213 76.0539C384.86 76.4579 384.633 76.9564 384.56 77.4879C384.487 78.0193 384.571 78.5605 384.802 79.0447C385.694 80.6085 386.479 82.2309 387.152 83.9007C387.767 86.4437 388.926 90.4437 392.333 88.9227C392.966 88.5667 393.465 88.0141 393.756 87.3487C393.712 87.5757 395.015 85.7327 395.379 85.3747C396.799 83.6127 399.618 80.7697 402.393 77.9437C403.847 76.5327 405.353 75.1737 406.927 73.8977C407.051 73.8077 407.181 73.7217 407.31 73.6337C407.417 73.5607 407.583 73.4487 407.749 73.3267C407.996 73.1208 408.199 72.8679 408.347 72.5827C408.495 72.2974 408.585 71.9857 408.611 71.6655C408.637 71.3452 408.6 71.023 408.5 70.7174C408.401 70.4119 408.242 70.1292 408.032 69.8857" fill="black"/>
</g>
</g>
<g opacity="0.129">
<mask id="mask4_0_143" style="mask-type:luminance" maskUnits="userSpaceOnUse" x="329" y="178" width="68" height="43">
<path d="M396.693 178.278H329.995V220.482H396.693V178.278Z" fill="white"/>
</mask>
<g mask="url(#mask4_0_143)">
<path d="M395.786 215.497C394.915 212.935 394.036 210.37 393.304 207.761C391.683 202.29 390.25 196.774 389.004 191.215C387.459 187.147 385.99 183.047 384.816 178.852C384.798 178.788 384.784 178.723 384.773 178.657C384.739 178.42 384.783 178.308 384.761 178.289C384.502 178.023 379.824 182.54 379.824 182.54C377.177 185.015 374.399 187.346 371.502 189.522C367.233 192.618 362.422 194.887 357.318 196.211C350.768 198.094 343.942 198.835 337.141 198.4C334.181 198.3 331.718 198.049 329.993 197.824C330.342 198.569 330.789 199.264 331.321 199.891C333.598 202.566 336.834 202.922 339.662 203.857C342.903 204.928 346.143 205.995 349.382 207.057C355.944 209.209 362.511 211.357 369.098 213.434C372.165 214.405 375.243 215.349 378.332 216.265C381.304 217.195 384.373 217.779 387.479 218.005L386.62 217.968C386.888 218.012 387.154 218.051 387.425 218.083C387.787 218.106 388.147 218.149 388.504 218.21C389.339 218.571 390.176 218.923 391.027 219.25C391.816 219.536 392.624 219.768 393.445 219.943C393.75 220.234 394.141 220.418 394.559 220.469C394.977 220.519 395.401 220.434 395.766 220.224C397.601 219.119 396.21 217.015 395.783 215.495" fill="black"/>
</g>
</g>
<g opacity="0.129">
<mask id="mask5_0_143" style="mask-type:luminance" maskUnits="userSpaceOnUse" x="358" y="280" width="12" height="12">
<path d="M369.613 280.592H358.56V291.002H369.613V280.592Z" fill="white"/>
</mask>
<g mask="url(#mask5_0_143)">
<path d="M364.761 282.845C363.964 281.982 362.942 281.359 361.811 281.045C358.746 280.52 357.282 284.845 359.968 286.382C361.265 287.219 362.491 288.16 363.634 289.197C364.347 289.949 364.998 290.937 366.145 290.957C366.571 291.006 367.003 290.957 367.407 290.815C367.811 290.672 368.178 290.439 368.479 290.134C368.78 289.829 369.008 289.459 369.145 289.053C369.282 288.646 369.324 288.214 369.269 287.789C369.437 285.289 369.086 284.944 369.542 283.589C370.247 280.089 365.296 279.413 364.759 282.842" fill="black"/>
</g>
</g>
<g opacity="0.129">
<mask id="mask6_0_143" style="mask-type:luminance" maskUnits="userSpaceOnUse" x="370" y="268" width="20" height="19">
<path d="M389.633 268.895H370.874V286.418H389.633V268.895Z" fill="white"/>
</mask>
<g mask="url(#mask6_0_143)">
<path d="M388.381 281.532C387.664 280.353 386.187 279.724 385.262 278.701C383.309 276.982 381.527 275.078 379.942 273.015C379.408 272.3 378.851 271.6 378.38 270.841C378.212 270.414 377.955 270.029 377.625 269.712C377.294 269.394 376.9 269.151 376.467 269.001C375.984 268.878 375.476 268.899 375.005 269.063C374.534 269.226 374.121 269.523 373.818 269.918C373.514 270.313 373.333 270.789 373.297 271.286C373.261 271.783 373.371 272.28 373.614 272.715C373.885 273.137 374.173 273.552 374.458 273.964C374.24 273.854 374.002 273.792 373.758 273.783C371.037 273.314 369.736 277.161 372.123 278.52C374.981 280.101 377.751 281.82 380.518 283.555C382.45 284.735 384.515 285.683 386.67 286.379C389.452 286.855 390.787 282.943 388.378 281.532" fill="black"/>
</g>
</g>
<g opacity="0.129">
<mask id="mask7_0_143" style="mask-type:luminance" maskUnits="userSpaceOnUse" x="333" y="268" width="22" height="16">
<path d="M354.019 268.229H333.434V283.133H354.019V268.229Z" fill="white"/>
</mask>
<g mask="url(#mask7_0_143)">
<path d="M353.665 274.249C353.001 273.024 352.423 271.762 351.665 270.586C351.304 269.971 351.104 269.197 350.459 268.812C350.134 268.558 349.754 268.385 349.349 268.308C348.945 268.23 348.527 268.249 348.132 268.364C347.736 268.479 347.373 268.687 347.074 268.97C346.774 269.253 346.546 269.603 346.408 269.991C346.322 270.001 346.236 270.015 346.152 270.035C345.073 270.316 344.417 271.287 343.675 272.041C343.045 272.565 342.599 273.278 342.404 274.074L342.382 274.118C342.194 274.421 342.061 274.756 341.989 275.106C340.901 275.521 339.827 275.987 338.768 276.492C337.168 277.28 335.212 277.724 333.992 279.076C333.644 279.538 333.466 280.105 333.487 280.683C333.509 281.261 333.729 281.813 334.11 282.248C334.492 282.682 335.011 282.972 335.581 283.068C336.151 283.165 336.737 283.061 337.24 282.776C339.494 281.695 341.802 280.732 344.156 279.891C345.99 279.355 347.852 278.916 349.732 278.576C350.164 278.462 350.569 278.264 350.925 277.993C351.406 278.099 351.907 278.063 352.367 277.89C352.828 277.716 353.228 277.412 353.518 277.015C353.809 276.618 353.978 276.144 354.004 275.653C354.03 275.161 353.913 274.673 353.666 274.247" fill="black"/>
</g>
</g>
<g opacity="0.129">
<mask id="mask8_0_143" style="mask-type:luminance" maskUnits="userSpaceOnUse" x="370" y="427" width="17" height="56">
<path d="M386.133 427.478H370.554V482.245H386.133V427.478Z" fill="white"/>
</mask>
<g mask="url(#mask8_0_143)">
<path d="M385.297 443.953C385.146 441.113 384.58 438.31 383.618 435.634C382.988 433.755 382.16 431.949 381.148 430.246C380.482 429.16 379.806 427.92 378.466 427.61C377.836 427.447 377.173 427.473 376.558 427.685C375.943 427.896 375.404 428.284 375.008 428.799C374.612 429.315 374.376 429.935 374.329 430.584C374.283 431.232 374.428 431.88 374.747 432.447L374.764 432.476C374.425 433.408 373.702 434.321 373.864 435.334C373.909 435.676 374.037 436.001 374.237 436.283C374.436 436.564 374.701 436.792 375.009 436.948C375.317 437.103 375.658 437.181 376.003 437.174C376.348 437.168 376.686 437.078 376.988 436.911C377.552 438.621 378 440.367 378.33 442.138C378.752 446.279 379.187 450.428 379.194 454.596C379.131 457.488 379.157 460.396 378.889 463.272C378.41 466.416 377.713 469.524 376.802 472.572C376.734 472.465 376.673 472.352 376.602 472.247C376.011 471.547 375.543 470.602 374.616 470.319C371.739 468.991 369.169 472.867 371.416 475.068C371.599 475.268 371.843 475.549 372.009 475.746C372.06 475.822 372.109 475.9 372.158 475.98C372.168 476.019 372.185 476.058 372.192 476.097C372.209 476.415 372.197 476.735 372.155 477.051L372.162 477.005V477.088C372.123 477.3 372.101 477.516 372.096 477.732C372.023 478.305 372.131 478.887 372.404 479.396C372.631 479.81 372.984 480.141 373.412 480.342C373.639 481.005 374.108 481.559 374.725 481.892C375.342 482.226 376.061 482.315 376.741 482.142C377.895 481.859 378.441 480.717 379.264 479.965C380.767 478.357 382.055 476.562 383.095 474.623C384.955 470.493 385.984 466.038 386.124 461.511C386.204 455.645 385.927 449.779 385.294 443.947" fill="black"/>
</g>
</g>
<g opacity="0.129">
<mask id="mask9_0_143" style="mask-type:luminance" maskUnits="userSpaceOnUse" x="638" y="308" width="19" height="54">
<path d="M656.076 308.026H638.166V361.902H656.076V308.026Z" fill="white"/>
</mask>
<g mask="url(#mask9_0_143)">
<path d="M656.002 311.365C655.563 307.209 649.502 306.816 648.41 310.848C646.772 317.169 645.835 323.658 644.149 329.971C642.649 335.886 641.049 341.778 639.849 347.761C639.537 349.811 639.222 351.856 639.073 353.923C639.046 354.072 639.019 354.223 638.99 354.37C638.829 355.203 638.624 356.028 638.377 356.84L638.36 356.894C638.348 356.938 638.338 356.979 638.326 357.021L638.336 356.997C638.054 357.893 638.113 358.861 638.501 359.717C638.889 360.572 639.579 361.254 640.439 361.632C641.299 362.01 642.268 362.058 643.161 361.765C644.053 361.472 644.807 360.861 645.276 360.047C645.266 360.047 645.249 360.062 645.23 360.081C645.968 358.608 646.445 357.017 646.638 355.381C647.79 350.971 648.212 346.41 649.288 341.981C651.133 333.886 653.127 325.823 654.788 317.687C655.049 316.428 655.281 315.159 655.64 313.919C655.984 313.116 656.107 312.235 655.996 311.369" fill="black"/>
</g>
</g>
<g opacity="0.129">
<mask id="mask10_0_143" style="mask-type:luminance" maskUnits="userSpaceOnUse" x="376" y="324" width="239" height="177">
<path d="M614.225 324.098H376.958V500.877H614.225V324.098Z" fill="white"/>
</mask>
<g mask="url(#mask10_0_143)">
<path d="M610.387 487.176C609.103 484.018 608.2 480.724 607.136 477.488C605.747 473.425 604.125 469.447 602.719 465.388C600.762 459.936 599.405 455.419 597.982 450.963C589.306 430.805 581.031 410.477 572.931 390.08C564.253 368.221 555.992 346.202 547.966 324.097C547.531 324.324 547.187 324.694 546.994 325.145C546.8 325.596 546.768 326.1 546.904 326.572C550.767 339.052 556.026 351.044 560.426 363.341C565.658 379.296 570.485 395.405 574.339 411.756C575.196 415.129 576.186 418.465 577.184 421.798C576.687 421.726 576.179 421.778 575.707 421.949C575.235 422.121 574.812 422.406 574.477 422.78C574.141 423.154 573.904 423.605 573.784 424.093C573.665 424.581 573.669 425.091 573.794 425.578C576.247 438.72 578.316 447.768 578.663 460.397C578.722 462.366 578.753 464.336 578.773 466.303C578.442 466.433 578.134 466.613 577.858 466.837C577.548 467.04 577.28 467.302 577.07 467.608C577.563 465.619 578.015 463.622 578.427 461.617C578.099 461.586 577.769 461.628 577.459 461.739C577.149 461.849 576.867 462.027 576.633 462.259C575.991 462.842 575.991 463.726 575.798 464.509C575.063 467.115 575.207 467.015 574.041 468.809C574.012 468.851 573.982 468.887 573.951 468.929C573.873 469.029 573.778 469.144 573.675 469.261C570.177 473.036 566.34 476.481 562.212 479.555C555.564 484.294 551.628 485.815 544.326 488.192C542.108 488.909 539.877 489.592 537.626 490.192C532.875 490.251 528.094 490.602 523.347 490.468C515.735 490.268 508.163 489.404 500.568 488.916C489.515 488.528 477.174 488.333 468.76 486.7C461.497 484.892 454.003 484.906 446.599 484.135C439.959 483.525 437.65 483.105 431.739 482.373C427.529 481.914 421.345 481.353 419.82 481.036C413.626 480.001 401.339 477.736 399.086 477.58C395.165 476.95 391.205 476.587 387.235 476.494C386.054 476.587 384.78 476.194 383.677 476.694C383.222 476.865 382.823 477.156 382.521 477.536C382.219 477.917 382.027 478.372 381.964 478.854C381.203 478.81 380.44 478.764 379.675 478.717C379.308 478.701 378.943 478.782 378.618 478.954C375.873 480.003 376.744 484.237 379.675 484.206C385.516 484.432 391.342 484.961 397.129 485.79C400.419 486.298 403.716 486.783 407.029 487.13C408.471 487.137 410.045 487.779 411.429 487.242C411.951 487.049 412.39 486.681 412.671 486.2C413.252 486.327 413.832 486.453 414.413 486.578C423.957 488.604 431.632 488.855 439.398 490.078C446.98 491.035 454.598 491.637 462.206 492.287C463.922 492.592 471.143 493.805 476.333 494.164C476.473 494.703 476.79 495.179 477.234 495.516C477.677 495.853 478.221 496.031 478.778 496.021C482.7 496.321 486.597 496.834 490.509 497.221C491.59 499.19 493.389 498.607 495.685 499.09C500.7 499.624 505.744 499.507 510.779 499.659C515.972 499.849 521.16 500.259 526.361 500.167C530.768 500.126 535.151 499.596 539.534 499.159C543.229 498.847 547.043 498.8 550.55 497.5C550.53 497.893 550.591 498.286 550.727 498.656C550.864 499.025 551.074 499.363 551.346 499.648C551.617 499.933 551.943 500.161 552.305 500.316C552.667 500.472 553.056 500.552 553.45 500.553C554.497 500.602 555.832 500.575 557.289 500.499C557.318 500.628 557.37 500.748 557.411 500.872C559.078 500.701 560.746 500.54 562.416 500.389C572.639 499.469 582.847 499.022 593.109 498.976C593.289 498.783 593.453 498.576 593.6 498.356C594.037 498.364 594.472 498.294 594.884 498.149C595.199 498.511 595.598 498.791 596.046 498.964C600.497 498.947 604.946 498.918 609.392 498.759C610.551 498.718 611.709 498.668 612.865 498.61C613.299 498.328 613.653 497.938 613.891 497.478C614.129 497.018 614.244 496.504 614.224 495.987C614.024 494.24 613.024 492.675 612.286 491.104C611.612 489.813 610.966 488.504 610.386 487.172M564.614 490.252C562.562 492.685 562.366 492.968 560.846 494.611C560.002 494.645 559.157 494.672 558.313 494.687C557.69 494.735 557.065 494.742 556.441 494.707C560.235 492.395 563.732 489.627 566.854 486.466C567.337 486.044 567.818 485.603 568.296 485.143C567.103 486.871 565.865 488.569 564.613 490.253M595.193 464.617C595.056 463.377 594.918 462.136 594.778 460.895C594.983 461.537 595.186 462.181 595.398 462.821C595.657 463.621 595.923 464.421 596.198 465.221C595.9 464.963 595.559 464.76 595.19 464.621M604.766 493.842C605.546 493.61 606.211 493.096 606.635 492.402C606.879 492.89 607.128 493.381 607.399 493.893C606.459 493.866 605.593 493.851 604.766 493.842Z" fill="black"/>
</g>
</g>
<path d="M356.056 318.789C355.975 318.788 355.897 318.756 355.839 318.699C355.81 318.671 355.787 318.637 355.771 318.6C355.755 318.563 355.747 318.523 355.747 318.483C355.747 318.443 355.755 318.403 355.771 318.366C355.787 318.328 355.81 318.295 355.839 318.267L368.712 305.567C368.741 305.539 368.774 305.516 368.811 305.501C368.848 305.486 368.888 305.479 368.928 305.479C368.968 305.479 369.008 305.487 369.045 305.503C369.082 305.518 369.115 305.541 369.144 305.569C369.172 305.598 369.194 305.632 369.209 305.669C369.224 305.706 369.232 305.746 369.232 305.786C369.231 305.826 369.223 305.865 369.208 305.902C369.192 305.939 369.17 305.973 369.141 306.001L356.268 318.701C356.21 318.757 356.133 318.788 356.053 318.789" fill="black"/>
<path d="M356.998 309.721C356.937 309.721 356.878 309.704 356.827 309.67C356.776 309.637 356.737 309.589 356.714 309.533C356.69 309.477 356.684 309.415 356.696 309.356C356.708 309.296 356.738 309.242 356.781 309.199L367.223 298.757C367.251 298.728 367.285 298.706 367.322 298.69C367.359 298.675 367.399 298.667 367.439 298.667C367.479 298.667 367.519 298.674 367.557 298.69C367.594 298.705 367.627 298.728 367.656 298.756C367.684 298.784 367.707 298.818 367.723 298.855C367.738 298.892 367.746 298.932 367.746 298.972C367.746 299.012 367.738 299.052 367.723 299.089C367.708 299.127 367.685 299.16 367.657 299.189L357.215 309.633C357.157 309.69 357.079 309.721 356.998 309.721Z" fill="black"/>
<path d="M358.945 300.47C358.884 300.47 358.825 300.453 358.774 300.419C358.723 300.386 358.684 300.338 358.661 300.282C358.637 300.226 358.631 300.164 358.643 300.105C358.655 300.045 358.685 299.991 358.728 299.948L367.111 291.568C367.139 291.539 367.173 291.516 367.21 291.5C367.247 291.484 367.287 291.476 367.327 291.476C367.367 291.476 367.407 291.484 367.444 291.5C367.481 291.516 367.515 291.539 367.543 291.568C367.599 291.626 367.631 291.703 367.631 291.784C367.631 291.865 367.599 291.942 367.543 292L359.163 300.383C359.105 300.439 359.027 300.471 358.946 300.471" fill="black"/>
<path d="M361.149 291.606C361.088 291.606 361.029 291.589 360.978 291.555C360.927 291.522 360.888 291.474 360.865 291.418C360.841 291.362 360.835 291.3 360.847 291.241C360.859 291.181 360.889 291.126 360.932 291.084L366.467 285.552C366.495 285.523 366.529 285.5 366.566 285.484C366.603 285.468 366.643 285.46 366.683 285.46C366.723 285.46 366.763 285.468 366.8 285.484C366.837 285.5 366.871 285.523 366.899 285.552C366.955 285.609 366.987 285.687 366.987 285.768C366.987 285.849 366.955 285.926 366.899 285.984L361.366 291.519C361.308 291.575 361.23 291.606 361.149 291.606Z" fill="black"/>
<path d="M354.013 328.529C353.952 328.529 353.893 328.511 353.843 328.477C353.793 328.444 353.753 328.396 353.73 328.34C353.707 328.284 353.701 328.222 353.713 328.163C353.725 328.104 353.755 328.049 353.798 328.007L368.343 313.465C368.371 313.436 368.405 313.413 368.442 313.397C368.479 313.381 368.519 313.373 368.559 313.373C368.599 313.373 368.639 313.381 368.676 313.397C368.713 313.413 368.747 313.436 368.775 313.465C368.832 313.522 368.864 313.6 368.864 313.681C368.864 313.762 368.832 313.839 368.775 313.897L354.23 328.439C354.172 328.495 354.094 328.527 354.013 328.527" fill="black"/>
<path d="M352.976 339.079C352.915 339.079 352.856 339.062 352.805 339.028C352.754 338.995 352.715 338.947 352.692 338.891C352.668 338.835 352.662 338.773 352.674 338.714C352.686 338.654 352.716 338.6 352.759 338.557L369.034 322.28C369.092 322.224 369.17 322.192 369.251 322.192C369.332 322.192 369.41 322.224 369.468 322.28C369.525 322.338 369.557 322.416 369.557 322.497C369.557 322.578 369.525 322.656 369.468 322.714L353.195 338.991C353.135 339.046 353.058 339.077 352.976 339.079Z" fill="black"/>
<path d="M350.555 350.839C350.494 350.839 350.435 350.822 350.384 350.788C350.333 350.755 350.294 350.707 350.271 350.651C350.247 350.595 350.241 350.533 350.253 350.474C350.265 350.414 350.295 350.36 350.338 350.317L370.752 329.903C370.81 329.846 370.888 329.813 370.969 329.813C371.05 329.813 371.128 329.846 371.186 329.903C371.242 329.961 371.274 330.039 371.274 330.12C371.274 330.201 371.242 330.279 371.186 330.337L350.772 350.751C350.714 350.807 350.636 350.839 350.555 350.839Z" fill="black"/>
<path d="M348.74 362.511C348.679 362.511 348.62 362.494 348.569 362.46C348.518 362.427 348.479 362.379 348.456 362.323C348.432 362.267 348.426 362.205 348.438 362.146C348.45 362.086 348.48 362.032 348.523 361.989L372.223 338.289C372.281 338.232 372.359 338.199 372.44 338.199C372.521 338.199 372.599 338.232 372.657 338.289C372.713 338.347 372.745 338.425 372.745 338.506C372.745 338.587 372.713 338.665 372.657 338.723L348.957 362.423C348.899 362.479 348.821 362.511 348.74 362.511Z" fill="black"/>
<path d="M346.492 373.61C346.431 373.61 346.372 373.593 346.321 373.559C346.27 373.526 346.231 373.478 346.208 373.422C346.184 373.366 346.178 373.304 346.19 373.245C346.202 373.185 346.232 373.131 346.275 373.088L372.814 346.549C372.872 346.492 372.95 346.459 373.031 346.459C373.112 346.459 373.19 346.492 373.248 346.549C373.304 346.607 373.336 346.685 373.336 346.766C373.336 346.847 373.304 346.925 373.248 346.983L346.709 373.522C346.651 373.578 346.573 373.61 346.492 373.61Z" fill="black"/>
<path d="M345.359 384.266C345.278 384.266 345.2 384.235 345.142 384.178C345.086 384.12 345.054 384.042 345.054 383.961C345.054 383.88 345.086 383.802 345.142 383.744L373.956 354.93C374.013 354.873 374.091 354.84 374.172 354.84C374.253 354.84 374.331 354.873 374.388 354.93C374.445 354.987 374.477 355.065 374.477 355.146C374.477 355.227 374.445 355.305 374.388 355.362L345.577 384.178C345.519 384.234 345.441 384.266 345.36 384.266" fill="black"/>
<path d="M347.429 392.286C347.368 392.286 347.309 392.269 347.258 392.235C347.207 392.202 347.168 392.154 347.145 392.098C347.121 392.042 347.115 391.98 347.127 391.921C347.139 391.861 347.169 391.807 347.212 391.764L373.537 365.442C373.595 365.385 373.673 365.353 373.754 365.353C373.835 365.353 373.913 365.385 373.971 365.442C374.027 365.5 374.059 365.578 374.059 365.659C374.059 365.74 374.027 365.818 373.971 365.876L347.647 392.198C347.589 392.254 347.51 392.286 347.429 392.286Z" fill="black"/>
<path d="M350.556 398.858C350.495 398.858 350.436 398.841 350.385 398.807C350.335 398.774 350.295 398.726 350.272 398.67C350.248 398.614 350.242 398.552 350.254 398.493C350.266 398.433 350.296 398.379 350.339 398.336L373.523 375.15C373.551 375.12 373.585 375.096 373.623 375.08C373.66 375.063 373.701 375.055 373.742 375.054C373.783 375.053 373.823 375.061 373.862 375.077C373.9 375.092 373.934 375.115 373.963 375.144C373.992 375.173 374.015 375.207 374.03 375.245C374.046 375.283 374.054 375.324 374.053 375.365C374.052 375.406 374.044 375.447 374.027 375.484C374.011 375.522 373.987 375.556 373.957 375.584L350.773 398.77C350.714 398.825 350.637 398.857 350.556 398.858Z" fill="black"/>
<path d="M352.554 405.608C352.493 405.609 352.434 405.591 352.383 405.557C352.332 405.524 352.293 405.476 352.27 405.42C352.246 405.364 352.24 405.302 352.252 405.243C352.264 405.183 352.294 405.129 352.337 405.086L374.53 382.893C374.588 382.837 374.666 382.805 374.747 382.805C374.828 382.805 374.906 382.837 374.964 382.893C375.019 382.952 375.05 383.029 375.05 383.11C375.05 383.191 375.019 383.268 374.964 383.327L352.771 405.52C352.713 405.576 352.635 405.608 352.554 405.608Z" fill="black"/>
<path d="M355.456 411.397C355.395 411.398 355.336 411.38 355.285 411.346C355.234 411.313 355.195 411.265 355.172 411.209C355.148 411.153 355.142 411.091 355.154 411.032C355.166 410.972 355.196 410.918 355.239 410.875L372.621 393.494C372.679 393.437 372.757 393.405 372.838 393.405C372.919 393.405 372.997 393.437 373.055 393.494C373.111 393.552 373.143 393.63 373.143 393.711C373.143 393.792 373.111 393.87 373.055 393.928L355.675 411.308C355.617 411.364 355.539 411.396 355.458 411.396" fill="black"/>
<path d="M358.684 416.695C358.623 416.695 358.564 416.678 358.513 416.644C358.462 416.611 358.423 416.563 358.4 416.507C358.376 416.451 358.37 416.389 358.382 416.33C358.394 416.27 358.424 416.216 358.467 416.173L367.655 406.985C367.713 406.93 367.79 406.9 367.87 406.901C367.95 406.902 368.027 406.934 368.083 406.991C368.14 407.047 368.172 407.124 368.173 407.204C368.174 407.284 368.144 407.361 368.089 407.419L358.901 416.607C358.843 416.663 358.765 416.695 358.684 416.695Z" fill="black"/>
<path d="M360.949 423.011C360.872 423.011 360.799 422.982 360.742 422.93C360.712 422.903 360.689 422.87 360.672 422.833C360.655 422.797 360.645 422.758 360.644 422.717C360.642 422.677 360.649 422.637 360.662 422.6C360.676 422.562 360.698 422.527 360.725 422.498L364.976 417.905C365.031 417.846 365.107 417.811 365.188 417.808C365.269 417.805 365.348 417.834 365.407 417.889C365.466 417.944 365.501 418.02 365.504 418.101C365.507 418.182 365.478 418.261 365.423 418.32L361.174 422.913C361.145 422.944 361.11 422.969 361.072 422.986C361.033 423.003 360.991 423.012 360.949 423.013" fill="black"/>
<path d="M354.968 269.813C354.925 269.812 354.883 269.803 354.843 269.786C354.804 269.769 354.769 269.744 354.739 269.713C354.712 269.683 354.692 269.648 354.679 269.61C354.666 269.572 354.661 269.531 354.663 269.491C354.666 269.451 354.676 269.412 354.694 269.376C354.711 269.34 354.736 269.308 354.766 269.281L362.807 262.145C362.837 262.118 362.872 262.098 362.91 262.085C362.948 262.072 362.988 262.066 363.029 262.069C363.069 262.071 363.108 262.082 363.144 262.1C363.18 262.117 363.212 262.142 363.239 262.172C363.266 262.202 363.287 262.236 363.3 262.274C363.313 262.312 363.319 262.352 363.316 262.392C363.314 262.432 363.303 262.471 363.285 262.507C363.267 262.543 363.242 262.575 363.212 262.601L355.171 269.739C355.115 269.787 355.044 269.814 354.971 269.815" fill="black"/>
<path d="M357.386 275.35C357.305 275.35 357.227 275.318 357.169 275.262C357.112 275.204 357.08 275.126 357.08 275.045C357.08 274.964 357.112 274.886 357.169 274.828L368.983 263.017C369.041 262.96 369.119 262.927 369.2 262.927C369.281 262.927 369.359 262.96 369.417 263.017C369.472 263.076 369.503 263.153 369.503 263.234C369.503 263.315 369.472 263.392 369.417 263.451L357.603 275.265C357.545 275.321 357.467 275.353 357.386 275.353" fill="black"/>
<path d="M361.279 278.808C361.198 278.807 361.12 278.775 361.062 278.718C361.005 278.66 360.973 278.583 360.973 278.502C360.973 278.421 361.005 278.343 361.062 278.286L370.15 269.2C370.179 269.172 370.212 269.149 370.249 269.134C370.287 269.119 370.326 269.111 370.366 269.111C370.407 269.112 370.446 269.12 370.483 269.135C370.52 269.151 370.554 269.173 370.582 269.202C370.61 269.23 370.633 269.264 370.648 269.301C370.663 269.338 370.671 269.378 370.67 269.418C370.67 269.458 370.662 269.498 370.647 269.535C370.631 269.572 370.609 269.606 370.58 269.634L361.492 278.72C361.464 278.748 361.43 278.77 361.393 278.785C361.356 278.801 361.317 278.808 361.277 278.808" fill="black"/>
</g>
</g>
</svg>
