<svg width="31" height="41" viewBox="0 0 31 41" fill="none" xmlns="http://www.w3.org/2000/svg">
<g id="Group 207">
<g id="Clip path group">
<mask id="mask0_0_364" style="mask-type:luminance" maskUnits="userSpaceOnUse" x="0" y="0" width="31" height="41">
<g id="clip-path-17">
<path id="Rectangle 81" d="M30.676 0.0970459H0.325012V40.903H30.676V0.0970459Z" fill="white"/>
</g>
</mask>
<g mask="url(#mask0_0_364)">
<g id="Group 205">
<g id="Group 204">
<g id="Clip path group_2">
<mask id="mask1_0_364" style="mask-type:luminance" maskUnits="userSpaceOnUse" x="0" y="0" width="31" height="41">
<g id="clip-path-17_2">
<path id="Rectangle 81_2" d="M30.676 0.0970459H0.325012V40.903H30.676V0.0970459Z" fill="white"/>
</g>
</mask>
<g mask="url(#mask1_0_364)">
<g id="Group 203">
<path id="Path 595" d="M30.081 5.27599C29.717 17.0627 29.8273 28.8507 30.412 40.64C20.461 40.318 10.595 40.22 0.741013 40.482C0.531013 28.547 0.600013 16.798 0.597013 4.91699C10.18 4.91699 19.762 4.91699 30.081 5.27599Z" fill="white"/>
<path id="Path 596" d="M30.412 40.904H30.403C19.609 40.554 9.90901 40.504 0.748014 40.746C0.712976 40.748 0.677907 40.7425 0.645145 40.73C0.612383 40.7174 0.582679 40.6979 0.558014 40.673C0.53287 40.6489 0.512762 40.62 0.498858 40.5881C0.484953 40.5562 0.477528 40.5218 0.477014 40.487C0.311014 30.996 0.325014 21.448 0.325014 12.21C0.325014 9.78265 0.325014 7.35131 0.325014 4.91598C0.324451 4.88021 0.331166 4.84469 0.34475 4.81159C0.358335 4.77849 0.378506 4.7485 0.404038 4.72343C0.429571 4.69837 0.459931 4.67876 0.493277 4.66578C0.526622 4.65281 0.562256 4.64676 0.598014 4.64798C10.023 4.64798 19.768 4.64798 30.091 5.00698C30.1607 5.00959 30.2265 5.03965 30.2741 5.09061C30.3217 5.14157 30.3472 5.20929 30.345 5.27898C29.983 17.008 30.095 28.899 30.676 40.622C30.6778 40.6577 30.6723 40.6935 30.6598 40.727C30.6473 40.7606 30.6281 40.7912 30.6034 40.8171C30.5787 40.843 30.549 40.8636 30.5161 40.8777C30.4832 40.8918 30.4478 40.899 30.412 40.899M12.361 40.062C17.992 40.062 23.879 40.162 30.134 40.362C29.568 28.806 29.459 17.089 29.808 5.52598C19.688 5.17598 10.118 5.17498 0.860014 5.17598C0.860014 7.52331 0.860014 9.86665 0.860014 12.206C0.851014 21.353 0.842014 30.806 1.00301 40.206C4.69001 40.106 8.46501 40.063 12.364 40.063" fill="black"/>
<path id="Path 597" d="M27.243 7.09301C26.7468 17.3525 26.8804 27.6328 27.643 37.876C19.564 37.74 11.517 37.602 3.49101 37.908C3.40201 27.508 3.17501 17.308 2.99701 7.06201C11.397 7.14501 19.497 7.16201 27.246 7.09301" fill="white"/>
<path id="Path 598" d="M3.48801 38.171C3.41842 38.1708 3.35172 38.1431 3.30233 38.0941C3.25293 38.0451 3.2248 37.9786 3.22401 37.909C3.15801 30.245 3.01501 22.569 2.87701 15.146C2.82701 12.4527 2.77801 9.75903 2.73001 7.06503C2.72934 7.02977 2.73575 6.99474 2.74884 6.962C2.76193 6.92926 2.78145 6.89947 2.80625 6.8744C2.83104 6.84932 2.86061 6.82947 2.8932 6.81601C2.92579 6.80255 2.96075 6.79575 2.99601 6.79603C12.083 6.88603 20.014 6.89603 27.24 6.82703C27.2761 6.8267 27.312 6.83379 27.3453 6.84786C27.3785 6.86193 27.4086 6.88269 27.4335 6.90885C27.4585 6.935 27.4778 6.966 27.4902 6.99992C27.5027 7.03383 27.5081 7.06995 27.506 7.10603C27.0026 17.3544 27.1362 27.6242 27.906 37.856C27.9085 37.8925 27.9034 37.9292 27.891 37.9636C27.8786 37.998 27.8592 38.0295 27.834 38.056C27.8082 38.0828 27.777 38.1039 27.7426 38.118C27.7082 38.1321 27.6712 38.1389 27.634 38.138H27.521C19.634 38.005 11.478 37.867 3.49601 38.172H3.48601M3.26301 7.32803C3.30835 9.9327 3.35568 12.5357 3.40501 15.137C3.54201 22.473 3.68301 30.057 3.75001 37.637C11.6 37.347 19.607 37.479 27.359 37.61C26.6111 27.5452 26.4776 17.4441 26.959 7.36303C19.877 7.42903 12.118 7.41803 3.25901 7.33203" fill="black"/>
<path id="Path 599" d="M22.877 4.44303C21.892 4.39503 18.935 4.36403 17.934 4.34303C17.475 3.90803 17.984 1.74303 17.18 0.943033C16.7094 0.537412 16.1005 0.328943 15.48 0.361033C14.8582 0.310785 14.2401 0.494834 13.747 0.877033C12.898 1.69603 13.109 4.16203 12.93 4.33503C11.866 4.34903 8.74302 4.37103 7.67602 4.39703C7.67602 7.65003 8.97602 8.20503 12.1 8.30203C16.957 8.45403 19.952 8.43503 21.187 7.91903C21.8568 7.66165 22.4038 7.15958 22.7175 6.51431C23.0312 5.86904 23.0882 5.12873 22.877 4.44303ZM14.238 4.32303C14.238 3.63303 14.066 2.08403 15.52 2.08403C16.537 2.08403 16.32 4.16103 16.408 4.32403C15.6874 4.3187 14.964 4.3187 14.238 4.32403" fill="white"/>
<path id="Path 600" d="M16.347 8.65003C15.128 8.65003 13.712 8.61803 12.096 8.56803C8.86002 8.46803 7.41602 7.84103 7.41602 4.39903C7.41599 4.33021 7.44284 4.2641 7.49085 4.21479C7.53885 4.16547 7.60422 4.13686 7.67302 4.13503C8.38802 4.11703 10.026 4.10103 11.342 4.08903L12.732 4.07503C12.746 3.94903 12.758 3.76003 12.768 3.59803C12.825 2.69103 12.911 1.32103 13.568 0.689032C14.1085 0.261089 14.7892 0.0500138 15.477 0.0970318C16.1686 0.0625736 16.8464 0.299371 17.366 0.757032C17.8314 1.42875 18.044 2.24356 17.966 3.05703C17.9576 3.40176 17.9929 3.74616 18.071 4.08203L19.12 4.09703C20.407 4.11603 22.169 4.14203 22.889 4.17703C22.9488 4.17998 23.0058 4.20317 23.0507 4.24278C23.0956 4.28239 23.1257 4.33607 23.136 4.39503C23.3591 5.13976 23.2931 5.94121 22.9513 6.63945C22.6095 7.3377 22.017 7.88139 21.292 8.16203C19.6811 8.59208 18.0108 8.75623 16.347 8.64803M7.94702 4.65503C8.00702 7.43203 9.07702 7.94403 12.113 8.03903C16.891 8.18803 19.892 8.17703 21.089 7.67603C21.6731 7.46238 22.1567 7.03866 22.4451 6.48762C22.7336 5.93658 22.8063 5.2978 22.649 4.69603C21.843 4.66603 20.281 4.64303 19.112 4.62503L17.928 4.60703C17.8623 4.60536 17.7996 4.57934 17.752 4.53403C17.476 4.27303 17.457 3.74503 17.433 3.07603C17.4959 2.39639 17.3414 1.71434 16.992 1.12803C16.5746 0.775176 16.0376 0.596176 15.492 0.628032C14.9363 0.576988 14.3813 0.733359 13.934 1.06703C13.4754 1.84063 13.2536 2.7317 13.296 3.63003C13.261 4.19103 13.247 4.40003 13.117 4.53003C13.0686 4.57664 13.0042 4.60309 12.937 4.60403L11.347 4.62103C10.174 4.63203 8.74702 4.64603 7.94702 4.66103M16.407 4.59203C15.699 4.58603 14.97 4.58603 14.241 4.59203C14.2061 4.59276 14.1714 4.58631 14.139 4.57306C14.1067 4.55982 14.0774 4.54006 14.053 4.51503C14.0033 4.46549 13.9752 4.39824 13.975 4.32803C13.975 4.26903 13.975 4.20203 13.975 4.12803C13.8802 3.45558 14.0493 2.77252 14.447 2.22203C14.5896 2.08521 14.7588 1.97911 14.944 1.91031C15.1293 1.84151 15.3267 1.81146 15.524 1.82203C16.566 1.82203 16.618 3.26503 16.643 3.95903C16.643 4.05903 16.651 4.18603 16.658 4.23103C16.6734 4.271 16.6789 4.31412 16.6739 4.35667C16.6689 4.39922 16.6537 4.43992 16.6295 4.47526C16.6053 4.5106 16.5728 4.53951 16.5349 4.55951C16.497 4.57951 16.4549 4.58998 16.412 4.59003M15.271 4.05503H16.116C16.116 4.02903 16.116 4.00203 16.116 3.97303C16.097 3.44503 16.057 2.34503 15.525 2.34503C15.398 2.33521 15.2703 2.35162 15.1499 2.39326C15.0294 2.43489 14.9189 2.50085 14.825 2.58703C14.5457 3.02181 14.4315 3.54226 14.503 4.05403H15.275" fill="black"/>
<path id="Path 601" d="M7.76301 15.924H7.75801C7.7095 15.9229 7.66221 15.9086 7.6213 15.8825C7.58039 15.8564 7.54743 15.8195 7.52601 15.776C7.22737 15.1643 6.86468 14.5861 6.44401 14.051C6.42128 14.0239 6.40423 13.9925 6.39388 13.9586C6.38352 13.9248 6.38007 13.8893 6.38373 13.8541C6.38739 13.8189 6.39808 13.7848 6.41518 13.7538C6.43227 13.7228 6.45541 13.6956 6.48323 13.6738C6.51105 13.6519 6.54298 13.6359 6.57712 13.6266C6.61126 13.6173 6.64692 13.615 6.68197 13.6198C6.71702 13.6246 6.75076 13.6363 6.78117 13.6544C6.81159 13.6725 6.83806 13.6965 6.85901 13.725C7.19811 14.1564 7.50176 14.6146 7.76701 15.095L8.95401 12.886C8.98774 12.8254 9.04396 12.7805 9.11051 12.761C9.17707 12.7415 9.24862 12.749 9.30971 12.7818C9.37079 12.8147 9.4165 12.8702 9.43695 12.9365C9.45741 13.0028 9.45096 13.0744 9.41901 13.136L7.99601 15.785C7.97339 15.8271 7.93977 15.8622 7.89874 15.8867C7.8577 15.9112 7.81079 15.9241 7.76301 15.924Z" fill="black"/>
<path id="Path 602" d="M7.76301 22.8831H7.75801C7.7095 22.882 7.66221 22.8676 7.6213 22.8415C7.58038 22.8154 7.54742 22.7786 7.52601 22.7351C7.22757 22.1238 6.86521 21.5459 6.44501 21.0111C6.4044 20.9558 6.38687 20.887 6.39613 20.819C6.40539 20.7511 6.44071 20.6894 6.49462 20.6471C6.54854 20.6047 6.61682 20.585 6.68501 20.5921C6.7532 20.5992 6.81596 20.6325 6.86001 20.6851C7.19918 21.1165 7.50284 21.5746 7.76801 22.0551L8.95501 19.8461C8.98874 19.7855 9.04495 19.7406 9.11151 19.7211C9.17807 19.7016 9.24962 19.7091 9.31071 19.7419C9.37179 19.7748 9.4175 19.8303 9.43795 19.8966C9.4584 19.9629 9.45196 20.0345 9.42001 20.0961L7.99701 22.7451C7.97439 22.7872 7.94077 22.8223 7.89973 22.8468C7.8587 22.8713 7.81179 22.8842 7.76401 22.8841" fill="black"/>
<path id="Path 603" d="M7.24202 29.8421H7.23702C7.1885 29.841 7.14121 29.8266 7.1003 29.8005C7.05939 29.7744 7.02643 29.7376 7.00502 29.6941C6.70656 29.0825 6.34421 28.5043 5.92402 27.9691C5.90129 27.942 5.88424 27.9106 5.87388 27.8767C5.86353 27.8429 5.86008 27.8073 5.86374 27.7722C5.86739 27.737 5.87809 27.7029 5.89518 27.6719C5.91227 27.6409 5.93542 27.6137 5.96324 27.5919C5.99106 27.57 6.02299 27.554 6.05713 27.5447C6.09127 27.5354 6.12692 27.5331 6.16197 27.5379C6.19703 27.5427 6.23076 27.5544 6.26118 27.5725C6.29159 27.5906 6.31806 27.6146 6.33902 27.6431C6.67781 28.0745 6.98113 28.5327 7.24602 29.0131L8.43302 26.8041C8.46674 26.7435 8.52296 26.6986 8.58952 26.6791C8.65607 26.6596 8.72763 26.6671 8.78871 26.6999C8.84979 26.7328 8.8955 26.7883 8.91596 26.8546C8.93641 26.9209 8.92997 26.9925 8.89802 27.0541L7.47502 29.7031C7.45239 29.7452 7.41877 29.7803 7.37774 29.8048C7.33671 29.8293 7.2898 29.8422 7.24202 29.8421Z" fill="black"/>
<path id="Path 604" d="M14.021 16.0381C13.3337 16.0381 12.6477 16.0351 11.963 16.0291C11.893 16.0291 11.8258 16.0012 11.7763 15.9517C11.7268 15.9022 11.699 15.8351 11.699 15.7651C11.699 15.695 11.7268 15.6279 11.7763 15.5784C11.8258 15.5289 11.893 15.5011 11.963 15.5011C16.063 15.5381 20.214 15.4641 24.306 15.2821C24.3407 15.28 24.3755 15.285 24.4083 15.2967C24.441 15.3083 24.4711 15.3264 24.4968 15.3499C24.5224 15.3734 24.5431 15.4018 24.5576 15.4335C24.572 15.4651 24.58 15.4993 24.581 15.5341C24.584 15.6039 24.5591 15.6721 24.5119 15.7237C24.4646 15.7752 24.3989 15.8059 24.329 15.8091C20.911 15.9611 17.451 16.0381 14.016 16.0381" fill="black"/>
<path id="Path 605" d="M14.021 22.8631C13.3337 22.8631 12.6477 22.8601 11.963 22.8541C11.893 22.8541 11.8258 22.8262 11.7763 22.7767C11.7268 22.7272 11.699 22.6601 11.699 22.5901C11.699 22.52 11.7268 22.4529 11.7763 22.4034C11.8258 22.3539 11.893 22.3261 11.963 22.3261C16.063 22.3631 20.214 22.2891 24.306 22.1071C24.374 22.107 24.4395 22.1333 24.4886 22.1803C24.5377 22.2274 24.5668 22.2916 24.5698 22.3596C24.5728 22.4275 24.5494 22.494 24.5045 22.5451C24.4597 22.5963 24.3968 22.6281 24.329 22.6341C20.911 22.7861 17.451 22.8631 14.016 22.8631" fill="black"/>
<path id="Path 606" d="M14.204 29.689C13.5167 29.689 12.8307 29.6861 12.146 29.6801C12.076 29.6801 12.0089 29.6522 11.9593 29.6027C11.9098 29.5532 11.882 29.4861 11.882 29.4161C11.882 29.346 11.9098 29.2789 11.9593 29.2294C12.0089 29.1799 12.076 29.1521 12.146 29.1521C16.246 29.1891 20.397 29.1151 24.49 28.9331H24.502C24.572 28.9315 24.6398 28.9577 24.6905 29.0061C24.7411 29.0545 24.7704 29.121 24.772 29.191C24.7736 29.2611 24.7473 29.3289 24.6989 29.3795C24.6506 29.4301 24.584 29.4595 24.514 29.4611C21.096 29.6131 17.636 29.69 14.2 29.69" fill="black"/>
<g id="Group 196" opacity="0.129">
<g id="Group 195">
<g id="Clip path group_3">
<mask id="mask2_0_364" style="mask-type:luminance" maskUnits="userSpaceOnUse" x="8" y="5" width="16" height="5">
<g id="clip-path-19">
<path id="Rectangle 77" d="M23.452 5.62097H8.59201V9.64697H23.452V5.62097Z" fill="white"/>
</g>
</mask>
<g mask="url(#mask2_0_364)">
<g id="Group 194">
<path id="Path 607" d="M23.445 5.99994C23.4355 5.91492 23.4006 5.83476 23.3447 5.76997C23.2889 5.70519 23.2147 5.65881 23.132 5.63694C22.781 5.54794 22.575 5.84294 22.547 6.15694C22.541 6.23594 22.433 6.53594 22.447 6.51694C22.4122 6.60364 22.3721 6.68813 22.327 6.76994C22.302 6.83994 22.138 7.09494 22.09 7.16994C22.0464 7.22121 21.999 7.26902 21.948 7.31294C21.7807 7.44004 21.6038 7.55404 21.419 7.65394C21.157 7.74694 20.878 7.78094 20.619 7.86794C20.3906 7.95509 20.1568 8.02724 19.919 8.08394C19.577 8.09794 19.239 8.15594 18.9 8.19194C18.4762 8.23607 18.05 8.25277 17.624 8.24194C16.713 8.24194 15.802 8.34694 14.889 8.34194C13.939 8.29294 12.989 8.23194 12.04 8.17994C11.3214 8.17657 10.6095 8.04098 9.94001 7.77994C10.009 7.80794 10.063 7.83594 9.95501 7.78694L9.93301 7.77694L9.90401 7.76594L9.93101 7.77594C9.69391 7.63634 9.44246 7.52269 9.18101 7.43694C9.06411 7.42318 8.94602 7.4498 8.84632 7.51238C8.74663 7.57497 8.67133 7.66975 8.63292 7.78102C8.59451 7.89228 8.5953 8.01334 8.63515 8.12409C8.675 8.23485 8.75152 8.32865 8.85201 8.38994C9.60763 8.8758 10.4416 9.22731 11.317 9.42894C12.1339 9.53706 12.957 9.59251 13.781 9.59494C14.4422 9.64342 15.1058 9.65177 15.768 9.61994C16.4213 9.61769 17.0738 9.57192 17.721 9.48294C17.921 9.47194 19.107 9.32094 19.221 9.28294C19.6247 9.24061 20.0254 9.17382 20.421 9.08294C20.912 8.90994 21.415 8.76694 21.901 8.58294C22.1156 8.46742 22.3168 8.32858 22.501 8.16894L22.401 8.24894C22.6341 8.08433 22.8255 7.86757 22.96 7.61594C23.1662 7.22496 23.3173 6.80733 23.409 6.37494C23.4472 6.24964 23.4641 6.11883 23.459 5.98794" fill="black"/>
</g>
</g>
</g>
</g>
</g>
<g id="Group 202" opacity="0.129">
<g id="Group 201">
<g id="Clip path group_4">
<mask id="mask3_0_364" style="mask-type:luminance" maskUnits="userSpaceOnUse" x="3" y="7" width="26" height="32">
<g id="clip-path-21">
<path id="Rectangle 79" d="M28.456 7.22498H3.17302V38.939H28.456V7.22498Z" fill="white"/>
</g>
</mask>
<g mask="url(#mask3_0_364)">
<g id="Group 200">
<path id="Path 609" d="M28.263 31.526C28.184 30.464 28.209 29.397 28.118 28.335C28.018 26.785 27.85 25.235 27.786 23.685C27.806 22.835 27.623 21.999 27.63 21.148C27.59 19.848 27.686 18.548 27.723 17.255C27.748 15.475 27.696 13.693 27.858 11.918C27.8487 10.9177 27.9005 9.91789 28.013 8.92397C28.036 8.58397 28.023 8.24297 28.048 7.90397C28.048 7.86997 28.048 7.83697 28.054 7.80397C28.0634 7.75306 28.0634 7.70088 28.054 7.64997C28.0433 7.55324 28.0036 7.46201 27.94 7.38829C27.8765 7.31458 27.7921 7.26182 27.698 7.23697C26.765 7.07497 27.053 8.56297 26.922 9.23097C26.768 10.209 26.832 11.198 26.771 12.182C26.61 14.016 26.771 15.859 26.738 17.696C26.729 18.972 26.678 20.248 26.681 21.524C26.69 22.158 26.808 22.783 26.815 23.416C26.837 24.686 26.939 25.952 26.972 27.222C27.0733 28.9033 27.1247 30.5866 27.126 32.272C27.221 33.82 27.288 35.372 27.248 36.921C27.2501 37.1622 27.2109 37.402 27.132 37.63C26.5746 37.5689 26.0133 37.5502 25.453 37.574C24.037 37.574 22.622 37.543 21.206 37.562C20.157 37.577 19.106 37.673 18.061 37.682C16.474 37.69 14.886 37.697 13.299 37.668C12.6443 37.6115 11.9866 37.5968 11.33 37.624C9.77702 37.708 8.21902 37.632 6.66602 37.587C5.92147 37.5244 5.17314 37.5207 4.42802 37.576C4.25568 37.5742 4.08416 37.552 3.91702 37.51C3.76558 37.4682 3.60375 37.4883 3.46713 37.5658C3.33051 37.6434 3.23029 37.772 3.18852 37.9235C3.14674 38.0749 3.16684 38.2367 3.24439 38.3734C3.32193 38.51 3.45058 38.6102 3.60202 38.652C4.60707 38.7818 5.61871 38.8543 6.63202 38.869C7.95602 38.9203 9.28102 38.9433 10.607 38.938C11.497 38.896 12.386 38.878 13.277 38.913C16.116 38.964 18.955 38.936 21.789 38.763C23.389 38.663 24.989 38.777 26.584 38.687C26.949 38.66 27.316 38.743 27.678 38.687C27.7817 38.6579 27.8747 38.5993 27.9457 38.5183C28.0167 38.4374 28.0627 38.3376 28.078 38.231C28.1284 38.17 28.1646 38.0986 28.184 38.022C28.3661 37.2715 28.4524 36.5011 28.441 35.729C28.458 34.3268 28.3983 32.9247 28.262 31.529" fill="black"/>
</g>
</g>
</g>
</g>
</g>
</g>
</g>
</g>
</g>
</g>
</g>
</g>
</g>
</svg>
