<svg width="101" height="104" viewBox="0 0 101 104" fill="none" xmlns="http://www.w3.org/2000/svg">
<g id="Group 360">
<g id="Clip path group">
<mask id="mask0_0_1184" style="mask-type:luminance" maskUnits="userSpaceOnUse" x="0" y="0" width="101" height="104">
<g id="clip-path-72">
<path id="Rectangle 154" d="M100.421 72.8869L67.965 0L0.253169 30.1518L32.7094 103.039L100.421 72.8869Z" fill="white"/>
</g>
</mask>
<g mask="url(#mask0_0_1184)">
<g id="Group 359">
<path id="Path 1055" d="M100.002 71.9455L28.5716 17.5417C28.4931 19.6576 28.3464 20.8335 28.4174 21.999C28.9492 30.7957 29.634 39.5845 29.9904 48.3881C29.9826 50.2657 29.3762 52.0919 28.2594 53.6012C25.3733 57.4503 22.1111 61.0102 19.0379 64.717C18.3495 65.547 17.8309 66.5172 17.003 67.7719L27.9764 71.0166L26.4592 86.7078L99.6992 73.2085L100.002 71.9455ZM28.8917 84.0442L32.2444 52.5276L92.9711 71.6932L92.9428 72.2446C71.7696 76.1453 50.5992 80.0447 28.8917 84.0442ZM91.5192 68.2753L91.2303 68.7752C87.4505 67.5852 83.6713 66.3949 79.8926 65.2043C65.0934 60.5499 50.2895 55.9071 35.4809 51.2759C33.2707 50.592 32.0731 49.7202 32.1192 47.1061C32.1877 43.3244 31.7355 39.5369 31.5012 35.7521C31.2287 31.3326 30.953 26.9134 30.6407 21.8906L91.5198 68.2717M28.9401 56.3154L29.5506 56.555L28.2302 68.7087L20.5259 66.4672L28.9401 56.3154Z" fill="white"/>
</g>
</g>
</g>
</g>
</svg>
