<svg width="16" height="11" viewBox="0 0 16 11" fill="none" xmlns="http://www.w3.org/2000/svg">
<g id="Group 318">
<g id="Clip path group">
<mask id="mask0_0_1008" style="mask-type:luminance" maskUnits="userSpaceOnUse" x="0" y="0" width="16" height="11">
<g id="clip-path-57">
<path id="Rectangle 132" d="M15.094 0.376953H0V10.624H15.094V0.376953Z" fill="white"/>
</g>
</mask>
<g mask="url(#mask0_0_1008)">
<g id="Group 317">
<path id="Path 979" d="M7.29 10.625H7.27C7.09556 10.6275 6.92286 10.5901 6.76512 10.5155C6.60739 10.441 6.46881 10.3313 6.36 10.195L0.150999 1.70597C0.0806567 1.60614 0.0342907 1.49143 0.0155065 1.37076C-0.00327765 1.25009 0.00602631 1.12672 0.0426948 1.01023C0.0793634 0.893742 0.142408 0.787282 0.226926 0.69913C0.311444 0.610979 0.415157 0.543511 0.529999 0.501974C0.776012 0.380377 1.05562 0.344543 1.32435 0.400173C1.59308 0.455802 1.83548 0.5997 2.013 0.808974L7.33 8.07797L13.1 0.826974C13.2854 0.622884 13.5336 0.486419 13.8052 0.43915C14.0769 0.391882 14.3565 0.436508 14.6 0.565974C14.7124 0.612051 14.8126 0.683588 14.8927 0.774956C14.9727 0.866324 15.0305 0.975027 15.0614 1.09251C15.0923 1.20999 15.0956 1.33305 15.0709 1.452C15.0461 1.57094 14.9942 1.68253 14.919 1.77797L8.2 10.224C8.08712 10.3535 7.94702 10.4566 7.78972 10.5257C7.63241 10.5949 7.46177 10.6294 7.29 10.625Z" fill="black"/>
</g>
</g>
</g>
</g>
</svg>
