<svg width="224" height="224" viewBox="0 0 224 224" fill="none" xmlns="http://www.w3.org/2000/svg">
<g opacity="0.1">
<mask id="mask0_0_104" style="mask-type:luminance" maskUnits="userSpaceOnUse" x="0" y="0" width="224" height="224">
<path d="M223.591 0.182861H0.269043V223.505H223.591V0.182861Z" fill="white"/>
</mask>
<g mask="url(#mask0_0_104)">
<path d="M111.93 222.99C173.314 222.99 223.076 173.228 223.076 111.844C223.076 50.4595 173.314 0.697754 111.93 0.697754C50.5458 0.697754 0.784058 50.4595 0.784058 111.844C0.784058 173.228 50.5458 222.99 111.93 222.99Z" stroke="black" stroke-miterlimit="10"/>
<path d="M111.93 204.305C163.484 204.305 205.276 162.512 205.276 110.959C205.276 59.4052 163.484 17.6128 111.93 17.6128C60.3765 17.6128 18.584 59.4052 18.584 110.959C18.584 162.512 60.3765 204.305 111.93 204.305Z" stroke="black" stroke-miterlimit="10"/>
<path d="M205.276 110.958C205.276 110.958 205.245 110.445 205.21 109.445C205.15 108.445 205.187 106.953 205.01 105.008C204.636 99.3252 203.746 93.6884 202.351 88.1669C201.336 84.1818 200.057 80.2688 198.522 76.4539C196.715 71.9071 194.541 67.5149 192.022 63.3209C185.875 53.0744 177.838 44.0888 168.338 36.8419C156.8 28.0631 143.368 22.1044 129.116 19.4419C117.04 17.2142 104.645 17.3582 92.6241 19.8659C88.4016 20.7775 84.2431 21.9637 80.1751 23.4169C62.8615 29.7312 47.8038 41.0283 36.8991 55.8849C34.0525 59.7526 31.5141 63.8378 29.3071 68.1029C28.1611 70.2359 27.1831 72.4609 26.1821 74.6849C25.2821 76.9519 24.3551 79.2179 23.6141 81.5629C22.0408 86.258 20.8548 91.0741 20.0681 95.9629C19.2889 100.919 18.8818 105.927 18.8501 110.944C18.881 115.962 19.2868 120.972 20.0641 125.93C20.8503 130.82 22.0353 135.638 23.6071 140.336C24.3481 142.681 25.2771 144.949 26.1741 147.217C27.1741 149.441 28.1531 151.668 29.3001 153.801C31.5053 158.067 34.0428 162.154 36.8891 166.022C47.7969 180.884 62.8606 192.183 80.1811 198.496C84.2495 199.949 88.4083 201.135 92.6311 202.047C104.655 204.555 117.052 204.699 129.131 202.47C143.383 199.808 156.815 193.85 168.353 185.07C177.853 177.822 185.889 168.836 192.035 158.59C194.553 154.396 196.725 150.005 198.529 145.459C200.064 141.644 201.343 137.731 202.358 133.746C203.753 128.225 204.642 122.589 205.016 116.908C205.19 114.963 205.153 113.471 205.216 112.472C205.251 111.472 205.282 110.959 205.282 110.959C205.282 110.959 205.287 111.471 205.271 112.473C205.229 113.473 205.284 114.966 205.128 116.914C204.568 126.741 202.421 136.413 198.77 145.554C196.975 150.12 194.81 154.531 192.296 158.744C186.155 169.045 178.109 178.082 168.586 185.372C157.009 194.213 143.523 200.218 129.207 202.908C117.072 205.16 104.615 205.029 92.5311 202.521C88.2851 201.608 84.1032 200.418 80.0121 198.961C62.5928 192.626 47.4407 181.273 36.4681 166.334C33.6039 162.445 31.0503 158.336 28.8311 154.046C27.6771 151.901 26.6941 149.661 25.6861 147.425C24.7861 145.144 23.8481 142.864 23.1021 140.505C21.5203 135.781 20.328 130.935 19.5371 126.017C18.7541 121.03 18.3456 115.992 18.3151 110.945C18.3473 105.899 18.7574 100.863 19.5421 95.8789C20.3324 90.9618 21.5247 86.1179 23.1071 81.3959C23.8531 79.0379 24.7871 76.7579 25.6911 74.4779C26.6981 72.2409 27.6821 70.0039 28.8361 67.8589C31.0566 63.5708 33.6101 59.4635 36.4731 55.5749C47.4456 40.6397 62.5962 29.2893 80.0131 22.9559C84.1037 21.4977 88.2853 20.3084 92.5311 19.3959C104.614 16.8869 117.07 16.7548 129.204 19.0069C143.517 21.6968 157 27.7011 168.575 36.5389C178.098 43.8294 186.145 52.8667 192.287 63.1679C194.802 67.3809 196.967 71.7927 198.762 76.3589C202.413 85.5006 204.561 95.1729 205.122 105.001C205.279 106.95 205.222 108.445 205.265 109.444C205.281 110.444 205.276 110.958 205.276 110.958Z" fill="black"/>
<path d="M191.582 107.57C188.62 107.694 186.208 107.581 186.194 107.319C186.18 107.057 188.571 106.709 191.531 106.541C194.491 106.373 196.901 106.485 196.917 106.793C196.933 107.101 194.542 107.447 191.582 107.57Z" fill="black"/>
<path d="M189.594 129.061C186.707 128.386 184.414 127.631 184.471 127.376C184.528 127.121 186.923 127.425 189.82 128.056C192.717 128.687 195.01 129.44 194.941 129.74C194.872 130.04 192.479 129.74 189.594 129.061Z" fill="black"/>
<path d="M181.886 149.22C179.286 147.791 177.286 146.447 177.406 146.22C177.526 145.993 179.755 146.928 182.375 148.32C184.995 149.712 186.999 151.052 186.854 151.32C186.709 151.588 184.483 150.652 181.886 149.22Z" fill="black"/>
<path d="M169.054 166.572C166.931 164.501 165.354 162.672 165.538 162.481C165.722 162.29 167.613 163.791 169.767 165.829C171.921 167.867 173.494 169.697 173.281 169.919C173.068 170.141 171.175 168.641 169.054 166.572Z" fill="black"/>
<path d="M152.054 179.87C150.563 177.307 149.537 175.121 149.762 174.988C149.987 174.855 151.41 176.805 152.941 179.345C154.472 181.885 155.496 184.069 155.232 184.226C154.968 184.383 153.545 182.432 152.054 179.87Z" fill="black"/>
<path d="M132.106 188.105C131.362 185.234 130.964 182.852 131.218 182.785C131.472 182.718 132.318 184.978 133.102 187.839C133.886 190.7 134.287 193.076 133.99 193.157C133.693 193.238 132.849 190.974 132.106 188.105Z" fill="black"/>
<path d="M110.675 190.676C110.722 187.711 110.975 185.31 111.235 185.312C111.495 185.314 111.708 187.719 111.706 190.684C111.704 193.649 111.453 196.049 111.146 196.047C110.839 196.045 110.628 193.639 110.675 190.676Z" fill="black"/>
<path d="M89.3331 187.437C90.1761 184.594 91.0661 182.349 91.3181 182.423C91.5701 182.497 91.1271 184.869 90.3271 187.723C89.5271 190.577 88.6391 192.823 88.3431 192.736C88.0471 192.649 88.4891 190.277 89.3321 187.436" fill="black"/>
<path d="M69.666 178.564C71.243 176.053 72.703 174.129 72.925 174.264C73.147 174.399 72.081 176.564 70.543 179.102C69.005 181.64 67.543 183.56 67.285 183.402C67.027 183.244 68.09 181.075 69.666 178.565" fill="black"/>
<path d="M53.0811 164.747C55.2711 162.747 57.1911 161.283 57.3691 161.475C57.5471 161.667 55.9401 163.469 53.7811 165.502C51.6221 167.535 49.7031 169.002 49.4951 168.772C49.2871 168.542 50.8951 166.746 53.0811 164.747Z" fill="black"/>
<path d="M40.796 146.999C43.442 145.66 45.684 144.764 45.803 144.999C45.922 145.234 43.893 146.538 41.268 147.917C38.643 149.296 36.402 150.192 36.262 149.917C36.122 149.642 38.152 148.338 40.796 147" fill="black"/>
<path d="M33.7471 126.612C36.6561 126.037 39.0561 125.779 39.1091 126.036C39.1621 126.293 36.8551 127.002 33.9541 127.621C31.0531 128.24 28.6541 128.499 28.5931 128.197C28.5321 127.895 30.8401 127.187 33.7471 126.612Z" fill="black"/>
<path d="M32.4161 105.065C35.3731 105.284 37.7561 105.673 37.7391 105.935C37.7221 106.197 35.3091 106.268 32.3481 106.094C29.3871 105.92 27.0071 105.531 27.0261 105.224C27.0451 104.917 29.4611 104.847 32.4161 105.065Z" fill="black"/>
<path d="M36.8981 83.9508C39.6861 84.9598 41.8751 85.9768 41.7891 86.2238C41.7031 86.4708 39.3591 85.8878 36.5551 84.9238C33.7511 83.9598 31.5641 82.9388 31.6661 82.6488C31.7681 82.3588 34.1111 82.9428 36.8981 83.9488" fill="black"/>
<path d="M46.9011 64.8296C49.3161 66.5496 51.1531 68.1177 51.0011 68.3297C50.8491 68.5417 48.7501 67.3546 46.3081 65.6716C43.8661 63.9886 42.0331 62.4206 42.2081 62.1716C42.3831 61.9226 44.4851 63.1106 46.8991 64.8296" fill="black"/>
<path d="M61.6541 49.0787C63.5231 51.3787 64.8741 53.3787 64.6721 53.5477C64.4701 53.7167 62.7631 52.0067 60.8591 49.7337C58.9551 47.4607 57.6051 45.4607 57.8421 45.2657C58.0791 45.0707 59.7861 46.7777 61.6541 49.0787Z" fill="black"/>
<path d="M80.0841 37.8477C81.2651 40.5677 82.0291 42.8577 81.7901 42.9647C81.5511 43.0717 80.3661 40.9647 79.1421 38.2647C77.9181 35.5647 77.1571 33.2747 77.4421 33.1507C77.7271 33.0267 78.9091 35.1297 80.0891 37.8507" fill="black"/>
<path d="M100.862 32.0018C101.267 34.9398 101.385 37.3508 101.126 37.3888C100.867 37.4268 100.292 35.0818 99.8431 32.1508C99.3941 29.2198 99.2751 26.8098 99.5791 26.7648C99.8831 26.7198 100.457 29.0648 100.862 32.0018Z" fill="black"/>
<path d="M122.449 31.9168C122.057 34.8568 121.53 37.2168 121.27 37.1798C121.01 37.1428 121.08 34.7338 121.427 31.7888C121.774 28.8438 122.3 26.4888 122.605 26.5268C122.91 26.5648 122.84 28.9788 122.449 31.9168Z" fill="black"/>
<path d="M143.262 37.6307C142.092 40.3547 140.947 42.4817 140.706 42.3797C140.465 42.2777 141.183 39.9737 142.312 37.2317C143.441 34.4897 144.585 32.3657 144.868 32.4837C145.151 32.6017 144.432 34.9077 143.262 37.6307Z" fill="black"/>
<path d="M161.772 48.7328C159.915 51.0448 158.243 52.7868 158.038 52.6238C157.833 52.4608 159.138 50.4338 160.964 48.0938C162.79 45.7538 164.457 44.0128 164.697 44.2038C164.937 44.3948 163.628 46.4228 161.772 48.7328Z" fill="black"/>
<path d="M176.641 64.3748C174.234 66.1068 172.157 67.3388 172.004 67.1278C171.851 66.9168 173.653 65.3118 176.033 63.5428C178.413 61.7738 180.488 60.5428 180.669 60.7908C180.85 61.0388 179.047 62.6438 176.641 64.3748Z" fill="black"/>
<path d="M186.774 83.4297C183.989 84.4487 181.658 85.0767 181.566 84.8297C181.474 84.5827 183.644 83.5297 186.412 82.4627C189.18 81.3957 191.512 80.7737 191.618 81.0627C191.724 81.3517 189.557 82.4107 186.774 83.4297Z" fill="black"/>
<path d="M191.393 104.51C188.437 104.745 186.023 104.724 186 104.464C185.977 104.204 188.351 103.764 191.3 103.487C194.249 103.21 196.665 103.228 196.692 103.533C196.719 103.838 194.344 104.275 191.392 104.51" fill="black"/>
<path d="M76.6891 15.0918C76.5887 15.1516 76.4825 15.2008 76.3721 15.2388L75.4211 15.6268C74.5931 15.9758 73.3351 16.3968 71.7751 17.0898C67.3346 18.9459 63.0231 21.0964 58.8691 23.5268C56.2281 25.0468 53.4321 26.8728 50.4981 28.9268C47.4024 31.1519 44.4207 33.5312 41.5641 36.0558C28.3869 47.659 18.3263 62.3783 12.3011 78.8698C10.9855 82.4485 9.85075 86.0911 8.90106 89.7838C8.05206 93.2638 7.36606 96.5328 6.90906 99.5448C6.15158 104.299 5.7126 109.098 5.59506 113.911C5.51506 115.611 5.58006 116.94 5.55606 117.839C5.55106 118.265 5.54706 118.603 5.54406 118.861C5.54812 118.978 5.54041 119.095 5.52106 119.21C5.49787 119.096 5.48681 118.979 5.48806 118.863C5.47806 118.604 5.46406 118.263 5.44806 117.841C5.43806 116.941 5.33906 115.616 5.38606 113.908C5.42433 109.08 5.80899 104.261 6.53706 99.4878C6.97206 96.4608 7.63706 93.1748 8.47306 89.6758C9.4066 85.9621 10.5297 82.2986 11.8381 78.6998C17.8412 62.1057 27.9569 47.3062 41.2381 35.6868C44.1144 33.1612 47.1184 30.7848 50.2381 28.5668C53.1941 26.5188 56.0141 24.7048 58.6771 23.1998C62.8606 20.7887 67.2118 18.6809 71.6971 16.8928C73.2711 16.2278 74.5431 15.8378 75.3841 15.5208L76.3511 15.1878C76.4602 15.1443 76.5734 15.1122 76.6891 15.0918Z" stroke="black" stroke-miterlimit="10"/>
<path d="M111.308 8.56084C110.247 8.78287 109.171 8.92461 108.089 8.98484C106.099 9.19484 103.351 9.49284 100.323 9.88484C97.2951 10.2768 94.5631 10.6918 92.5841 10.9958C91.5225 11.2129 90.4461 11.3503 89.3641 11.4068C90.389 11.0485 91.4448 10.7858 92.5181 10.6218C94.4841 10.2218 97.2181 9.74784 100.255 9.35284C103.292 8.95784 106.055 8.72084 108.055 8.60684C109.136 8.49122 110.225 8.47582 111.308 8.56084Z" stroke="black" stroke-miterlimit="10"/>
<path d="M143.828 46.4626L123.399 110.78V110.79L123.358 110.924V110.934L123.348 110.955L123.121 110.666C122.404 108.633 121.102 106.858 119.379 105.563C119.266 105.481 119.152 105.398 119.039 105.326C117.79 104.452 116.366 103.861 114.865 103.594C113.235 103.304 111.56 103.385 109.965 103.831L109.903 103.604V103.594L110.089 103.294L143.828 46.4626Z" stroke="black" stroke-miterlimit="10"/>
<path d="M123.348 110.96L123.235 110.991C123.204 110.891 123.163 110.785 123.122 110.671L123.348 110.96Z" stroke="black" stroke-miterlimit="10"/>
<path d="M123.368 116.732C122.733 119.084 121.329 121.156 119.379 122.617C117.952 123.693 116.277 124.394 114.509 124.655C112.74 124.916 110.935 124.729 109.257 124.112C108.288 123.768 107.378 123.278 106.557 122.659C105.691 122.028 104.933 121.262 104.31 120.391C102.963 118.566 102.237 116.358 102.237 114.091C102.237 111.823 102.963 109.615 104.31 107.791C104.935 106.921 105.694 106.156 106.557 105.523C107.38 104.904 108.29 104.411 109.257 104.059C109.489 103.969 109.727 103.893 109.968 103.832V103.822C111.563 103.376 113.238 103.295 114.868 103.585C116.369 103.852 117.793 104.443 119.042 105.317C119.155 105.389 119.269 105.472 119.382 105.554C121.106 106.851 122.408 108.63 123.124 110.666C123.165 110.779 123.206 110.882 123.237 110.986C123.289 111.151 123.33 111.306 123.371 111.45C123.57 112.32 123.718 113.201 123.814 114.089C123.811 113.021 123.659 111.96 123.36 110.935V110.925C122.582 108.393 120.917 106.227 118.67 104.825C117.376 104.021 115.928 103.496 114.42 103.283C112.911 103.07 111.375 103.174 109.909 103.588V103.598C107.957 104.153 106.198 105.242 104.831 106.743C103.463 108.243 102.541 110.095 102.169 112.09C101.796 114.085 101.987 116.145 102.721 118.038C103.454 119.93 104.701 121.581 106.321 122.804C107.941 124.027 109.87 124.774 111.891 124.961C113.913 125.148 115.946 124.767 117.763 123.862C119.58 122.957 121.108 121.563 122.176 119.836C123.244 118.11 123.81 116.121 123.809 114.091C123.714 114.979 123.567 115.861 123.368 116.732Z" stroke="black" stroke-miterlimit="10"/>
<path d="M123.574 116.783C123.078 118.841 122.001 120.713 120.472 122.176C118.943 123.64 117.025 124.634 114.947 125.039C112.989 125.409 110.967 125.249 109.092 124.575C108.075 124.224 107.119 123.718 106.257 123.075C105.345 122.416 104.545 121.615 103.886 120.704C102.467 118.793 101.701 116.476 101.701 114.097C101.701 111.717 102.467 109.4 103.886 107.49C104.542 106.576 105.343 105.775 106.257 105.119C107.116 104.467 108.073 103.955 109.092 103.604C109.419 103.48 109.753 103.377 110.092 103.295C111.681 102.894 113.338 102.845 114.947 103.151C116.296 103.408 117.585 103.917 118.747 104.651C119.056 104.851 119.347 105.051 119.613 105.259C121.422 106.658 122.746 108.591 123.396 110.784V110.794C123.464 110.993 123.519 111.196 123.561 111.402C123.787 112.279 123.871 113.188 123.808 114.092C123.712 113.204 123.564 112.323 123.365 111.453C123.324 111.309 123.283 111.153 123.231 110.989C123.2 110.889 123.159 110.783 123.118 110.669C122.402 108.633 121.1 106.854 119.376 105.557C119.263 105.475 119.149 105.392 119.036 105.32C117.787 104.446 116.363 103.855 114.862 103.588C113.232 103.298 111.557 103.379 109.962 103.825V103.835C109.721 103.896 109.483 103.972 109.251 104.062C108.284 104.414 107.374 104.907 106.551 105.526C105.688 106.159 104.929 106.924 104.304 107.794C102.957 109.618 102.231 111.826 102.231 114.094C102.231 116.361 102.957 118.569 104.304 120.394C104.927 121.265 105.685 122.031 106.551 122.662C107.372 123.281 108.282 123.771 109.251 124.115C110.929 124.732 112.734 124.919 114.503 124.658C116.271 124.396 117.946 123.696 119.373 122.62C121.323 121.159 122.727 119.087 123.362 116.735C123.561 115.864 123.709 114.983 123.805 114.096C123.87 114.998 123.792 115.905 123.574 116.783Z" stroke="black" stroke-miterlimit="10"/>
</g>
</g>
</svg>
