<svg width="78" height="16" viewBox="0 0 78 16" fill="none" xmlns="http://www.w3.org/2000/svg">
<g id="Group 315">
<g id="Group 311">
<path id="Path 898" d="M7.09899 15.9152C8.42789 15.9072 9.73388 15.5684 10.899 14.9292C12.7282 13.9627 14.1029 12.3143 14.725 10.3412C14.9971 9.23597 15.0168 8.08366 14.7826 6.9698C14.5484 5.85594 14.0662 4.80916 13.372 3.90718C12.7763 3.04468 11.9885 2.33216 11.0708 1.82565C10.153 1.31915 9.13029 1.03247 8.08299 0.988177C5.02699 0.922177 2.40899 2.62518 0.75499 5.73218C0.307713 6.61425 0.0623776 7.58483 0.0367788 8.57349C0.01118 9.56216 0.205959 10.5441 0.606989 11.4482C1.00469 12.4328 1.6139 13.318 2.39151 14.0412C3.16912 14.7644 4.09614 15.3078 5.10699 15.6332C5.75381 15.8254 6.42523 15.922 7.09999 15.9202M8.03599 3.59918C8.68096 3.63789 9.30821 3.82542 9.86859 4.14708C10.429 4.46873 10.9073 4.91577 11.266 5.45318C11.7211 6.03293 12.0422 6.70625 12.2063 7.42481C12.3704 8.14336 12.3734 8.88934 12.215 9.60918C11.792 10.9175 10.8689 12.0056 9.64699 12.6362C8.49656 13.2936 7.13324 13.4708 5.85299 13.1292C5.21145 12.9158 4.6245 12.5643 4.13348 12.0996C3.64245 11.6348 3.25929 11.068 3.01099 10.4392C2.76029 9.89197 2.63386 9.29605 2.64077 8.69419C2.64769 8.09233 2.78778 7.49947 3.05099 6.95818C3.47173 5.99595 4.15397 5.17107 5.02017 4.57728C5.88637 3.98349 6.90179 3.64461 7.95099 3.59918H8.03599Z" fill="#4D4B4B"/>
</g>
<g id="Group 312">
<path id="Path 897" d="M29.055 2.29319C26.249 2.24819 24.198 3.90419 22.898 6.34319C21.324 9.29919 23.225 13.4042 26.479 14.3772C28.1202 14.7865 29.8555 14.5605 31.3371 13.7445C32.8188 12.9286 33.9374 11.583 34.469 9.97719C35.408 6.77119 32.776 2.35419 29.056 2.29619" fill="#0086D5"/>
<path id="Path 898_2" d="M28.099 15.9152C29.4279 15.9072 30.7339 15.5684 31.899 14.9292C33.7282 13.9627 35.1029 12.3143 35.725 10.3412C35.9971 9.23597 36.0168 8.08366 35.7826 6.9698C35.5484 5.85594 35.0662 4.80916 34.372 3.90718C33.7763 3.04468 32.9885 2.33216 32.0708 1.82565C31.153 1.31915 30.1303 1.03247 29.083 0.988177C26.027 0.922177 23.409 2.62518 21.755 5.73218C21.3077 6.61425 21.0624 7.58483 21.0368 8.57349C21.0112 9.56216 21.206 10.5441 21.607 11.4482C22.0047 12.4328 22.6139 13.318 23.3915 14.0412C24.1691 14.7644 25.0961 15.3078 26.107 15.6332C26.7538 15.8254 27.4252 15.922 28.1 15.9202M29.036 3.59918C29.681 3.63789 30.3082 3.82542 30.8686 4.14708C31.429 4.46873 31.9073 4.91577 32.266 5.45318C32.7211 6.03293 33.0422 6.70625 33.2063 7.42481C33.3704 8.14336 33.3734 8.88934 33.215 9.60918C32.792 10.9175 31.8689 12.0056 30.647 12.6362C29.4966 13.2936 28.1332 13.4708 26.853 13.1292C26.2115 12.9158 25.6245 12.5643 25.1335 12.0996C24.6425 11.6348 24.2593 11.068 24.011 10.4392C23.7603 9.89197 23.6339 9.29605 23.6408 8.69419C23.6477 8.09233 23.7878 7.49947 24.051 6.95818C24.4717 5.99595 25.154 5.17107 26.0202 4.57728C26.8864 3.98349 27.9018 3.64461 28.951 3.59918H29.036Z" fill="black"/>
</g>
<g id="Group 313">
<path id="Path 898_3" d="M49.099 15.9152C50.4279 15.9072 51.7339 15.5684 52.899 14.9292C54.7282 13.9627 56.1029 12.3143 56.725 10.3412C56.9971 9.23597 57.0168 8.08366 56.7826 6.9698C56.5484 5.85594 56.0662 4.80916 55.372 3.90718C54.7763 3.04468 53.9885 2.33216 53.0708 1.82565C52.153 1.31915 51.1303 1.03247 50.083 0.988177C47.027 0.922177 44.409 2.62518 42.755 5.73218C42.3077 6.61425 42.0624 7.58483 42.0368 8.57349C42.0112 9.56216 42.206 10.5441 42.607 11.4482C43.0047 12.4328 43.6139 13.318 44.3915 14.0412C45.1691 14.7644 46.0961 15.3078 47.107 15.6332C47.7538 15.8254 48.4252 15.922 49.1 15.9202M50.036 3.59918C50.681 3.63789 51.3082 3.82542 51.8686 4.14708C52.429 4.46873 52.9073 4.91577 53.266 5.45318C53.7211 6.03293 54.0422 6.70625 54.2063 7.42481C54.3704 8.14336 54.3734 8.88934 54.215 9.60918C53.792 10.9175 52.8689 12.0056 51.647 12.6362C50.4966 13.2936 49.1332 13.4708 47.853 13.1292C47.2115 12.9158 46.6245 12.5643 46.1335 12.0996C45.6425 11.6348 45.2593 11.068 45.011 10.4392C44.7603 9.89197 44.6339 9.29605 44.6408 8.69419C44.6477 8.09233 44.7878 7.49947 45.051 6.95818C45.4717 5.99595 46.154 5.17107 47.0202 4.57728C47.8864 3.98349 48.9018 3.64461 49.951 3.59918H50.036Z" fill="#4D4B4B"/>
</g>
<g id="Group 314">
<path id="Path 898_4" d="M70.099 15.9152C71.4279 15.9072 72.7339 15.5684 73.899 14.9292C75.7282 13.9627 77.1029 12.3143 77.725 10.3412C77.9971 9.23597 78.0168 8.08366 77.7826 6.9698C77.5484 5.85594 77.0662 4.80916 76.372 3.90718C75.7763 3.04468 74.9885 2.33216 74.0708 1.82565C73.153 1.31915 72.1303 1.03247 71.083 0.988177C68.027 0.922177 65.409 2.62518 63.755 5.73218C63.3077 6.61425 63.0624 7.58483 63.0368 8.57349C63.0112 9.56216 63.206 10.5441 63.607 11.4482C64.0047 12.4328 64.6139 13.318 65.3915 14.0412C66.1691 14.7644 67.0961 15.3078 68.107 15.6332C68.7538 15.8254 69.4252 15.922 70.1 15.9202M71.036 3.59918C71.681 3.63789 72.3082 3.82542 72.8686 4.14708C73.429 4.46873 73.9073 4.91577 74.266 5.45318C74.7211 6.03293 75.0422 6.70625 75.2063 7.42481C75.3704 8.14336 75.3734 8.88934 75.215 9.60918C74.792 10.9175 73.8689 12.0056 72.647 12.6362C71.4966 13.2936 70.1332 13.4708 68.853 13.1292C68.2115 12.9158 67.6245 12.5643 67.1335 12.0996C66.6425 11.6348 66.2593 11.068 66.011 10.4392C65.7603 9.89197 65.6339 9.29605 65.6408 8.69419C65.6477 8.09233 65.7878 7.49947 66.051 6.95818C66.4717 5.99595 67.154 5.17107 68.0202 4.57728C68.8864 3.98349 69.9018 3.64461 70.951 3.59918H71.036Z" fill="#4D4B4B"/>
</g>
</g>
</svg>
