<svg width="329" height="218" viewBox="0 0 329 218" fill="none" xmlns="http://www.w3.org/2000/svg">
<path d="M314.717 100.448H19.029L19.034 100.417L25.475 60.188H320.067V60.217L314.717 100.448ZM19.09 100.394H314.675L320.011 60.241H25.521L19.09 100.394Z" fill="#263238"/>
<mask id="mask0_0_67" style="mask-type:luminance" maskUnits="userSpaceOnUse" x="0" y="0" width="329" height="218">
<path d="M328.261 0.157959H0.111023V217.461H328.261V0.157959Z" fill="white"/>
</mask>
<g mask="url(#mask0_0_67)">
<path d="M35.076 0.399959L327.984 0.157959H328.26L328.224 0.431959C319.589 65.485 309.797 139.254 299.454 217.167L299.422 217.4H295.828L0.369023 217.351H0.111023L0.151023 217.097C21.3 85.877 34.788 2.19296 35.076 0.399959C34.79 2.19196 21.476 85.8999 0.585023 217.166L0.369023 216.911L295.828 216.863H299.187L298.921 217.096C309.283 139.186 319.093 65.42 327.745 0.367959L327.984 0.641959L35.076 0.399959Z" fill="#263238"/>
<path d="M320.038 60.2131C320.038 60.3611 254.098 60.4811 172.776 60.4811C91.425 60.4811 25.499 60.3611 25.499 60.2131C25.499 60.0651 91.424 59.9451 172.776 59.9451C254.098 59.9451 320.038 60.0651 320.038 60.2131Z" fill="#263238"/>
<path d="M314.696 100.419C314.696 100.567 248.384 100.687 166.603 100.687C84.794 100.687 18.497 100.567 18.497 100.419C18.497 100.271 84.797 100.151 166.603 100.151C248.384 100.151 314.696 100.271 314.696 100.419Z" fill="#263238"/>
<path d="M308.68 137.41C308.68 137.558 242.368 137.678 160.587 137.678C78.78 137.678 12.48 137.558 12.48 137.41C12.48 137.262 78.78 137.142 160.586 137.142C242.367 137.142 308.679 137.262 308.679 137.41" fill="#263238"/>
<path d="M302.668 174.4C302.668 174.548 236.356 174.668 154.575 174.668C72.766 174.668 6.46902 174.548 6.46902 174.4C6.46902 174.252 72.769 174.132 154.575 174.132C236.356 174.132 302.668 174.252 302.668 174.4Z" fill="#263238"/>
<path d="M42 217.461C41.854 217.438 47.268 182.215 54.093 138.799C60.918 95.3829 66.57 60.1899 66.716 60.2129C66.862 60.2359 61.449 95.4479 54.622 138.882C47.795 182.316 42.146 217.482 42 217.461Z" fill="#263238"/>
<path d="M87.583 217.461C87.437 217.438 92.851 182.215 99.676 138.799C106.501 95.3829 112.153 60.1899 112.299 60.2129C112.445 60.2359 107.032 95.4479 100.205 138.882C93.378 182.316 87.729 217.482 87.583 217.461Z" fill="#263238"/>
<path d="M129.937 215.887C129.791 215.864 135.149 180.994 141.906 138.012C148.664 95.0119 154.259 60.1899 154.406 60.2119C154.553 60.2339 149.195 95.0979 142.436 138.095C135.681 181.076 130.084 215.909 129.936 215.886" fill="#263238"/>
<path d="M171.85 217.132C171.704 217.109 177.107 181.96 183.917 138.632C190.727 95.304 196.368 60.187 196.517 60.21C196.666 60.233 191.261 95.375 184.449 138.715C177.639 182.04 171.999 217.151 171.849 217.129" fill="#263238"/>
<path d="M213.957 217.132C213.811 217.109 219.215 181.96 226.024 138.632C232.833 95.304 238.475 60.187 238.624 60.21C238.773 60.233 233.366 95.378 226.554 138.718C219.744 182.043 214.104 217.154 213.954 217.132" fill="#263238"/>
<path d="M256.03 217.361C255.884 217.338 261.295 182.138 268.114 138.749C274.936 95.3489 280.584 60.1899 280.73 60.2129C280.876 60.2359 275.467 95.4289 268.645 138.833C261.825 182.222 256.176 217.384 256.03 217.361Z" fill="#263238"/>
<path d="M219.439 141.722C219.528 141.841 211.706 147.828 201.972 155.094C192.238 162.36 184.272 168.155 184.183 168.036C184.094 167.917 191.913 161.936 201.651 154.663C211.389 147.39 219.351 141.604 219.439 141.722Z" fill="#263238"/>
<path d="M222.475 167.085C222.396 167.21 214.093 162.06 203.933 155.585C193.773 149.11 185.597 143.754 185.677 143.63C185.757 143.506 194.058 148.655 204.222 155.13C214.386 161.605 222.555 166.96 222.475 167.084" fill="#263238"/>
<path d="M141.104 105.646C141.193 105.765 133.371 111.752 123.637 119.018C113.903 126.284 105.937 132.079 105.848 131.96C105.759 131.841 113.578 125.86 123.316 118.587C133.054 111.314 141.016 105.528 141.104 105.646Z" fill="#263238"/>
<path d="M144.14 131.009C144.061 131.134 135.758 125.984 125.598 119.509C115.438 113.034 107.262 107.678 107.342 107.554C107.422 107.43 115.723 112.579 125.887 119.054C136.051 125.529 144.22 130.884 144.14 131.008" fill="#263238"/>
<path d="M84.543 178.828C84.632 178.947 76.81 184.934 67.076 192.2C57.342 199.466 49.376 205.261 49.287 205.142C49.198 205.023 57.017 199.042 66.755 191.769C76.493 184.496 84.455 178.71 84.543 178.828Z" fill="#263238"/>
<path d="M87.579 204.191C87.5 204.316 79.197 199.166 69.037 192.691C58.877 186.216 50.701 180.86 50.781 180.736C50.861 180.612 59.162 185.761 69.326 192.236C79.49 198.711 87.659 204.066 87.579 204.19" fill="#263238"/>
</g>
</svg>
