<svg width="41" height="41" viewBox="0 0 41 41" fill="none" xmlns="http://www.w3.org/2000/svg">
<g id="Group 226">
<g id="Clip path group">
<mask id="mask0_0_407" style="mask-type:luminance" maskUnits="userSpaceOnUse" x="0" y="0" width="41" height="41">
<g id="clip-path-22">
<path id="Rectangle 95" d="M40.674 0.819946H0.325012V40.1799H40.674V0.819946Z" fill="white"/>
</g>
</mask>
<g mask="url(#mask0_0_407)">
<g id="Group 225">
<g id="Group 224">
<g id="Clip path group_2">
<mask id="mask1_0_407" style="mask-type:luminance" maskUnits="userSpaceOnUse" x="0" y="0" width="41" height="41">
<g id="clip-path-22_2">
<path id="Rectangle 95_2" d="M40.674 0.819946H0.325012V40.1799H40.674V0.819946Z" fill="white"/>
</g>
</mask>
<g mask="url(#mask1_0_407)">
<g id="Group 223">
<path id="Path 610" d="M0.614014 20.5009C0.680432 15.2926 2.81265 10.3239 6.5418 6.68743C10.2709 3.05092 15.2917 1.04434 20.5 1.10893C25.7083 1.04434 30.7291 3.05092 34.4582 6.68743C38.1874 10.3239 40.3196 15.2926 40.386 20.5009C40.3193 25.7091 38.187 30.6775 34.4579 34.3138C30.7288 37.9501 25.7082 39.9565 20.5 39.8919C15.2919 39.9565 10.2713 37.9501 6.54215 34.3138C2.81303 30.6775 0.680695 25.7091 0.614014 20.5009Z" fill="white"/>
<path id="Path 611" d="M20.5 40.18C15.2169 40.239 10.126 38.2003 6.34386 34.511C2.56176 30.8217 0.397233 25.783 0.325012 20.5C0.397233 15.217 2.56176 10.1783 6.34386 6.48898C10.126 2.79968 15.2169 0.760961 20.5 0.819972C25.7829 0.761493 30.8734 2.80041 34.6552 6.48963C38.4371 10.1788 40.6015 15.2172 40.674 20.5C40.6018 25.7828 38.4374 30.8213 34.6555 34.5106C30.8736 38.1999 25.783 40.2387 20.5 40.18ZM20.5 1.39697C15.37 1.33741 10.4258 3.31468 6.75159 6.89519C3.07736 10.4757 0.973006 15.3672 0.900012 20.497C0.973006 25.6268 3.07736 30.5182 6.75159 34.0988C10.4258 37.6793 15.37 39.6565 20.5 39.597C25.63 39.6565 30.5742 37.6793 34.2484 34.0988C37.9227 30.5182 40.027 25.6268 40.1 20.497C40.027 15.3672 37.9227 10.4757 34.2484 6.89519C30.5742 3.31468 25.63 1.33741 20.5 1.39697Z" fill="black"/>
<path id="Path 612" d="M3.085 20.5C3.12146 16.0026 4.94261 11.7037 8.148 8.54878C11.3534 5.39384 15.6806 3.6411 20.178 3.67598C22.4055 3.65778 24.6148 4.07852 26.6797 4.91418C28.7446 5.74983 30.6246 6.98402 32.2125 8.54629C33.8004 10.1086 35.065 11.9683 35.9342 14.0193C36.8033 16.0703 37.26 18.2725 37.278 20.5C37.2598 22.7274 36.8031 24.9294 35.9339 26.9803C35.0647 29.0312 33.8001 30.8909 32.2122 32.453C30.6243 34.0152 28.7443 35.2493 26.6794 36.0849C24.6146 36.9205 22.4054 37.3412 20.178 37.323C17.9505 37.3412 15.7412 36.9204 13.6763 36.0848C11.6114 35.2491 9.73137 34.0149 8.14348 32.4527C6.55558 30.8904 5.29096 29.0307 4.42182 26.9796C3.55268 24.9286 3.09605 22.7265 3.078 20.499" fill="white"/>
<path id="Path 613" d="M20.183 37.612C15.6099 37.6429 11.2112 35.8587 7.95192 32.6507C4.69259 29.4428 2.83873 25.073 2.797 20.5C2.86625 15.9346 4.72844 11.5797 7.98142 8.37567C11.2344 5.17166 15.6171 3.37573 20.183 3.37573C24.7489 3.37573 29.1316 5.17166 32.3846 8.37567C35.6376 11.5797 37.4997 15.9346 37.569 20.5C37.5273 25.073 35.6734 29.4428 32.4141 32.6507C29.1548 35.8587 24.7561 37.6429 20.183 37.612ZM20.183 3.96501C15.7628 3.93384 11.5108 5.65718 8.35962 8.75698C5.20845 11.8568 3.41546 16.0799 3.374 20.5C3.44208 24.9131 5.24297 29.1225 8.38786 32.2192C11.5328 35.316 15.7694 37.0517 20.183 37.0517C24.5966 37.0517 28.8332 35.316 31.9781 32.2192C35.123 29.1225 36.9239 24.9131 36.992 20.5C36.9503 16.08 35.1572 11.857 32.0061 8.75728C28.855 5.65753 24.6031 3.9341 20.183 3.96501Z" fill="black"/>
<path id="Path 614" d="M20.183 20.7879C20.1282 20.7879 20.0746 20.7723 20.0283 20.7429C19.9821 20.7135 19.9452 20.6716 19.922 20.6219L14.28 8.60792C14.2524 8.53948 14.252 8.46308 14.279 8.39437C14.3059 8.32566 14.3581 8.26985 14.4248 8.23839C14.4916 8.20693 14.5679 8.2022 14.638 8.22517C14.7081 8.24814 14.7668 8.29707 14.802 8.36192L20.441 20.3769C20.4618 20.4209 20.4711 20.4693 20.468 20.5178C20.465 20.5663 20.4498 20.6133 20.4237 20.6543C20.3977 20.6953 20.3617 20.7291 20.3191 20.7525C20.2764 20.7758 20.2286 20.788 20.18 20.7879" fill="black"/>
<path id="Path 615" d="M19.097 20.869L26.753 25.51L25.618 27.495L31.158 26.637L28.883 21.827L27.789 23.361L19.955 19.208L19.097 20.869Z" fill="white"/>
<path id="Path 616" d="M25.617 27.784C25.5664 27.7841 25.5167 27.7709 25.4728 27.7456C25.4289 27.7204 25.3925 27.684 25.3672 27.6402C25.3418 27.5964 25.3284 27.5467 25.3284 27.4961C25.3284 27.4455 25.3417 27.3958 25.367 27.352L26.367 25.611L18.952 21.111C18.8894 21.0732 18.8435 21.013 18.8236 20.9426C18.8037 20.8722 18.8114 20.7969 18.845 20.732L19.705 19.071C19.7225 19.0371 19.7465 19.0071 19.7757 18.9826C19.8049 18.9582 19.8387 18.9397 19.875 18.9284C19.9114 18.917 19.9497 18.913 19.9876 18.9165C20.0255 18.9201 20.0624 18.9311 20.096 18.949L27.707 22.983L28.655 21.655C28.6839 21.6128 28.7234 21.5791 28.7696 21.5573C28.8158 21.5355 28.867 21.5264 28.9179 21.5308C28.9688 21.5353 29.0175 21.5532 29.0592 21.5828C29.1009 21.6123 29.1339 21.6524 29.155 21.699L31.427 26.508C31.4462 26.5486 31.4557 26.5931 31.4546 26.638C31.4536 26.6828 31.4421 26.7269 31.421 26.7665C31.3999 26.8061 31.3699 26.8403 31.3332 26.8662C31.2966 26.8922 31.2544 26.9092 31.21 26.916L25.67 27.775C25.6554 27.776 25.6407 27.776 25.626 27.775M19.486 20.754L26.911 25.254C26.9753 25.293 27.0218 25.3557 27.0405 25.4286C27.0592 25.5015 27.0486 25.5788 27.011 25.644L26.173 27.109L30.739 26.401L28.839 22.386L28.03 23.519C27.9894 23.5759 27.9295 23.6162 27.8614 23.6322C27.7933 23.6482 27.7217 23.6389 27.66 23.606L20.079 19.605L19.486 20.754Z" fill="black"/>
<path id="Path 617" d="M20.428 18.713C20.064 18.7535 19.7209 18.9037 19.4442 19.1438C19.1676 19.3838 18.9705 19.7023 18.879 20.057C18.7953 20.4164 18.8275 20.7932 18.9712 21.1332C19.1148 21.4732 19.3624 21.7589 19.6785 21.9495C19.9946 22.14 20.3629 22.2256 20.7307 22.1938C21.0984 22.1621 21.4466 22.0147 21.7254 21.7728C22.0042 21.531 22.1992 21.207 22.2824 20.8474C22.3657 20.4879 22.3329 20.1112 22.1889 19.7714C22.0448 19.4316 21.7968 19.1461 21.4805 18.956C21.1641 18.7658 20.7957 18.6808 20.428 18.713Z" fill="white"/>
<path id="Path 618" d="M20.55 22.504C20.4708 22.5042 20.3916 22.4992 20.313 22.489C20.0345 22.4409 19.7685 22.3376 19.5307 22.185C19.2928 22.0325 19.0879 21.8339 18.9281 21.6008C18.7682 21.3678 18.6566 21.1052 18.6 20.8283C18.5433 20.5515 18.5426 20.2661 18.598 19.989C18.7039 19.5764 18.9328 19.2057 19.2543 18.9262C19.5757 18.6466 19.9746 18.4715 20.398 18.424C20.6784 18.405 20.9597 18.4453 21.2235 18.5423C21.4873 18.6393 21.7277 18.7909 21.929 18.987C22.144 19.1799 22.3159 19.416 22.4336 19.6798C22.5512 19.9436 22.612 20.2292 22.612 20.518C22.5997 20.8007 22.5281 21.0777 22.4018 21.331C22.2756 21.5842 22.0974 21.8081 21.879 21.988C21.5098 22.3121 21.0372 22.494 20.546 22.501M20.446 19.001C20.1449 19.0397 19.8622 19.1672 19.6339 19.3672C19.4056 19.5672 19.242 19.8307 19.164 20.124C19.0846 20.423 19.1041 20.7396 19.2196 21.0266C19.3351 21.3136 19.5403 21.5555 19.8046 21.7162C20.069 21.8769 20.3782 21.9477 20.6861 21.9181C20.994 21.8885 21.2841 21.7601 21.513 21.552C21.6696 21.4246 21.7976 21.2658 21.8889 21.0858C21.9802 20.9058 22.0327 20.7086 22.043 20.507C22.0405 20.299 21.9947 20.0938 21.9087 19.9044C21.8226 19.7151 21.6981 19.5457 21.543 19.407C21.4013 19.2663 21.2315 19.1571 21.0447 19.0865C20.8579 19.0158 20.6584 18.9853 20.459 18.997" fill="black"/>
<path id="Path 619" d="M4.68802 21.884C4.61267 21.8867 4.53925 21.8597 4.48354 21.8089C4.42784 21.7581 4.39428 21.6874 4.39009 21.6122C4.3859 21.5369 4.41141 21.4629 4.46113 21.4062C4.51086 21.3496 4.58083 21.3146 4.65602 21.309C5.48302 21.2154 6.3175 21.208 7.14602 21.287C7.18371 21.2906 7.22032 21.3016 7.25376 21.3193C7.2872 21.3371 7.31681 21.3613 7.34091 21.3905C7.365 21.4197 7.38311 21.4533 7.3942 21.4895C7.40529 21.5257 7.40913 21.5638 7.40552 21.6015C7.40191 21.6392 7.39091 21.6758 7.37315 21.7092C7.35539 21.7426 7.33122 21.7723 7.30202 21.7963C7.27281 21.8204 7.23915 21.8386 7.20295 21.8496C7.16674 21.8607 7.12871 21.8646 7.09102 21.861C6.30275 21.7861 5.50884 21.7931 4.72202 21.882H4.68902" fill="black"/>
<path id="Path 620" d="M20.076 35.346C19.9995 35.3452 19.9265 35.3142 19.8729 35.2596C19.8193 35.2051 19.7895 35.1315 19.79 35.055L19.81 32.691C19.8105 32.6148 19.8413 32.5419 19.8954 32.4883C19.9496 32.4347 20.0228 32.4048 20.099 32.405C20.1755 32.4058 20.2485 32.4369 20.3021 32.4914C20.3557 32.546 20.3856 32.6196 20.385 32.696L20.365 35.06C20.3645 35.1362 20.3338 35.2091 20.2796 35.2627C20.2254 35.3163 20.1522 35.3463 20.076 35.346Z" fill="black"/>
<path id="Path 621" d="M20.066 7.842C19.9895 7.84121 19.9165 7.81014 19.8629 7.75559C19.8093 7.70105 19.7795 7.62748 19.78 7.551L19.8 5.187C19.8008 5.11087 19.8316 5.03813 19.8857 4.98458C19.9398 4.93103 20.0129 4.901 20.089 4.901C20.1655 4.90179 20.2385 4.93286 20.2921 4.98741C20.3457 5.04195 20.3755 5.11552 20.375 5.192L20.355 7.556C20.3545 7.63221 20.3238 7.7051 20.2696 7.75871C20.2154 7.81232 20.1422 7.84227 20.066 7.842Z" fill="black"/>
<path id="Path 622" d="M35.366 20.366C35.3487 20.3674 35.3313 20.3674 35.314 20.366C34.7482 20.2626 34.1715 20.2323 33.598 20.276C33.5247 20.2766 33.454 20.2494 33.4 20.1999C33.346 20.1503 33.3129 20.0821 33.3073 20.009C33.3017 19.936 33.3241 19.8635 33.3699 19.8063C33.4157 19.7491 33.4815 19.7115 33.554 19.701C34.1771 19.6544 34.8035 19.688 35.418 19.801C35.4876 19.8153 35.5494 19.8547 35.5918 19.9118C35.6341 19.9688 35.654 20.0395 35.6476 20.1102C35.6411 20.181 35.6089 20.2469 35.5569 20.2953C35.505 20.3438 35.437 20.3714 35.366 20.373" fill="black"/>
<g id="Group 213" opacity="0.129">
<g id="Group 212">
<g id="Clip path group_3">
<mask id="mask2_0_407" style="mask-type:luminance" maskUnits="userSpaceOnUse" x="21" y="20" width="3" height="3">
<g id="clip-path-24">
<path id="Rectangle 90" d="M23.378 20.704H21.53V22.54H23.378V20.704Z" fill="white"/>
</g>
</mask>
<g mask="url(#mask2_0_407)">
<g id="Group 211">
<path id="Path 623" d="M22.768 20.719C22.6717 20.7468 22.5863 20.8036 22.5233 20.8816C22.4604 20.9596 22.4229 21.055 22.416 21.155L22.392 21.182C22.184 21.435 21.992 21.436 21.637 21.766C21.5709 21.8541 21.5371 21.9624 21.5413 22.0725C21.5456 22.1826 21.5876 22.288 21.6603 22.3708C21.733 22.4536 21.832 22.5088 21.9407 22.5273C22.0493 22.5457 22.161 22.5262 22.257 22.472C22.6639 22.261 23.0154 21.9571 23.283 21.585C23.517 21.17 23.302 20.606 22.766 20.72" fill="black"/>
</g>
</g>
</g>
</g>
</g>
<g id="Group 216" opacity="0.129">
<g id="Group 215">
<g id="Clip path group_4">
<mask id="mask3_0_407" style="mask-type:luminance" maskUnits="userSpaceOnUse" x="20" y="3" width="1" height="1">
<g id="clip-path-25">
<path id="Rectangle 91" d="M20.165 3.64795H20.147V3.65195H20.165V3.64795Z" fill="white"/>
</g>
</mask>
<g mask="url(#mask3_0_407)">
<g id="Group 214">
<path id="Path 624" d="M20.16 3.65191H20.166C20.148 3.65191 20.139 3.64491 20.16 3.65191Z" fill="black"/>
</g>
</g>
</g>
</g>
</g>
<g id="Group 219" opacity="0.129">
<g id="Group 218">
<g id="Clip path group_5">
<mask id="mask4_0_407" style="mask-type:luminance" maskUnits="userSpaceOnUse" x="3" y="3" width="26" height="30">
<g id="clip-path-26">
<path id="Rectangle 92" d="M28.819 3.60596H3.297V32.548H28.819V3.60596Z" fill="white"/>
</g>
</mask>
<g mask="url(#mask4_0_407)">
<g id="Group 217">
<path id="Path 625" d="M28.709 5.84701C28.3223 5.65501 27.9297 5.47668 27.531 5.31201C26.7259 4.98232 25.9005 4.70442 25.06 4.48001C25.0025 4.46717 24.9516 4.43399 24.9167 4.38657C24.8818 4.33915 24.8652 4.2807 24.87 4.22201C24.594 4.16001 24.315 4.11001 24.032 4.07301C22.9611 3.87033 21.8715 3.78283 20.782 3.81201C20.7181 3.7508 20.6366 3.71126 20.549 3.69901C20.501 3.69101 20.234 3.65501 20.165 3.64701L20.201 3.65501C20.046 3.63201 19.888 3.62601 19.732 3.61501C19.4179 3.59396 19.1026 3.59697 18.789 3.62401C18.0086 3.70959 17.2368 3.86113 16.482 4.07701C15.2967 4.38138 14.1368 4.77758 13.013 5.26201C11.8516 5.69889 10.7599 6.30219 9.772 7.05301C8.888 7.81079 8.09742 8.67118 7.417 9.61601C7.32954 9.5674 7.22657 9.55484 7.13 9.58101C6.843 9.71701 6.956 9.71401 6.73 9.98101C6.493 10.322 6.283 10.681 6.075 11.04C5.79062 11.4713 5.54532 11.9271 5.342 12.402C5.27612 12.5128 5.24804 12.6419 5.262 12.77C5.06621 13.0789 4.89148 13.4006 4.739 13.733C3.68924 16.0626 3.19753 18.605 3.303 21.158C3.38495 22.257 3.5376 23.3496 3.76 24.429C4.04338 25.6002 4.44546 26.7394 4.96 27.829C4.99219 27.8856 5.03699 27.934 5.09094 27.9704C5.14488 28.0068 5.2065 28.0303 5.271 28.039C5.544 28.682 5.899 29.577 6.3 30.345C6.61566 31.0018 7.04186 31.5996 7.56 32.112C7.69895 32.2626 7.85462 32.3968 8.024 32.512C8.10734 32.5484 8.20115 32.553 8.28761 32.5248C8.37407 32.4966 8.44717 32.4376 8.493 32.359C8.682 32.034 8.318 31.802 8.125 31.592C8.00098 31.4644 7.88666 31.3277 7.783 31.183C7.47662 30.7495 7.21051 30.2889 6.988 29.807C6.701 29.271 6.421 28.73 6.177 28.172C6.027 27.785 5.745 27.199 5.444 26.582C5.11548 25.5527 4.86051 24.5014 4.681 23.436C4.13017 20.647 4.38014 17.7589 5.402 15.106C6.13352 13.6624 7.02693 12.3066 8.065 11.065C8.93154 10.1405 9.85608 9.27204 10.833 8.46501C11.6945 7.65862 12.6625 6.97424 13.71 6.43101C14.5754 6.04033 15.4641 5.70335 16.371 5.42201C18.1267 5.02868 19.918 4.81558 21.717 4.78601C22.508 4.85801 23.164 4.99201 24.108 5.14401C25.5573 5.35294 26.9805 5.71427 28.354 6.22201C28.4053 6.24181 28.4607 6.24893 28.5153 6.24277C28.57 6.23661 28.6224 6.21735 28.668 6.18663C28.7137 6.15591 28.7512 6.11463 28.7775 6.0663C28.8038 6.01797 28.818 5.96402 28.819 5.90901C28.782 5.89001 28.746 5.87001 28.71 5.85101" fill="black"/>
</g>
</g>
</g>
</g>
</g>
<g id="Group 222" opacity="0.129">
<g id="Group 221">
<g id="Clip path group_6">
<mask id="mask5_0_407" style="mask-type:luminance" maskUnits="userSpaceOnUse" x="11" y="13" width="30" height="27">
<g id="clip-path-27">
<path id="Rectangle 93" d="M40.402 13.916H11.722V39.848H40.402V13.916Z" fill="white"/>
</g>
</mask>
<g mask="url(#mask5_0_407)">
<g id="Group 220">
<path id="Path 626" d="M39.316 13.916C39.2436 13.9148 39.1721 13.9326 39.1087 13.9677C39.0454 14.0028 38.9924 14.054 38.955 14.116C38.9034 14.2117 38.8871 14.3225 38.909 14.429C38.909 14.505 38.93 14.699 38.938 14.757C38.958 14.842 39.038 15.621 39.094 16.082C39.7411 19.6535 39.3069 23.3369 37.847 26.66C37.4088 27.9001 36.8526 29.0953 36.186 30.229C36.163 30.261 36.14 30.293 36.118 30.329C36.252 30.152 36.175 30.254 36.093 30.363C35.757 30.772 35.401 31.163 35.045 31.557C33.7364 32.9741 32.307 34.2747 30.773 35.444C30.0752 36.0103 29.3129 36.4919 28.502 36.879C28.256 36.979 28.556 36.856 28.221 36.988C27.396 37.247 26.593 37.572 25.763 37.81C24.6237 38.1287 23.4737 38.4067 22.313 38.644C21.466 38.789 20.6092 38.8703 19.75 38.887C18.5537 38.9901 17.3492 38.9417 16.165 38.743C15.1383 38.5282 14.1265 38.2472 13.136 37.902C12.831 37.793 12.523 37.692 12.215 37.589C12.1644 37.573 12.111 37.5673 12.0581 37.5724C12.0053 37.5774 11.9539 37.5931 11.9073 37.6185C11.8606 37.6438 11.8195 37.6783 11.7864 37.7199C11.7534 37.7615 11.7291 37.8093 11.7149 37.8605C11.7008 37.9117 11.6972 37.9653 11.7042 38.0179C11.7112 38.0706 11.7288 38.1213 11.7559 38.167C11.783 38.2127 11.819 38.2524 11.8618 38.2839C11.9046 38.3153 11.9533 38.3378 12.005 38.35C13.399 38.874 14.8278 39.3004 16.281 39.626C16.947 39.71 17.615 39.802 18.281 39.844C19.013 39.857 19.744 39.804 20.474 39.765C21.622 39.7702 22.7661 39.6301 23.879 39.348C24.8174 39.1591 25.7448 38.9191 26.657 38.629C27.31 38.377 27.997 38.229 28.662 38.022C29.1369 37.8526 29.5973 37.6453 30.039 37.402C31.606 36.4254 33.0575 35.2748 34.366 33.972C35.223 33.242 36.0085 32.432 36.712 31.553C37.4429 30.5118 38.0192 29.3703 38.423 28.164C39.0077 26.9967 39.4882 25.7799 39.859 24.528C40.3975 22.2289 40.5355 19.8541 40.267 17.508C39.8464 16.3397 39.5259 15.1377 39.309 13.915" fill="black"/>
</g>
</g>
</g>
</g>
</g>
</g>
</g>
</g>
</g>
</g>
</g>
</g>
</g>
</svg>
