<svg width="574" height="384" viewBox="0 0 574 384" fill="none" xmlns="http://www.w3.org/2000/svg">
<mask id="mask0_0_575" style="mask-type:luminance" maskUnits="userSpaceOnUse" x="0" y="0" width="574" height="384">
<path d="M574 0H0V383.534H574V0Z" fill="white"/>
</mask>
<g mask="url(#mask0_0_575)">
<path d="M283.665 197.103C283.665 143.603 283.422 80.593 283.422 23.558C371.658 23.558 455.622 22.868 532.148 22.868C531.49 79.768 530.817 137.16 530.817 196.614C479.626 196.614 416.792 196.855 357.117 196.997C352.137 197.01 319.003 245.009 319.003 245.009C319.003 245.009 330.903 197.054 325.303 197.065C311.003 197.088 297.048 197.103 283.673 197.103" fill="white"/>
<path d="M318.996 246.056C319.165 246.056 319.332 246.015 319.482 245.936C319.632 245.857 319.761 245.743 319.857 245.603C335.757 222.566 354.051 198.476 357.133 198.042C374.953 198.002 393.076 197.949 411.086 197.898C454.202 197.775 494.928 197.661 530.814 197.661C531.092 197.661 531.358 197.55 531.555 197.354C531.751 197.157 531.862 196.891 531.862 196.613C531.862 137.69 532.529 80.092 533.174 24.389L533.193 22.88C533.195 22.7414 533.169 22.6038 533.117 22.4753C533.065 22.3467 532.988 22.2298 532.89 22.1312C532.793 22.0326 532.677 21.9543 532.549 21.9009C532.421 21.8475 532.284 21.82 532.145 21.82C495.245 21.82 457.045 21.979 416.602 22.148C373.586 22.326 329.102 22.51 283.419 22.51C283.141 22.5103 282.875 22.6208 282.678 22.8173C282.482 23.0137 282.371 23.2801 282.371 23.558C282.371 52.533 282.435 83.313 282.496 113.079C282.557 142.754 282.597 170.762 282.615 197.103C282.615 197.241 282.642 197.377 282.695 197.504C282.747 197.631 282.824 197.747 282.922 197.844C283.019 197.942 283.135 198.019 283.262 198.072C283.389 198.124 283.525 198.151 283.663 198.151C297.019 198.151 310.949 198.134 325.23 198.111C325.545 198.467 327.006 201.326 322.95 222.217C320.75 233.566 318.008 244.647 317.98 244.757C317.921 244.995 317.947 245.246 318.054 245.466C318.161 245.687 318.342 245.863 318.566 245.963C318.701 246.025 318.848 246.056 318.996 246.056ZM529.766 195.566C494.132 195.566 453.779 195.682 411.08 195.805C393.072 195.856 374.949 195.905 357.108 195.949C356.018 195.949 353.469 195.96 335.345 220.383C329.85 227.783 324.55 235.25 321.318 239.852C324.286 227.252 330.011 200.821 326.872 196.814C326.688 196.568 326.45 196.367 326.176 196.229C325.902 196.09 325.6 196.016 325.293 196.014C311.361 196.037 297.766 196.052 284.711 196.052C284.711 170.034 284.672 142.374 284.595 113.071C284.534 83.665 284.47 53.271 284.47 24.602C329.791 24.602 373.923 24.416 416.614 24.238C456.665 24.073 494.514 23.914 531.088 23.912V24.363C530.445 79.741 529.782 136.993 529.774 195.563" fill="black"/>
<path d="M328.458 12.357C364.314 12.2237 400.168 11.969 436.019 11.593C466.359 11.324 501.512 11.957 531.85 11.576C532.253 18.2196 532.253 24.8814 531.85 31.525C453.86 31.525 362.157 30.414 283.66 31.525C283.218 26.348 283.535 19.011 283.535 12.594C296.735 12.586 315.27 12.406 328.458 12.357Z" fill="#0086D5"/>
<path d="M283.657 32.573H283.672C336.505 31.826 395.179 32.084 451.919 32.334C479.914 32.457 506.357 32.573 531.849 32.573C532.113 32.5731 532.366 32.4737 532.56 32.2949C532.753 32.116 532.872 31.8707 532.893 31.608C533.302 24.9206 533.303 18.2146 532.897 11.527C532.885 11.2552 532.768 10.9987 532.57 10.812C532.372 10.6253 532.109 10.5231 531.837 10.527C515.763 10.727 498.083 10.643 480.983 10.563C465.883 10.489 450.277 10.415 436.013 10.542C402.813 10.836 365.173 11.169 328.456 11.306C323.08 11.327 316.812 11.369 310.382 11.412C301.024 11.473 291.349 11.539 283.535 11.543C283.398 11.5431 283.261 11.5703 283.134 11.6231C283.007 11.6758 282.892 11.7531 282.795 11.8504C282.698 11.9477 282.621 12.0632 282.568 12.1903C282.516 12.3173 282.489 12.4535 282.489 12.591C282.489 14.479 282.461 16.445 282.434 18.414C282.368 23.081 282.301 27.914 282.616 31.614C282.638 31.8754 282.758 32.1189 282.951 32.2965C283.144 32.474 283.397 32.5727 283.659 32.573M530.848 12.637C531.176 18.5799 531.185 24.5362 530.873 30.48C505.687 30.48 479.564 30.361 451.927 30.239C395.527 29.991 337.227 29.739 284.627 30.465C284.405 27.002 284.464 22.659 284.527 18.447C284.55 16.83 284.574 15.213 284.58 13.64C292.208 13.632 301.447 13.57 310.397 13.509C316.825 13.467 323.088 13.424 328.465 13.409C365.187 13.271 402.825 12.937 436.03 12.645C450.281 12.518 465.883 12.592 480.975 12.664C497.724 12.744 515.032 12.827 530.851 12.641" fill="black"/>
<path d="M302.721 19.49C303.154 19.4238 303.597 19.4846 303.996 19.6649C304.395 19.8452 304.733 20.1374 304.969 20.506C305.156 20.8017 305.263 21.1406 305.281 21.4899C305.298 21.8392 305.225 22.1871 305.069 22.5C304.888 22.8214 304.628 23.0907 304.312 23.2816C303.997 23.4726 303.638 23.5788 303.269 23.59C302.739 23.5967 302.225 23.4025 301.832 23.0464C301.439 22.6902 301.195 22.1985 301.15 21.67C301.153 21.1882 301.306 20.7195 301.588 20.3288C301.87 19.9381 302.267 19.645 302.723 19.49" fill="black"/>
<path d="M322.289 19.49C322.722 19.4238 323.165 19.4846 323.564 19.6649C323.963 19.8452 324.301 20.1374 324.537 20.506C324.724 20.8016 324.831 21.1405 324.849 21.4899C324.866 21.8392 324.793 22.1871 324.637 22.5C324.457 22.8217 324.196 23.0911 323.881 23.2822C323.565 23.4732 323.206 23.5792 322.837 23.59C322.307 23.5967 321.793 23.4025 321.4 23.0464C321.007 22.6902 320.763 22.1985 320.718 21.67C320.721 21.1884 320.874 20.7197 321.155 20.329C321.437 19.9383 321.833 19.645 322.289 19.49Z" fill="black"/>
<path d="M343.123 19.49C343.556 19.4238 343.999 19.4846 344.398 19.6649C344.797 19.8452 345.135 20.1374 345.371 20.506C345.558 20.8016 345.665 21.1405 345.683 21.4899C345.7 21.8392 345.627 22.1871 345.471 22.5C345.29 22.8215 345.03 23.0908 344.714 23.2818C344.399 23.4728 344.04 23.5789 343.671 23.59C343.141 23.5967 342.627 23.4025 342.234 23.0464C341.841 22.6902 341.597 22.1985 341.552 21.67C341.555 21.1882 341.709 20.7195 341.99 20.3288C342.272 19.9381 342.669 19.645 343.125 19.49" fill="black"/>
<path d="M410.719 89.311H497.26C497.397 89.3112 497.533 89.2842 497.66 89.2317C497.787 89.1792 497.903 89.1021 498 89.005C498.097 88.9078 498.174 88.7924 498.227 88.6655C498.279 88.5385 498.306 88.4024 498.306 88.265V55.041C498.306 54.9035 498.279 54.7674 498.227 54.6403C498.174 54.5132 498.097 54.3977 498 54.3004C497.903 54.2031 497.788 54.1259 497.661 54.0731C497.534 54.0204 497.397 53.9932 497.26 53.993H410.719C410.581 53.9929 410.445 54.0199 410.318 54.0725C410.191 54.1252 410.075 54.2024 409.978 54.2997C409.88 54.397 409.803 54.5126 409.75 54.6398C409.698 54.767 409.671 54.9034 409.671 55.041V88.266C409.671 88.4036 409.698 88.5398 409.751 88.6668C409.803 88.7938 409.881 88.9092 409.978 89.0064C410.075 89.1035 410.191 89.1805 410.318 89.233C410.445 89.2854 410.581 89.3113 410.719 89.311ZM496.209 87.218H411.766V56.084H496.209V87.218Z" fill="black"/>
<path d="M452.438 137.196H497.26C497.398 137.196 497.534 137.169 497.661 137.116C497.788 137.063 497.903 136.986 498 136.889C498.097 136.791 498.174 136.676 498.227 136.549C498.279 136.422 498.306 136.285 498.306 136.148V110.66C498.306 110.523 498.279 110.386 498.227 110.259C498.174 110.132 498.097 110.017 498 109.919C497.903 109.822 497.788 109.745 497.661 109.692C497.534 109.639 497.398 109.612 497.26 109.612H452.438C452.16 109.612 451.894 109.723 451.697 109.919C451.501 110.116 451.39 110.382 451.39 110.66V136.148C451.39 136.426 451.501 136.692 451.697 136.889C451.894 137.085 452.16 137.196 452.438 137.196ZM496.212 135.096H453.485V111.696H496.212V135.096Z" fill="black"/>
<path d="M381.037 137.196H425.857C426.135 137.196 426.401 137.085 426.598 136.889C426.794 136.692 426.905 136.426 426.905 136.148V110.66C426.905 110.382 426.794 110.116 426.598 109.919C426.401 109.723 426.135 109.612 425.857 109.612H381.037C380.899 109.612 380.763 109.639 380.636 109.692C380.509 109.744 380.393 109.821 380.296 109.919C380.198 110.016 380.121 110.132 380.069 110.259C380.016 110.386 379.989 110.522 379.989 110.66V136.148C379.989 136.286 380.016 136.422 380.069 136.549C380.121 136.676 380.198 136.792 380.296 136.889C380.393 136.987 380.509 137.064 380.636 137.116C380.763 137.169 380.899 137.196 381.037 137.196ZM424.809 135.096H382.082V111.696H424.808L424.809 135.096Z" fill="black"/>
<path d="M309.635 137.196H354.461C354.739 137.196 355.005 137.085 355.202 136.889C355.398 136.692 355.509 136.426 355.509 136.148V110.66C355.509 110.382 355.398 110.116 355.202 109.919C355.005 109.723 354.739 109.612 354.461 109.612H309.635C309.498 109.612 309.361 109.639 309.234 109.692C309.107 109.745 308.992 109.822 308.895 109.919C308.798 110.017 308.721 110.132 308.668 110.259C308.616 110.386 308.589 110.523 308.589 110.66V136.148C308.589 136.285 308.616 136.422 308.668 136.549C308.721 136.676 308.798 136.791 308.895 136.889C308.992 136.986 309.107 137.063 309.234 137.116C309.361 137.169 309.498 137.196 309.635 137.196ZM353.409 135.096H310.682V111.696H353.408L353.409 135.096Z" fill="black"/>
<path d="M332.045 61.865L383.837 61.524C383.883 61.524 383.928 61.5149 383.97 61.4973C384.012 61.4798 384.05 61.454 384.082 61.4215C384.114 61.3891 384.14 61.3506 384.157 61.3082C384.174 61.2659 384.183 61.2206 384.182 61.175C384.184 61.1286 384.176 61.0825 384.158 61.0394C384.141 60.9963 384.115 60.9573 384.082 60.9247C384.049 60.8921 384.01 60.8667 383.967 60.85C383.924 60.8334 383.877 60.8259 383.831 60.828L332.041 61.167C331.948 61.167 331.859 61.2039 331.794 61.2695C331.728 61.3351 331.691 61.4242 331.691 61.517C331.691 61.6098 331.728 61.6988 331.794 61.7645C331.859 61.8301 331.948 61.867 332.041 61.867" fill="black"/>
<path d="M342.171 72.171L383.844 71.827C383.937 71.827 384.026 71.7901 384.091 71.7245C384.157 71.6589 384.194 71.5698 384.194 71.477C384.194 71.3842 384.157 71.2952 384.091 71.2295C384.026 71.1639 383.937 71.127 383.844 71.127L342.18 71.466C342.087 71.466 341.998 71.5029 341.933 71.5685C341.867 71.6342 341.83 71.7232 341.83 71.816C341.83 71.9088 341.867 71.9979 341.933 72.0635C341.998 72.1291 342.087 72.166 342.18 72.166" fill="black"/>
<path d="M332.045 82.477L383.837 82.138C383.883 82.1376 383.928 82.1282 383.97 82.1104C384.012 82.0925 384.05 82.0666 384.082 82.034C384.114 82.0014 384.14 81.9628 384.157 81.9204C384.174 81.8781 384.182 81.8327 384.182 81.787C384.184 81.7406 384.176 81.6943 384.159 81.6511C384.142 81.6079 384.116 81.5687 384.083 81.536C384.05 81.5034 384.011 81.478 383.967 81.4615C383.924 81.4449 383.877 81.4376 383.831 81.44L332.041 81.779C331.948 81.779 331.859 81.8159 331.794 81.8815C331.728 81.9472 331.691 82.0362 331.691 82.129C331.691 82.2218 331.728 82.3109 331.794 82.3765C331.859 82.4421 331.948 82.479 332.041 82.479" fill="black"/>
<path d="M456.7 153.333L493 152.994C493.093 152.994 493.182 152.957 493.247 152.891C493.313 152.826 493.35 152.737 493.35 152.644C493.35 152.551 493.313 152.462 493.247 152.397C493.182 152.331 493.093 152.294 493 152.294L456.7 152.633C456.607 152.633 456.518 152.67 456.453 152.736C456.387 152.801 456.35 152.89 456.35 152.983C456.35 153.076 456.387 153.165 456.453 153.23C456.518 153.296 456.607 153.333 456.7 153.333Z" fill="black"/>
<path d="M460.247 163.639L489.447 163.3C489.54 163.3 489.629 163.263 489.694 163.198C489.76 163.132 489.797 163.043 489.797 162.95C489.797 162.857 489.76 162.768 489.694 162.703C489.629 162.637 489.54 162.6 489.447 162.6L460.247 162.939C460.154 162.939 460.065 162.976 460 163.042C459.934 163.107 459.897 163.196 459.897 163.289C459.897 163.382 459.934 163.471 460 163.537C460.065 163.602 460.154 163.639 460.247 163.639Z" fill="black"/>
<path d="M385.297 153.333L421.597 152.994C421.69 152.994 421.779 152.957 421.844 152.891C421.91 152.826 421.947 152.737 421.947 152.644C421.947 152.551 421.91 152.462 421.844 152.397C421.779 152.331 421.69 152.294 421.597 152.294L385.297 152.633C385.204 152.633 385.115 152.67 385.05 152.736C384.984 152.801 384.947 152.89 384.947 152.983C384.947 153.076 384.984 153.165 385.05 153.23C385.115 153.296 385.204 153.333 385.297 153.333Z" fill="black"/>
<path d="M388.847 163.639L418.047 163.3C418.14 163.3 418.229 163.263 418.294 163.198C418.36 163.132 418.397 163.043 418.397 162.95C418.397 162.857 418.36 162.768 418.294 162.703C418.229 162.637 418.14 162.6 418.047 162.6L388.847 162.939C388.754 162.939 388.665 162.976 388.6 163.042C388.534 163.107 388.497 163.196 388.497 163.289C388.497 163.382 388.534 163.471 388.6 163.537C388.665 163.602 388.754 163.639 388.847 163.639Z" fill="black"/>
<path d="M313.897 153.333L350.197 152.994C350.29 152.994 350.379 152.957 350.444 152.891C350.51 152.826 350.547 152.737 350.547 152.644C350.547 152.551 350.51 152.462 350.444 152.397C350.379 152.331 350.29 152.294 350.197 152.294L313.897 152.633C313.804 152.633 313.715 152.67 313.65 152.736C313.584 152.801 313.547 152.89 313.547 152.983C313.547 153.076 313.584 153.165 313.65 153.23C313.715 153.296 313.804 153.333 313.897 153.333Z" fill="black"/>
<path d="M317.446 163.639L346.646 163.3C346.739 163.3 346.828 163.263 346.893 163.198C346.959 163.132 346.996 163.043 346.996 162.95C346.996 162.857 346.959 162.768 346.893 162.703C346.828 162.637 346.739 162.6 346.646 162.6L317.446 162.939C317.353 162.939 317.264 162.976 317.199 163.042C317.133 163.107 317.096 163.196 317.096 163.289C317.096 163.382 317.133 163.471 317.199 163.537C317.264 163.602 317.353 163.639 317.446 163.639Z" fill="black"/>
<path d="M190.329 28.352C203.403 25.702 236.271 18.192 243.346 33.919C262.91 77.424 87.494 140.282 64.416 118.946C42.949 99.1 114.777 57.066 121.51 53.707C143.542 42.717 166.71 33.138 190.328 28.352" fill="white"/>
<path d="M82.036 124.278C94.31 124.278 111.362 121.291 131.553 115.416C165.212 105.616 199.317 90.042 220.562 74.76C241.47 59.72 249.678 45.446 244.302 33.492C237.186 17.67 206.594 23.948 191.894 26.966L190.12 27.328C169.364 31.534 147.413 39.617 121.044 52.774C120.47 53.06 62.87 84.805 59.528 108.22C59.1821 110.333 59.3844 112.499 60.1156 114.512C60.8468 116.524 62.0824 118.315 63.704 119.713C67.01 122.767 73.318 124.274 82.036 124.274M220.663 25.32C230.423 25.32 239.263 27.405 242.39 34.356C248.604 48.171 233.284 63.028 219.338 73.063C198.275 88.218 164.413 103.678 130.966 113.408C97.657 123.108 72.428 124.931 65.126 118.185C63.751 117.019 62.7032 115.515 62.0853 113.821C61.4675 112.128 61.3009 110.303 61.602 108.525C64.525 88.025 114.907 58.179 121.979 54.652C148.179 41.582 169.965 33.552 190.537 29.386L192.315 29.02C199.023 27.646 210.355 25.32 220.663 25.32Z" fill="black"/>
<path d="M103.004 112.093C103.404 129.386 92.817 147.043 76.483 152.737C67.589 155.837 57.84 155.4 48.727 157.779C39.614 160.158 30.327 167.018 30.266 176.437C30.226 182.694 33.775 196.884 15.043 205.198C-0.411011 212.056 3.281 249.158 51.143 264.76C65.805 269.539 56.354 257.515 71.596 255.17C86.647 252.854 100.296 244.341 110.684 233.204C121.072 222.067 128.415 208.41 134.138 194.304C140.731 178.055 145.338 160.104 141.267 143.05C137.196 125.996 122.152 110.581 103.004 112.093Z" fill="black"/>
<path d="M56.584 266.906C59.844 266.906 61.061 265.143 62.284 262.706C63.573 260.141 65.033 257.234 71.754 256.206C85.995 254.015 100.092 246.099 111.447 233.918C120.676 224.018 128.416 211.187 135.107 194.693C143.512 173.977 145.792 157.487 142.282 142.804C138.318 126.216 123.162 109.448 102.923 111.052C102.656 111.073 102.407 111.195 102.228 111.393C102.048 111.592 101.952 111.851 101.958 112.119C102.358 129.727 91.504 146.396 76.139 151.751C71.292 153.442 66.039 154.075 60.956 154.687C56.7498 155.098 52.5763 155.793 48.464 156.768C39.24 159.177 29.285 166.358 29.22 176.434C29.22 177.249 29.269 178.195 29.326 179.194C29.732 186.394 30.346 197.264 14.62 204.244C8.81996 206.818 5.47397 213.42 5.88697 221.471C6.60197 235.377 18.796 255.32 50.817 265.757C52.67 266.434 54.6161 266.822 56.587 266.908M105.594 113.037C123.425 113.037 136.645 128.237 140.241 143.288C143.641 157.527 141.397 173.611 133.163 193.905C126.57 210.154 118.963 222.776 109.912 232.487C98.876 244.325 85.212 252.013 71.432 254.134C63.645 255.334 61.776 259.051 60.411 261.769C59.046 264.487 58.292 265.99 51.462 263.763C20.453 253.654 8.66196 234.604 7.97796 221.363C7.60996 214.198 10.478 208.371 15.469 206.157C32.519 198.59 31.828 186.375 31.416 179.077C31.359 178.067 31.31 177.197 31.316 176.446C31.373 167.476 40.516 161.007 48.994 158.793C53.0151 157.845 57.0952 157.168 61.207 156.765C66.399 156.141 71.769 155.493 76.83 153.73C92.73 148.184 104.061 131.194 104.065 113.078C104.579 113.053 105.092 113.04 105.597 113.04" fill="black"/>
<path d="M196.56 72.595C191.518 97.169 186.648 123.614 196.712 146.595C199.982 154.065 204.738 160.863 207.424 168.559C210.618 177.709 210.724 187.659 209.845 197.309C208.192 215.554 202.714 234.272 189.883 247.351C177.052 260.43 155.583 266.128 139.759 256.903C125.872 248.809 119.53 231.414 120.404 215.364C121.278 199.314 128.126 184.247 135.354 169.888C152.717 135.388 172.954 102.344 196.554 72.597" fill="black"/>
<path d="M157.243 262.425C169.831 262.243 181.835 257.085 190.631 248.078C202.084 236.403 208.9 219.351 210.889 197.397C211.973 185.425 211.189 176.15 208.413 168.209C206.715 163.733 204.661 159.4 202.27 155.253C200.67 152.307 199.025 149.263 197.67 146.168C188.137 124.405 191.991 100.068 197.583 72.801C197.626 72.5724 197.591 72.336 197.485 72.1291C197.379 71.9222 197.207 71.7566 196.996 71.6583C196.785 71.56 196.547 71.5346 196.321 71.5862C196.094 71.6377 195.891 71.7633 195.743 71.943C173.495 99.988 152.864 132.781 134.424 169.416C127.295 183.576 120.262 198.784 119.362 215.305C118.371 233.505 126.173 250.191 139.237 257.805C144.725 260.914 150.94 262.51 157.247 262.43M194.657 76.707C189.497 102.587 186.487 125.853 195.751 147.007C197.142 150.18 198.812 153.266 200.429 156.248C202.764 160.298 204.772 164.528 206.436 168.897C209.107 176.547 209.859 185.542 208.802 197.207C206.859 218.668 200.242 235.287 189.136 246.607C175.666 260.338 154.667 264.37 140.286 255.99C127.895 248.766 120.5 232.838 121.448 215.412C122.324 199.294 129.261 184.312 136.288 170.351C153.911 135.344 173.534 103.861 194.656 76.705" fill="black"/>
<path d="M161.023 192.447C160.572 179.347 162.187 172.011 162.714 162.215C157.41 159.563 151.735 157.731 145.881 156.784C143.256 156.361 140.299 156.198 138.281 157.784C137.015 158.777 131.025 153.491 130.405 154.946C126.138 164.946 125.776 179.203 121.511 189.202C121.183 189.972 106.239 188.586 105.911 189.361C104.522 192.619 105.687 219.728 106.722 220.416C161.397 256.769 187.732 204.778 187.732 204.778C187.732 204.778 177.816 198.697 161.024 192.451" fill="white"/>
<path d="M143.526 234.371C147.448 234.377 151.355 233.875 155.148 232.877C177.423 227.008 188.22 206.133 188.669 205.246C188.788 205.011 188.814 204.741 188.742 204.488C188.67 204.235 188.506 204.018 188.282 203.881C179.9 199.086 171.124 195.015 162.05 191.712C161.89 185.013 162.201 178.312 162.981 171.657C163.281 168.67 163.581 165.58 163.762 162.272C163.773 162.068 163.725 161.866 163.623 161.689C163.52 161.513 163.369 161.37 163.186 161.279C157.788 158.576 152.008 156.713 146.048 155.753C143.448 155.332 140.164 155.082 137.77 156.853C136.688 156.466 135.655 155.952 134.695 155.321C132.574 154.079 131.323 153.393 130.322 153.721C130.126 153.785 129.945 153.89 129.793 154.029C129.641 154.169 129.521 154.34 129.441 154.53C127.265 159.635 126.078 165.856 124.93 171.874C123.836 177.608 122.705 183.53 120.73 188.35C119.589 188.462 116.266 188.329 113.768 188.229C106.102 187.92 105.356 187.979 104.946 188.944C103.974 191.221 104.211 201.544 104.36 205.881C104.853 220.427 105.723 221.004 106.14 221.281C119.24 229.989 131.764 234.366 143.522 234.368M186.322 205.158C184.03 209.158 173.449 225.895 154.592 230.852C140.258 234.622 124.426 230.863 107.522 219.685C106.631 216.804 105.774 194.41 106.743 190.194C107.928 190.094 111.211 190.222 113.683 190.321C121.322 190.621 122.063 190.567 122.473 189.608C124.651 184.503 125.836 178.282 126.986 172.266C128.078 166.543 129.206 160.629 131.173 155.813C132.021 156.196 132.844 156.634 133.635 157.125C135.929 158.469 137.741 159.532 138.929 158.6C140.692 157.216 143.482 157.453 145.715 157.813C151.236 158.706 156.596 160.402 161.626 162.847C161.448 165.836 161.175 168.568 160.889 171.447C160.069 178.426 159.762 185.456 159.97 192.48C159.977 192.688 160.046 192.888 160.167 193.057C160.289 193.225 160.457 193.354 160.652 193.426C169.508 196.651 178.093 200.575 186.326 205.161" fill="black"/>
<path d="M202.215 78.623C200.606 90.753 198.155 103.479 201.292 115.558C203.004 122.145 202.843 155.63 175.975 165.166C168.603 167.778 160.738 168.698 152.963 167.858C145.188 167.017 137.701 164.438 131.058 160.31C121.175 154.316 109.178 135.696 111.564 117.21C103.387 119.479 95.304 113.963 95.209 106.61C95.154 102.37 99.827 97.058 104.768 97.301C108.591 97.487 109.046 97.525 111.956 99.748C114.095 90.75 115.112 81.5219 114.985 72.274C124.279 62.036 139.178 56.806 154.085 54.574C159.031 53.7031 164.073 53.5117 169.071 54.005C183.371 55.791 203.871 66.165 202.218 78.624" fill="white"/>
<path d="M158.563 169.25C164.618 169.239 170.626 168.191 176.326 166.15C203.237 156.598 204.405 123.364 202.308 115.291C199.603 104.884 201.148 93.866 202.64 83.209C202.85 81.719 203.057 80.231 203.254 78.758C203.72 75.247 202.623 71.741 199.996 68.34C193.596 60.051 179.352 54.231 169.196 52.961C164.103 52.4648 158.966 52.6585 153.924 53.537C141.595 55.385 124.698 60.014 114.205 71.569C114.026 71.7665 113.929 72.0247 113.934 72.291C114.06 80.9203 113.169 89.5345 111.278 97.955C109.223 96.528 108.228 96.418 104.816 96.255C103.479 96.2457 102.154 96.5075 100.921 97.0245C99.6886 97.5415 98.5733 98.303 97.643 99.263C95.5566 101.162 94.3039 103.808 94.157 106.625C94.2088 108.449 94.6811 110.235 95.5369 111.846C96.3927 113.458 97.609 114.849 99.091 115.913C100.694 117.091 102.518 117.933 104.455 118.386C106.392 118.84 108.401 118.896 110.36 118.552C108.66 137.388 120.778 155.301 130.51 161.204C138.942 166.415 148.648 169.2 158.56 169.251M201.177 78.482C200.982 79.955 200.777 81.433 200.565 82.918C199.043 93.776 197.47 105.007 200.279 115.818C201.454 120.339 202.933 154.485 175.624 164.177C168.402 166.759 160.69 167.672 153.065 166.847C145.44 166.021 138.102 163.479 131.6 159.412C122.34 153.794 110.247 135.585 112.6 117.344C112.622 117.173 112.601 116.999 112.539 116.837C112.478 116.676 112.377 116.532 112.247 116.419C112.116 116.306 111.96 116.227 111.791 116.189C111.623 116.151 111.447 116.155 111.281 116.201C109.429 116.725 107.483 116.821 105.589 116.48C103.695 116.139 101.904 115.372 100.351 114.235C99.1257 113.363 98.1182 112.22 97.407 110.895C96.6959 109.57 96.3003 108.099 96.251 106.596C96.3987 104.356 97.4204 102.264 99.096 100.771C99.8211 100.011 100.692 99.404 101.657 98.9876C102.621 98.5711 103.66 98.3533 104.711 98.347C108.419 98.527 108.642 98.54 111.311 100.578C111.45 100.684 111.614 100.754 111.787 100.78C111.96 100.806 112.137 100.789 112.302 100.729C112.467 100.67 112.614 100.57 112.73 100.438C112.846 100.307 112.927 100.149 112.966 99.978C115.095 91.0343 116.123 81.8641 116.029 72.671C126.129 61.791 142.347 57.385 154.229 55.605C159.081 54.7581 164.026 54.568 168.929 55.04C178.663 56.253 192.275 61.777 198.329 69.619C200.602 72.561 201.559 75.546 201.17 78.479" fill="black"/>
<path d="M143.514 127.743C152.264 127.743 160.009 120.525 161.27 110.753C161.958 105.801 160.782 100.771 157.97 96.637C156.674 94.6734 154.969 93.0122 152.973 91.7666C150.976 90.521 148.735 89.7203 146.401 89.419C144.068 89.1177 141.697 89.3229 139.449 90.0205C137.202 90.7182 135.132 91.892 133.379 93.462C129.609 96.7456 127.193 101.312 126.599 106.276C125.24 116.804 131.912 126.376 141.47 127.61C142.148 127.698 142.831 127.743 143.514 127.743ZM144.333 91.379C144.935 91.3786 145.536 91.4173 146.133 91.495C148.171 91.7746 150.127 92.4839 151.871 93.576C153.615 94.6681 155.107 96.1181 156.248 97.83C158.765 101.536 159.815 106.046 159.194 110.483C157.983 119.868 150.15 126.618 141.738 125.532C133.326 124.446 127.463 115.927 128.674 106.544C129.203 102.094 131.364 97.9996 134.74 95.053C137.392 92.7141 140.799 91.4097 144.335 91.379" fill="black"/>
<path d="M192.112 129.97C196.145 129.94 200.033 128.456 203.061 125.792C206.794 122.48 209.202 117.928 209.841 112.979C210.48 108.029 209.306 103.016 206.537 98.864C205.241 96.9004 203.536 95.2392 201.54 93.9936C199.543 92.748 197.302 91.9473 194.968 91.646C192.635 91.3447 190.264 91.5498 188.016 92.2475C185.769 92.9452 183.699 94.119 181.946 95.689C178.176 98.9726 175.76 103.539 175.166 108.503C173.807 119.031 180.479 128.603 190.037 129.837C190.725 129.925 191.419 129.97 192.112 129.97ZM192.903 93.606C193.505 93.6056 194.106 93.6443 194.703 93.722C196.742 94.0012 198.698 94.7103 200.441 95.8024C202.185 96.8946 203.677 98.3448 204.818 100.057C207.292 103.783 208.339 108.276 207.766 112.711C207.193 117.146 205.039 121.226 201.7 124.201C200.161 125.566 198.35 126.589 196.386 127.202C194.422 127.816 192.351 128.005 190.308 127.759C181.891 126.676 176.029 118.155 177.243 108.769C177.77 104.318 179.932 100.222 183.309 97.276C185.961 94.9371 189.368 93.6327 192.904 93.602" fill="black"/>
<path d="M113.041 101.006C120.902 88.829 125.715 80.062 128.308 65.245C157.297 82.377 184.833 79.433 212.601 78.353C213.092 73.5461 212.278 68.6958 210.246 64.312C205.446 53.354 199.446 43.867 182.687 36.396C170.942 31.159 155.13 27.684 142.414 29.523C129.776 31.352 118.907 38.182 110.059 46.384C103.019 52.91 97.059 63.607 94.959 74.178C93.159 83.231 95.374 89.905 99.429 99.123C101.709 97.895 103.853 96.653 106.494 97.159C109.135 97.665 110.835 99.007 113.036 101.007" fill="black"/>
<path d="M113.041 102.054C113.086 102.054 113.131 102.052 113.176 102.046C113.327 102.026 113.471 101.974 113.599 101.893C113.728 101.812 113.837 101.704 113.919 101.576C120.991 90.622 126.259 81.637 129.068 66.901C155.401 81.944 180.892 80.807 205.559 79.701C207.919 79.595 210.279 79.489 212.641 79.401C212.889 79.3914 213.126 79.2939 213.309 79.126C213.492 78.958 213.61 78.7305 213.641 78.484C214.153 73.4896 213.311 68.4494 211.205 63.892C206.811 53.872 201.024 43.422 183.113 35.438C172.583 30.745 156.323 26.451 142.264 28.487C130.913 30.127 119.836 35.887 109.346 45.617C101.955 52.469 96.046 63.333 93.935 73.974C92.003 83.704 94.72 91.009 98.473 99.545C98.531 99.6775 98.6159 99.7964 98.7223 99.8943C98.8287 99.9923 98.9542 100.067 99.091 100.114C99.2281 100.16 99.3731 100.178 99.5172 100.165C99.6613 100.153 99.8014 100.112 99.929 100.044L100.213 99.892C102.313 98.753 104.135 97.771 106.3 98.192C108.753 98.662 110.349 99.978 112.337 101.784C112.528 101.959 112.778 102.057 113.037 102.057M128.302 64.203C128.056 64.2037 127.817 64.2911 127.629 64.4498C127.44 64.6085 127.314 64.8284 127.271 65.071C124.689 79.828 119.651 88.771 112.819 99.413C111.124 97.7658 109 96.6294 106.689 96.134C104.096 95.634 101.965 96.589 99.933 97.664C95.956 88.464 94.379 82.464 95.985 74.383C97.985 64.31 103.785 53.623 110.765 47.155C120.938 37.725 131.635 32.142 142.557 30.563C156.173 28.595 171.991 32.781 182.257 37.355C199.484 45.034 205.057 55.092 209.284 64.736C211.098 68.681 211.911 73.0127 211.65 77.347C209.586 77.43 207.525 77.523 205.463 77.614C180.696 78.721 155.091 79.862 128.836 64.349C128.675 64.2536 128.49 64.2032 128.302 64.203Z" fill="black"/>
<path d="M155.033 147.454C157.052 147.49 159.018 146.81 160.583 145.534C160.794 145.355 160.925 145.101 160.949 144.826C160.973 144.551 160.887 144.278 160.71 144.066C160.534 143.853 160.28 143.72 160.006 143.693C159.731 143.667 159.457 143.75 159.243 143.925C157.268 145.57 154.313 145.815 151.343 144.573C147.931 143.102 145.19 140.41 143.657 137.025C143.599 136.9 143.517 136.788 143.415 136.695C143.313 136.602 143.195 136.53 143.065 136.483C142.936 136.436 142.798 136.415 142.661 136.421C142.523 136.427 142.388 136.46 142.263 136.519C142.139 136.577 142.027 136.659 141.934 136.761C141.841 136.862 141.769 136.981 141.722 137.11C141.675 137.24 141.654 137.377 141.66 137.515C141.666 137.652 141.699 137.787 141.757 137.912C143.509 141.771 146.639 144.838 150.533 146.512C151.956 147.121 153.485 147.442 155.033 147.458" fill="black"/>
<path d="M90.146 71.516C80.858 45.435 84.446 17.516 115.084 6.38699C146.245 -4.93401 165.13 1.26499 187.001 29.023C154.092 37.117 115.442 53.205 90.146 71.516Z" fill="white"/>
<path d="M90.148 72.566C90.3687 72.5659 90.5836 72.4959 90.762 72.366C114.396 55.259 152.271 38.645 187.248 30.041C187.418 29.999 187.574 29.915 187.704 29.7968C187.833 29.6787 187.93 29.53 187.987 29.3645C188.043 29.199 188.058 29.0219 188.029 28.8494C187.999 28.6769 187.927 28.5145 187.819 28.377C176.462 13.955 165.98 5.59201 154.843 2.05501C143.595 -1.51599 130.848 -0.452987 114.726 5.40601C100.083 10.725 90.634 20.023 86.642 33.041C83.219 44.206 84.089 57.634 89.159 71.871C89.2318 72.0747 89.3654 72.2511 89.5418 72.3763C89.7181 72.5015 89.9287 72.5695 90.145 72.571M185.168 28.4C150.948 37.027 114.212 53.141 90.675 69.848C80.548 40.008 89.748 16.708 115.442 7.37401C145.483 -3.54099 163.889 1.94301 185.168 28.4Z" fill="black"/>
<path d="M144.751 109.341C144.795 108.757 145.013 108.2 145.377 107.742C145.741 107.283 146.234 106.945 146.793 106.769C147.351 106.594 147.95 106.591 148.51 106.759C149.071 106.927 149.568 107.26 149.938 107.714C150.307 108.168 150.532 108.722 150.583 109.305C150.635 109.888 150.51 110.473 150.225 110.985C149.94 111.496 149.509 111.91 148.986 112.174C148.463 112.438 147.874 112.538 147.293 112.463C146.542 112.385 145.853 112.013 145.377 111.427C144.9 110.842 144.675 110.092 144.751 109.341Z" fill="black"/>
<path d="M188.006 111.617C188.05 111.033 188.268 110.476 188.632 110.018C188.996 109.559 189.489 109.221 190.048 109.045C190.606 108.87 191.205 108.867 191.765 109.035C192.326 109.203 192.823 109.536 193.193 109.99C193.562 110.444 193.787 110.998 193.838 111.581C193.89 112.164 193.765 112.749 193.48 113.261C193.195 113.772 192.764 114.186 192.241 114.45C191.718 114.714 191.129 114.814 190.548 114.739C189.797 114.661 189.109 114.288 188.632 113.703C188.156 113.118 187.93 112.368 188.006 111.617Z" fill="black"/>
<path d="M171.772 129.314C171.899 129.314 172.026 129.291 172.145 129.246L176.09 127.746C176.522 127.669 176.922 127.471 177.244 127.173C177.566 126.876 177.796 126.493 177.908 126.069C178.019 125.645 178.006 125.198 177.871 124.781C177.736 124.364 177.484 123.994 177.146 123.716C175.685 121.767 174.687 119.511 174.229 117.118C173.77 114.726 173.863 112.26 174.5 109.909C174.567 109.644 174.528 109.364 174.391 109.128C174.255 108.892 174.031 108.718 173.769 108.645C173.506 108.571 173.225 108.602 172.985 108.732C172.745 108.863 172.566 109.081 172.485 109.342C171.762 112.002 171.655 114.792 172.171 117.5C172.688 120.208 173.815 122.762 175.467 124.969C175.614 125.155 175.742 125.356 175.848 125.569C175.686 125.651 175.519 125.724 175.348 125.787L171.403 127.287C171.174 127.374 170.982 127.538 170.862 127.752C170.742 127.966 170.7 128.215 170.744 128.456C170.789 128.697 170.916 128.915 171.105 129.071C171.293 129.228 171.531 129.313 171.776 129.313" fill="black"/>
<path d="M176.909 105.785C177.183 105.785 177.446 105.677 177.642 105.485C177.837 105.293 177.95 105.032 177.956 104.758C178 102.04 175.363 100.146 172.728 99.473C170.583 98.941 168.343 98.9222 166.19 99.4183C164.037 99.9144 162.031 100.911 160.335 102.328C160.231 102.418 160.146 102.528 160.085 102.651C160.024 102.775 159.988 102.909 159.978 103.046C159.969 103.183 159.986 103.321 160.03 103.451C160.074 103.581 160.143 103.702 160.233 103.806C160.324 103.909 160.434 103.994 160.557 104.055C160.68 104.117 160.814 104.153 160.951 104.162C161.088 104.172 161.226 104.154 161.356 104.11C161.487 104.066 161.607 103.997 161.711 103.907C163.149 102.71 164.85 101.869 166.674 101.452C168.498 101.035 170.395 101.054 172.211 101.507C174.046 101.975 175.888 103.23 175.862 104.726C175.858 105.004 175.964 105.272 176.157 105.472C176.35 105.671 176.615 105.786 176.893 105.791L176.909 105.785Z" fill="black"/>
<path d="M128.668 101.19C128.946 101.19 129.214 101.079 129.41 100.882C129.607 100.686 129.718 100.418 129.718 100.14C129.718 99.8615 129.607 99.5945 129.41 99.3975C129.214 99.2006 128.946 99.09 128.668 99.09L114.355 99.05C114.215 99.0457 114.075 99.0695 113.944 99.1202C113.814 99.1708 113.694 99.2472 113.594 99.3448C113.493 99.4424 113.413 99.5592 113.358 99.6884C113.304 99.8175 113.276 99.9563 113.276 100.097C113.276 100.237 113.304 100.376 113.358 100.505C113.413 100.634 113.493 100.751 113.594 100.848C113.694 100.946 113.814 101.022 113.944 101.073C114.075 101.123 114.215 101.147 114.355 101.143L128.668 101.185V101.19Z" fill="black"/>
<path d="M111.745 111.087H111.756C111.894 111.086 112.03 111.058 112.157 111.004C112.284 110.95 112.399 110.872 112.495 110.774C112.592 110.675 112.668 110.559 112.719 110.431C112.771 110.303 112.796 110.167 112.795 110.029C112.763 106.514 113.451 103.03 114.818 99.791C114.873 99.6643 114.902 99.528 114.903 99.3899C114.905 99.2519 114.88 99.1149 114.828 98.9868C114.777 98.8587 114.701 98.742 114.604 98.6435C114.507 98.5449 114.392 98.4665 114.265 98.4126C114.138 98.3588 114.001 98.3306 113.863 98.3297C113.725 98.3288 113.589 98.3552 113.461 98.4073C113.333 98.4595 113.217 98.5364 113.119 98.6337C113.021 98.7309 112.943 98.8466 112.89 98.974C111.41 102.477 110.663 106.247 110.695 110.05C110.698 110.326 110.81 110.59 111.006 110.784C111.202 110.978 111.467 111.087 111.743 111.087" fill="black"/>
<path d="M6.89898 304.292C19.552 269.702 26.539 235.573 56.392 210.654C70.722 198.693 88.006 190.209 107.919 188.931C109.138 208.211 131.536 220.915 143.54 222.348C150.074 223.129 174.34 226.359 174.34 197.748C182.256 200.902 208.606 204.138 219.17 236.603C223.492 249.879 231.231 300.697 256.747 330.15C262.773 337.105 268.342 290.817 277.014 293.898C285.523 296.923 295.323 301.984 295.962 310.992C296.462 318.011 290.677 324.126 284.21 326.903C270.319 332.872 265.11 361.796 250.143 363.903C234.577 366.098 209.717 371.836 190.903 313.011C181.287 322.629 175.081 332.958 164.295 338.773C133.209 355.531 29.771 374.35 12.918 377.341C11.518 377.589 8.34196 376.441 7.78296 375.135C4.24196 366.85 -5.02503 336.883 6.89797 304.291" fill="white"/>
<path d="M12.524 378.418C12.7176 378.421 12.911 378.406 13.102 378.374C33.002 374.843 133.833 356.388 164.793 339.699C172.277 335.665 177.586 329.529 183.206 323.035C185.496 320.387 187.854 317.661 190.441 314.983C198.45 339.377 208.183 354.655 220.167 361.661C230.667 367.801 224.987 375.153 233.026 373.982C233.026 373.982 232.974 376.548 231.939 374.25C230.904 371.952 232.278 360.608 232.278 360.608C233.992 360.366 234.662 357.628 236.296 354.382C238.237 350.533 241.109 345.309 243.459 339.973C246.097 334.137 249.103 328.474 252.459 323.019C232.15 299.577 228.14 268.386 223.259 248.165C222.014 243.013 221.032 238.943 220.167 236.282C210.9 207.805 189.298 201.282 178.916 198.144C177.235 197.636 175.786 197.198 174.727 196.777C174.568 196.714 174.396 196.69 174.226 196.709C174.056 196.727 173.893 196.787 173.751 196.883C173.609 196.979 173.493 197.109 173.413 197.26C173.333 197.411 173.292 197.58 173.292 197.751C173.292 206.393 171.012 212.798 166.517 216.788C159.301 223.188 148.102 221.847 143.884 221.339L143.664 221.311C132.183 219.939 110.147 207.589 108.964 188.867C108.955 188.73 108.92 188.595 108.859 188.472C108.799 188.348 108.714 188.238 108.611 188.147C108.402 187.965 108.13 187.871 107.853 187.887C89.294 189.079 71.753 196.468 55.72 209.853C30.864 230.6 21.788 257.453 12.181 285.891C10.187 291.791 8.12301 297.891 5.91401 303.933C-4.89999 333.498 1.397 362.86 6.822 375.549C7.533 377.215 10.647 378.417 12.522 378.417M190.902 311.967C190.764 311.967 190.628 311.994 190.501 312.047C190.374 312.099 190.258 312.177 190.161 312.274C187.039 315.396 184.283 318.579 181.618 321.661C176.127 328.007 170.942 334.001 163.798 337.853C133.119 354.39 32.577 372.788 12.734 376.31C11.669 376.496 9.062 375.461 8.744 374.725C8.162 373.362 -5.382 340.907 7.88 304.652C10.098 298.588 12.164 292.473 14.162 286.559C23.674 258.414 32.662 231.829 57.062 211.459C72.45 198.612 89.235 191.418 106.96 190.048C108.048 200.731 115.16 208.48 121.034 213.148C127.834 218.556 136.621 222.573 143.415 223.386L143.637 223.411C148.107 223.949 159.986 225.373 167.906 218.348C172.606 214.182 175.106 207.754 175.365 199.226C176.235 199.516 177.228 199.817 178.311 200.143C189.123 203.409 209.248 209.488 218.176 236.924C219.016 239.506 219.99 243.543 221.224 248.652C226.149 269.044 230.724 300.495 251.361 324.321C251.819 324.849 247.355 331.821 243.461 340.632C238.94 349.244 236.141 360.056 232.28 360.601C231.761 360.673 233.568 362.786 233.028 362.865C217.661 365.104 209.828 368.715 191.903 312.69C191.849 312.519 191.751 312.365 191.62 312.242C191.489 312.12 191.328 312.033 191.154 311.99C191.073 311.971 190.99 311.961 190.906 311.96" fill="black"/>
<path d="M231.955 374.321L161.264 375.839L161.173 363.831L239.853 361.909L231.955 374.321Z" fill="white"/>
<path d="M161.164 376.884H161.183L225.724 375.373C225.886 375.366 226.042 375.318 226.18 375.233C226.318 375.148 226.431 375.029 226.51 374.888L233.343 362.074C233.433 361.885 233.48 361.679 233.48 361.469C233.48 361.26 233.433 361.054 233.343 360.865C233.169 360.528 233.243 360.848 232.891 360.865L161.057 362.787C160.795 362.807 160.55 362.928 160.376 363.126C160.202 363.323 160.112 363.58 160.124 363.843L160.207 375.851C160.207 376.126 160.311 376.391 160.497 376.594C160.582 376.686 160.685 376.76 160.8 376.81C160.915 376.861 161.039 376.887 161.164 376.888M225.172 373.288L162.113 374.77L162.043 364.856L231.143 363.006L225.172 373.288Z" fill="black"/>
<path d="M44.018 337.656C72.411 336.075 100.975 334.117 129.543 332.156C132.102 331.735 144.808 329.917 147.943 329.456C150.592 328.994 153.162 328.155 155.573 326.963C164.073 323.041 182.3 315.343 186.366 317.618C195.738 320.374 204.233 327.141 210.866 335.707C214.593 340.514 217.648 348.479 216.105 349.846C215.653 350.32 215.045 350.614 214.393 350.674C213.741 350.734 213.089 350.557 212.558 350.174C208.059 340.631 200.34 332.98 190.758 328.565C195.185 331.065 199.295 334.09 202.999 337.573C206.748 341.097 210.193 345.35 211.036 350.425C211.142 350.815 211.106 351.229 210.936 351.595C210.426 352.437 209.128 351.946 208.354 351.341C206.836 350.154 187.304 334.289 183.654 334.708C188.507 336.541 205.811 350.581 205.881 352.077C205.948 352.794 205.753 353.512 205.331 354.096C204.998 354.456 204.577 354.723 204.109 354.871C203.642 355.019 203.144 355.043 202.664 354.941C201.708 354.727 200.802 354.331 199.995 353.777C194.411 350.386 189.295 346.132 183.263 343.621C180.251 342.366 176.57 341.644 173.891 343.509C179.292 345.514 184.261 348.53 188.532 352.395C189.204 353.017 189.773 353.742 190.217 354.543C190.882 355.73 191.629 357.449 190.708 358.429C189.201 360.029 187.929 359.229 186.636 358.471C181.605 355.12 176.244 352.293 170.636 350.036C168.917 349.352 166.868 348.753 165.313 349.75C163.965 350.611 157.448 354.658 144.051 355.35C139.479 355.587 135.072 356.779 129.357 358.35C54.076 379.1 31.589 387.378 13.354 379.54C9.783 378.005 8.579 376.13 9.768 370.002C12.945 353.636 16.052 344.336 44.017 337.66" fill="white"/>
<path d="M28.629 383.535C43.052 383.535 63.598 377.788 102.237 366.985C110.378 364.71 119.604 362.129 129.637 359.363C134.952 357.898 139.543 356.635 144.106 356.398C156.643 355.748 163.506 352.148 165.88 350.63C167.042 349.883 168.826 350.439 170.249 351.009C175.793 353.235 181.092 356.028 186.062 359.344L186.202 359.427C187.489 360.18 189.432 361.319 191.472 359.143C193.053 357.462 191.61 354.878 191.133 354.029C190.635 353.131 189.997 352.317 189.243 351.62C185.53 348.239 181.281 345.497 176.67 343.507C178.793 343.307 180.932 343.679 182.863 344.584C186.76 346.369 190.468 348.539 193.933 351.061C195.722 352.274 197.572 353.527 199.455 354.67C200.376 355.295 201.409 355.737 202.497 355.97C203.159 356.107 203.845 356.066 204.487 355.852C205.128 355.638 205.701 355.258 206.148 354.751C206.735 353.969 207.014 352.998 206.931 352.023C206.886 351.754 206.776 351.501 206.611 351.284C206.753 351.396 206.895 351.51 207.036 351.625L207.711 352.161C208.094 352.486 208.537 352.733 209.016 352.885C209.494 353.038 209.999 353.094 210.499 353.05C210.774 353.002 211.036 352.895 211.266 352.738C211.497 352.58 211.691 352.375 211.835 352.136C212.013 351.839 212.116 351.504 212.135 351.158C212.859 351.611 213.715 351.805 214.564 351.708C215.412 351.611 216.203 351.229 216.806 350.625C219.323 348.392 214.867 339.149 211.699 335.059C204.445 325.699 195.824 319.332 186.763 316.638C181.854 314.189 163.044 322.357 155.136 326.006C152.813 327.151 150.34 327.962 147.791 328.417L143.467 329.043C138.351 329.782 131.36 330.794 129.421 331.111C101.551 333.027 72.735 335.006 43.96 336.611C43.8972 336.614 43.8349 336.623 43.774 336.639C15.182 343.463 11.965 353.191 8.73901 369.798C7.54901 375.936 8.60801 378.637 12.939 380.498C17.8979 382.602 23.2444 383.636 28.63 383.535M167.253 348.175C166.37 348.158 165.502 348.398 164.753 348.865C162.524 350.294 156.039 353.682 144.001 354.307C139.209 354.555 134.516 355.848 129.083 357.344C119.048 360.11 109.819 362.691 101.677 364.968C47.489 380.121 29.233 385.224 13.769 378.576C10.886 377.336 9.65201 376.104 10.799 370.198C13.944 353.998 16.859 345.232 44.172 338.698C72.948 337.098 101.755 335.115 129.616 333.198C129.65 333.198 129.683 333.194 129.716 333.187C131.564 332.887 138.911 331.82 143.77 331.117L148.101 330.49C150.849 330.008 153.515 329.139 156.019 327.91C171.297 320.857 183.29 317.088 185.859 318.529C185.928 318.566 186 318.597 186.075 318.62C194.624 321.134 203.139 327.427 210.048 336.343C213.858 341.258 216.025 348.082 215.393 349.091C215.138 349.349 214.812 349.524 214.456 349.593C214.1 349.662 213.732 349.622 213.399 349.478C208.76 339.833 200.912 332.102 191.199 327.609C190.954 327.499 190.676 327.488 190.423 327.578C190.17 327.667 189.961 327.85 189.839 328.089C189.717 328.328 189.692 328.605 189.768 328.862C189.844 329.12 190.017 329.338 190.249 329.472C194.602 331.932 198.643 334.907 202.286 338.332C206.886 342.654 209.337 346.549 210.007 350.594C210.033 350.726 210.046 350.86 210.047 350.994C209.664 350.926 209.304 350.759 209.004 350.511C208.888 350.418 208.661 350.24 208.344 349.986C187.338 333.226 184.576 333.542 183.544 333.665C183.31 333.691 183.093 333.795 182.925 333.961C182.758 334.126 182.652 334.343 182.623 334.576C182.594 334.809 182.644 335.045 182.766 335.246C182.888 335.447 183.074 335.602 183.294 335.684C187.794 337.384 203.494 350.084 204.848 352.276C204.883 352.533 204.852 352.794 204.757 353.035C204.661 353.276 204.506 353.488 204.305 353.652C204.104 353.815 203.865 353.924 203.61 353.968C203.354 354.013 203.092 353.99 202.848 353.904C202.024 353.707 201.245 353.359 200.548 352.877C198.711 351.762 196.882 350.523 195.117 349.325C191.536 346.722 187.702 344.485 183.674 342.649C180.711 341.417 176.507 340.414 173.303 342.643C173.146 342.752 173.022 342.901 172.945 343.075C172.867 343.249 172.838 343.441 172.861 343.631C172.884 343.82 172.959 343.999 173.076 344.149C173.194 344.299 173.351 344.414 173.529 344.482C178.807 346.434 183.661 349.38 187.829 353.16C188.42 353.706 188.919 354.344 189.308 355.048C190.396 356.991 190.074 357.575 189.949 357.706C189.092 358.62 188.622 358.406 187.263 357.615L187.17 357.56C182.095 354.18 176.686 351.332 171.028 349.06C169.835 348.534 168.556 348.234 167.254 348.173" fill="black"/>
<path d="M226.186 375.367L378.421 374.984C378.615 374.983 378.806 374.929 378.971 374.827C379.136 374.724 379.27 374.578 379.357 374.404L433.765 265.156C433.845 264.996 433.882 264.819 433.874 264.64C433.866 264.462 433.812 264.288 433.719 264.137C433.625 263.985 433.493 263.859 433.337 263.772C433.181 263.686 433.006 263.64 432.827 263.64L279.149 264.482C278.954 264.483 278.762 264.538 278.597 264.642C278.432 264.746 278.299 264.894 278.213 265.07L225.246 373.862C225.169 374.021 225.134 374.197 225.144 374.374C225.154 374.55 225.208 374.722 225.302 374.871C225.396 375.021 225.526 375.145 225.681 375.231C225.835 375.316 226.009 375.362 226.186 375.362M377.773 372.886L227.864 373.265L279.81 266.565L431.135 265.735L377.773 372.886Z" fill="black"/>
<path d="M335.628 309.014C339.99 308.586 344.757 309.753 346.535 313.76C347.337 315.808 347.497 318.051 346.992 320.192C346.488 322.332 345.343 324.268 343.711 325.742C342.039 327.169 340.053 328.18 337.915 328.692C335.777 329.204 333.548 329.202 331.411 328.686C329.053 328.273 326.937 326.987 325.482 325.086C324.591 323.693 324.13 322.068 324.157 320.415C324.121 315.015 326.581 309.9 335.627 309.015" fill="white"/>
<path d="M334.682 330.095C338.258 330.146 341.727 328.871 344.419 326.516C346.212 324.893 347.467 322.761 348.016 320.405C348.565 318.05 348.382 315.583 347.492 313.334C345.752 309.414 341.28 307.41 335.527 307.973C325.202 308.985 323.077 315.303 323.113 320.423C323.083 322.284 323.605 324.113 324.613 325.677C326.218 327.797 328.561 329.236 331.177 329.709C332.326 329.967 333.5 330.097 334.677 330.096M337.268 309.984C339.802 309.984 343.968 310.57 345.574 314.184C346.293 316.03 346.432 318.051 345.973 319.978C345.513 321.905 344.477 323.646 343.002 324.968C341.456 326.284 339.62 327.215 337.645 327.685C335.669 328.154 333.611 328.148 331.638 327.668C329.54 327.312 327.651 326.183 326.346 324.502C325.575 323.279 325.177 321.858 325.201 320.413C325.159 314.146 328.601 310.759 335.725 310.061C336.089 310.025 336.625 309.987 337.268 309.987" fill="black"/>
<path d="M60.957 337.72C61.1772 337.72 61.3917 337.65 61.5703 337.521C61.7488 337.393 61.8824 337.211 61.952 337.002C72.652 304.615 78.699 284.128 78.699 239.717C78.699 239.439 78.5884 239.171 78.3915 238.975C78.1945 238.778 77.9275 238.667 77.649 238.667C77.3705 238.667 77.1034 238.778 76.9065 238.975C76.7096 239.171 76.599 239.439 76.599 239.717C76.599 283.807 70.586 304.162 59.958 336.344C59.9061 336.501 59.8923 336.669 59.9177 336.833C59.9431 336.996 60.007 337.152 60.1041 337.286C60.2012 337.42 60.3288 337.53 60.4764 337.605C60.6239 337.681 60.7873 337.72 60.953 337.72" fill="black"/>
<path d="M190.898 314.06C191.067 314.06 191.234 314.02 191.384 313.941C191.534 313.863 191.662 313.75 191.759 313.611C205.559 293.755 201.828 279.211 198.219 265.151C196.419 258.128 194.551 250.866 194.845 242.926C194.855 242.648 194.754 242.378 194.565 242.175C194.376 241.972 194.114 241.852 193.836 241.842C193.559 241.831 193.289 241.932 193.085 242.121C192.882 242.31 192.762 242.572 192.752 242.85C192.452 251.092 194.352 258.505 196.189 265.672C199.842 279.904 203.295 293.349 190.038 312.416C189.929 312.573 189.865 312.757 189.853 312.948C189.841 313.138 189.882 313.329 189.97 313.498C190.059 313.668 190.192 313.81 190.355 313.909C190.519 314.008 190.706 314.061 190.897 314.061" fill="black"/>
<path d="M111.401 93.712C111.461 93.7127 111.52 93.6981 111.572 93.6696C111.625 93.6411 111.669 93.5995 111.701 93.549C114.611 88.9112 117.086 84.0144 119.094 78.921C119.128 78.8348 119.126 78.7387 119.089 78.6537C119.052 78.5688 118.983 78.502 118.897 78.468C118.811 78.4341 118.715 78.4358 118.63 78.4727C118.545 78.5096 118.478 78.5788 118.444 78.665C116.452 83.7185 113.996 88.5766 111.108 93.177C111.074 93.2302 111.055 93.2915 111.054 93.3544C111.052 93.4173 111.067 93.4796 111.098 93.5345C111.129 93.5895 111.174 93.6351 111.228 93.6665C111.283 93.6979 111.345 93.714 111.408 93.713" fill="black"/>
<path d="M105.95 92.644C106.014 92.6442 106.076 92.627 106.13 92.5942C106.185 92.5614 106.229 92.5143 106.259 92.4581L109.172 86.921C109.215 86.8391 109.224 86.7433 109.197 86.6548C109.169 86.5663 109.108 86.4923 109.026 86.449C108.944 86.4058 108.848 86.3969 108.76 86.4243C108.671 86.4517 108.597 86.5131 108.554 86.595L105.642 92.1321C105.614 92.1853 105.6 92.2448 105.602 92.305C105.603 92.3652 105.621 92.4239 105.652 92.4754C105.683 92.5269 105.727 92.5695 105.779 92.5991C105.832 92.6286 105.891 92.6441 105.951 92.644" fill="black"/>
<path d="M145.974 265.248C159.941 265.4 173.874 263.835 187.46 260.589C187.55 260.566 187.627 260.509 187.674 260.429C187.722 260.35 187.736 260.255 187.713 260.165C187.69 260.075 187.633 259.998 187.553 259.951C187.474 259.903 187.379 259.889 187.289 259.912C152.889 268.533 115.781 263.337 83.038 258.752C82.9462 258.739 82.8529 258.762 82.7787 258.818C82.7044 258.874 82.6552 258.956 82.642 259.048C82.6287 259.14 82.6524 259.233 82.708 259.307C82.7635 259.382 82.8462 259.431 82.938 259.444C102.858 262.234 124.397 265.244 145.971 265.244" fill="black"/>
<path d="M133.397 292.068C153.903 292.079 174.337 289.634 194.261 284.785C194.307 284.776 194.351 284.757 194.39 284.731C194.429 284.704 194.462 284.67 194.487 284.63C194.513 284.59 194.53 284.546 194.537 284.499C194.545 284.453 194.543 284.405 194.532 284.359C194.52 284.313 194.5 284.27 194.471 284.233C194.443 284.195 194.407 284.164 194.366 284.14C194.326 284.117 194.28 284.102 194.234 284.096C194.187 284.091 194.139 284.095 194.094 284.108C157.431 293.013 119.257 293.738 82.283 286.23C82.238 286.22 82.1916 286.22 82.1464 286.228C82.1012 286.236 82.0581 286.254 82.0196 286.279C81.9812 286.304 81.9481 286.337 81.9224 286.375C81.8967 286.413 81.8789 286.456 81.87 286.501C81.8516 286.592 81.8698 286.686 81.9205 286.763C81.9713 286.841 82.0505 286.895 82.141 286.914C99.0091 290.349 116.181 292.076 133.395 292.068" fill="black"/>
<path d="M4.54899 346.525C4.59973 346.525 4.64984 346.514 4.69593 346.493C4.74201 346.472 4.78298 346.441 4.81599 346.402C11.3316 338.883 19.6592 333.151 29.0098 329.751C38.3603 326.35 48.4242 325.394 58.248 326.971C58.3379 326.984 58.4292 326.961 58.5025 326.907C58.5757 326.853 58.6251 326.773 58.6402 326.683C58.6553 326.594 58.6349 326.502 58.5833 326.427C58.5318 326.352 58.4531 326.301 58.364 326.283C48.4208 324.688 38.2351 325.657 28.7711 329.098C19.3071 332.54 10.8781 338.34 4.28197 345.949C4.23846 346 4.21047 346.062 4.20133 346.128C4.19219 346.195 4.2023 346.262 4.23043 346.323C4.25856 346.384 4.30355 346.435 4.36002 346.471C4.4165 346.507 4.48209 346.525 4.54899 346.525Z" fill="black"/>
<path d="M6.89399 332.545C6.93883 332.545 6.98326 332.536 7.025 332.52C9.04164 331.569 10.8779 330.274 12.452 328.695C13.023 328.183 13.614 327.654 14.211 327.167C17.8604 324.176 22.2532 322.231 26.921 321.541C27.009 321.524 27.0871 321.474 27.1391 321.4C27.191 321.327 27.2128 321.237 27.2 321.148C27.1871 321.06 27.1405 320.979 27.07 320.924C26.9994 320.868 26.9103 320.842 26.821 320.851C22.0288 321.56 17.5189 323.556 13.772 326.627C13.164 327.127 12.572 327.658 11.99 328.174C10.4746 329.698 8.70812 330.949 6.76802 331.874C6.69278 331.904 6.63038 331.959 6.5915 332.031C6.55263 332.102 6.53969 332.184 6.55494 332.264C6.5702 332.343 6.61268 332.415 6.67509 332.467C6.7375 332.518 6.81597 332.547 6.89701 332.547" fill="black"/>
<path d="M242.844 32.928C235.564 18.677 196.601 19.198 177.708 19.352C149.29 21.229 101.719 44.237 87.108 60.83C70.545 79.645 54.169 102.574 60.953 113.962C61.586 97.037 98.578 65.889 135.179 50.224C177.829 31.968 231.765 19.907 242.84 32.924" fill="white"/>
<path d="M60.959 115.008C61.0455 115.008 61.1315 114.996 61.215 114.974C61.4343 114.919 61.6296 114.794 61.7715 114.617C61.9135 114.441 61.9944 114.224 62.002 113.998C62.602 97.939 99.054 66.825 135.593 51.185C178.574 32.785 231.604 21.336 242.045 33.606C242.211 33.8014 242.444 33.9288 242.698 33.9641C242.952 33.9994 243.211 33.9401 243.424 33.7974C243.637 33.6548 243.791 33.4387 243.855 33.1903C243.92 32.9419 243.891 32.6785 243.774 32.45C236.303 17.818 198.69 18.132 178.48 18.299L177.695 18.305C148.386 20.24 100.622 43.893 86.32 60.138C63.111 86.505 54.272 104.795 60.055 114.495C60.1476 114.651 60.2793 114.781 60.4371 114.87C60.595 114.96 60.7734 115.007 60.955 115.007M223.595 26.407C215.895 26.5437 208.222 27.3467 200.661 28.807C180.64 32.443 156.62 39.896 134.761 49.249C99.691 64.262 65.871 92.354 60.605 109.949C58.969 100.369 68.288 83.779 87.888 61.512C101.952 45.555 148.96 22.301 177.78 20.396H178.502C193.947 20.271 223.434 20.023 236.489 27.984C232.292 26.8427 227.951 26.3146 223.603 26.416" fill="black"/>
<path d="M90.512 50.839C90.5594 50.8391 90.6064 50.8296 90.65 50.811C90.6937 50.7925 90.7331 50.7653 90.766 50.731C98.312 42.751 108.046 37.312 117.372 32.422C132.934 24.264 149.805 16.456 167.742 14.568C167.788 14.5638 167.833 14.5504 167.874 14.5287C167.914 14.507 167.95 14.4774 167.98 14.4416C168.009 14.4058 168.031 14.3646 168.044 14.3203C168.057 14.276 168.062 14.2295 168.057 14.1835C168.052 14.1375 168.038 14.093 168.016 14.0525C167.993 14.012 167.963 13.9763 167.927 13.9475C167.891 13.9187 167.849 13.8974 167.805 13.8847C167.76 13.8721 167.714 13.8685 167.668 13.874C149.615 15.774 132.668 23.615 117.049 31.804C107.675 36.718 97.875 42.193 90.258 50.251C90.2114 50.3006 90.1803 50.3628 90.1685 50.4299C90.1568 50.4969 90.1649 50.5659 90.1919 50.6284C90.2189 50.6909 90.2636 50.7442 90.3205 50.7816C90.3773 50.819 90.4439 50.839 90.512 50.839Z" fill="black"/>
<path d="M90.433 43.116C90.4931 43.116 90.5522 43.1007 90.6047 43.0715C90.6572 43.0422 90.7013 43.0001 90.733 42.949C91.9143 41.0185 93.4052 39.2954 95.146 37.849C95.1813 37.8197 95.2105 37.7836 95.2319 37.743C95.2533 37.7024 95.2665 37.6579 95.2708 37.6122C95.275 37.5665 95.2701 37.5203 95.2566 37.4765C95.243 37.4326 95.2209 37.3918 95.1915 37.3565C95.1622 37.3212 95.1261 37.292 95.0855 37.2706C95.0449 37.2492 95.0004 37.236 94.9547 37.2318C94.9089 37.2275 94.8628 37.2324 94.819 37.246C94.7751 37.2596 94.7343 37.2817 94.699 37.311C92.899 38.8064 91.3574 40.5879 90.136 42.584C90.1036 42.6371 90.0859 42.6979 90.0848 42.76C90.0838 42.8222 90.0993 42.8836 90.1299 42.9377C90.1605 42.9918 90.205 43.0368 90.2588 43.068C90.3127 43.0992 90.3738 43.1154 90.436 43.115" fill="black"/>
<path d="M205.601 71.014C205.64 71.0139 205.68 71.0075 205.717 70.995C205.76 70.9797 205.8 70.9559 205.834 70.9251C205.868 70.8943 205.896 70.8571 205.916 70.8156C205.936 70.774 205.947 70.729 205.949 70.6831C205.951 70.6372 205.945 70.5913 205.929 70.548C202.986 62.2286 197.886 54.84 191.151 49.138C191.08 49.0782 190.989 49.0489 190.897 49.0566C190.804 49.0643 190.719 49.1083 190.659 49.179C190.599 49.2497 190.57 49.3412 190.578 49.4335C190.585 49.5258 190.629 49.6112 190.7 49.671C197.341 55.2931 202.37 62.5776 205.273 70.78C205.296 70.8483 205.341 70.9075 205.4 70.9493C205.458 70.9911 205.529 71.0144 205.601 71.014Z" fill="black"/>
<path d="M198.456 71.244C198.497 71.2443 198.538 71.2372 198.577 71.223C198.664 71.1904 198.734 71.125 198.773 71.041C198.811 70.957 198.815 70.8611 198.784 70.774C197.931 68.4653 196.599 66.3627 194.877 64.604C194.845 64.5712 194.807 64.545 194.764 64.527C194.722 64.5089 194.677 64.4994 194.631 64.4989C194.585 64.4984 194.539 64.5069 194.497 64.524C194.454 64.5411 194.415 64.5664 194.382 64.5985C194.35 64.6306 194.323 64.6689 194.305 64.7111C194.287 64.7533 194.278 64.7987 194.277 64.8446C194.277 64.8906 194.285 64.9361 194.302 64.9787C194.32 65.0214 194.345 65.0602 194.377 65.093C196.03 66.7806 197.308 68.7988 198.126 71.015C198.151 71.0821 198.195 71.1401 198.254 71.181C198.313 71.2219 198.382 71.2439 198.454 71.244" fill="black"/>
<path d="M20.173 235.387C20.2395 235.387 20.3047 235.368 20.3608 235.332C20.4169 235.297 20.4616 235.246 20.4896 235.185C20.5177 235.125 20.5279 235.058 20.5191 234.992C20.5103 234.926 20.4829 234.864 20.44 234.813C18.1561 232.052 16.6104 228.757 15.9477 225.235C15.285 221.714 15.527 218.082 16.651 214.68C16.6658 214.636 16.672 214.59 16.669 214.545C16.6661 214.499 16.6541 214.454 16.6338 214.413C16.6135 214.371 16.5853 214.334 16.5508 214.304C16.5162 214.274 16.476 214.25 16.4325 214.236C16.389 214.221 16.3429 214.215 16.297 214.218C16.2511 214.22 16.2063 214.232 16.165 214.253C16.1237 214.273 16.0868 214.301 16.0565 214.336C16.0261 214.37 16.0028 214.41 15.988 214.454C14.8273 217.971 14.5778 221.724 15.2631 225.364C15.9483 229.003 17.5458 232.409 19.906 235.263C19.9386 235.302 19.9794 235.334 20.0256 235.355C20.0717 235.377 20.122 235.387 20.173 235.387Z" fill="black"/>
<path d="M22.257 218.647C22.303 218.647 22.3484 218.637 22.3907 218.619C22.433 218.601 22.4714 218.575 22.5036 218.542C22.5358 218.51 22.5613 218.471 22.5785 218.428C22.5957 218.386 22.6044 218.34 22.604 218.294C22.5961 215.467 23.4824 212.709 25.136 210.416C25.1631 210.379 25.1826 210.337 25.1934 210.292C25.2042 210.247 25.206 210.201 25.1988 210.155C25.1915 210.11 25.1753 210.066 25.1512 210.027C25.127 209.988 25.0954 209.954 25.058 209.927C24.9827 209.874 24.8896 209.852 24.7986 209.867C24.7076 209.881 24.6259 209.931 24.571 210.005C22.8308 212.419 21.898 215.322 21.906 218.298C21.9059 218.344 21.9148 218.389 21.9323 218.432C21.9498 218.474 21.9755 218.513 22.0079 218.545C22.0404 218.578 22.0789 218.603 22.1213 218.621C22.1637 218.638 22.2091 218.647 22.255 218.647" fill="black"/>
<path d="M524.538 265.409C534.808 265.409 545.527 264.897 556.992 263.864C560.438 263.555 563.53 263.189 566.458 261.838C568.136 261.101 569.638 260.015 570.864 258.653C572.09 257.291 573.013 255.684 573.57 253.938C574.049 252.418 574.12 250.799 573.777 249.243C572.708 244.923 568.297 243.393 565.077 242.618C550.877 239.206 536.384 236.308 522.014 234.005C521.878 233.983 521.739 233.989 521.605 234.021C521.472 234.053 521.345 234.111 521.234 234.191C521.122 234.272 521.028 234.374 520.956 234.491C520.884 234.609 520.836 234.739 520.814 234.875C520.792 235.011 520.798 235.15 520.83 235.284C520.862 235.418 520.92 235.544 521 235.655C521.081 235.767 521.183 235.861 521.3 235.933C521.418 236.005 521.548 236.053 521.684 236.075C535.999 238.367 550.434 241.254 564.584 244.656C567.505 245.356 570.959 246.569 571.745 249.744C571.998 250.94 571.934 252.18 571.561 253.344C571.089 254.805 570.312 256.149 569.282 257.287C568.251 258.425 566.99 259.331 565.582 259.944C562.781 261.047 559.813 261.67 556.804 261.785C541.879 263.208 526.875 263.628 511.893 263.042C509.681 262.942 507.493 262.623 506.466 260.902C505.689 259.602 505.708 257.748 505.799 255.802C505.913 253.425 506.053 250.466 507.382 248.434C509.346 245.434 513.209 245.234 516.676 245.301C524.076 245.42 550.176 248.336 554.934 249.575C555.2 249.638 555.48 249.594 555.714 249.452C555.949 249.311 556.118 249.084 556.187 248.819C556.256 248.555 556.218 248.274 556.083 248.036C555.947 247.799 555.724 247.624 555.461 247.549C550.489 246.249 524.414 243.331 516.71 243.206C512.39 243.138 508.055 243.583 505.629 247.289C503.986 249.797 503.829 253.072 503.707 255.705C503.599 257.983 503.593 260.177 504.666 261.977C506.414 264.904 510.053 265.061 511.801 265.137C515.981 265.317 520.219 265.408 524.537 265.408" fill="black"/>
</g>
</svg>
