<svg width="577" height="544" viewBox="0 0 577 544" fill="none" xmlns="http://www.w3.org/2000/svg">
<mask id="mask0_0_1049" style="mask-type:luminance" maskUnits="userSpaceOnUse" x="0" y="22" width="565" height="522">
<path d="M564.164 22.6379H0V544H564.164V22.6379Z" fill="white"/>
</mask>
<g mask="url(#mask0_0_1049)">
<path d="M430.229 191.052C429.714 213.537 443.477 236.498 464.714 243.902C476.279 247.933 488.954 247.363 500.805 250.456C512.656 253.549 524.732 262.472 524.805 274.718C524.855 282.853 520.242 301.303 544.599 312.118C564.692 321.033 559.893 369.279 497.666 389.562C478.6 395.778 490.888 380.143 471.066 377.092C451.497 374.082 433.743 363.013 420.243 348.53C406.743 334.047 397.188 316.294 389.743 297.945C381.174 276.817 375.177 253.476 380.476 231.301C385.775 209.126 405.325 189.086 430.222 191.055" fill="black"/>
<path d="M490.587 392.351C486.348 392.351 484.767 390.059 483.175 386.894C481.5 383.558 479.601 379.778 470.865 378.436C452.348 375.587 434.016 365.296 419.253 349.456C407.253 336.581 397.189 319.9 388.487 298.456C377.559 271.519 374.593 250.078 379.159 230.985C384.314 209.417 404.019 187.61 430.334 189.698C430.681 189.726 431.004 189.886 431.237 190.144C431.47 190.402 431.596 190.74 431.588 191.088C431.065 213.983 445.188 235.656 465.162 242.62C471.462 244.82 478.3 245.641 484.906 246.435C490.374 246.971 495.8 247.876 501.147 249.143C513.141 252.274 526.085 261.611 526.168 274.712C526.176 275.772 526.107 277.002 526.032 278.303C525.503 287.659 524.706 301.803 545.153 310.872C552.695 314.219 557.045 322.803 556.508 333.272C555.581 351.355 539.724 377.284 498.09 390.856C495.681 391.737 493.152 392.243 490.59 392.356M426.859 192.279C403.674 192.279 386.482 212.048 381.806 231.612C377.382 250.129 380.306 271.042 391.012 297.43C399.584 318.561 409.474 334.971 421.247 347.597C435.595 362.991 453.364 372.986 471.281 375.744C481.406 377.3 483.834 382.137 485.609 385.67C487.384 389.203 488.367 391.158 497.246 388.264C537.567 375.121 552.906 350.349 553.789 333.13C554.268 323.813 550.536 316.235 544.049 313.356C521.88 303.519 522.777 287.634 523.314 278.143C523.389 276.833 523.452 275.701 523.447 274.724C523.372 263.059 511.478 254.651 500.461 251.771C495.233 250.538 489.928 249.657 484.582 249.135C477.829 248.321 470.846 247.479 464.265 245.184C443.585 237.977 428.858 215.884 428.853 192.329C428.183 192.296 427.518 192.279 426.859 192.279Z" fill="black"/>
<path d="M308.581 139.686C315.135 171.64 321.469 206.025 308.381 235.905C304.128 245.615 297.943 254.456 294.449 264.465C290.296 276.365 290.166 289.298 291.304 301.848C293.45 325.571 300.577 349.908 317.258 366.913C333.939 383.918 361.851 391.328 382.431 379.334C400.491 368.81 408.737 346.192 407.602 325.321C406.467 304.45 397.56 284.861 388.16 266.192C365.584 221.336 339.267 178.365 308.578 139.686" fill="black"/>
<path d="M354.789 295.531C355.376 278.498 353.274 268.957 352.589 256.22C359.486 252.771 366.867 250.39 374.479 249.16C377.89 248.609 381.736 248.396 384.361 250.46C386.006 251.75 393.794 244.878 394.603 246.769C400.149 259.769 400.619 278.308 406.168 291.312C406.594 292.312 426.023 290.512 426.452 291.512C428.26 295.745 426.743 330.997 425.4 331.891C354.305 379.16 320.063 311.559 320.063 311.559C320.063 311.559 332.957 303.659 354.791 295.531" fill="white"/>
<path d="M377.545 350.044C372.444 350.052 367.363 349.4 362.43 348.103C333.466 340.472 319.43 313.328 318.845 312.176C318.691 311.871 318.657 311.52 318.75 311.191C318.842 310.863 319.055 310.581 319.345 310.401C319.472 310.321 332.258 302.541 353.453 294.578C353.66 285.869 353.256 277.157 352.243 268.505C351.855 264.618 351.457 260.605 351.227 256.298C351.212 256.033 351.275 255.77 351.408 255.541C351.541 255.312 351.738 255.127 351.975 255.008C358.992 251.491 366.506 249.066 374.255 247.818C377.644 247.27 381.911 246.946 385.02 249.255C386.428 248.749 387.77 248.077 389.02 247.255C391.778 245.641 393.406 244.749 394.704 245.178C394.959 245.26 395.194 245.397 395.391 245.579C395.588 245.76 395.744 245.982 395.847 246.23C398.679 252.867 400.222 260.957 401.714 268.781C403.137 276.234 404.607 283.937 407.174 290.205C408.661 290.349 412.98 290.175 416.228 290.047C426.195 289.647 427.162 289.723 427.696 290.975C428.961 293.94 428.651 307.366 428.46 313C427.818 331.913 426.688 332.664 426.145 333.026C409.115 344.347 392.829 350.04 377.54 350.04M321.893 312.065C324.872 317.265 338.63 339.027 363.15 345.475C381.786 350.375 402.375 345.489 424.35 330.953C425.51 327.207 426.623 298.091 425.363 292.606C423.815 292.47 419.554 292.642 416.337 292.769C406.403 293.169 405.445 293.09 404.908 291.841C402.078 285.204 400.536 277.114 399.041 269.292C397.621 261.85 396.156 254.164 393.598 247.904C392.495 248.398 391.425 248.966 390.398 249.604C387.413 251.354 385.057 252.735 383.515 251.523C381.222 249.723 377.595 250.033 374.691 250.501C367.511 251.658 360.538 253.862 353.997 257.041C354.23 260.928 354.581 264.483 354.955 268.229C356.021 277.303 356.419 286.443 356.148 295.576C356.138 295.846 356.049 296.106 355.891 296.325C355.734 296.544 355.515 296.711 355.262 296.805C343.752 300.998 332.593 306.101 321.893 312.065Z" fill="black"/>
<path d="M301.228 147.527C303.316 163.301 306.505 179.846 302.428 195.554C300.199 204.118 300.412 247.654 335.346 260.054C344.932 263.451 355.159 264.648 365.27 263.555C375.381 262.461 385.117 259.107 393.755 253.739C406.602 245.948 422.201 221.739 419.097 197.7C429.732 200.651 440.245 193.48 440.364 183.917C440.436 178.404 434.364 171.496 427.938 171.817C422.965 172.061 422.376 172.11 418.593 174.998C415.81 163.299 414.486 151.3 414.653 139.276C402.564 125.962 383.194 119.162 363.812 116.257C357.381 115.124 350.825 114.875 344.326 115.518C325.726 117.838 299.082 131.327 301.226 147.527" fill="white"/>
<path d="M357.982 265.37C350.111 265.356 342.3 263.994 334.888 261.344C299.894 248.923 298.377 205.709 301.104 195.213C304.62 181.677 302.613 167.348 300.669 153.491C300.398 151.553 300.129 149.626 299.874 147.707C299.268 143.144 300.694 138.587 304.11 134.162C312.433 123.383 330.953 115.816 344.154 114.162C351.354 113.262 358.546 114.087 364.011 114.907C380.039 117.307 402.011 123.33 415.654 138.355C415.886 138.611 416.013 138.945 416.008 139.291C415.843 150.511 417.002 161.711 419.461 172.66C422.133 170.81 423.426 170.669 427.861 170.451C429.599 170.441 431.322 170.782 432.925 171.455C434.528 172.128 435.979 173.118 437.189 174.366C440.024 177.102 441.76 180.766 441.719 183.935C441.653 186.306 441.04 188.63 439.928 190.725C438.816 192.82 437.234 194.629 435.307 196.012C433.223 197.546 430.85 198.64 428.331 199.23C425.812 199.819 423.2 199.892 420.652 199.442C422.87 223.934 407.107 247.23 394.452 254.903C383.49 261.68 370.87 265.302 357.982 265.37ZM302.576 147.35C302.828 149.26 303.099 151.182 303.371 153.112C305.348 167.235 307.394 181.835 303.742 195.897C302.216 201.775 300.292 246.175 335.801 258.775C354.933 265.567 375.264 263.366 393.045 252.581C405.086 245.281 420.81 221.596 417.745 197.881C417.715 197.658 417.742 197.431 417.821 197.221C417.901 197.011 418.032 196.823 418.202 196.676C418.372 196.529 418.575 196.426 418.795 196.377C419.014 196.327 419.242 196.333 419.459 196.394C421.867 197.077 424.399 197.201 426.862 196.758C429.325 196.316 431.655 195.317 433.674 193.838C435.267 192.704 436.576 191.217 437.5 189.494C438.424 187.771 438.938 185.858 439.001 183.904C439.031 181.462 437.614 178.563 435.301 176.331C434.359 175.342 433.227 174.552 431.972 174.01C430.718 173.468 429.367 173.185 428.001 173.177C423.181 173.412 422.893 173.426 419.418 176.077C419.237 176.216 419.024 176.306 418.799 176.341C418.573 176.376 418.343 176.354 418.129 176.276C417.914 176.199 417.723 176.069 417.572 175.898C417.42 175.727 417.315 175.521 417.264 175.299C414.499 163.671 413.161 151.749 413.282 139.797C400.153 125.652 379.063 119.92 363.614 117.606C358.32 116.814 351.362 116.011 344.499 116.87C331.843 118.451 314.143 125.63 306.274 135.828C303.317 139.657 302.074 143.536 302.581 147.351" fill="black"/>
<path d="M377.518 211.399C372.274 211.361 367.219 209.433 363.281 205.97C358.378 201.701 355.237 195.763 354.465 189.308C352.695 175.619 361.371 163.178 373.802 161.568C376.836 161.195 379.915 161.47 382.834 162.377C385.754 163.283 388.447 164.8 390.736 166.826C395.589 171.134 398.721 177.052 399.552 183.488C400.383 189.924 398.857 196.443 395.257 201.842C393.557 204.382 391.337 206.532 388.744 208.15C386.151 209.768 383.244 210.817 380.215 211.228C379.32 211.343 378.418 211.401 377.515 211.4M376.485 164.118C375.704 164.118 374.923 164.169 374.148 164.27C363.209 165.678 355.589 176.757 357.165 188.959C357.852 194.745 360.662 200.07 365.05 203.902C367.04 205.695 369.394 207.037 371.951 207.835C374.508 208.634 377.207 208.869 379.863 208.526C382.52 208.184 385.071 207.27 387.341 205.849C389.612 204.427 391.548 202.532 393.017 200.292C396.234 195.447 397.595 189.604 396.85 183.836C396.106 178.068 393.306 172.762 388.964 168.892C385.514 165.853 381.085 164.157 376.488 164.116" fill="black"/>
<path d="M314.366 214.296C309.121 214.257 304.067 212.328 300.129 208.864C295.226 204.596 292.084 198.659 291.313 192.204C289.544 178.513 298.218 166.067 310.65 164.464C323.082 162.861 334.63 172.69 336.399 186.381C337.291 192.82 335.761 199.36 332.105 204.735C330.405 207.275 328.185 209.425 325.591 211.043C322.998 212.661 320.091 213.71 317.062 214.121C316.167 214.237 315.265 214.295 314.362 214.295M313.31 167.013C312.536 167.014 311.763 167.064 310.995 167.163C300.053 168.575 292.433 179.653 294.009 191.855C294.695 197.64 297.505 202.965 301.894 206.795C303.883 208.589 306.237 209.932 308.794 210.73C311.351 211.529 314.051 211.765 316.708 211.422C319.365 211.079 321.916 210.165 324.186 208.744C326.457 207.322 328.392 205.426 329.861 203.185C333.134 198.365 334.501 192.501 333.697 186.73C332.235 175.395 323.342 167.014 313.314 167.014" fill="black"/>
<path d="M433.05 51.151C430.739 43.5463 426.225 36.7977 420.079 31.7584C413.933 26.7191 406.43 23.6155 398.52 22.8402C390.61 22.0648 382.648 23.6524 375.64 27.4022C368.632 31.1521 362.894 36.8958 359.15 43.907C355.407 50.9182 353.827 58.882 354.609 66.7913C355.392 74.7007 358.502 82.2004 363.547 88.342C368.592 94.4836 375.345 98.9914 382.951 101.295C390.558 103.599 398.677 103.595 406.282 101.285C416.48 98.1864 425.029 91.1637 430.049 81.7618C435.069 72.3598 436.148 61.3488 433.05 51.151Z" fill="black"/>
<path d="M417.204 176.647C407.01 160.829 400.772 149.438 397.422 130.18C359.77 152.48 324.029 155.945 287.979 154.571C287.218 148.438 288.505 134.866 291.052 129.054C297.301 114.806 305.092 102.469 326.857 92.7389C342.11 85.9219 362.64 81.3869 379.147 83.7659C395.547 86.1279 409.653 94.9959 421.135 105.647C430.266 114.122 437.986 128.021 440.702 141.757C443.025 153.521 440.145 162.199 434.874 174.184C431.914 172.589 429.132 170.978 425.701 171.637C422.27 172.296 420.064 174.043 417.201 176.646" fill="black"/>
<path d="M362.578 237.031C359.952 237.077 357.395 236.191 355.36 234.531C355.082 234.3 354.908 233.968 354.875 233.608C354.843 233.248 354.954 232.89 355.186 232.613C355.417 232.335 355.749 232.161 356.109 232.128C356.468 232.095 356.826 232.207 357.104 232.438C359.671 234.581 363.514 234.899 367.379 233.285C371.818 231.37 375.383 227.87 377.379 223.467C377.452 223.301 377.558 223.151 377.69 223.027C377.821 222.902 377.977 222.805 378.147 222.742C378.317 222.678 378.497 222.649 378.679 222.656C378.86 222.663 379.038 222.707 379.202 222.784C379.366 222.861 379.513 222.97 379.635 223.104C379.756 223.239 379.85 223.397 379.909 223.568C379.969 223.739 379.994 223.921 379.983 224.102C379.971 224.283 379.924 224.46 379.843 224.622C377.563 229.638 373.495 233.623 368.433 235.799C366.583 236.59 364.595 237.008 362.583 237.028" fill="black"/>
<path d="M375.948 187.472C375.89 186.714 375.606 185.992 375.133 185.397C374.66 184.802 374.02 184.363 373.295 184.136C372.57 183.908 371.793 183.904 371.066 184.122C370.338 184.341 369.693 184.773 369.213 185.362C368.733 185.951 368.441 186.671 368.374 187.428C368.307 188.184 368.469 188.944 368.838 189.608C369.207 190.272 369.767 190.81 370.445 191.153C371.123 191.496 371.888 191.628 372.642 191.531C373.126 191.482 373.595 191.338 374.023 191.107C374.451 190.876 374.829 190.564 375.136 190.187C375.443 189.81 375.673 189.376 375.812 188.91C375.952 188.444 375.998 187.956 375.948 187.472Z" fill="black"/>
<path d="M319.702 190.434C319.645 189.676 319.362 188.952 318.889 188.357C318.416 187.761 317.776 187.321 317.05 187.094C316.325 186.866 315.548 186.862 314.82 187.08C314.091 187.299 313.446 187.731 312.966 188.321C312.486 188.91 312.194 189.63 312.127 190.388C312.061 191.145 312.223 191.905 312.593 192.569C312.963 193.233 313.524 193.771 314.203 194.113C314.882 194.455 315.648 194.586 316.402 194.488C317.377 194.387 318.272 193.904 318.89 193.144C319.509 192.383 319.801 191.409 319.702 190.434Z" fill="black"/>
<path d="M340.813 213.443C340.647 213.443 340.483 213.413 340.328 213.354L335.198 211.405C334.709 211.274 334.254 211.039 333.864 210.716C333.474 210.394 333.157 209.991 332.936 209.536C332.385 208.102 333.321 206.845 333.825 206.169C335.725 203.634 337.022 200.7 337.617 197.589C338.213 194.477 338.092 191.271 337.264 188.214C337.166 187.866 337.21 187.494 337.387 187.179C337.563 186.864 337.858 186.631 338.205 186.534C338.553 186.436 338.926 186.48 339.241 186.656C339.556 186.833 339.788 187.127 339.886 187.475C340.826 190.934 340.966 194.562 340.295 198.083C339.623 201.604 338.158 204.925 336.01 207.795C335.816 208.037 335.648 208.299 335.51 208.576C335.722 208.683 335.94 208.777 336.163 208.858L341.293 210.807C341.591 210.92 341.841 211.134 341.998 211.412C342.154 211.69 342.209 212.014 342.151 212.327C342.093 212.641 341.927 212.925 341.682 213.129C341.436 213.333 341.127 213.444 340.808 213.443" fill="black"/>
<path d="M334.131 182.848C333.774 182.848 333.432 182.708 333.178 182.458C332.924 182.208 332.778 181.868 332.772 181.511C332.711 177.975 336.142 175.511 339.572 174.639C342.36 173.949 345.272 173.925 348.071 174.57C350.87 175.215 353.477 176.51 355.682 178.351C355.954 178.588 356.121 178.924 356.146 179.284C356.17 179.644 356.051 179.999 355.814 180.271C355.576 180.544 355.241 180.71 354.88 180.735C354.52 180.76 354.165 180.64 353.893 180.403C352.023 178.847 349.812 177.753 347.441 177.21C345.069 176.667 342.603 176.69 340.242 177.277C337.858 177.886 335.46 179.52 335.494 181.463C335.5 181.824 335.362 182.172 335.111 182.431C334.861 182.691 334.518 182.84 334.157 182.847L334.131 182.848Z" fill="black"/>
<path d="M396.86 176.873C396.681 176.873 396.504 176.839 396.339 176.77C396.173 176.702 396.023 176.602 395.896 176.476C395.64 176.221 395.496 175.875 395.495 175.514C395.494 175.153 395.637 174.806 395.892 174.55C396.147 174.294 396.493 174.15 396.854 174.149L415.465 174.096C415.826 174.095 416.172 174.238 416.428 174.492C416.684 174.747 416.828 175.093 416.829 175.454C416.83 175.815 416.687 176.161 416.432 176.417C416.178 176.673 415.832 176.817 415.471 176.818L396.862 176.873H396.86Z" fill="black"/>
<path d="M418.86 189.745H418.846C418.667 189.743 418.49 189.706 418.326 189.636C418.161 189.566 418.012 189.464 417.887 189.336C417.762 189.209 417.663 189.057 417.596 188.891C417.529 188.725 417.496 188.548 417.498 188.369C417.539 183.799 416.644 179.268 414.868 175.057C414.727 174.725 414.724 174.35 414.859 174.015C414.994 173.681 415.257 173.413 415.59 173.272C415.922 173.132 416.297 173.128 416.631 173.264C416.966 173.399 417.233 173.662 417.374 173.994C419.296 178.549 420.266 183.45 420.223 188.394C420.219 188.753 420.074 189.095 419.819 189.347C419.564 189.6 419.22 189.741 418.861 189.742" fill="black"/>
<path d="M555.193 440.964C538.736 395.989 529.657 351.611 490.836 319.209C472.202 303.657 449.729 292.624 423.836 290.962C422.25 316.033 393.125 332.551 377.518 334.415C369.024 335.431 337.471 339.631 337.471 302.428C327.171 306.528 292.914 310.737 279.171 352.949C273.553 370.212 263.489 436.288 230.311 474.585C222.475 483.628 215.235 423.441 203.961 427.447C192.897 431.379 180.155 437.963 179.325 449.674C178.677 458.802 186.197 466.752 194.603 470.365C212.666 478.126 219.433 515.734 238.903 518.477C259.142 521.332 291.468 528.791 315.932 452.304C328.432 464.804 336.504 478.239 350.532 485.797C390.956 507.59 525.455 532.057 547.367 535.944C549.186 536.268 553.317 534.778 554.042 533.078C558.642 522.308 570.696 483.34 555.194 440.962" fill="#0086D5"/>
<path d="M547.875 537.347C547.624 537.349 547.374 537.329 547.127 537.289C521.25 532.696 390.127 508.689 349.885 486.998C340.153 481.754 333.25 473.774 325.946 465.33C322.967 461.888 319.899 458.344 316.538 454.861C306.122 486.58 293.466 506.445 277.886 515.555C264.228 523.54 251.22 521.646 240.766 520.123C240.068 520.02 239.384 519.92 238.714 519.823C227.65 518.264 220.568 506.3 213.714 494.73C207.985 485.053 202.06 475.044 194.07 471.611C185.537 467.948 177.25 459.711 177.97 449.575C178.67 439.675 187.027 432.021 203.509 426.163C204.105 425.947 204.739 425.858 205.372 425.902C206.004 425.946 206.62 426.121 207.18 426.418C212.402 429.026 216.38 441.782 220.235 454.118C222.813 462.369 226.343 473.665 228.635 474.144C228.835 474.172 229.186 473.809 229.288 473.693C255.693 443.212 267.51 394.272 273.859 367.98C275.476 361.28 276.759 355.986 277.879 352.528C289.929 315.502 318.017 307.018 331.515 302.94C333.702 302.281 335.588 301.711 336.967 301.162C337.173 301.08 337.397 301.049 337.618 301.074C337.839 301.098 338.05 301.176 338.234 301.3C338.418 301.425 338.568 301.593 338.672 301.79C338.776 301.986 338.83 302.205 338.83 302.427C338.83 313.665 341.795 321.994 347.643 327.179C357.026 335.505 371.584 333.755 377.069 333.099L377.357 333.063C392.283 331.28 420.937 315.218 422.476 290.876C422.499 290.516 422.664 290.179 422.935 289.94C423.206 289.701 423.561 289.58 423.921 289.602C448.051 291.15 470.857 300.76 491.708 318.164C524.027 345.14 535.825 380.064 548.32 417.03C550.912 424.702 553.594 432.64 556.468 440.495C570.528 478.933 562.343 517.114 555.289 533.616C554.364 535.781 550.314 537.346 547.872 537.346M315.932 450.946C316.294 450.946 316.64 451.09 316.896 451.346C320.952 455.405 324.538 459.546 328.001 463.546C335.142 471.8 341.883 479.594 351.175 484.602C391.048 506.096 521.793 530.026 547.598 534.602C548.988 534.843 552.377 533.502 552.787 532.542C553.546 530.77 571.155 488.566 553.911 441.428C551.026 433.54 548.34 425.588 545.74 417.899C533.372 381.299 521.691 346.737 489.964 320.251C469.952 303.551 448.128 294.186 425.081 292.411C423.666 306.299 414.421 316.377 406.781 322.452C397.938 329.482 386.517 334.709 377.681 335.764L377.393 335.797C371.576 336.497 356.132 338.347 345.835 329.213C339.73 323.797 336.471 315.439 336.135 304.35C335.003 304.727 333.712 305.117 332.303 305.543C318.243 309.787 292.076 317.695 280.469 353.365C279.375 356.723 278.107 361.973 276.504 368.615C270.104 395.131 258.183 444.49 231.343 475.472C230.981 475.981 230.482 476.378 229.903 476.614C229.325 476.85 228.691 476.917 228.076 476.807C224.396 476.04 221.838 468.387 217.635 454.926C214.296 444.241 210.143 430.943 205.959 428.853C205.726 428.723 205.468 428.644 205.202 428.623C204.936 428.601 204.668 428.637 204.417 428.728C189.064 434.185 181.301 441.065 180.683 449.768C180.063 458.523 187.743 465.932 195.141 469.11C203.948 472.892 210.103 483.289 216.056 493.342C222.878 504.865 229.321 515.749 239.089 517.126C239.765 517.22 240.454 517.326 241.154 517.426C261.133 520.339 291.332 524.735 314.634 451.89C314.705 451.667 314.831 451.467 315.002 451.308C315.173 451.149 315.382 451.037 315.609 450.982C315.714 450.957 315.822 450.944 315.93 450.943" fill="black"/>
<path d="M506.928 484.344C470.01 482.287 432.867 479.744 395.722 477.19C392.397 476.642 375.873 474.277 371.795 473.679C368.35 473.076 365.008 471.983 361.872 470.434C350.825 465.334 327.122 455.325 321.833 458.285C309.648 461.868 298.603 470.667 289.97 481.803C285.125 488.055 281.154 498.41 283.159 500.19C283.748 500.806 284.539 501.188 285.387 501.265C286.235 501.343 287.083 501.112 287.774 500.614C293.621 488.205 303.656 478.255 316.115 472.514C310.36 475.767 305.016 479.7 300.2 484.229C295.327 488.814 290.847 494.34 289.751 500.941C289.613 501.448 289.659 501.988 289.881 502.464C290.543 503.558 292.232 502.921 293.237 502.132C295.211 500.59 320.609 479.96 325.354 480.508C319.044 482.889 296.548 501.146 296.454 503.09C296.368 504.024 296.622 504.957 297.171 505.718C297.605 506.185 298.152 506.531 298.759 506.724C299.367 506.917 300.013 506.949 300.637 506.818C301.88 506.538 303.058 506.024 304.109 505.303C311.371 500.892 318.019 495.36 325.866 492.096C329.784 490.465 334.566 489.527 338.051 491.949C331.03 494.557 324.57 498.478 319.016 503.503C318.141 504.312 317.401 505.255 316.823 506.297C315.959 507.842 314.987 510.076 316.186 511.353C318.144 513.438 319.799 512.389 321.48 511.406C328.023 507.05 334.995 503.375 342.287 500.439C344.519 499.55 347.187 498.769 349.206 500.065C350.959 501.186 359.434 506.45 376.852 507.352C382.797 507.662 388.528 509.21 395.959 511.252C493.849 538.232 523.089 548.997 546.801 538.797C551.444 536.797 553.009 534.364 551.461 526.397C547.33 505.116 543.29 493.023 506.929 484.343" fill="white"/>
<path d="M526.936 544C508.181 544 481.468 536.53 431.229 522.481C420.641 519.521 408.644 516.168 395.598 512.572C388.684 510.672 382.715 509.022 376.784 508.715C360.479 507.868 351.555 503.189 348.474 501.215C346.96 500.249 344.642 500.969 342.793 501.708C335.585 504.604 328.695 508.235 322.232 512.545L322.049 512.656C320.377 513.636 317.849 515.115 315.194 512.288C313.142 510.101 315.02 506.742 315.634 505.638C316.283 504.471 317.114 503.414 318.095 502.507C322.923 498.11 328.447 494.544 334.442 491.956C331.756 491.516 328.733 492.382 326.388 493.356C321.288 495.482 316.559 498.683 311.988 501.781C309.665 503.356 307.262 504.981 304.814 506.471C303.617 507.286 302.273 507.86 300.857 508.163C299.996 508.339 299.104 508.285 298.27 508.006C297.437 507.728 296.691 507.234 296.109 506.576C295.343 505.56 294.981 504.296 295.093 503.029C295.15 502.68 295.293 502.351 295.508 502.071L294.963 502.503C294.534 502.846 294.232 503.087 294.074 503.209C293.067 504.059 291.764 504.476 290.45 504.366C290.092 504.303 289.752 504.164 289.453 503.959C289.153 503.753 288.901 503.486 288.714 503.175C288.485 502.788 288.352 502.353 288.326 501.904C287.385 502.493 286.272 502.745 285.168 502.619C284.065 502.493 283.038 501.996 282.254 501.209C278.979 498.309 284.771 486.288 288.891 480.972C298.324 468.801 309.535 460.519 321.318 457.017C327.703 453.83 352.159 464.454 362.439 469.199C365.46 470.687 368.676 471.742 371.991 472.333C373.071 472.491 375.023 472.773 377.373 473.114C383.733 474.033 393.318 475.414 395.873 475.838C432.107 478.327 469.58 480.899 506.996 482.984C507.077 482.989 507.158 483.001 507.237 483.02C544.416 491.897 548.599 504.544 552.791 526.138C554.342 534.12 552.965 537.631 547.331 540.051C540.884 542.786 533.933 544.132 526.931 543.999M346.688 498.023C347.837 498 348.967 498.313 349.941 498.923C352.841 500.778 361.271 505.183 376.925 505.997C383.152 506.318 389.254 507.997 396.325 509.948C409.374 513.548 421.374 516.9 431.961 519.86C502.42 539.56 526.161 546.196 546.261 537.552C550.01 535.938 551.613 534.34 550.121 526.66C546.032 505.598 542.241 494.199 506.729 485.699C469.309 483.614 431.851 481.039 395.629 478.55C395.587 478.55 395.543 478.542 395.502 478.536C393.071 478.136 383.394 476.736 376.99 475.809C374.637 475.468 372.679 475.186 371.599 475.028C368.024 474.403 364.556 473.273 361.299 471.672C341.436 462.505 325.84 457.599 322.499 459.472C322.41 459.523 322.315 459.563 322.217 459.591C311.1 462.861 300.031 471.045 291.047 482.638C286.094 489.028 283.275 497.899 284.1 499.212C284.43 499.549 284.855 499.777 285.317 499.868C285.78 499.958 286.259 499.906 286.692 499.719C292.721 487.178 302.923 477.125 315.551 471.281C315.87 471.135 316.233 471.118 316.565 471.233C316.897 471.349 317.171 471.588 317.33 471.9C317.489 472.213 317.522 472.575 317.42 472.912C317.319 473.248 317.092 473.532 316.786 473.704C311.126 476.904 305.871 480.772 301.134 485.225C295.156 490.846 291.967 495.91 291.095 501.167C291.061 501.339 291.043 501.514 291.042 501.69C291.541 501.602 292.009 501.385 292.399 501.061C292.554 500.942 292.85 500.704 293.266 500.372C320.58 478.585 324.166 479 325.513 479.158C325.816 479.193 326.098 479.329 326.315 479.544C326.531 479.759 326.669 480.04 326.707 480.343C326.744 480.646 326.679 480.952 326.521 481.213C326.363 481.475 326.122 481.675 325.837 481.783C319.989 483.992 299.573 500.508 297.809 503.36C297.764 503.694 297.806 504.034 297.93 504.347C298.055 504.661 298.258 504.937 298.52 505.149C298.781 505.362 299.093 505.503 299.426 505.56C299.758 505.617 300.099 505.588 300.417 505.475C301.486 505.22 302.499 504.767 303.402 504.14C305.791 502.689 308.167 501.081 310.465 499.522C315.144 496.352 319.984 493.071 325.341 490.839C329.192 489.239 334.661 487.932 338.828 490.833C339.032 490.974 339.194 491.169 339.295 491.395C339.397 491.621 339.434 491.871 339.404 492.118C339.374 492.364 339.277 492.597 339.124 492.792C338.971 492.988 338.767 493.137 338.535 493.225C331.67 495.762 325.356 499.592 319.935 504.508C319.168 505.22 318.519 506.049 318.011 506.964C316.599 509.492 317.017 510.248 317.178 510.422C318.294 511.607 318.906 511.338 320.672 510.303L320.794 510.231C327.391 505.834 334.424 502.13 341.781 499.175C343.331 498.489 344.994 498.098 346.687 498.02" fill="black"/>
<path d="M262.556 532.019L354.475 533.99L354.594 518.377L252.286 515.877L262.556 532.019Z" fill="black"/>
<path d="M1.362 389.463L201.185 390.557L270.057 532.015L72.109 531.515L1.362 389.463Z" fill="white"/>
<path d="M270.057 533.379L72.109 532.879C71.8566 532.878 71.6092 532.808 71.3947 532.675C71.1801 532.542 71.0068 532.352 70.894 532.126L0.144 390.072C0.0407785 389.865 -0.00775957 389.634 0.00298829 389.403C0.0137361 389.171 0.0834137 388.947 0.205414 388.75C0.327414 388.553 0.497693 388.39 0.700104 388.278C0.902514 388.165 1.13035 388.106 1.362 388.106H1.37L201.19 389.2C201.444 389.202 201.693 389.274 201.908 389.41C202.124 389.545 202.297 389.738 202.408 389.967L271.28 531.425C271.38 531.633 271.427 531.862 271.414 532.093C271.402 532.323 271.331 532.546 271.209 532.742C271.086 532.938 270.917 533.099 270.715 533.211C270.513 533.323 270.287 533.382 270.056 533.383M72.956 530.163L267.878 530.653L200.329 391.916L3.566 390.839L72.956 530.163Z" fill="black"/>
<path d="M127.753 447.102C122.08 446.545 115.883 448.063 113.572 453.271C111.261 458.479 113.032 465.01 117.243 468.853C121.454 472.696 127.676 473.934 133.235 472.682C136.235 472.004 139.215 470.55 140.943 468C142.101 466.189 142.701 464.077 142.668 461.928C142.715 454.912 139.514 448.256 127.753 447.101" fill="white"/>
<path d="M128.982 474.516C124.332 474.582 119.822 472.923 116.323 469.859C111.539 465.493 109.858 458.286 112.323 452.721C114.585 447.621 120.405 445.021 127.881 445.747C141.304 447.065 144.07 455.28 144.026 461.939C144.061 464.359 143.379 466.734 142.066 468.767C139.866 472.009 136.21 473.41 133.53 474.011C132.036 474.348 130.509 474.518 128.978 474.518M125.608 448.364C122.313 448.364 116.898 449.128 114.808 453.827C112.801 458.351 114.208 464.249 118.15 467.848C120.161 469.56 122.55 470.771 125.121 471.38C127.691 471.989 130.369 471.98 132.935 471.353C135.663 470.891 138.118 469.421 139.815 467.236C140.818 465.645 141.335 463.797 141.305 461.917C141.36 453.769 136.883 449.366 127.619 448.458C127.146 448.411 126.445 448.358 125.612 448.358" fill="black"/>
<path d="M484.903 484.428C484.616 484.428 484.337 484.337 484.105 484.169C483.873 484.001 483.7 483.764 483.61 483.492C469.703 441.382 461.833 414.744 461.833 356.999C461.833 356.638 461.976 356.292 462.232 356.037C462.487 355.781 462.833 355.638 463.194 355.638C463.555 355.638 463.901 355.781 464.156 356.037C464.412 356.292 464.555 356.638 464.555 356.999C464.555 414.326 472.374 440.792 486.193 482.639C486.249 482.809 486.271 482.988 486.258 483.166C486.244 483.344 486.196 483.518 486.116 483.678C486.035 483.838 485.924 483.98 485.788 484.097C485.653 484.213 485.496 484.302 485.326 484.358C485.189 484.404 485.045 484.427 484.9 484.427" fill="black"/>
<path d="M315.938 453.664C315.718 453.664 315.501 453.612 315.307 453.51C315.112 453.408 314.944 453.261 314.819 453.08C296.872 427.264 301.726 408.357 306.419 390.069C308.761 380.938 311.187 371.494 310.805 361.169C310.798 360.99 310.826 360.812 310.889 360.644C310.951 360.476 311.045 360.322 311.167 360.191C311.289 360.06 311.435 359.954 311.598 359.88C311.76 359.805 311.936 359.763 312.115 359.757C312.475 359.747 312.824 359.879 313.088 360.124C313.352 360.369 313.51 360.707 313.527 361.067C313.927 371.785 311.45 381.423 309.058 390.745C304.307 409.251 299.819 426.73 317.058 451.522C317.2 451.726 317.284 451.965 317.299 452.213C317.315 452.461 317.263 452.709 317.148 452.93C317.033 453.15 316.86 453.335 316.647 453.464C316.435 453.593 316.191 453.662 315.942 453.662" fill="black"/>
<path d="M374.353 390.194C356.209 390.194 338.047 388.555 320.415 384.136C320.355 384.124 320.297 384.1 320.246 384.066C320.196 384.031 320.152 383.986 320.119 383.934C320.086 383.882 320.064 383.824 320.054 383.764C320.044 383.703 320.047 383.641 320.062 383.581C320.077 383.521 320.103 383.465 320.141 383.416C320.178 383.367 320.225 383.326 320.278 383.296C320.332 383.265 320.391 383.246 320.452 383.239C320.513 383.233 320.575 383.238 320.634 383.256C365.357 394.464 413.617 387.711 456.191 381.75C456.31 381.733 456.431 381.764 456.528 381.837C456.624 381.909 456.688 382.017 456.704 382.137C456.721 382.256 456.69 382.377 456.618 382.473C456.545 382.57 456.437 382.633 456.318 382.65C430.418 386.274 402.405 390.195 374.352 390.195" fill="black"/>
<path d="M390.711 425.068C364.048 425.083 337.479 421.904 311.572 415.599C311.46 415.566 311.364 415.491 311.306 415.39C311.248 415.288 311.231 415.168 311.258 415.054C311.286 414.941 311.357 414.842 311.455 414.779C311.554 414.716 311.673 414.693 311.788 414.716C359.459 426.297 409.096 427.239 457.172 417.476C457.231 417.462 457.292 417.46 457.352 417.47C457.412 417.481 457.469 417.503 457.52 417.535C457.572 417.568 457.616 417.611 457.65 417.661C457.684 417.711 457.708 417.767 457.721 417.826C457.733 417.886 457.733 417.947 457.721 418.007C457.709 418.066 457.686 418.123 457.652 418.173C457.618 418.223 457.574 418.266 457.523 418.299C457.472 418.332 457.415 418.354 457.355 418.365C435.422 422.833 413.094 425.077 390.711 425.065" fill="black"/>
<path d="M558.25 495.876C558.184 495.876 558.119 495.861 558.059 495.833C558 495.805 557.947 495.765 557.904 495.715C549.431 485.939 538.603 478.488 526.445 474.067C514.287 469.647 501.201 468.403 488.428 470.453C488.369 470.463 488.308 470.461 488.25 470.448C488.192 470.434 488.136 470.41 488.088 470.375C488.039 470.34 487.997 470.296 487.965 470.245C487.934 470.195 487.912 470.138 487.902 470.079C487.892 470.02 487.894 469.959 487.907 469.901C487.921 469.843 487.945 469.787 487.98 469.739C488.015 469.69 488.059 469.648 488.11 469.616C488.16 469.585 488.217 469.563 488.276 469.553C501.205 467.479 514.449 468.739 526.754 473.214C539.06 477.689 550.02 485.231 558.596 495.125C558.652 495.191 558.688 495.272 558.7 495.358C558.712 495.444 558.699 495.531 558.662 495.61C558.626 495.688 558.568 495.755 558.495 495.802C558.422 495.848 558.337 495.873 558.25 495.873" fill="black"/>
<path d="M555.199 477.699C555.141 477.699 555.084 477.688 555.03 477.666C552.407 476.431 550.019 474.748 547.973 472.693C547.228 472.026 546.461 471.339 545.686 470.705C540.94 466.817 535.228 464.289 529.159 463.39C529.042 463.37 528.937 463.305 528.867 463.209C528.797 463.112 528.768 462.993 528.785 462.875C528.803 462.757 528.866 462.651 528.96 462.579C529.055 462.507 529.174 462.475 529.292 462.49C535.524 463.414 541.388 466.01 546.262 470.002C547.051 470.65 547.826 471.345 548.577 472.015C550.548 473.996 552.846 475.622 555.369 476.824C555.467 476.863 555.548 476.936 555.598 477.028C555.648 477.121 555.665 477.228 555.645 477.331C555.625 477.434 555.57 477.528 555.488 477.595C555.407 477.662 555.305 477.699 555.2 477.699" fill="black"/>
</g>
<mask id="mask1_0_1049" style="mask-type:luminance" maskUnits="userSpaceOnUse" x="134" y="179" width="67" height="75">
<path d="M200.234 179.825H134.189V253.946H200.234V179.825Z" fill="white"/>
</mask>
<g mask="url(#mask1_0_1049)">
<path d="M166.537 249.271C165.701 249.268 164.885 249.014 164.195 248.541C163.253 247.899 162.519 246.995 162.084 245.941C160.379 241.953 159.635 237.62 159.911 233.291C160.186 228.962 161.474 224.759 163.671 221.019C164.406 219.803 164.632 218.882 164.34 218.283C164.048 217.684 163.185 217.29 161.775 217.118C157.477 216.536 153.376 214.952 149.801 212.495C146.227 210.038 143.28 206.776 141.197 202.971C140.637 201.978 140.38 200.843 140.456 199.705C140.497 198.995 140.724 198.309 141.114 197.714C141.504 197.12 142.043 196.638 142.678 196.318L166.193 184.886C166.837 184.584 167.548 184.457 168.257 184.517C168.965 184.578 169.645 184.823 170.228 185.23C171.17 185.873 171.904 186.776 172.34 187.83C174.045 191.819 174.789 196.151 174.513 200.48C174.237 204.809 172.949 209.012 170.752 212.752C170.017 213.968 169.792 214.889 170.084 215.489C170.376 216.089 171.238 216.481 172.649 216.653C176.947 217.236 181.048 218.82 184.622 221.277C188.196 223.735 191.143 226.997 193.226 230.802C193.786 231.795 194.044 232.93 193.967 234.068C193.927 234.778 193.7 235.465 193.31 236.059C192.92 236.654 192.38 237.135 191.745 237.455L168.23 248.884C167.702 249.139 167.123 249.271 166.536 249.27M167.894 185.51C167.458 185.509 167.028 185.608 166.636 185.799L143.122 197.228C142.645 197.467 142.241 197.828 141.95 198.275C141.659 198.722 141.493 199.238 141.468 199.771C141.406 200.712 141.62 201.65 142.084 202.471C144.089 206.136 146.926 209.28 150.367 211.649C153.808 214.017 157.758 215.545 161.897 216.109C163.697 216.329 164.797 216.895 165.252 217.838C165.707 218.781 165.478 219.993 164.54 221.544C162.426 225.147 161.187 229.196 160.923 233.366C160.659 237.535 161.378 241.708 163.022 245.549C163.382 246.421 163.988 247.169 164.766 247.701C165.2 248.01 165.708 248.198 166.238 248.245C166.769 248.293 167.302 248.198 167.784 247.971L191.3 236.541C191.777 236.302 192.181 235.941 192.472 235.494C192.763 235.048 192.929 234.531 192.954 233.999C193.016 233.058 192.803 232.12 192.34 231.299C190.335 227.633 187.498 224.49 184.056 222.121C180.615 219.752 176.665 218.225 172.525 217.661C170.725 217.441 169.625 216.875 169.17 215.932C168.715 214.989 168.945 213.777 169.883 212.226C171.997 208.623 173.236 204.574 173.5 200.404C173.764 196.235 173.045 192.062 171.401 188.221C171.041 187.35 170.435 186.603 169.657 186.071C169.139 185.712 168.525 185.517 167.894 185.512" fill="black"/>
<path d="M165.116 204.739C161.148 205.968 157.102 206.91 153.252 208.486C156.128 210.511 159.453 211.806 162.941 212.258C163.737 212.354 164.516 212.559 165.257 212.866C165.473 212.093 165.794 211.352 166.21 210.666C167.523 208.476 168.429 206.066 168.884 203.554C167.629 203.954 166.372 204.349 165.114 204.739" fill="#0086D5"/>
<path d="M165.258 213.373C165.189 213.373 165.121 213.36 165.058 213.334C164.36 213.044 163.625 212.852 162.875 212.761C159.306 212.296 155.903 210.972 152.958 208.903C152.883 208.851 152.823 208.779 152.785 208.696C152.748 208.612 152.733 208.52 152.743 208.429C152.754 208.338 152.788 208.252 152.844 208.179C152.899 208.106 152.973 208.049 153.058 208.015C155.745 206.972 158.487 206.078 161.272 205.337C162.485 204.991 163.74 204.632 164.964 204.253C166.22 203.864 167.475 203.469 168.73 203.069C168.814 203.043 168.903 203.038 168.988 203.056C169.074 203.074 169.154 203.114 169.219 203.172C169.285 203.23 169.335 203.304 169.363 203.387C169.392 203.47 169.399 203.559 169.383 203.645C168.917 206.219 167.989 208.687 166.642 210.929C166.249 211.576 165.947 212.273 165.742 213.001C165.712 213.108 165.649 213.202 165.561 213.269C165.472 213.336 165.365 213.373 165.254 213.373M154.343 208.6C156.961 210.276 159.919 211.352 163.002 211.75C163.66 211.831 164.307 211.98 164.933 212.196C165.15 211.57 165.432 210.969 165.775 210.402C166.912 208.512 167.736 206.45 168.214 204.296C167.233 204.608 166.25 204.916 165.266 205.221C164.031 205.603 162.771 205.963 161.553 206.311C159.164 206.992 156.705 207.695 154.343 208.597" fill="black"/>
<path d="M172.602 223.817C171.807 223.72 171.03 223.516 170.29 223.209C170.073 223.982 169.753 224.722 169.337 225.409C166.45 230.359 165.548 236.22 166.813 241.809L187.061 231.967C183.447 227.52 178.282 224.609 172.606 223.821" fill="#0086D5"/>
<path d="M166.808 242.314C166.731 242.314 166.655 242.296 166.585 242.262C166.516 242.228 166.455 242.179 166.408 242.118C166.36 242.058 166.327 241.987 166.311 241.912C165.034 236.196 165.958 230.209 168.899 225.144C169.291 224.498 169.594 223.801 169.799 223.073C169.818 223.004 169.852 222.94 169.898 222.885C169.944 222.83 170.001 222.785 170.066 222.754C170.131 222.722 170.201 222.705 170.273 222.703C170.344 222.701 170.416 222.714 170.482 222.741C171.181 223.03 171.916 223.222 172.666 223.314C178.465 224.131 183.743 227.104 187.448 231.639C187.497 231.698 187.533 231.768 187.551 231.842C187.569 231.917 187.571 231.995 187.554 232.07C187.538 232.146 187.505 232.216 187.458 232.277C187.41 232.337 187.349 232.386 187.28 232.42L167.03 242.264C166.961 242.298 166.885 242.316 166.808 242.316M170.608 223.877C170.392 224.503 170.11 225.105 169.766 225.671C167.065 230.318 166.145 235.789 167.175 241.064L186.24 231.797C182.729 227.729 177.861 225.073 172.54 224.324C171.882 224.244 171.235 224.095 170.609 223.878" fill="black"/>
<path d="M197.872 230.852L159.252 249.624L161.106 253.438L199.726 234.666L197.872 230.852Z" fill="white"/>
<path d="M161.106 253.946C161.05 253.946 160.993 253.937 160.94 253.918C160.813 253.874 160.708 253.781 160.649 253.66L158.795 249.846C158.766 249.786 158.749 249.721 158.745 249.654C158.741 249.588 158.75 249.521 158.772 249.458C158.794 249.395 158.828 249.337 158.872 249.287C158.916 249.238 158.97 249.197 159.03 249.168L197.649 230.396C197.709 230.367 197.774 230.35 197.84 230.345C197.907 230.341 197.974 230.35 198.037 230.372C198.1 230.394 198.158 230.428 198.208 230.472C198.257 230.516 198.298 230.57 198.327 230.63L200.182 234.443C200.241 234.564 200.249 234.704 200.205 234.831C200.161 234.958 200.068 235.063 199.947 235.122L161.327 253.894C161.258 253.928 161.183 253.946 161.106 253.946ZM159.93 249.858L161.34 252.758L199.047 234.431L197.637 231.531L159.93 249.858Z" fill="black"/>
<path d="M173.316 180.333L134.696 199.105L136.55 202.919L175.17 184.147L173.316 180.333Z" fill="white"/>
<path d="M136.551 203.425C136.495 203.425 136.438 203.415 136.385 203.397C136.322 203.376 136.263 203.342 136.213 203.297C136.163 203.253 136.123 203.199 136.094 203.139L134.24 199.325C134.181 199.204 134.173 199.065 134.217 198.937C134.261 198.81 134.354 198.706 134.475 198.647L173.094 179.877C173.154 179.848 173.219 179.83 173.285 179.826C173.352 179.822 173.419 179.831 173.482 179.853C173.545 179.875 173.603 179.909 173.653 179.953C173.702 179.997 173.743 180.051 173.772 180.111L175.626 183.925C175.656 183.985 175.673 184.05 175.677 184.117C175.681 184.183 175.672 184.25 175.65 184.313C175.606 184.44 175.513 184.545 175.392 184.604L136.772 203.375C136.703 203.409 136.628 203.425 136.551 203.425ZM135.375 199.339L136.785 202.239L174.489 183.912L173.079 181.012L135.375 199.339Z" fill="black"/>
</g>
<mask id="mask2_0_1049" style="mask-type:luminance" maskUnits="userSpaceOnUse" x="504" y="137" width="73" height="67">
<path d="M576.665 137.339H504.755V203.334H576.665V137.339Z" fill="white"/>
</mask>
<g mask="url(#mask2_0_1049)">
<path d="M520.355 183.597C520.355 183.597 508.965 181.031 506.234 180.084C505.023 183.453 504.871 185.821 506.171 188.573C507.221 190.793 508.985 191.892 511.477 192.511C518.652 194.296 520.359 183.601 520.359 183.601" fill="#0086D5"/>
<path d="M513.037 193.216C512.468 193.213 511.901 193.14 511.35 192.999C508.49 192.288 506.75 190.988 505.708 188.787C504.423 186.068 504.436 183.58 505.755 179.912C505.8 179.786 505.893 179.683 506.014 179.625C506.134 179.568 506.273 179.56 506.399 179.604C509.071 180.53 520.352 183.075 520.465 183.104C520.591 183.132 520.702 183.208 520.774 183.315C520.847 183.422 520.875 183.552 520.855 183.68C520.815 183.932 519.829 189.872 516.229 192.254C515.285 192.887 514.172 193.224 513.035 193.219M506.547 180.719C505.48 183.884 505.51 185.99 506.625 188.352C507.536 190.279 509.025 191.374 511.595 192.014C512.278 192.211 512.995 192.258 513.697 192.153C514.4 192.048 515.072 191.793 515.667 191.405C518.351 189.632 519.458 185.395 519.762 183.982C517.662 183.507 509.517 181.641 506.549 180.72" fill="black"/>
<path d="M565.033 192.508C563.843 196.399 561.217 199.691 557.688 201.717C555.094 203.191 552.737 203.056 548.998 202.126C537.222 199.197 519.036 194.394 510.465 192.261C513.98 192.946 517.806 193.585 520.248 183.996C524.727 166.431 531.892 137.847 531.892 137.847L576.156 148.855C576.156 148.855 566.107 188.978 565.033 192.508Z" fill="white"/>
<path d="M553.533 203.334C551.959 203.283 550.397 203.043 548.881 202.619C542.524 201.038 534.134 198.868 526.731 196.953C520.331 195.298 514.292 193.735 510.348 192.753C510.221 192.719 510.113 192.638 510.044 192.526C509.976 192.414 509.954 192.28 509.983 192.152C510.011 192.024 510.088 191.912 510.197 191.839C510.306 191.766 510.439 191.739 510.568 191.762C513.933 192.417 517.413 193.097 519.768 183.87C524.185 166.506 531.329 138.009 531.4 137.723C531.416 137.658 531.445 137.597 531.485 137.543C531.524 137.489 531.574 137.443 531.632 137.409C531.689 137.375 531.753 137.352 531.819 137.342C531.886 137.333 531.953 137.336 532.018 137.353L576.28 148.364C576.345 148.38 576.406 148.409 576.46 148.448C576.513 148.488 576.559 148.538 576.593 148.595C576.627 148.652 576.65 148.716 576.66 148.782C576.67 148.848 576.666 148.915 576.65 148.98C576.24 150.618 566.586 189.152 565.525 192.654C564.295 196.668 561.586 200.064 557.945 202.154C556.608 202.938 555.083 203.344 553.533 203.33M514.984 192.878C518.457 193.764 522.639 194.845 526.984 195.969C534.384 197.884 542.773 200.053 549.125 201.633C552.67 202.516 554.93 202.702 557.443 201.276C560.858 199.314 563.4 196.127 564.553 192.361C565.543 189.094 574.386 153.838 575.541 149.227L532.262 138.461C531.293 142.327 524.849 168.013 520.746 184.121C519.246 190.027 517.152 192.215 514.984 192.877" fill="black"/>
<path d="M546.331 150.338C546.317 150.338 546.303 150.336 546.29 150.333L537.762 148.212C537.719 148.201 537.681 148.173 537.658 148.134C537.635 148.096 537.629 148.05 537.64 148.006C537.651 147.963 537.678 147.925 537.717 147.903C537.755 147.88 537.802 147.873 537.845 147.884L546.373 150.005C546.413 150.015 546.448 150.039 546.471 150.073C546.495 150.107 546.505 150.149 546.5 150.189C546.495 150.23 546.475 150.268 546.444 150.295C546.413 150.323 546.372 150.338 546.331 150.338Z" fill="black"/>
<path d="M549.169 153.85C549.155 153.85 549.141 153.848 549.128 153.845L537.09 150.85C537.068 150.845 537.048 150.835 537.03 150.822C537.013 150.809 536.997 150.792 536.986 150.773C536.975 150.754 536.967 150.733 536.964 150.711C536.961 150.689 536.962 150.666 536.967 150.645C536.972 150.623 536.982 150.603 536.995 150.585C537.008 150.567 537.025 150.552 537.044 150.541C537.063 150.53 537.084 150.522 537.106 150.519C537.128 150.515 537.15 150.517 537.172 150.522L549.21 153.516C549.25 153.526 549.285 153.55 549.308 153.584C549.332 153.618 549.342 153.66 549.337 153.701C549.332 153.742 549.312 153.779 549.281 153.807C549.25 153.834 549.21 153.85 549.169 153.85Z" fill="black"/>
<path d="M563.752 169.888C563.738 169.888 563.724 169.886 563.711 169.883L541.125 164.269C541.084 164.255 541.05 164.227 541.029 164.189C541.009 164.152 541.003 164.108 541.013 164.066C541.024 164.025 541.049 163.988 541.085 163.965C541.121 163.942 541.165 163.933 541.207 163.94L563.794 169.558C563.834 169.568 563.869 169.592 563.892 169.626C563.916 169.66 563.926 169.702 563.921 169.742C563.916 169.783 563.896 169.821 563.865 169.848C563.834 169.876 563.794 169.891 563.753 169.891" fill="black"/>
<path d="M561.556 178.513C561.542 178.513 561.528 178.511 561.515 178.508L538.929 172.89C538.888 172.876 538.854 172.848 538.833 172.81C538.813 172.773 538.807 172.729 538.817 172.687C538.828 172.646 538.853 172.609 538.889 172.586C538.925 172.563 538.969 172.554 539.011 172.561L561.598 178.18C561.638 178.19 561.673 178.214 561.696 178.248C561.72 178.282 561.73 178.323 561.725 178.364C561.72 178.405 561.7 178.443 561.669 178.47C561.638 178.498 561.597 178.513 561.556 178.513Z" fill="black"/>
<path d="M559.359 187.137C559.345 187.137 559.331 187.135 559.318 187.132L536.732 181.514C536.709 181.51 536.687 181.501 536.667 181.488C536.648 181.476 536.631 181.459 536.618 181.439C536.606 181.42 536.597 181.398 536.593 181.375C536.589 181.351 536.59 181.328 536.596 181.305C536.601 181.282 536.612 181.261 536.626 181.243C536.64 181.224 536.658 181.209 536.679 181.197C536.699 181.186 536.722 181.179 536.745 181.177C536.768 181.175 536.792 181.177 536.814 181.185L559.401 186.807C559.441 186.817 559.476 186.841 559.499 186.875C559.523 186.909 559.533 186.951 559.528 186.991C559.523 187.032 559.503 187.07 559.472 187.097C559.441 187.125 559.401 187.14 559.36 187.14" fill="black"/>
<path d="M533.909 162.292C533.983 162.012 534.164 161.773 534.413 161.626C534.662 161.479 534.959 161.436 535.24 161.506C535.379 161.539 535.51 161.6 535.625 161.684C535.74 161.769 535.838 161.875 535.911 161.997C535.985 162.119 536.034 162.255 536.056 162.396C536.077 162.537 536.07 162.681 536.035 162.82C535.961 163.1 535.78 163.339 535.531 163.487C535.282 163.634 534.985 163.677 534.704 163.607C534.565 163.573 534.435 163.512 534.319 163.428C534.204 163.343 534.107 163.237 534.033 163.115C533.959 162.993 533.91 162.857 533.889 162.716C533.868 162.575 533.874 162.43 533.909 162.292Z" fill="black"/>
<path d="M534.971 164.151C534.84 164.151 534.709 164.135 534.582 164.104C534.377 164.053 534.184 163.963 534.014 163.837C533.844 163.711 533.701 163.553 533.592 163.372C533.485 163.193 533.414 162.995 533.384 162.789C533.355 162.583 533.366 162.373 533.418 162.172C533.498 161.866 533.667 161.59 533.903 161.379C534.139 161.168 534.432 161.032 534.745 160.987C535.058 160.942 535.378 160.99 535.664 161.126C535.95 161.261 536.189 161.479 536.352 161.75C536.459 161.928 536.53 162.126 536.56 162.332C536.59 162.538 536.579 162.748 536.527 162.95C536.438 163.294 536.237 163.599 535.955 163.817C535.673 164.034 535.327 164.152 534.971 164.151ZM534.971 161.984C534.841 161.983 534.715 162.025 534.611 162.104C534.508 162.183 534.434 162.294 534.401 162.42C534.383 162.492 534.379 162.567 534.39 162.641C534.401 162.714 534.427 162.785 534.465 162.849C534.505 162.915 534.557 162.973 534.619 163.019C534.681 163.065 534.752 163.098 534.827 163.116C534.977 163.155 535.137 163.133 535.271 163.054C535.405 162.976 535.503 162.848 535.543 162.698C535.561 162.626 535.565 162.551 535.554 162.477C535.544 162.403 535.518 162.333 535.48 162.269C535.44 162.202 535.388 162.145 535.325 162.099C535.263 162.053 535.192 162.02 535.117 162.002C535.069 161.99 535.02 161.984 534.971 161.984Z" fill="black"/>
<path d="M531.712 170.921C531.786 170.641 531.967 170.402 532.216 170.255C532.465 170.108 532.762 170.064 533.043 170.135C533.182 170.168 533.313 170.229 533.428 170.313C533.543 170.397 533.641 170.504 533.715 170.626C533.789 170.748 533.838 170.884 533.859 171.025C533.88 171.166 533.873 171.31 533.838 171.449C533.764 171.729 533.583 171.968 533.334 172.115C533.086 172.263 532.789 172.306 532.508 172.236C532.369 172.203 532.237 172.142 532.122 172.058C532.006 171.974 531.908 171.867 531.834 171.745C531.759 171.623 531.71 171.487 531.688 171.346C531.667 171.204 531.673 171.06 531.708 170.921" fill="black"/>
<path d="M532.78 172.775C532.649 172.775 532.518 172.759 532.391 172.728C532.186 172.677 531.993 172.587 531.823 172.461C531.653 172.335 531.51 172.177 531.401 171.996C531.294 171.817 531.223 171.619 531.193 171.413C531.164 171.207 531.175 170.997 531.227 170.796C531.307 170.49 531.476 170.214 531.712 170.003C531.948 169.792 532.241 169.656 532.554 169.611C532.867 169.566 533.187 169.614 533.473 169.75C533.759 169.885 533.998 170.103 534.161 170.374C534.268 170.552 534.339 170.75 534.369 170.956C534.399 171.162 534.388 171.372 534.336 171.574C534.247 171.918 534.046 172.224 533.764 172.441C533.482 172.658 533.136 172.776 532.78 172.775ZM532.78 170.608C532.65 170.607 532.524 170.649 532.42 170.728C532.317 170.807 532.243 170.918 532.21 171.044C532.192 171.116 532.188 171.191 532.199 171.265C532.21 171.338 532.236 171.409 532.274 171.473C532.314 171.539 532.366 171.597 532.428 171.643C532.49 171.689 532.561 171.722 532.636 171.74C532.786 171.779 532.946 171.757 533.08 171.679C533.214 171.6 533.312 171.472 533.352 171.322C533.37 171.25 533.374 171.175 533.363 171.101C533.353 171.027 533.327 170.957 533.289 170.893C533.236 170.806 533.161 170.733 533.072 170.683C532.983 170.633 532.882 170.607 532.78 170.608Z" fill="black"/>
<path d="M529.548 179.421C529.622 179.141 529.803 178.902 530.052 178.755C530.301 178.608 530.598 178.564 530.879 178.635C531.018 178.668 531.149 178.729 531.264 178.813C531.379 178.897 531.477 179.004 531.551 179.126C531.625 179.248 531.674 179.384 531.695 179.525C531.716 179.666 531.709 179.81 531.674 179.949C531.6 180.228 531.42 180.468 531.171 180.615C530.922 180.762 530.626 180.806 530.345 180.736C530.206 180.703 530.075 180.642 529.959 180.558C529.843 180.474 529.745 180.367 529.671 180.245C529.596 180.123 529.547 179.987 529.525 179.846C529.504 179.704 529.51 179.56 529.545 179.421" fill="black"/>
<path d="M530.612 181.275C530.481 181.275 530.35 181.259 530.223 181.228C530.018 181.178 529.825 181.087 529.655 180.961C529.485 180.836 529.342 180.677 529.234 180.496C529.127 180.317 529.056 180.119 529.026 179.913C528.996 179.707 529.007 179.497 529.059 179.296C529.139 178.99 529.308 178.714 529.544 178.503C529.78 178.292 530.073 178.156 530.386 178.111C530.699 178.066 531.019 178.114 531.305 178.25C531.59 178.385 531.83 178.603 531.993 178.874C532.1 179.052 532.171 179.25 532.201 179.456C532.231 179.662 532.22 179.872 532.168 180.074C532.079 180.418 531.878 180.724 531.596 180.941C531.314 181.158 530.968 181.275 530.612 181.274M530.612 179.107C530.482 179.106 530.355 179.149 530.252 179.228C530.149 179.307 530.075 179.418 530.042 179.544C530.024 179.616 530.02 179.691 530.031 179.765C530.042 179.838 530.068 179.909 530.106 179.973C530.166 180.072 530.254 180.152 530.358 180.202C530.463 180.252 530.58 180.27 530.695 180.254C530.81 180.238 530.918 180.188 531.005 180.112C531.092 180.035 531.155 179.934 531.185 179.822C531.203 179.75 531.207 179.675 531.196 179.601C531.186 179.527 531.16 179.457 531.122 179.393C531.068 179.306 530.993 179.235 530.904 179.186C530.814 179.136 530.714 179.111 530.612 179.111" fill="black"/>
</g>
<mask id="mask3_0_1049" style="mask-type:luminance" maskUnits="userSpaceOnUse" x="223" y="87" width="33" height="36">
<path d="M255.351 87.7588H223.992V122.634H255.351V87.7588Z" fill="white"/>
</mask>
<g mask="url(#mask3_0_1049)">
<path d="M249.034 122.634C248.52 122.629 248.013 122.521 247.542 122.314C247.071 122.108 246.648 121.809 246.296 121.434L225.243 99.3788C224.824 98.9446 224.498 98.4304 224.283 97.8669C224.068 97.3035 223.969 96.7024 223.992 96.0998C224.013 95.556 224.145 95.0222 224.38 94.5314C224.614 94.0405 224.947 93.603 225.358 93.2458L230.554 88.7278C230.961 88.3765 231.435 88.1109 231.947 87.9468C232.459 87.7827 232.999 87.7235 233.534 87.7728C234.127 87.8279 234.702 88.0006 235.227 88.2808C235.752 88.561 236.216 88.9431 236.592 89.4048L255.235 112.153C255.282 112.204 255.317 112.264 255.34 112.329C255.362 112.394 255.372 112.463 255.367 112.532C255.362 112.601 255.343 112.668 255.311 112.729C255.28 112.79 255.236 112.844 255.182 112.888C255.129 112.932 255.067 112.964 255.001 112.983C254.935 113.003 254.866 113.008 254.797 113C254.729 112.991 254.663 112.969 254.603 112.934C254.544 112.899 254.492 112.852 254.451 112.797L235.809 90.0478C235.519 89.6909 235.161 89.3954 234.756 89.1785C234.35 88.9617 233.906 88.8278 233.448 88.7848C233.048 88.7462 232.644 88.7891 232.261 88.9109C231.878 89.0328 231.524 89.2311 231.22 89.4938L226.02 94.0118C225.715 94.28 225.468 94.6078 225.295 94.9749C225.121 95.3421 225.025 95.7409 225.011 96.1468C224.993 96.6121 225.07 97.0761 225.236 97.511C225.402 97.9459 225.655 98.3428 225.978 98.6778L247.03 120.731C247.482 121.244 248.118 121.559 248.801 121.607C249.483 121.655 250.157 121.432 250.676 120.986L252.741 119.101C253.228 118.618 253.509 117.965 253.525 117.279C253.541 116.593 253.29 115.928 252.825 115.424L236.992 97.2078C236.503 96.6066 235.796 96.2235 235.025 96.1419C234.255 96.0604 233.483 96.2872 232.879 96.7728C232.601 97.0167 232.375 97.315 232.217 97.6493C232.058 97.9837 231.97 98.347 231.957 98.7168C231.942 99.1411 232.012 99.564 232.164 99.9603C232.317 100.357 232.548 100.718 232.843 101.023L247.001 115.809C247.053 115.856 247.094 115.913 247.122 115.976C247.151 116.04 247.166 116.109 247.167 116.178C247.168 116.248 247.154 116.317 247.127 116.381C247.1 116.446 247.06 116.504 247.01 116.552C246.959 116.6 246.9 116.637 246.834 116.661C246.769 116.685 246.699 116.695 246.63 116.691C246.56 116.687 246.492 116.669 246.43 116.638C246.368 116.606 246.313 116.562 246.268 116.509L232.104 101.726C231.714 101.321 231.41 100.842 231.21 100.317C231.01 99.7922 230.918 99.2322 230.939 98.6708C230.957 98.1637 231.08 97.6657 231.298 97.2077C231.516 96.7496 231.826 96.3413 232.209 96.0078C233.016 95.3451 234.053 95.0294 235.093 95.1296C236.132 95.2299 237.089 95.7381 237.755 96.5428L253.592 114.759C254.229 115.464 254.568 116.389 254.537 117.339C254.506 118.289 254.108 119.19 253.426 119.853L251.359 121.738C250.724 122.319 249.894 122.641 249.033 122.638" fill="black"/>
</g>
<mask id="mask4_0_1049" style="mask-type:luminance" maskUnits="userSpaceOnUse" x="291" y="0" width="36" height="64">
<path d="M326.367 0.535889H291.372V63.1529H326.367V0.535889Z" fill="white"/>
</mask>
<g mask="url(#mask4_0_1049)">
<mask id="mask5_0_1049" style="mask-type:luminance" maskUnits="userSpaceOnUse" x="291" y="0" width="36" height="64">
<path d="M326.367 0.535889H291.372V63.1529H326.367V0.535889Z" fill="white"/>
</mask>
<g mask="url(#mask5_0_1049)">
<g style="mix-blend-mode:multiply">
<path d="M308.324 53.3049C308.324 53.3049 303.032 58.5969 307.362 61.0049C311.692 63.4129 319.389 57.1559 316.021 54.2699C312.653 51.3839 308.321 53.3079 308.321 53.3079" fill="#0086D5"/>
<path d="M308.324 53.3049C308.324 53.3049 303.032 58.5969 307.362 61.0049C311.692 63.4129 319.389 57.1559 316.021 54.2699C312.653 51.3839 308.324 53.3049 308.324 53.3049Z" stroke="#0086D5" stroke-width="0.874" stroke-miterlimit="10"/>
</g>
<g style="mix-blend-mode:multiply">
<mask id="mask6_0_1049" style="mask-type:luminance" maskUnits="userSpaceOnUse" x="291" y="0" width="35" height="49">
<path d="M325.998 0.535889H291.372V48.5199H325.998V0.535889Z" fill="white"/>
</mask>
<g mask="url(#mask6_0_1049)">
<path d="M294.072 14.0459C293.839 12.6709 292.889 11.5629 293.307 10.1289C293.804 8.83549 294.501 7.6281 295.372 6.55093C296.148 5.67754 297.097 4.97414 298.158 4.48493C299.196 3.77485 300.326 3.20745 301.515 2.79793C304.688 1.99943 307.975 1.75684 311.231 2.08093C312.892 2.19693 313.905 3.04793 315.252 3.79193C316.493 4.31547 317.673 4.97268 318.772 5.75193C320.807 7.61142 322.433 9.87449 323.545 12.3969C324.564 14.7899 324.63 17.4815 323.731 19.9219C323.344 21.0779 322.798 22.1744 322.109 23.1799C321.773 23.6702 321.363 24.1062 320.895 24.4729C320.267 24.8306 319.621 25.1553 318.96 25.4459C317.925 26.1215 316.973 26.917 316.125 27.8159C315.309 28.6293 314.674 29.6065 314.263 30.6829C313.339 33.0199 313.363 35.5829 313.246 38.0239C313.163 39.6969 313.076 41.3689 312.996 43.0419C312.933 44.3689 313.256 45.8089 312.749 47.0849L313.333 46.5689C312.263 46.7028 311.178 46.6749 310.116 46.4859C309.209 46.4201 308.3 46.401 307.391 46.4289C306.934 46.4446 306.476 46.4232 306.022 46.3649C305.499 46.2809 305.488 46.1329 305.533 45.6839C305.64 44.6109 305.133 43.6349 305.133 42.5699C305.133 41.3079 305.38 40.0559 305.339 38.7929C305.16 37.6115 305.044 36.4216 304.991 35.2279C305.079 34.6994 305.112 34.1633 305.091 33.6279C305.015 33.0279 304.733 32.4649 304.666 31.8629C304.548 30.7929 305.16 30.1439 306.019 29.4799C306.819 28.8599 307.619 28.2409 308.419 27.6139C309.311 26.9139 310.338 26.3539 311.234 25.6539C312.95 24.2291 314.055 22.2006 314.32 19.9859C314.46 18.8449 314.43 17.6859 314.507 16.5359C314.657 15.4478 314.526 14.3393 314.127 13.3159C313.427 11.8459 311.778 11.0969 310.101 10.7549C309.068 10.5603 308.022 10.4377 306.972 10.3879C305.862 10.2597 304.741 10.2597 303.631 10.3879C302.505 10.6068 301.487 11.2012 300.743 12.0739C300.364 12.4771 300.097 12.972 299.968 13.5099C299.839 14.1449 300.068 14.7929 299.822 15.4099L300.627 14.8679C299.794 14.9159 298.99 14.7949 298.152 14.9009C297.348 15.0153 296.539 15.0851 295.728 15.1099C295.129 15.1795 294.524 15.168 293.928 15.0759C293.294 14.8969 293.186 14.1189 293.101 13.6069C292.604 10.6359 294.802 7.93593 297.272 6.17393C297.863 5.75293 298.48 5.35793 299.057 4.92193C299.665 4.46393 300.147 3.89093 300.757 3.43493C301.991 2.50993 303.9 2.37493 305.457 2.27993C307.043 2.18206 308.634 2.31477 310.182 2.67393C311.729 3.08752 313.24 3.62526 314.701 4.28193C315.401 4.56493 316.155 4.71693 316.848 5.00493C317.538 5.34035 318.17 5.78282 318.722 6.31593C319.949 7.15533 321.067 8.14502 322.048 9.26193C323.682 11.8065 324.455 14.8087 324.253 17.8259C324.183 19.2709 324.453 20.8109 323.282 21.9489C322.246 22.989 321.132 23.9481 319.95 24.8179C318.64 25.7509 317.237 26.5569 315.869 27.4179C315.219 27.8279 314.614 28.2719 313.918 28.6179C313.266 28.9 312.659 29.2771 312.118 29.7369C311.248 30.6799 310.71 31.8816 310.586 33.1589C310.37 34.5321 310.285 35.9227 310.333 37.3119C310.388 39.0169 310.915 40.6509 311.017 42.3429C311.037 44.1665 310.954 45.9898 310.767 47.8039H312.438C312.589 44.7606 312.741 41.7173 312.892 38.6739C312.962 37.2739 313.085 35.8609 313.102 34.4569C313.11 33.7769 312.736 32.5879 313.202 32.0049L312.259 32.3439C312.802 32.4837 313.375 32.4493 313.897 32.2456C314.419 32.0419 314.863 31.6793 315.168 31.2089C315.596 30.3479 314.157 29.5949 313.725 30.4639C313.631 30.6441 313.479 30.7873 313.294 30.8701C313.108 30.9529 312.9 30.9704 312.703 30.9199C312.53 30.8805 312.349 30.8915 312.182 30.9516C312.015 31.0116 311.868 31.1183 311.76 31.2589C311.16 32.0049 311.378 33.1239 311.421 33.9739C311.489 35.3339 311.321 36.7239 311.252 38.0829C311.091 41.3223 310.93 44.5619 310.769 47.8019C310.722 48.7529 312.388 48.7489 312.44 47.8019C312.534 46.0739 312.774 44.3449 312.703 42.6119C312.634 40.9119 312.096 39.2779 312.017 37.5779C311.939 36.167 312.011 34.7518 312.231 33.3559C312.268 32.7093 312.465 32.0819 312.804 31.5298C313.142 30.9777 313.612 30.5181 314.172 30.1919C315.711 29.3779 317.16 28.4439 318.629 27.5309C320.121 26.6445 321.535 25.6332 322.856 24.5079C323.866 23.6079 325.211 22.5819 325.646 21.3359C325.828 20.605 325.904 19.8515 325.87 19.0989C325.908 18.2109 325.985 17.3169 325.955 16.4279C325.887 14.822 325.569 13.2364 325.014 11.7279C324.555 10.2041 323.773 8.79742 322.72 7.60393C322.154 7.05843 321.553 6.5513 320.92 6.08593C320.252 5.56593 319.639 4.98593 318.958 4.48593C318.351 4.03825 317.676 3.69146 316.958 3.45893C316.038 3.14993 315.166 2.82393 314.275 2.45293C311.105 1.07609 307.632 0.548438 304.196 0.921926C302.592 0.978038 301.031 1.45834 299.672 2.31393C299.027 2.79393 298.512 3.39293 297.872 3.87793C297.189 4.39493 296.453 4.85693 295.761 5.36493C292.843 7.50893 290.698 10.9569 291.572 14.3839C291.702 15.0918 292.095 15.7243 292.672 16.1549C293.288 16.4915 293.988 16.6446 294.688 16.5959C295.566 16.6216 296.445 16.5882 297.319 16.4959C297.819 16.4349 298.31 16.3319 298.811 16.2959C299.421 16.2559 300.02 16.3679 300.63 16.3329C300.803 16.3337 300.972 16.2824 301.116 16.1858C301.259 16.0891 301.371 15.9516 301.435 15.7909C301.59 15.2261 301.642 14.6381 301.589 14.0549C301.624 13.7505 301.723 13.4572 301.882 13.195C302.04 12.9329 302.254 12.708 302.507 12.5359C302.987 12.1981 303.53 11.9591 304.103 11.8329C304.677 11.7067 305.269 11.6958 305.847 11.8009C307.747 11.9009 310.147 11.8759 311.747 12.9359C312.151 13.2385 312.469 13.6423 312.667 14.1067C312.866 14.5711 312.938 15.0796 312.877 15.5809C312.877 16.9049 312.797 18.2699 312.689 19.5909C312.543 20.885 312.092 22.1258 311.372 23.2109C310.575 24.2354 309.578 25.0876 308.442 25.7159C307.43 26.3909 306.555 27.1869 305.577 27.8949C304.666 28.4432 303.892 29.1922 303.315 30.0849C302.71 31.2549 303.13 32.3939 303.4 33.5759C303.453 34.169 303.425 34.7664 303.317 35.3519C303.341 36.0631 303.423 36.7711 303.562 37.4689C303.682 38.8419 303.665 40.2234 303.511 41.5929C303.447 42.203 303.453 42.8183 303.53 43.4269C303.714 44.0472 303.841 44.6833 303.908 45.3269C303.88 46.2879 303.802 47.1419 304.958 47.6159C305.961 47.9099 307.011 48.0047 308.05 47.8949C309.158 47.9015 310.265 47.9639 311.367 48.0819C312.335 48.1579 313.984 48.3709 314.402 47.3819C314.717 46.3057 314.803 45.1754 314.654 44.0639C314.622 42.7219 314.754 41.3709 314.821 40.0299C314.823 37.6536 314.998 35.2806 315.346 32.9299C315.531 31.8624 315.912 30.8386 316.472 29.9109C317.173 28.9525 318.007 28.0986 318.949 27.3749C319.909 26.5459 321.192 26.2399 322.17 25.4489C323.043 24.7015 323.76 23.7895 324.28 22.7649C325.477 20.6712 326.066 18.285 325.98 15.8749C325.797 13.4043 324.96 11.0268 323.556 8.98593C322.797 7.87968 321.958 6.82963 321.048 5.84393C320.231 4.87195 319.227 4.07328 318.097 3.49493C316.886 2.88293 315.737 2.26993 314.577 1.58393C313.378 0.914529 312.026 0.567886 310.653 0.577926C307.527 0.366745 304.387 0.610282 301.331 1.30093C300.138 1.64378 299 2.15456 297.951 2.81793C296.979 3.40593 295.921 3.95293 295.021 4.62493C294.152 5.39842 293.418 6.31085 292.849 7.32493C292.106 8.35124 291.641 9.55259 291.5 10.8119C291.421 12.1049 292.252 13.1939 292.463 14.4389C292.622 15.3749 294.232 14.9769 294.074 14.0459" fill="black"/>
</g>
</g>
<g style="mix-blend-mode:multiply">
<mask id="mask7_0_1049" style="mask-type:luminance" maskUnits="userSpaceOnUse" x="292" y="10" width="23" height="39">
<path d="M314.389 10.3379H292.468V48.5209H314.389V10.3379Z" fill="white"/>
</mask>
<g mask="url(#mask7_0_1049)">
<path d="M293.028 15.3199C294.238 15.7123 295.474 16.0158 296.728 16.2279C297.826 16.5363 298.962 16.6868 300.103 16.6749C300.276 16.6738 300.444 16.6218 300.587 16.5254C300.731 16.429 300.842 16.2924 300.908 16.1329C301.298 15.2579 301.099 14.2609 301.657 13.4439C302.134 12.7316 302.863 12.2258 303.697 12.0279C304.875 11.8022 306.078 11.7433 307.272 11.8529C308.214 11.7976 309.157 11.9208 310.053 12.2159C310.85 12.5007 311.532 13.038 311.995 13.7459C312.285 14.6196 312.461 15.5271 312.519 16.4459C312.94 18.3724 312.632 20.3868 311.653 22.0989C310.401 23.9271 308.818 25.5041 306.984 26.7479C305.474 27.9329 303.775 28.7009 303.513 30.6379C303.376 31.6559 303.495 32.6809 303.46 33.7019C303.42 34.8589 303.345 36.0159 303.287 37.1729C303.175 39.4299 302.787 41.6789 302.738 43.9349C302.707 45.3819 302.686 47.6539 304.527 48.3029C306.616 49.0399 308.785 47.6449 310.9 47.9359C311.952 48.0799 312.405 46.6579 311.344 46.5129C310.311 46.4064 309.268 46.4641 308.253 46.6839C307.316 46.9558 306.338 47.0608 305.365 46.9939C304.65 46.8529 304.57 46.1679 304.489 45.6159C304.361 44.477 304.374 43.3267 304.526 42.1909C304.762 39.8409 304.94 37.5069 305.058 35.1489C305.114 34.0239 305.115 32.9109 305.116 31.7859C305.048 31.2797 305.121 30.7645 305.328 30.2973C305.534 29.83 305.865 29.4288 306.285 29.1379C309.775 26.6199 313.634 23.8959 314.297 19.6809C314.428 18.6755 314.404 17.656 314.226 16.6579C314.118 15.7044 313.961 14.7572 313.755 13.8199C313.451 13.0189 312.95 12.3069 312.3 11.749C311.65 11.191 310.87 10.8049 310.032 10.6259C308.769 10.3818 307.483 10.2865 306.198 10.3419C304.921 10.2688 303.643 10.449 302.436 10.8719C301.602 11.2272 300.88 11.8006 300.345 12.5319C299.561 13.5419 299.78 14.6589 299.297 15.7429L300.102 15.2009C299.01 15.1993 297.923 15.0486 296.871 14.7529C295.717 14.5566 294.58 14.2707 293.471 13.8979C293.376 13.861 293.274 13.844 293.171 13.8481C293.069 13.8522 292.969 13.8773 292.877 13.9217C292.785 13.9662 292.703 14.0291 292.636 14.1065C292.569 14.184 292.519 14.2744 292.488 14.372C292.458 14.4697 292.448 14.5726 292.459 14.6743C292.47 14.776 292.501 14.8744 292.552 14.9633C292.602 15.0523 292.671 15.1299 292.752 15.1914C292.834 15.253 292.928 15.297 293.027 15.3209" fill="black"/>
</g>
</g>
<g style="mix-blend-mode:multiply">
<mask id="mask8_0_1049" style="mask-type:luminance" maskUnits="userSpaceOnUse" x="301" y="50" width="15" height="14">
<path d="M315.506 50.9149H301.332V63.1529H315.506V50.9149Z" fill="white"/>
</mask>
<g mask="url(#mask8_0_1049)">
<path d="M311.904 50.9509C309.866 50.8859 307.597 50.7909 305.837 51.8819C304.262 52.8579 304.217 54.372 303.737 55.864C303.237 57.432 301.843 58.9749 303.269 60.5159C304.596 61.8326 306.388 62.5737 308.257 62.579C309.271 62.4951 310.26 62.2238 311.175 61.7789C312.046 61.4502 312.89 61.0529 313.699 60.5909C314.303 60.1626 314.786 59.5856 315.101 58.9158C315.416 58.246 315.553 57.5062 315.499 56.7679C315.506 55.8539 315.289 54.9521 314.865 54.1421C314.442 53.332 313.826 52.6386 313.071 52.1229C312.343 51.6203 311.489 51.3324 310.606 51.2919C309.692 51.2071 308.772 51.191 307.855 51.2439C307.056 51.278 306.276 51.4918 305.571 51.8697C304.867 52.2475 304.257 52.7795 303.787 53.426C302.864 54.762 302.859 56.2899 302.692 57.7979C302.531 58.6359 302.651 59.5037 303.035 60.2659C303.575 61.0348 304.336 61.6217 305.217 61.9489C306.167 62.3152 307.171 62.5233 308.188 62.5649C309.254 62.753 310.352 62.6326 311.352 62.2179C312.049 61.7538 312.606 61.1083 312.963 60.351C313.44 59.7443 313.948 59.1628 314.485 58.609C314.889 57.9306 315.097 57.1534 315.085 56.364C315.145 55.9509 315.121 55.5301 315.014 55.1266C314.907 54.7231 314.72 54.3454 314.464 54.0159C313.871 53.2951 313.089 52.7533 312.206 52.4509C311.335 52.1929 310.433 52.0481 309.525 52.0199C307.599 51.8449 305.795 51.867 304.207 52.978C303.051 53.9251 302.213 55.2044 301.807 56.6429C301.425 57.2717 301.283 58.0176 301.407 58.743C301.758 59.6809 302.349 60.5104 303.121 61.1489C304.609 62.2874 306.422 62.9214 308.295 62.959C309.277 63.03 310.262 63.0809 311.245 63.1429C311.694 63.2119 312.152 63.1817 312.588 63.0543C313.024 62.9269 313.427 62.7055 313.768 62.4056C314.109 62.1058 314.38 61.7348 314.562 61.3188C314.744 60.9028 314.833 60.4519 314.822 59.9979C314.74 59.0569 313.069 59.0489 313.151 59.9979C313.165 60.305 313.099 60.6104 312.958 60.8838C312.818 61.1573 312.609 61.3893 312.351 61.5569C311.657 61.7383 310.929 61.7469 310.231 61.582C308.771 61.6087 307.314 61.4234 305.907 61.032C305.202 60.7764 304.559 60.3734 304.021 59.8499C303.76 59.5734 303.53 59.2689 303.335 58.9419C303.156 58.7269 303.032 58.4721 302.973 58.1989C303.023 57.9406 303.116 57.6926 303.25 57.4659C303.37 57.1729 303.478 56.8769 303.595 56.5829C303.789 56.0581 304.038 55.5553 304.338 55.0829C304.677 54.587 305.126 54.1768 305.651 53.885C306.176 53.5932 306.762 53.4278 307.362 53.4019C308.144 53.3885 308.925 53.4269 309.702 53.517C310.368 53.5357 311.028 53.6457 311.664 53.844C312.315 54.0736 312.873 54.5106 313.252 55.088C313.488 55.6632 313.523 56.3012 313.352 56.8989C313.337 57.1435 313.274 57.3827 313.167 57.6029C313.06 57.8231 312.91 58.0199 312.726 58.1819C312.225 58.637 311.793 59.1621 311.442 59.741C311.149 60.236 310.87 60.8539 310.236 61.0669C309.405 61.224 308.552 61.2206 307.722 61.0569C306.461 60.9229 304.56 60.382 304.332 59.088C304.276 58.4233 304.313 57.754 304.444 57.0999C304.47 56.5396 304.54 55.9822 304.654 55.433C304.78 54.9034 305.025 54.4098 305.372 53.9904C305.719 53.571 306.158 53.2369 306.654 53.0139C307.225 52.7888 307.836 52.6866 308.449 52.7139C309.183 52.7269 309.949 52.702 310.68 52.784C311.335 52.9049 311.948 53.1942 312.457 53.6233C312.967 54.0525 313.356 54.6069 313.587 55.232C313.794 55.7766 313.89 56.3571 313.87 56.9393C313.85 57.5216 313.713 58.094 313.469 58.6229C313.183 59.0942 312.754 59.4607 312.243 59.668C311.532 60.003 310.796 60.3209 310.069 60.6259C309.381 60.9499 308.629 61.116 307.869 61.112C307.176 61.0425 306.505 60.8318 305.896 60.493C305.326 60.2608 304.821 59.8928 304.426 59.4209C304.09 58.9039 304.442 58.221 304.678 57.721C305.005 57.1214 305.268 56.4889 305.462 55.834C305.571 55.2614 305.72 54.6973 305.909 54.146C306.4 52.909 307.972 52.493 309.329 52.405C310.186 52.35 311.049 52.3989 311.906 52.4269C312.009 52.4362 312.112 52.424 312.209 52.3911C312.307 52.3582 312.396 52.3054 312.472 52.236C312.548 52.1665 312.609 52.082 312.651 51.9879C312.692 51.8937 312.714 51.7919 312.714 51.689C312.714 51.586 312.692 51.4842 312.651 51.39C312.609 51.2959 312.548 51.2114 312.472 51.1419C312.396 51.0725 312.307 51.0197 312.209 50.9868C312.112 50.9539 312.009 50.9417 311.906 50.9509" fill="black"/>
</g>
</g>
</g>
</g>
</svg>
