<svg width="40" height="37" viewBox="0 0 40 37" fill="none" xmlns="http://www.w3.org/2000/svg">
<g id="Group 239">
<g id="Clip path group">
<mask id="mask0_0_458" style="mask-type:luminance" maskUnits="userSpaceOnUse" x="0" y="0" width="40" height="37">
<g id="clip-path-28">
<path id="Rectangle 100" d="M39.966 0H0V36.647H39.966V0Z" fill="white"/>
</g>
</mask>
<g mask="url(#mask0_0_458)">
<g id="Group 238">
<g id="Group 237">
<g id="Clip path group_2">
<mask id="mask1_0_458" style="mask-type:luminance" maskUnits="userSpaceOnUse" x="0" y="0" width="40" height="37">
<g id="clip-path-28_2">
<path id="Rectangle 100_2" d="M39.966 0H0V36.647H39.966V0Z" fill="white"/>
</g>
</mask>
<g mask="url(#mask1_0_458)">
<g id="Group 236">
<path id="Path 627" d="M19.744 0.316074C18.597 0.193565 17.4421 0.458671 16.4634 1.06911C15.4846 1.67954 14.7385 2.60014 14.344 3.68407C13.9517 4.80637 13.8904 6.01779 14.1674 7.17396C14.4443 8.33013 15.0478 9.38229 15.906 10.2051C16.7573 10.9602 17.8145 11.4445 18.9424 11.5959C20.0702 11.7473 21.2177 11.559 22.238 11.0551C23.1031 10.6099 23.8484 9.96304 24.4109 9.16921C24.9734 8.37537 25.3367 7.45784 25.47 6.49407C25.6019 5.52147 25.4655 4.53132 25.0757 3.63056C24.6859 2.72979 24.0573 1.95265 23.258 1.38307C22.1734 0.787525 20.9767 0.424158 19.744 0.316074Z" fill="white"/>
<path id="Path 628" d="M19.723 11.915C18.2509 11.9244 16.8276 11.3879 15.728 10.409C14.8295 9.55006 14.1975 8.45036 13.9077 7.24155C13.6179 6.03274 13.6826 4.76604 14.094 3.59303C14.5151 2.45479 15.3031 1.48908 16.3337 0.848128C17.3643 0.207177 18.5789 -0.072554 19.786 0.053032C21.058 0.164271 22.2924 0.541774 23.409 1.16103C24.2497 1.75967 24.9112 2.57618 25.3224 3.52272C25.7337 4.46926 25.8791 5.51002 25.743 6.53303C25.6007 7.53947 25.2197 8.49728 24.6319 9.32653C24.0441 10.1558 23.2665 10.8324 22.364 11.3C21.5437 11.7071 20.6398 11.9173 19.724 11.914M19.098 0.540032C18.1116 0.576036 17.1579 0.903206 16.3571 1.48032C15.5563 2.05743 14.9442 2.85865 14.598 3.78303C14.2222 4.85461 14.163 6.01178 14.4276 7.1161C14.6922 8.22042 15.2693 9.22513 16.09 10.01C16.9021 10.726 17.9083 11.185 18.9813 11.329C20.0543 11.473 21.1459 11.2955 22.118 10.819C22.9421 10.392 23.652 9.7741 24.1887 9.01686C24.7253 8.25963 25.0731 7.38502 25.203 6.46603C25.328 5.54417 25.1995 4.60566 24.8313 3.75133C24.4631 2.897 23.869 2.15914 23.113 1.61703C22.0594 1.04165 20.898 0.690935 19.702 0.587032C19.5035 0.555858 19.3029 0.540144 19.102 0.540032" fill="black"/>
<path id="Path 629" d="M33.923 24.767C32.776 24.6445 31.6211 24.9096 30.6424 25.52C29.6636 26.1305 28.9175 27.0511 28.523 28.135C28.1318 29.2575 28.0715 30.4688 28.3493 31.6246C28.6271 32.7804 29.2314 33.832 30.09 34.654C30.9413 35.4092 31.9985 35.8934 33.1264 36.0448C34.2542 36.1962 35.4017 36.0079 36.422 35.504C37.2871 35.0588 38.0324 34.412 38.5949 33.6181C39.1574 32.8243 39.5207 31.9068 39.654 30.943C39.7859 29.9704 39.6496 28.9802 39.2597 28.0795C38.8699 27.1787 38.2413 26.4016 37.442 25.832C36.3562 25.2357 35.1581 24.872 33.924 24.764" fill="white"/>
<path id="Path 630" d="M33.902 36.361C32.4299 36.3704 31.0066 35.8338 29.907 34.855C29.0086 33.9958 28.3767 32.8959 28.0871 31.6869C27.7975 30.4779 27.8624 29.2111 28.274 28.038C28.6952 26.9001 29.4831 25.9346 30.5134 25.2937C31.5438 24.6528 32.7581 24.3729 33.965 24.498C35.237 24.6093 36.4714 24.9868 37.588 25.606C38.4287 26.2047 39.0902 27.0212 39.5014 27.9677C39.9127 28.9143 40.0581 29.955 39.922 30.978C39.7798 31.9847 39.3989 32.9427 38.8111 33.7721C38.2233 34.6015 37.4456 35.2784 36.543 35.746C35.7228 36.1533 34.8188 36.3636 33.903 36.36M33.278 24.985C32.2916 25.0211 31.3379 25.3482 30.5371 25.9253C29.7363 26.5024 29.1242 27.3037 28.778 28.228C28.402 29.2995 28.3427 30.4566 28.6071 31.561C28.8716 32.6653 29.4485 33.67 30.269 34.455C31.0811 35.171 32.0873 35.63 33.1603 35.774C34.2333 35.918 35.3249 35.7405 36.297 35.264C37.1211 34.837 37.831 34.2191 38.3677 33.4619C38.9044 32.7046 39.2521 31.83 39.382 30.911C39.5071 29.9892 39.3787 29.0506 39.0105 28.1963C38.6422 27.3419 38.0481 26.6041 37.292 26.062C36.238 25.4886 35.0766 25.1399 33.881 25.038C33.6825 25.0069 33.4819 24.9912 33.281 24.991" fill="black"/>
<path id="Path 631" d="M6.015 25.052C4.86803 24.9295 3.71308 25.1946 2.73435 25.8051C1.75562 26.4155 1.0095 27.3361 0.614999 28.42C0.222533 29.5425 0.161112 30.7541 0.43806 31.9105C0.715007 33.0668 1.31864 34.1192 2.177 34.942C3.02833 35.6972 4.08547 36.1814 5.21335 36.3328C6.34124 36.4843 7.48865 36.296 8.509 35.792C9.37535 35.348 10.1221 34.7019 10.686 33.9084C11.2499 33.1149 11.6146 32.1972 11.749 31.233C11.8809 30.2604 11.7445 29.2703 11.3547 28.3695C10.9649 27.4688 10.3363 26.6916 9.537 26.122C8.45009 25.5245 7.25059 25.1601 6.015 25.052Z" fill="white"/>
<path id="Path 632" d="M6 36.647C4.52618 36.6576 3.10084 36.121 2 35.141C1.10236 34.2814 0.471289 33.1815 0.182229 31.9728C-0.106832 30.7641 -0.0416429 29.4977 0.37 28.325C0.791083 27.1869 1.5789 26.2213 2.60928 25.5804C3.63966 24.9395 4.85403 24.6596 6.061 24.785C7.33296 24.8964 8.56731 25.2739 9.684 25.893C10.5247 26.4916 11.1862 27.3081 11.5974 28.2547C12.0087 29.2012 12.1541 30.242 12.018 31.265C11.8758 32.2716 11.4949 33.2296 10.9071 34.0591C10.3193 34.8885 9.54164 35.5653 8.639 36.033C7.81905 36.4401 6.91545 36.6503 6 36.647ZM5.373 25.272C4.38686 25.3087 3.43364 25.6365 2.6334 26.2139C1.83316 26.7914 1.22169 27.5927 0.876 28.517C0.499916 29.5885 0.440534 30.7456 0.704959 31.8499C0.969383 32.9543 1.54642 33.959 2.367 34.744C3.17903 35.46 4.18523 35.9191 5.25825 36.0631C6.33128 36.2071 7.4229 36.0296 8.395 35.553C9.2191 35.126 9.92912 34.5081 10.4658 33.7509C11.0025 32.9936 11.3502 32.119 11.48 31.2C11.6051 30.2781 11.4767 29.3396 11.1085 28.4852C10.7402 27.6309 10.1461 26.893 9.39 26.351C8.3358 25.7738 7.17329 25.4217 5.976 25.317C5.77752 25.2858 5.57691 25.2701 5.376 25.27" fill="black"/>
<path id="Path 633" d="M8.076 23.5401C8.02853 23.54 7.98191 23.5275 7.94084 23.5036C7.89977 23.4798 7.8657 23.4456 7.84207 23.4045C7.81844 23.3633 7.80609 23.3166 7.80625 23.2691C7.80641 23.2217 7.81909 23.1751 7.843 23.1341L14.393 11.8701C14.4291 11.8081 14.4883 11.7631 14.5576 11.7448C14.6269 11.7265 14.7006 11.7365 14.7625 11.7726C14.8244 11.8086 14.8695 11.8678 14.8878 11.9371C14.9061 12.0064 14.8961 12.0801 14.86 12.1421L8.31 23.4061C8.28629 23.4471 8.25218 23.4812 8.2111 23.5049C8.17002 23.5286 8.12342 23.5401 8.076 23.5401Z" fill="black"/>
<path id="Path 634" d="M31.823 23.025C31.7822 23.0256 31.7419 23.0169 31.705 22.9996C31.6681 22.9822 31.6356 22.9568 31.61 22.925C29.068 19.661 26.601 16.271 24.276 12.85C24.2529 12.8208 24.2361 12.7872 24.2266 12.7512C24.2171 12.7151 24.2152 12.6776 24.221 12.6408C24.2267 12.604 24.24 12.5688 24.26 12.5374C24.28 12.506 24.3063 12.479 24.3372 12.4583C24.3682 12.4375 24.4031 12.4234 24.4397 12.4168C24.4763 12.4102 24.514 12.4112 24.5502 12.4198C24.5864 12.4284 24.6205 12.4444 24.6502 12.4669C24.68 12.4893 24.7047 12.5176 24.723 12.55C27.041 15.961 29.502 19.342 32.036 22.597C32.0671 22.6369 32.0864 22.6847 32.0916 22.7351C32.0968 22.7854 32.0879 22.8361 32.0657 22.8816C32.0435 22.927 32.0089 22.9653 31.966 22.9921C31.9231 23.0189 31.8736 23.0331 31.823 23.033" fill="black"/>
<path id="Path 635" d="M13.325 32.763C13.2533 32.763 13.1845 32.7345 13.1337 32.6838C13.083 32.633 13.0545 32.5642 13.0545 32.4925C13.0545 32.4208 13.083 32.352 13.1337 32.3012C13.1845 32.2505 13.2533 32.222 13.325 32.222L25.905 32.167C25.9767 32.167 26.0455 32.1955 26.0963 32.2462C26.147 32.297 26.1755 32.3658 26.1755 32.4375C26.1755 32.5092 26.147 32.578 26.0963 32.6288C26.0455 32.6795 25.9767 32.708 25.905 32.708L13.325 32.763Z" fill="black"/>
<path id="Path 636" d="M1.656 29.363C1.63945 29.363 1.62321 29.3585 1.609 29.35C1.58874 29.3374 1.57424 29.3173 1.56863 29.2941C1.56302 29.2709 1.56674 29.2465 1.579 29.226C2.27087 28.1044 3.06241 27.0475 3.944 26.068C3.95194 26.0592 3.96154 26.052 3.97225 26.0469C3.98296 26.0419 3.99456 26.0389 4.0064 26.0383C4.01824 26.0377 4.03008 26.0394 4.04125 26.0434C4.05242 26.0474 4.0627 26.0535 4.0715 26.0615C4.0803 26.0694 4.08744 26.079 4.09253 26.0897C4.09762 26.1004 4.10055 26.112 4.10115 26.1239C4.10176 26.1357 4.10002 26.1476 4.09605 26.1587C4.09208 26.1699 4.08594 26.1802 4.078 26.189C3.20352 27.1604 2.41834 28.2086 1.732 29.321C1.72393 29.3342 1.71261 29.345 1.69913 29.3526C1.68564 29.3601 1.67044 29.364 1.655 29.364" fill="black"/>
<path id="Path 637" d="M1.719 31.785C1.69956 31.7848 1.68068 31.7785 1.665 31.767C1.64628 31.7524 1.63402 31.731 1.63085 31.7074C1.62767 31.6839 1.63383 31.6601 1.648 31.641L5.926 25.976C5.94045 25.9569 5.9619 25.9443 5.98563 25.941C6.00935 25.9378 6.0334 25.944 6.0525 25.9585C6.0716 25.9729 6.08417 25.9944 6.08745 26.0181C6.09073 26.0418 6.08445 26.0659 6.07 26.085L1.791 31.75C1.78262 31.7612 1.77175 31.7702 1.75925 31.7765C1.74675 31.7827 1.73297 31.785 1.719 31.785Z" fill="black"/>
<path id="Path 638" d="M2.526 33.5041C2.50729 33.5041 2.48905 33.4982 2.474 33.4871C2.46435 33.4803 2.45614 33.4717 2.44984 33.4617C2.44355 33.4517 2.43931 33.4406 2.43735 33.4289C2.4354 33.4173 2.43578 33.4054 2.43846 33.3939C2.44115 33.3824 2.44609 33.3716 2.453 33.3621L7.453 26.3881C7.45835 26.376 7.46629 26.3652 7.47626 26.3565C7.48624 26.3479 7.49799 26.3415 7.51071 26.3379C7.52342 26.3343 7.53677 26.3335 7.54981 26.3356C7.56285 26.3378 7.57526 26.3428 7.58616 26.3502C7.59706 26.3577 7.60619 26.3675 7.61288 26.3789C7.61958 26.3902 7.62369 26.403 7.62492 26.4161C7.62614 26.4293 7.62445 26.4425 7.61998 26.455C7.6155 26.4674 7.60834 26.4787 7.599 26.4881L2.599 33.4621C2.59079 33.4738 2.57987 33.4834 2.56716 33.49C2.55445 33.4966 2.54033 33.5001 2.526 33.5001" fill="black"/>
<path id="Path 639" d="M3.865 35.051C3.84721 35.0511 3.82979 35.0459 3.815 35.036C3.80502 35.0293 3.79648 35.0206 3.7899 35.0106C3.78331 35.0005 3.77882 34.9892 3.77667 34.9774C3.77453 34.9655 3.77478 34.9534 3.77741 34.9416C3.78004 34.9299 3.78501 34.9188 3.792 34.909L8.8 27.332C8.81326 27.3121 8.83388 27.2983 8.85732 27.2936C8.88077 27.2889 8.90511 27.2937 8.925 27.307C8.94489 27.3203 8.9587 27.3409 8.96339 27.3643C8.96808 27.3878 8.96326 27.4121 8.95 27.432L3.942 35.009C3.93383 35.0214 3.92268 35.0316 3.90959 35.0385C3.89649 35.0455 3.88185 35.0491 3.867 35.049" fill="black"/>
<path id="Path 640" d="M5.938 35.144C5.92169 35.1441 5.90567 35.1397 5.89167 35.1313C5.87767 35.1229 5.8662 35.1109 5.8585 35.0965C5.85079 35.0822 5.84715 35.0659 5.84794 35.0497C5.84873 35.0334 5.85394 35.0176 5.863 35.004L10.008 28.677C10.0146 28.6671 10.023 28.6586 10.0329 28.6519C10.0427 28.6453 10.0538 28.6407 10.0655 28.6383C10.0771 28.6359 10.0891 28.6359 10.1008 28.6381C10.1125 28.6404 10.1236 28.645 10.1335 28.6515C10.1434 28.6581 10.1519 28.6666 10.1586 28.6764C10.1652 28.6863 10.1699 28.6974 10.1722 28.709C10.1746 28.7207 10.1747 28.7327 10.1724 28.7443C10.1701 28.756 10.1656 28.7671 10.159 28.777L6.014 35.105C6.00587 35.1175 5.99477 35.1279 5.98168 35.135C5.96858 35.1422 5.95392 35.146 5.939 35.146" fill="black"/>
<path id="Path 641" d="M8.21 34.562C8.19176 34.562 8.17396 34.5564 8.159 34.546C8.1394 34.5324 8.12598 34.5117 8.12166 34.4882C8.11735 34.4648 8.12251 34.4406 8.136 34.421L10.697 30.702C10.7111 30.6842 10.7313 30.6724 10.7537 30.6689C10.776 30.6654 10.7989 30.6705 10.8177 30.6831C10.8365 30.6957 10.8499 30.715 10.8551 30.737C10.8604 30.7591 10.8571 30.7823 10.846 30.802L8.284 34.519C8.27574 34.531 8.2647 34.5408 8.25181 34.5476C8.23892 34.5544 8.22457 34.558 8.21 34.558" fill="black"/>
<g id="Group 229" opacity="0.129">
<g id="Group 228">
<g id="Clip path group_3">
<mask id="mask2_0_458" style="mask-type:luminance" maskUnits="userSpaceOnUse" x="15" y="2" width="11" height="10">
<g id="clip-path-30">
<path id="Rectangle 96" d="M25.561 2.25403H15.979V11.611H25.561V2.25403Z" fill="white"/>
</g>
</mask>
<g mask="url(#mask2_0_458)">
<g id="Group 227">
<path id="Path 642" d="M25.506 5.69801C25.572 5.26001 25.671 4.11701 25.172 3.95701C25.136 3.73501 25.089 3.49601 25.023 3.21801C24.9886 3.01842 24.9192 2.82648 24.818 2.65101C24.8098 2.58014 24.7917 2.51078 24.764 2.44501C24.723 2.37788 24.6633 2.32416 24.5922 2.2904C24.5212 2.25664 24.4418 2.24431 24.3638 2.25492C24.2859 2.26552 24.2127 2.29861 24.1532 2.35012C24.0938 2.40164 24.0506 2.46936 24.029 2.54501C23.9688 2.82151 23.9661 3.10743 24.021 3.38501C24.0424 3.50964 24.0871 3.62908 24.153 3.73701C24.205 4.12901 24.263 4.39201 24.279 4.74701C24.3223 5.60377 24.2459 6.46238 24.052 7.29801L24.017 7.35101C23.7334 7.74056 23.4129 8.10189 23.06 8.43001C22.6324 8.89907 22.1079 9.26948 21.5229 9.51555C20.9379 9.76162 20.3063 9.87746 19.672 9.85501C18.6552 9.84361 17.6495 9.64321 16.706 9.26401C16.6331 9.24392 16.5569 9.23839 16.4818 9.24775C16.4067 9.2571 16.3342 9.28115 16.2684 9.31853C16.2026 9.3559 16.1448 9.40587 16.0983 9.46558C16.0519 9.52529 16.0176 9.59356 15.9975 9.66651C15.9774 9.73946 15.9719 9.81566 15.9812 9.89074C15.9906 9.96583 16.0146 10.0383 16.052 10.1041C16.0894 10.1699 16.1394 10.2277 16.1991 10.2742C16.2588 10.3207 16.3271 10.3549 16.4 10.375C16.522 10.4223 16.6447 10.4683 16.768 10.513C16.7699 10.5944 16.7933 10.6737 16.8358 10.7431C16.8783 10.8125 16.9384 10.8694 17.01 10.908C18.0178 11.4895 19.1861 11.7309 20.3419 11.5965C21.4977 11.4622 22.5794 10.9592 23.427 10.162C23.7889 9.79225 24.1116 9.3861 24.39 8.95001C24.4949 8.76129 24.5887 8.56663 24.671 8.36701C24.7872 8.1923 24.8943 8.01173 24.992 7.82601C25.2223 7.355 25.3685 6.84736 25.424 6.32601C25.458 6.17001 25.544 5.46401 25.51 5.70301" fill="black"/>
</g>
</g>
</g>
</g>
</g>
<g id="Group 232" opacity="0.129">
<g id="Group 231">
<g id="Clip path group_4">
<mask id="mask3_0_458" style="mask-type:luminance" maskUnits="userSpaceOnUse" x="29" y="29" width="11" height="7">
<g id="clip-path-31">
<path id="Rectangle 97" d="M39.557 29.037H29.835V35.899H39.557V29.037Z" fill="white"/>
</g>
</mask>
<g mask="url(#mask3_0_458)">
<g id="Group 230">
<path id="Path 643" d="M39.542 29.4399C39.5441 29.3534 39.5175 29.2685 39.4663 29.1986C39.4152 29.1287 39.3425 29.0777 39.2593 29.0534C39.1762 29.0291 39.0874 29.0329 39.0067 29.0643C38.926 29.0957 38.8579 29.1529 38.813 29.2269C38.643 29.7559 38.768 30.2369 38.624 30.7589C38.5434 31.0653 38.4473 31.3673 38.336 31.6639C38.304 31.7209 38.27 31.7789 38.236 31.8359C38.124 32.0146 38.0047 32.1883 37.878 32.3569C37.672 32.6259 37.4339 32.8687 37.169 33.0799C36.4164 33.5933 35.6363 34.065 34.832 34.4929C34.2721 34.7044 33.6704 34.7818 33.0752 34.7192C32.4799 34.6565 31.9076 34.4554 31.404 34.1319C31.064 33.9459 31.07 33.7859 30.569 33.4629C30.4568 33.4176 30.3323 33.4122 30.2166 33.4476C30.1008 33.483 30.0008 33.5572 29.9332 33.6576C29.8655 33.758 29.8345 33.8786 29.8452 33.9992C29.8559 34.1198 29.9077 34.233 29.992 34.3199C30.5429 34.9152 31.2288 35.3693 31.992 35.6439C32.7753 35.8839 33.6016 35.9498 34.413 35.8369C34.662 35.7829 34.9049 35.7039 35.138 35.6009C35.1721 35.7032 35.2435 35.7889 35.338 35.8409C35.67 36.0109 36.049 35.7589 36.356 35.6279C37.2508 35.1171 37.9931 34.3766 38.506 33.4829C38.5191 33.4598 38.5305 33.4358 38.54 33.4109C38.583 33.3389 38.715 33.0109 38.778 32.8939L38.802 32.8429C39.091 32.3954 39.3049 31.9036 39.435 31.3869C39.5092 31.056 39.5481 30.7181 39.551 30.3789C39.557 30.2849 39.563 30.1899 39.563 30.0949C39.5733 29.8763 39.5699 29.6572 39.553 29.4389" fill="black"/>
</g>
</g>
</g>
</g>
</g>
<g id="Group 235" opacity="0.129">
<g id="Group 234">
<g id="Clip path group_5">
<mask id="mask4_0_458" style="mask-type:luminance" maskUnits="userSpaceOnUse" x="1" y="29" width="11" height="8">
<g id="clip-path-32">
<path id="Rectangle 98" d="M11.584 29.656H1.067V36.157H11.584V29.656Z" fill="white"/>
</g>
</mask>
<g mask="url(#mask4_0_458)">
<g id="Group 233">
<path id="Path 644" d="M11.525 30.192C11.494 30.013 11.469 29.805 11.292 29.71C11.2466 29.6834 11.1964 29.666 11.1442 29.6589C11.0921 29.6517 11.039 29.6549 10.9881 29.6683C10.9372 29.6817 10.8894 29.705 10.8475 29.7368C10.8057 29.7687 10.7705 29.8085 10.744 29.854C10.6912 29.9476 10.6769 30.0581 10.704 30.162C10.704 30.168 10.704 30.169 10.704 30.162C10.7302 30.3033 10.7492 30.4458 10.761 30.589C10.7929 31.073 10.7003 31.557 10.492 31.995C10.436 32.125 10.492 31.995 10.512 31.95C10.2687 32.5118 9.93901 33.0321 9.535 33.492C9.01529 34.0894 8.36095 34.5545 7.626 34.849C6.32154 35.173 4.9434 35.0038 3.756 34.374C3.27115 34.1252 2.83624 33.7893 2.473 33.383C2.22 33.166 2.016 32.757 1.736 32.615C1.63348 32.5739 1.51997 32.5692 1.41439 32.6016C1.3088 32.6341 1.21753 32.7017 1.15577 32.7933C1.09402 32.8849 1.06552 32.9949 1.07502 33.1049C1.08453 33.2149 1.13146 33.3184 1.208 33.398C1.90014 34.3523 2.83761 35.1014 3.921 35.566C5.01503 36.0871 6.24211 36.2615 7.438 36.066C8.30665 35.8122 9.10513 35.3617 9.77144 34.7493C10.4377 34.1369 10.954 33.3792 11.28 32.535C11.4309 32.1392 11.5236 31.7235 11.555 31.301V31.31C11.6091 30.9383 11.601 30.5601 11.531 30.191" fill="black"/>
</g>
</g>
</g>
</g>
</g>
</g>
</g>
</g>
</g>
</g>
</g>
</g>
</g>
</svg>
