<svg width="32" height="32" viewBox="0 0 32 32" fill="none" xmlns="http://www.w3.org/2000/svg">
<g id="Group 365">
<path id="Path 1068" fill-rule="evenodd" clip-rule="evenodd" d="M15.971 0.0351562C12.8122 0.0351562 9.72441 0.971837 7.09799 2.72675C4.47157 4.48167 2.42454 6.976 1.21573 9.89432C0.00692165 12.8126 -0.30936 16.0239 0.306885 19.1219C0.923129 22.22 2.44421 25.0658 4.6778 27.2994C6.91138 29.5329 9.75715 31.054 12.8552 31.6703C15.9533 32.2865 19.1645 31.9702 22.0828 30.7614C25.0011 29.5526 27.4955 27.5056 29.2504 24.8792C31.0053 22.2527 31.942 19.1649 31.942 16.0062C31.942 11.7704 30.2593 7.7081 27.2642 4.71295C24.269 1.71781 20.2068 0.0351562 15.971 0.0351562ZM12.459 7.53516C13.368 7.49416 13.659 7.48415 15.971 7.48415C18.286 7.48415 18.571 7.49416 19.483 7.53516C20.1903 7.55087 20.8898 7.68611 21.552 7.93516C22.1181 8.15396 22.6322 8.48867 23.0613 8.91782C23.4905 9.34696 23.8252 9.86107 24.044 10.4272C24.2923 11.0888 24.4276 11.7876 24.444 12.4942C24.485 13.4032 24.495 13.6942 24.495 16.0062C24.495 18.3182 24.484 18.6062 24.444 19.5182C24.4275 20.225 24.2923 20.9241 24.044 21.5862C23.8249 22.1519 23.4902 22.6658 23.0613 23.0949C22.6324 23.524 22.1187 23.8589 21.553 24.0782C20.891 24.3277 20.1913 24.4629 19.484 24.4782C18.576 24.5192 18.284 24.5292 15.973 24.5292C13.662 24.5292 13.373 24.5192 12.461 24.4782C11.754 24.463 11.0547 24.3277 10.393 24.0782C9.82713 23.8592 9.31324 23.5244 8.88428 23.0953C8.45532 22.6661 8.12076 22.1521 7.90201 21.5862C7.65303 20.9247 7.5178 20.2258 7.50201 19.5192C7.46101 18.6102 7.45099 18.3192 7.45099 16.0072C7.45099 13.6952 7.46201 13.4072 7.50201 12.4952C7.51654 11.7881 7.65181 11.0887 7.90201 10.4272C8.12099 9.86128 8.45576 9.3474 8.88489 8.91844C9.31402 8.48948 9.82805 8.15491 10.394 7.93616C11.0551 7.68665 11.7526 7.55106 12.459 7.53516Z" fill="#0086D5"/>
<path id="Path 1069" fill-rule="evenodd" clip-rule="evenodd" d="M15.208 9.02422H15.972C18.247 9.02422 18.516 9.03222 19.415 9.07322C19.9549 9.07962 20.4897 9.17873 20.996 9.36622C21.3633 9.508 21.6969 9.72513 21.9752 10.0036C22.2535 10.2821 22.4704 10.6158 22.612 10.9832C22.7996 11.4895 22.8987 12.0243 22.905 12.5642C22.946 13.4642 22.954 13.7312 22.954 16.0052C22.954 18.2792 22.945 18.5482 22.905 19.4462C22.8986 19.9861 22.7995 20.5209 22.612 21.0272C22.4699 21.3942 22.2528 21.7275 21.9745 22.0057C21.6962 22.284 21.363 22.5011 20.996 22.6432C20.4897 22.831 19.9549 22.9301 19.415 22.9362C18.515 22.9772 18.247 22.9852 15.972 22.9852C13.697 22.9852 13.428 22.9762 12.53 22.9362C11.9897 22.9295 11.4546 22.8301 10.948 22.6422C10.5807 22.5006 10.247 22.2836 9.96854 22.0053C9.69005 21.727 9.47288 21.3935 9.33099 21.0262C9.14349 20.5199 9.04438 19.9851 9.03799 19.4452C8.99699 18.5452 8.98898 18.2772 8.98898 16.0022C8.98898 13.7272 8.99699 13.4592 9.03799 12.5612C9.04438 12.0213 9.14349 11.4865 9.33099 10.9802C9.47287 10.6128 9.69003 10.2792 9.96851 10.0007C10.247 9.72225 10.5806 9.5051 10.948 9.36322C11.4546 9.17535 11.9897 9.07623 12.53 9.07022C13.316 9.03422 13.62 9.02322 15.208 9.02222V9.02422ZM20.519 10.4382C20.3168 10.4382 20.1193 10.4982 19.9512 10.6105C19.7831 10.7228 19.6521 10.8824 19.5748 11.0691C19.4974 11.2559 19.4772 11.4614 19.5166 11.6596C19.5561 11.8578 19.6534 12.04 19.7963 12.1829C19.9393 12.3258 20.1214 12.4231 20.3196 12.4626C20.5179 12.502 20.7233 12.4818 20.9101 12.4044C21.0968 12.3271 21.2564 12.1961 21.3687 12.028C21.481 11.8599 21.541 11.6624 21.541 11.4602C21.541 11.1892 21.4333 10.9292 21.2416 10.7376C21.05 10.5459 20.79 10.4382 20.519 10.4382ZM11.598 16.0072C11.598 15.1421 11.8545 14.2965 12.3351 13.5772C12.8158 12.8579 13.4989 12.2972 14.2981 11.9662C15.0974 11.6351 15.9768 11.5485 16.8253 11.7173C17.6738 11.886 18.4532 12.3026 19.0649 12.9143C19.6766 13.5261 20.0932 14.3054 20.2619 15.1539C20.4307 16.0024 20.3441 16.8818 20.013 17.6811C19.682 18.4803 19.1213 19.1634 18.402 19.6441C17.6827 20.1247 16.8371 20.3812 15.972 20.3812C14.8119 20.3812 13.6994 19.9204 12.8791 19.1001C12.0588 18.2798 11.598 17.1673 11.598 16.0072Z" fill="#0086D5"/>
<path id="Path 1070" d="M15.972 13.1672C16.5337 13.1672 17.0828 13.3338 17.5498 13.6459C18.0169 13.9579 18.3809 14.4015 18.5958 14.9204C18.8108 15.4394 18.867 16.0104 18.7574 16.5613C18.6479 17.1122 18.3774 17.6182 17.9802 18.0154C17.583 18.4126 17.077 18.6831 16.5261 18.7927C15.9752 18.9022 15.4041 18.846 14.8852 18.6311C14.3663 18.4161 13.9227 18.0521 13.6106 17.5851C13.2986 17.118 13.132 16.5689 13.132 16.0072C13.132 15.254 13.4312 14.5317 13.9638 13.9991C14.4964 13.4665 15.2188 13.1672 15.972 13.1672Z" fill="#0086D5"/>
</g>
</svg>
