<svg width="308" height="299" viewBox="0 0 308 299" fill="none" xmlns="http://www.w3.org/2000/svg">
<mask id="mask0_0_1178" style="mask-type:luminance" maskUnits="userSpaceOnUse" x="0" y="0" width="308" height="299">
<path d="M270.995 0.0407124L0.372986 38.0742L37.0047 298.723L307.627 260.689L270.995 0.0407124Z" fill="white"/>
</mask>
<g mask="url(#mask0_0_1178)">
<path d="M148.165 283.09C144.945 283.09 141.547 282.991 138.066 282.793C137.892 282.783 137.721 282.739 137.563 282.663C137.405 282.587 137.264 282.48 137.148 282.35C137.031 282.219 136.942 282.067 136.884 281.902C136.826 281.737 136.802 281.562 136.811 281.388C136.821 281.213 136.865 281.042 136.941 280.884C137.017 280.727 137.124 280.586 137.254 280.469C137.385 280.353 137.537 280.263 137.702 280.205C137.867 280.148 138.042 280.123 138.217 280.133C141.647 280.326 144.994 280.423 148.165 280.423C148.502 280.423 148.826 280.551 149.073 280.781C149.319 281.011 149.469 281.325 149.493 281.662C149.517 281.998 149.412 282.33 149.2 282.592C148.988 282.855 148.685 283.027 148.351 283.074C148.29 283.082 148.227 283.087 148.164 283.087M128.02 281.971C124.671 281.612 121.31 281.166 118.031 280.642C117.858 280.614 117.693 280.553 117.543 280.462C117.394 280.37 117.265 280.25 117.162 280.108C117.06 279.967 116.986 279.806 116.945 279.636C116.905 279.466 116.898 279.289 116.925 279.117C116.953 278.944 117.014 278.778 117.106 278.629C117.197 278.48 117.317 278.351 117.459 278.248C117.601 278.145 117.761 278.071 117.931 278.031C118.102 277.99 118.278 277.983 118.451 278.011C121.684 278.527 125 278.968 128.304 279.322C128.627 279.357 128.927 279.508 129.146 279.748C129.366 279.988 129.49 280.3 129.495 280.625C129.501 280.95 129.387 281.265 129.176 281.512C128.965 281.759 128.67 281.921 128.349 281.966C128.24 281.981 128.129 281.983 128.02 281.971ZM108.122 278.785C104.8 278.066 101.506 277.252 98.3327 276.363C98.1629 276.317 98.0039 276.238 97.8649 276.13C97.7259 276.022 97.6096 275.888 97.5228 275.735C97.4359 275.582 97.3802 275.413 97.3589 275.239C97.3376 275.064 97.351 274.887 97.3985 274.718C97.446 274.548 97.5265 274.39 97.6355 274.252C97.7445 274.114 97.8797 273.999 98.0334 273.913C98.1871 273.828 98.3562 273.774 98.531 273.754C98.7058 273.734 98.8828 273.749 99.0517 273.798C102.174 274.672 105.414 275.474 108.685 276.18C108.857 276.216 109.021 276.286 109.166 276.385C109.311 276.484 109.435 276.611 109.531 276.758C109.627 276.906 109.693 277.071 109.724 277.244C109.756 277.417 109.753 277.594 109.716 277.766C109.679 277.938 109.608 278.101 109.508 278.245C109.407 278.39 109.279 278.513 109.131 278.607C108.983 278.702 108.817 278.766 108.644 278.797C108.471 278.827 108.294 278.824 108.122 278.785ZM88.7122 273.324C85.4892 272.185 82.3297 270.936 79.3214 269.614C79.0041 269.468 78.7569 269.203 78.6329 268.877C78.5089 268.55 78.5181 268.188 78.6585 267.868C78.799 267.549 79.0594 267.297 79.3837 267.167C79.708 267.037 80.0703 267.04 80.3924 267.175C83.3395 268.472 86.4372 269.697 89.5984 270.813C89.7633 270.872 89.9151 270.962 90.0452 271.079C90.1753 271.196 90.2811 271.337 90.3565 271.495C90.4319 271.653 90.4754 271.824 90.4847 271.999C90.4939 272.174 90.4687 272.349 90.4104 272.513C90.3521 272.678 90.2618 272.83 90.1448 272.96C90.0278 273.09 89.8864 273.196 89.7285 273.272C89.5707 273.347 89.3995 273.391 89.2248 273.4C89.0501 273.409 88.8753 273.384 88.7103 273.325M70.2514 265.168C67.2476 263.533 64.3368 261.769 61.6028 259.927C61.3132 259.728 61.1139 259.423 61.0482 259.078C60.9825 258.733 61.0557 258.376 61.2519 258.085C61.448 257.793 61.7513 257.591 62.0957 257.522C62.4401 257.454 62.7977 257.524 63.0907 257.717C65.7567 259.514 68.5947 261.233 71.5253 262.829C71.6826 262.911 71.8221 263.023 71.9356 263.159C72.0491 263.295 72.1342 263.452 72.1861 263.622C72.238 263.791 72.2555 263.969 72.2376 264.146C72.2198 264.322 72.1669 264.493 72.0822 264.649C71.9974 264.804 71.8824 264.942 71.744 265.052C71.6056 265.163 71.4464 265.245 71.2759 265.293C71.1054 265.341 70.927 265.355 70.7511 265.334C70.5751 265.312 70.4053 265.256 70.2514 265.168ZM53.5128 253.846C50.9226 251.678 48.4572 249.364 46.1285 246.917C45.8852 246.66 45.7537 246.318 45.7628 245.965C45.772 245.612 45.9211 245.276 46.1774 245.033C46.4336 244.79 46.776 244.658 47.1293 244.667C47.4825 244.677 47.8177 244.826 48.061 245.082C50.32 247.456 52.7116 249.701 55.2243 251.804C55.4951 252.031 55.6646 252.357 55.6956 252.709C55.7266 253.061 55.6165 253.41 55.3896 253.681C55.1626 253.952 54.8374 254.121 54.4854 254.152C54.1335 254.184 53.7836 254.073 53.5128 253.846ZM39.6031 239.172C37.5867 236.461 35.7371 233.63 34.0645 230.695C33.8906 230.388 33.8455 230.024 33.9393 229.684C34.033 229.344 34.2578 229.055 34.5644 228.881C34.871 228.706 35.2343 228.66 35.5746 228.753C35.9149 228.846 36.2044 229.071 36.3796 229.377C37.9987 232.218 39.7887 234.958 41.7396 237.582C41.8494 237.722 41.93 237.882 41.9767 238.053C42.0235 238.225 42.0354 238.404 42.0119 238.58C41.9883 238.757 41.9297 238.926 41.8395 239.079C41.7493 239.233 41.6294 239.366 41.4868 239.472C41.3442 239.579 41.1817 239.655 41.0091 239.697C40.8364 239.74 40.657 239.747 40.4815 239.719C40.3059 239.691 40.1378 239.628 39.9869 239.534C39.8361 239.44 39.7056 239.317 39.6031 239.172ZM29.5914 221.616C28.2855 218.508 27.1541 215.329 26.2024 212.095C26.1499 211.926 26.1316 211.749 26.1483 211.573C26.1651 211.397 26.2166 211.227 26.2999 211.071C26.3832 210.915 26.4967 210.778 26.6337 210.666C26.7706 210.555 26.9284 210.472 27.0978 210.422C27.2672 210.372 27.4448 210.356 27.6203 210.376C27.7959 210.395 27.9658 210.449 28.1202 210.535C28.2747 210.62 28.4105 210.736 28.5199 210.874C28.6293 211.013 28.7101 211.172 28.7574 211.342C29.6816 214.481 30.7797 217.567 32.0467 220.584C32.1172 220.746 32.1549 220.92 32.1576 221.096C32.1603 221.273 32.128 221.448 32.0625 221.611C31.997 221.775 31.8997 221.924 31.7761 222.05C31.6525 222.176 31.5052 222.276 31.3427 222.344C31.1802 222.413 31.0057 222.448 30.8293 222.449C30.653 222.449 30.4783 222.415 30.3154 222.347C30.1525 222.28 30.0047 222.18 29.8804 222.055C29.7562 221.93 29.6581 221.781 29.5917 221.618M23.7325 202.31C23.1817 199.706 22.7242 197.111 22.3711 194.599C22.2648 193.842 22.1671 193.083 22.079 192.341C22.0554 192.165 22.067 191.987 22.1129 191.817C22.1589 191.646 22.2384 191.486 22.3467 191.347C22.455 191.207 22.5901 191.09 22.744 191.003C22.8978 190.917 23.0675 190.861 23.243 190.84C23.4185 190.82 23.5964 190.834 23.7662 190.883C23.9361 190.932 24.0946 191.014 24.2325 191.124C24.3703 191.235 24.4848 191.372 24.5693 191.527C24.6537 191.682 24.7064 191.853 24.7243 192.028C24.8096 192.751 24.9056 193.491 25.0093 194.229C25.354 196.682 25.8021 199.216 26.3393 201.759C26.412 202.105 26.3446 202.465 26.152 202.761C25.9594 203.057 25.6573 203.264 25.3119 203.338C25.2812 203.342 25.2505 203.346 25.2198 203.351C24.8859 203.397 24.5467 203.315 24.2708 203.121C23.9948 202.928 23.8027 202.636 23.733 202.306M22.7674 183.558C22.5921 183.56 22.4182 183.527 22.2557 183.461C22.0932 183.395 21.9453 183.297 21.8205 183.174C21.6957 183.051 21.5964 182.904 21.5283 182.743C21.4602 182.581 21.4247 182.408 21.4238 182.232C21.3896 178.845 21.5789 175.459 21.9906 172.096C22.0344 171.745 22.2157 171.427 22.4945 171.21C22.7734 170.993 23.127 170.895 23.4776 170.939C23.8281 170.983 24.147 171.164 24.3639 171.443C24.5808 171.722 24.6781 172.076 24.6343 172.426C24.2382 175.672 24.0566 178.94 24.0906 182.21C24.0939 182.535 23.9786 182.849 23.7664 183.095C23.5542 183.34 23.2596 183.5 22.938 183.543C22.8797 183.552 22.821 183.556 22.7622 183.557M24.93 163.774C24.5909 163.675 24.3051 163.445 24.1353 163.135C23.9654 162.826 23.9255 162.461 24.0242 162.122C24.9746 158.842 26.2313 155.66 27.7778 152.616C27.9388 152.301 28.2181 152.064 28.5543 151.955C28.8905 151.846 29.2561 151.876 29.5707 152.037C29.8852 152.198 30.1229 152.477 30.2315 152.813C30.3402 153.149 30.3108 153.515 30.1498 153.83C28.6796 156.724 27.4851 159.75 26.582 162.868C26.5331 163.036 26.4516 163.193 26.3421 163.329C26.2326 163.466 26.0973 163.579 25.9438 163.664C25.7904 163.748 25.6218 163.801 25.4479 163.82C25.2739 163.839 25.0979 163.823 24.93 163.774ZM68.4765 156.206C65.0127 156.458 61.5306 156.188 58.1473 155.403C57.8031 155.324 57.5046 155.111 57.3174 154.811C57.1302 154.512 57.0697 154.15 57.1492 153.806C57.2288 153.462 57.4417 153.163 57.7414 152.976C58.041 152.789 58.4027 152.728 58.7469 152.808C61.8659 153.532 65.0763 153.782 68.2698 153.55C68.6138 153.525 68.9541 153.634 69.2191 153.855C69.4841 154.075 69.6531 154.39 69.6907 154.733C69.7283 155.076 69.6315 155.42 69.4206 155.693C69.2097 155.965 68.9012 156.146 68.5599 156.196L68.4778 156.208M76.7576 152.846C76.6701 152.695 76.6133 152.528 76.5905 152.354C76.5677 152.181 76.5792 152.005 76.6245 151.836C76.6698 151.667 76.7479 151.508 76.8543 151.37C76.9608 151.231 77.0936 151.114 77.2451 151.027C79.3533 149.811 81.8405 147.655 81.7134 144.271C81.7 143.918 81.8275 143.574 82.0678 143.315C82.308 143.056 82.6414 142.903 82.9945 142.89C83.3477 142.876 83.6916 143.004 83.9507 143.244C84.2099 143.484 84.3629 143.818 84.3763 144.171C84.5137 147.843 82.4546 151.098 78.5773 153.335C78.2713 153.511 77.9078 153.559 77.5668 153.467C77.2257 153.376 76.934 153.152 76.7576 152.846ZM48.521 151.598C45.5157 149.843 42.8163 147.61 40.5292 144.987C40.4143 144.855 40.3265 144.702 40.2709 144.536C40.2152 144.37 40.1928 144.195 40.2048 144.02C40.2168 143.846 40.2631 143.676 40.3411 143.519C40.419 143.362 40.527 143.223 40.6589 143.108C40.7908 142.993 40.944 142.905 41.1099 142.849C41.2757 142.794 41.4509 142.771 41.6254 142.783C41.7999 142.795 41.9704 142.842 42.127 142.92C42.2836 142.997 42.4233 143.105 42.5382 143.237C44.6359 145.643 47.1113 147.691 49.8674 149.3C50.0199 149.388 50.1537 149.505 50.2609 149.644C50.368 149.784 50.4465 149.943 50.4917 150.113C50.537 150.283 50.5481 150.461 50.5244 150.635C50.5008 150.809 50.4428 150.977 50.3539 151.129C50.265 151.281 50.1469 151.413 50.0065 151.519C49.866 151.625 49.706 151.702 49.5356 151.746C49.3652 151.79 49.1878 151.799 49.0137 151.774C48.8396 151.749 48.672 151.688 48.521 151.598ZM33.57 145.903C33.4347 145.793 33.3225 145.656 33.24 145.502C33.1575 145.348 33.1062 145.179 33.089 145.004C33.0719 144.83 33.0892 144.655 33.1401 144.487C33.1909 144.32 33.2742 144.164 33.3853 144.029C35.5626 141.37 38.0441 138.975 40.7792 136.893C40.9186 136.788 41.0774 136.71 41.2466 136.666C41.4159 136.622 41.5922 136.611 41.7655 136.635C41.9389 136.658 42.1058 136.716 42.2569 136.804C42.408 136.893 42.5402 137.01 42.6459 137.149C42.7517 137.289 42.829 137.447 42.8734 137.617C42.9178 137.786 42.9285 137.962 42.9047 138.135C42.881 138.309 42.8233 138.476 42.7351 138.627C42.6468 138.778 42.5296 138.91 42.3903 139.016C39.8208 140.971 37.4896 143.22 35.4445 145.719C35.2203 145.992 34.8968 146.164 34.5452 146.199C34.1937 146.233 33.843 146.128 33.57 145.903ZM77.5901 136.553C75.2851 134.449 72.4759 132.976 69.4345 132.276C69.0917 132.191 68.797 131.972 68.6152 131.669C68.4334 131.366 68.3795 131.003 68.4652 130.661C68.5509 130.318 68.7693 130.023 69.0724 129.841C69.3754 129.66 69.7382 129.606 70.081 129.691C73.5641 130.5 76.7794 132.194 79.4154 134.61C79.673 134.852 79.824 135.186 79.8352 135.539C79.8464 135.892 79.7169 136.236 79.4751 136.493C79.2333 136.751 78.899 136.902 78.5459 136.913C78.1928 136.924 77.8497 136.795 77.592 136.553M35.0434 136.204C33.7027 133.031 32.7679 129.702 32.2612 126.295C32.2344 126.122 32.2419 125.945 32.2833 125.775C32.3246 125.605 32.3991 125.445 32.5024 125.304C32.6057 125.163 32.7357 125.043 32.8852 124.953C33.0347 124.862 33.2006 124.801 33.3734 124.774L33.3913 124.772C33.7379 124.723 34.0897 124.813 34.3707 125.021C34.6518 125.23 34.8394 125.541 34.893 125.887C35.3673 129.07 36.2412 132.182 37.4941 135.147C37.5666 135.308 37.6062 135.482 37.6107 135.659C37.6152 135.835 37.5845 136.011 37.5203 136.176C37.4561 136.341 37.3598 136.491 37.2369 136.618C37.1141 136.745 36.9671 136.847 36.8047 136.917C36.6422 136.986 36.4675 137.023 36.2907 137.025C36.1139 137.026 35.9386 136.992 35.7749 136.925C35.6113 136.859 35.4626 136.76 35.3375 136.635C35.2125 136.51 35.1136 136.361 35.0466 136.198M48.9849 133.479C48.8487 133.153 48.8474 132.787 48.9814 132.46C49.1154 132.133 49.3736 131.873 49.6993 131.737C52.8877 130.393 56.2499 129.507 59.6863 129.105C60.0276 129.083 60.3645 129.193 60.6271 129.412C60.8898 129.631 61.0581 129.943 61.0971 130.282C61.1362 130.622 61.043 130.964 60.8369 131.237C60.6309 131.51 60.3277 131.693 59.9901 131.749C56.8026 132.124 53.6843 132.948 50.7278 134.198C50.6224 134.242 50.5116 134.273 50.3983 134.288C50.1068 134.329 49.81 134.272 49.5543 134.127C49.2985 133.981 49.0982 133.755 48.9845 133.483M32.9803 117.465C32.6274 117.453 32.2938 117.301 32.0528 117.043C31.8119 116.784 31.6832 116.441 31.6953 116.088C31.8239 112.699 32.1827 109.323 32.7693 105.982C32.8293 105.634 33.0253 105.324 33.3139 105.12C33.6026 104.917 33.9604 104.836 34.3086 104.896C34.6567 104.956 34.9668 105.152 35.1705 105.441C35.3742 105.729 35.4549 106.087 35.3949 106.435C34.8286 109.656 34.4818 112.912 34.3569 116.18C34.3511 116.355 34.3109 116.526 34.2385 116.686C34.1662 116.845 34.0631 116.988 33.9352 117.108C33.8074 117.227 33.6572 117.32 33.4933 117.381C33.3295 117.443 33.1552 117.471 32.9803 117.465ZM35.9429 97.7607C35.7744 97.7136 35.6169 97.6338 35.4793 97.5259C35.3416 97.4179 35.2266 97.2839 35.1408 97.1315C35.0549 96.9791 34.9999 96.8113 34.979 96.6376C34.958 96.464 34.9714 96.2879 35.0185 96.1194C35.8838 93.0218 36.9262 89.7903 38.1302 86.5159C38.1903 86.3515 38.2822 86.2005 38.4007 86.0716C38.5191 85.9427 38.6618 85.8385 38.8205 85.7647C38.9793 85.691 39.151 85.6492 39.3259 85.6418C39.5008 85.6344 39.6754 85.6616 39.8398 85.7217C40.0042 85.7818 40.1552 85.8737 40.2841 85.9922C40.4129 86.1106 40.5172 86.2533 40.591 86.412C40.6647 86.5708 40.7065 86.7425 40.7139 86.9174C40.7212 87.0923 40.6941 87.2669 40.634 87.4313C39.4585 90.6432 38.4337 93.8056 37.5866 96.8319C37.5398 97.0005 37.4601 97.1582 37.3522 97.296C37.2443 97.4338 37.1103 97.5489 36.9578 97.6348C36.8054 97.7206 36.6374 97.7756 36.4637 97.7964C36.2899 97.8173 36.1138 97.8037 35.9453 97.7563M42.7055 78.9909C42.3905 78.8311 42.1519 78.5529 42.0419 78.2174C41.9318 77.8818 41.9595 77.5163 42.1187 77.2011C43.649 74.1804 45.3722 71.2614 47.2776 68.4621C47.3754 68.316 47.5012 68.1907 47.6476 68.0935C47.794 67.9962 47.9583 67.9289 48.1309 67.8954C48.3034 67.862 48.4809 67.863 48.6531 67.8984C48.8253 67.9339 48.9888 68.0031 49.1341 68.102C49.2794 68.2009 49.4037 68.3276 49.4998 68.4748C49.5959 68.622 49.6619 68.7868 49.6941 68.9596C49.7262 69.1325 49.7238 69.3099 49.687 69.4818C49.6502 69.6537 49.5798 69.8167 49.4797 69.9612C47.6383 72.665 45.9733 75.4848 44.4951 78.4031C44.3355 78.7182 44.0574 78.957 43.7219 79.0672C43.3863 79.1774 43.0208 79.15 42.7055 78.9909ZM53.6137 62.3357C53.4822 62.2202 53.3749 62.08 53.2977 61.9231C53.2205 61.7661 53.1749 61.5955 53.1637 61.4209C53.1525 61.2464 53.1758 61.0713 53.2323 60.9058C53.2888 60.7403 53.3773 60.5875 53.4929 60.4562C55.727 57.9189 58.102 55.5093 60.6067 53.2389C60.7349 53.1148 60.8867 53.0177 61.0531 52.9534C61.2195 52.8891 61.3972 52.8589 61.5755 52.8645C61.7538 52.8702 61.9292 52.9116 62.0912 52.9864C62.2532 53.0611 62.3985 53.1677 62.5186 53.2996C62.6386 53.4316 62.7309 53.5864 62.79 53.7547C62.8491 53.9231 62.8738 54.1016 62.8626 54.2796C62.8513 54.4577 62.8045 54.6317 62.7247 54.7913C62.6449 54.9509 62.5339 55.0928 62.3983 55.2087C59.9675 57.4107 57.6625 59.7477 55.4943 62.2087C55.261 62.4739 54.932 62.6356 54.5795 62.6582C54.2271 62.6809 53.8801 62.5626 53.6148 62.3294M272.171 21.4767C269.428 20.8232 266.159 20.19 262.455 19.5925C262.107 19.5364 261.794 19.3441 261.587 19.0577C261.38 18.7714 261.296 18.4146 261.352 18.0658C261.408 17.717 261.6 17.4047 261.886 17.1977C262.173 16.9907 262.53 16.906 262.878 16.9621C266.646 17.5697 269.98 18.2159 272.788 18.8846C272.959 18.9251 273.119 18.9987 273.261 19.1013C273.403 19.2039 273.523 19.3334 273.614 19.4824C273.706 19.6314 273.768 19.797 273.795 19.9698C273.823 20.1425 273.816 20.3191 273.776 20.4893C273.735 20.6595 273.662 20.82 273.559 20.9617C273.457 21.1035 273.327 21.2236 273.178 21.3153C273.029 21.407 272.863 21.4685 272.691 21.4961C272.518 21.5238 272.341 21.5172 272.171 21.4767ZM68.1648 48.6948C68.0609 48.5541 67.9857 48.3943 67.9436 48.2246C67.9014 48.0549 67.8931 47.8785 67.9192 47.7055C67.9453 47.5326 68.0051 47.3665 68.0954 47.2167C68.1857 47.0669 68.3046 46.9364 68.4454 46.8326C71.082 44.8847 73.9038 42.9906 76.8335 41.2024C77.135 41.0184 77.4973 40.9616 77.8407 41.0447C78.1841 41.1278 78.4804 41.3439 78.6644 41.6454C78.8485 41.947 78.9052 42.3093 78.8221 42.6526C78.7391 42.996 78.523 43.2923 78.2214 43.4764C75.3598 45.2237 72.6025 47.0744 70.0281 48.9762C69.8875 49.0802 69.7277 49.1555 69.558 49.1978C69.3882 49.24 69.2118 49.2483 69.0388 49.2222C68.8659 49.1962 68.6997 49.1362 68.5499 49.0459C68.4002 48.9555 68.2697 48.8365 68.166 48.6956M252.61 18.2234C249.441 17.8437 246.111 17.4989 242.709 17.1974C242.356 17.1666 242.031 16.997 241.803 16.726C241.576 16.4549 241.465 16.1047 241.496 15.7522C241.527 15.3997 241.696 15.0738 241.967 14.8464C242.238 14.6189 242.589 14.5084 242.941 14.5392C246.37 14.844 249.728 15.192 252.923 15.574C253.245 15.6122 253.541 15.766 253.758 16.0069C253.974 16.2477 254.095 16.559 254.098 16.8827C254.102 17.2063 253.987 17.5201 253.776 17.7655C253.565 18.0108 253.272 18.1709 252.951 18.2158C252.837 18.2319 252.721 18.2333 252.607 18.2199M85.0618 38.0789C84.9822 37.923 84.9342 37.753 84.9203 37.5786C84.9065 37.4042 84.9271 37.2287 84.9811 37.0623C85.0351 36.8958 85.1213 36.7416 85.2349 36.6085C85.3485 36.4754 85.4871 36.366 85.643 36.2865C88.5537 34.802 91.6247 33.3656 94.7707 32.0176C94.932 31.9452 95.1061 31.9055 95.2828 31.901C95.4596 31.8966 95.6354 31.9273 95.8002 31.9915C95.9649 32.0556 96.1153 32.152 96.2424 32.2748C96.3695 32.3977 96.4709 32.5447 96.5407 32.7071C96.6104 32.8696 96.6471 33.0443 96.6487 33.2211C96.6502 33.3979 96.6165 33.5732 96.5496 33.7369C96.4827 33.9005 96.3838 34.0492 96.2588 34.1742C96.1338 34.2993 95.9852 34.3982 95.8216 34.4652C92.7291 35.7915 89.7121 37.2021 86.8541 38.6601C86.6983 38.7398 86.5283 38.788 86.3539 38.8019C86.1794 38.8158 86.0039 38.7952 85.8374 38.7412C85.671 38.6872 85.5168 38.6009 85.3837 38.4873C85.2506 38.3736 85.1412 38.2348 85.0618 38.0789ZM232.774 16.4508C229.502 16.2472 226.158 16.0799 222.825 15.9546C222.649 15.9501 222.476 15.9107 222.315 15.8386C222.154 15.7666 222.009 15.6633 221.888 15.5347C221.767 15.4062 221.673 15.255 221.611 15.0898C221.55 14.9247 221.521 14.7489 221.528 14.5727C221.535 14.3965 221.576 14.2234 221.65 14.0634C221.724 13.9034 221.829 13.7597 221.959 13.6406C222.09 13.5215 222.242 13.4294 222.408 13.3697C222.574 13.31 222.75 13.2838 222.926 13.2927C226.276 13.4196 229.645 13.5874 232.94 13.7919C233.27 13.8111 233.581 13.9526 233.813 14.1888C234.045 14.4249 234.18 14.7389 234.193 15.0695C234.206 15.4001 234.096 15.7237 233.883 15.9772C233.671 16.2308 233.371 16.3962 233.044 16.4412C232.954 16.4532 232.864 16.4564 232.774 16.4508ZM212.867 15.6961C209.554 15.6496 206.202 15.641 202.904 15.6713C202.554 15.6692 202.219 15.5296 201.972 15.2826C201.724 15.0356 201.583 14.7011 201.58 14.3513C201.577 14.0015 201.712 13.6645 201.955 13.4131C202.198 13.1617 202.53 13.0161 202.88 13.0077C206.198 12.9766 209.571 12.9853 212.905 13.0327C213.08 13.0352 213.253 13.0721 213.414 13.1413C213.574 13.2106 213.72 13.3107 213.842 13.4362C213.964 13.5616 214.06 13.7099 214.124 13.8724C214.189 14.035 214.221 14.2087 214.219 14.3836C214.216 14.5585 214.179 14.7313 214.11 14.8919C214.041 15.0526 213.941 15.1981 213.815 15.32C213.69 15.442 213.541 15.538 213.379 15.6027C213.216 15.6674 213.043 15.6994 212.868 15.6969M103.338 30.031C103.278 29.8666 103.252 29.692 103.26 29.5174C103.268 29.3427 103.31 29.1713 103.384 29.0129C103.458 28.8546 103.563 28.7125 103.692 28.5946C103.821 28.4768 103.973 28.3856 104.137 28.3262C107.212 27.2144 110.422 26.1473 113.681 25.152C114.012 25.0711 114.361 25.1197 114.656 25.2879C114.952 25.4561 115.172 25.731 115.272 26.0564C115.371 26.3817 115.342 26.7328 115.191 27.0376C115.04 27.3424 114.778 27.5778 114.459 27.6955C111.242 28.6768 108.074 29.7309 105.043 30.8264C104.878 30.8862 104.704 30.9129 104.529 30.905C104.354 30.8971 104.183 30.8548 104.024 30.7804C103.866 30.706 103.724 30.6011 103.606 30.4716C103.488 30.3421 103.397 30.1907 103.338 30.0259M192.941 15.8769C189.616 15.9878 186.268 16.1401 182.991 16.3301C182.64 16.3479 182.296 16.2261 182.034 15.9913C181.772 15.7565 181.614 15.4277 181.594 15.0766C181.573 14.7255 181.693 14.3807 181.926 14.1173C182.159 13.8539 182.486 13.6933 182.837 13.6706C186.137 13.4785 189.506 13.3261 192.853 13.2142C193.028 13.2084 193.202 13.2371 193.366 13.2986C193.53 13.3602 193.68 13.4533 193.808 13.5729C193.935 13.6924 194.038 13.8359 194.111 13.9952C194.183 14.1545 194.223 14.3265 194.229 14.5013C194.235 14.6761 194.206 14.8504 194.144 15.0141C194.083 15.1779 193.99 15.3279 193.87 15.4556C193.751 15.5833 193.607 15.6863 193.448 15.7585C193.289 15.8308 193.116 15.8711 192.941 15.8769ZM122.394 24.0568C122.35 23.8873 122.34 23.711 122.365 23.5377C122.39 23.3645 122.448 23.1979 122.538 23.0473C122.627 22.8968 122.745 22.7652 122.885 22.6602C123.025 22.5553 123.184 22.4789 123.353 22.4355C126.522 21.6216 129.812 20.8491 133.129 20.1386C133.301 20.0995 133.479 20.0949 133.653 20.1251C133.826 20.1553 133.992 20.2197 134.141 20.3146C134.29 20.4095 134.418 20.5329 134.518 20.6778C134.619 20.8226 134.69 20.986 134.727 21.1584C134.764 21.3309 134.766 21.5089 134.734 21.6823C134.701 21.8556 134.635 22.0208 134.538 22.1682C134.441 22.3157 134.316 22.4424 134.17 22.5411C134.024 22.6399 133.86 22.7086 133.687 22.7433C130.402 23.4474 127.146 24.2119 124.008 25.0124C123.96 25.0248 123.911 25.0348 123.861 25.0422C123.537 25.0871 123.207 25.0112 122.936 24.8289C122.664 24.6466 122.469 24.3707 122.387 24.0537M173.051 17.0343C169.725 17.3149 166.391 17.6421 163.144 18.0075C162.793 18.0471 162.441 17.9456 162.165 17.7253C161.888 17.5051 161.711 17.1841 161.672 16.8331C161.632 16.482 161.733 16.1297 161.954 15.8534C162.174 15.5772 162.495 15.3999 162.846 15.3603C166.118 14.9924 169.475 14.6619 172.827 14.3797C173.17 14.3544 173.51 14.4631 173.775 14.683C174.04 14.9029 174.209 15.2168 174.248 15.559C174.287 15.9012 174.191 16.245 173.982 16.5183C173.772 16.7916 173.465 16.9732 173.125 17.025L173.05 17.0354M141.902 19.7569C141.873 19.584 141.877 19.4069 141.917 19.2358C141.956 19.0648 142.028 18.9032 142.13 18.7603C142.232 18.6174 142.361 18.4961 142.51 18.4033C142.659 18.3104 142.825 18.248 142.998 18.2195C146.227 17.6485 149.561 17.1163 152.908 16.6368C153.253 16.598 153.599 16.6952 153.873 16.9077C154.147 17.1203 154.328 17.4315 154.376 17.7751C154.424 18.1186 154.337 18.4675 154.132 18.7474C153.927 19.0273 153.621 19.2162 153.279 19.2739C149.96 19.7493 146.654 20.2777 143.452 20.8427L143.405 20.8494C143.063 20.8971 142.716 20.8104 142.437 20.6076C142.158 20.4048 141.969 20.1017 141.909 19.762" fill="white"/>
</g>
</svg>
