<svg width="69" height="78" viewBox="0 0 69 78" fill="none" xmlns="http://www.w3.org/2000/svg">
<g id="Group 323">
<g id="Clip path group">
<mask id="mask0_0_1033" style="mask-type:luminance" maskUnits="userSpaceOnUse" x="0" y="0" width="69" height="78">
<g id="clip-path-61">
<path id="Rectangle 138" d="M68.623 0.446045H0V77.487H68.623V0.446045Z" fill="white"/>
</g>
</mask>
<g mask="url(#mask0_0_1033)">
<g id="Group 322">
<path id="Path 980" d="M48.25 13.0711C48.1763 13.0709 48.1036 13.0542 48.0372 13.0222C47.9708 12.9901 47.9125 12.9436 47.8665 12.886C47.8205 12.8284 47.7881 12.7612 47.7715 12.6894C47.755 12.6176 47.7548 12.543 47.771 12.4711C49.761 4.01306 46.871 2.46106 43.75 1.59606C42.9755 1.39748 42.1642 1.39058 41.3864 1.57597C40.6086 1.76136 39.8877 2.13345 39.286 2.66006C37.3688 4.34723 36.1299 6.67357 35.8 9.20606C35.7918 9.27008 35.771 9.33185 35.739 9.38786C35.7069 9.44386 35.6641 9.493 35.613 9.53247C35.5619 9.57193 35.5036 9.60095 35.4413 9.61787C35.379 9.63478 35.314 9.63927 35.25 9.63106C35.186 9.62285 35.1242 9.60211 35.0682 9.57003C35.0122 9.53795 34.963 9.49515 34.9236 9.44408C34.8841 9.39301 34.8551 9.33466 34.8382 9.27237C34.8213 9.21009 34.8168 9.14508 34.825 9.08106C35.1978 6.29319 36.5689 3.73508 38.684 1.88106C39.4103 1.26678 40.2725 0.834359 41.1992 0.619594C42.126 0.40483 43.0905 0.413901 44.013 0.646058C47.695 1.66506 50.813 3.82906 48.728 12.6951C48.7026 12.8028 48.6416 12.8988 48.5548 12.9676C48.4681 13.0364 48.3607 13.0739 48.25 13.0741" fill="black"/>
<path id="Rectangle 137" d="M17.4461 1.7026L0.491989 62.9701L51.1772 76.9958L68.1313 15.7284L17.4461 1.7026Z" fill="white"/>
<path id="Path 981" d="M51.178 77.487C51.1334 77.487 51.089 77.4809 51.046 77.469L0.359993 63.446C0.235614 63.411 0.13002 63.3284 0.0660276 63.2161C0.00203473 63.1039 -0.0152193 62.9709 0.0179934 62.8461L16.972 1.57005C16.9887 1.50722 17.0177 1.44834 17.0573 1.39683C17.097 1.34533 17.1465 1.30223 17.203 1.27005C17.2591 1.23776 17.3211 1.21706 17.3853 1.20916C17.4496 1.20125 17.5147 1.20632 17.577 1.22405L68.262 15.253C68.3866 15.2879 68.4924 15.3704 68.5566 15.4827C68.6208 15.595 68.6382 15.728 68.605 15.853L51.651 77.126C51.6224 77.2296 51.5607 77.321 51.4753 77.3862C51.3898 77.4513 51.2854 77.4868 51.178 77.487ZM1.09999 62.627L50.834 76.39L67.526 16.07L17.789 2.30705L1.09999 62.627Z" fill="black"/>
<path id="Path 982" d="M56.745 10.4641C54.98 9.87507 31.084 3.21407 29.129 2.73007C27.377 9.06007 29.447 10.7951 35.073 12.5561C43.826 15.2961 49.283 16.7671 51.807 16.3841C54.992 15.9001 56.413 13.5841 56.745 10.4641Z" fill="#0086D5"/>
<path id="Path 983" d="M50.936 16.9341C48.021 16.9341 42.736 15.4711 34.926 13.0261C29.1 11.2021 26.811 9.26307 28.655 2.59907C28.6888 2.47542 28.7697 2.36995 28.8804 2.30527C28.9911 2.24059 29.1227 2.22185 29.247 2.25307C31.108 2.71407 55.141 9.41107 56.901 9.99807C57.0074 10.0335 57.0985 10.1043 57.1591 10.1988C57.2197 10.2932 57.2461 10.4055 57.234 10.5171C56.842 14.2011 54.991 16.3981 51.881 16.8701C51.568 16.9151 51.2521 16.9365 50.936 16.9341ZM29.478 3.32907C28.066 8.82907 29.731 10.3691 35.22 12.0871C43.827 14.7811 49.288 16.2701 51.733 15.8981C54.316 15.5051 55.782 13.8401 56.207 10.8111C52.857 9.79907 33.129 4.30007 29.478 3.32907Z" fill="black"/>
<path id="Path 984" d="M53.2 36.575C53.1851 36.575 53.1703 36.5729 53.156 36.569L28.656 29.789C28.6156 29.7762 28.5817 29.7482 28.5614 29.711C28.5412 29.6737 28.5362 29.6301 28.5474 29.5892C28.5587 29.5483 28.5854 29.5134 28.6218 29.4917C28.6583 29.4701 28.7017 29.4634 28.743 29.473L53.243 36.253C53.2812 36.2637 53.3143 36.2878 53.336 36.3209C53.3578 36.3541 53.3669 36.394 53.3615 36.4333C53.3562 36.4725 53.3367 36.5086 53.3068 36.5346C53.277 36.5607 53.2396 36.5751 53.2 36.575Z" fill="black"/>
<path id="Path 985" d="M50.583 46.046C50.5681 46.0459 50.5533 46.0439 50.539 46.04L26.039 39.26C25.9975 39.2484 25.9623 39.2208 25.941 39.1834C25.9197 39.146 25.9139 39.1017 25.925 39.06C25.9364 39.0184 25.9639 38.9831 26.0014 38.9617C26.0389 38.9403 26.0834 38.9347 26.125 38.946L50.625 45.726C50.6632 45.7367 50.6963 45.7608 50.718 45.7939C50.7398 45.827 50.7489 45.867 50.7435 45.9062C50.7382 45.9455 50.7187 45.9816 50.6888 46.0076C50.659 46.0337 50.6206 46.0481 50.581 46.048" fill="black"/>
<path id="Path 986" d="M47.963 55.5111C47.9481 55.511 47.9333 55.509 47.919 55.5051L23.419 48.7251C23.3982 48.7193 23.3788 48.7095 23.3619 48.6962C23.3449 48.6829 23.3307 48.6664 23.3202 48.6477C23.3096 48.6289 23.3028 48.6083 23.3002 48.5869C23.2976 48.5655 23.2992 48.5438 23.305 48.5231C23.3108 48.5023 23.3206 48.4829 23.3339 48.4659C23.3471 48.449 23.3636 48.4348 23.3824 48.4242C23.4011 48.4136 23.4218 48.4068 23.4432 48.4042C23.4646 48.4016 23.4862 48.4033 23.507 48.4091L48.007 55.1891C48.0452 55.1997 48.0783 55.2238 48.1001 55.2569C48.1218 55.2901 48.1309 55.33 48.1255 55.3693C48.1202 55.4086 48.1007 55.4446 48.0709 55.4706C48.041 55.4967 48.0027 55.5111 47.963 55.5111Z" fill="black"/>
<path id="Path 987" d="M21.069 29.1461C20.9698 29.1465 20.8728 29.1167 20.791 29.0606C20.7092 29.0045 20.6464 28.9248 20.611 28.8321L19.164 25.0961C19.1206 24.9753 19.1262 24.8424 19.1794 24.7256C19.2326 24.6089 19.3294 24.5176 19.449 24.4711C19.5686 24.4247 19.7016 24.4268 19.8197 24.4771C19.9378 24.5273 20.0315 24.6217 20.081 24.7401L21.281 27.8401L24.513 25.2021C24.5628 25.1591 24.6206 25.1266 24.6832 25.1064C24.7458 25.0861 24.8117 25.0787 24.8772 25.0844C24.9427 25.0901 25.0064 25.1089 25.0645 25.1397C25.1227 25.1704 25.174 25.2125 25.2156 25.2634C25.2572 25.3144 25.2881 25.3731 25.3066 25.4362C25.3251 25.4993 25.3307 25.5654 25.3232 25.6308C25.3157 25.6961 25.2952 25.7592 25.2629 25.8165C25.2305 25.8737 25.187 25.9239 25.135 25.9641L21.38 29.0371C21.2923 29.1089 21.1824 29.1482 21.069 29.1481" fill="black"/>
<path id="Path 988" d="M18.331 39.0461C18.2885 39.0457 18.2462 39.0403 18.205 39.0301C18.1298 39.0099 18.0606 38.9722 18.0028 38.9201C17.9451 38.8679 17.9006 38.8028 17.873 38.7301L16.426 34.9931C16.3845 34.8727 16.3912 34.7409 16.4449 34.6255C16.4985 34.51 16.5948 34.4198 16.7135 34.3738C16.8322 34.3279 16.9641 34.3297 17.0815 34.379C17.1989 34.4283 17.2926 34.5211 17.343 34.6381L18.543 37.7381L21.775 35.1001C21.8248 35.0571 21.8826 35.0246 21.9452 35.0043C22.0078 34.9841 22.0737 34.9767 22.1392 34.9824C22.2047 34.9881 22.2684 35.0069 22.3265 35.0376C22.3847 35.0684 22.436 35.1105 22.4776 35.1614C22.5192 35.2123 22.5501 35.2711 22.5686 35.3342C22.5871 35.3973 22.5927 35.4634 22.5852 35.5287C22.5777 35.5941 22.5572 35.6572 22.5249 35.7145C22.4925 35.7717 22.449 35.8219 22.397 35.8621L18.64 38.9281C18.5523 38.9999 18.4424 39.0392 18.329 39.0391" fill="black"/>
<path id="Path 989" d="M15.594 48.935C15.4948 48.9355 15.3978 48.9056 15.316 48.8495C15.2341 48.7934 15.1714 48.7137 15.136 48.621L13.688 44.884C13.6409 44.7623 13.6441 44.6269 13.6969 44.5075C13.7497 44.3881 13.8478 44.2946 13.9695 44.2475C14.0912 44.2005 14.2267 44.2037 14.346 44.2565C14.4654 44.3093 14.5589 44.4073 14.606 44.529L15.806 47.629L19.04 44.996C19.1414 44.9178 19.2694 44.8822 19.3968 44.8968C19.5241 44.9114 19.6406 44.9752 19.7217 45.0745C19.8027 45.1737 19.8418 45.3007 19.8307 45.4284C19.8195 45.556 19.759 45.6743 19.662 45.758L15.9 48.824C15.8123 48.8959 15.7024 48.9351 15.589 48.935" fill="black"/>
</g>
</g>
</g>
</g>
</svg>
