<svg width="94" height="94" viewBox="0 0 94 94" fill="none" xmlns="http://www.w3.org/2000/svg">
<g id="Group 308">
<g id="Clip path group">
<mask id="mask0_0_946" style="mask-type:luminance" maskUnits="userSpaceOnUse" x="0" y="0" width="94" height="94">
<g id="clip-path-55">
<path id="Rectangle 128" d="M93.62 0H0.380005V93.24H93.62V0Z" fill="white"/>
</g>
</mask>
<g mask="url(#mask0_0_946)">
<g id="Group 307">
<path id="Path 937" d="M93.62 46.62C93.6414 58.4427 89.1489 69.8276 81.06 78.45C80.96 78.57 80.86 78.68 80.75 78.79C80.61 78.94 80.46 79.09 80.32 79.23C75.9828 83.6715 70.7999 87.1995 65.0773 89.6057C59.3546 92.0119 53.208 93.2476 47 93.24C45.001 93.2385 43.004 93.1149 41.02 92.87C41.0047 92.8619 40.9873 92.8585 40.97 92.86C36.2584 92.2453 31.6686 90.9133 27.36 88.91C27.01 88.75 26.66 88.58 26.31 88.41C19.4418 85.0025 13.5202 79.9533 9.07001 73.71C8.69001 73.17 8.31001 72.63 7.95001 72.07C7.05137 70.7107 6.23007 69.3018 5.49001 67.85C2.2792 61.5723 0.534174 54.648 0.386266 47.5983C0.238359 40.5487 1.69142 33.5573 4.6361 27.1504C7.58077 20.7435 11.9403 15.088 17.3867 10.6095C22.833 6.13107 29.2243 2.94631 36.0794 1.29495C42.9345 -0.3564 50.0749 -0.431326 56.9631 1.07582C63.8514 2.58296 70.308 5.6329 75.8471 9.9961C81.3863 14.3593 85.8636 19.9221 88.942 26.2658C92.0205 32.6095 93.6199 39.5688 93.62 46.62Z" fill="#E8E1EF"/>
<path id="Path 938" d="M81.06 78.45C80.96 78.57 80.86 78.68 80.75 78.79C80.61 78.94 80.46 79.09 80.32 79.23C75.9828 83.6715 70.7999 87.1995 65.0773 89.6057C59.3546 92.0119 53.208 93.2476 47 93.24C45.001 93.2385 43.004 93.1149 41.02 92.87C41.0047 92.8619 40.9873 92.8585 40.97 92.86C36.2584 92.2454 31.6686 90.9133 27.36 88.91C27.46 84.738 27.567 76.653 27.567 76.653C27.567 76.653 27.59 57.171 27.59 56.96C27.75 56.61 35.57 54.6 45.98 54.26C62.36 53.74 76.2 62.98 81.06 78.45Z" fill="#0086D5"/>
<path id="Path 939" d="M41.02 92.87C41.0047 92.8619 40.9873 92.8584 40.97 92.86C36.2584 92.2453 31.6686 90.9133 27.36 88.91C27.01 88.75 26.66 88.58 26.31 88.41C19.4418 85.0025 13.5202 79.9533 9.07001 73.71C18.05 61.4 25.39 57.81 27.59 56.96C27.812 56.8674 28.0391 56.7873 28.27 56.72L41.02 92.87Z" fill="#0086D5"/>
<path id="Path 940" d="M48.068 27.126C48.068 27.126 58.644 27.897 59.498 17.757C60.407 6.95702 50.429 5.67402 46.073 9.93902C41.717 14.204 42.389 18.67 42.389 18.67C42.389 18.67 39.496 15.927 36.189 19.124C33.759 21.47 34.884 25.434 34.884 25.434C34.884 25.434 29.427 25.087 29.816 29.869C29.9278 31.2706 30.3159 32.6362 30.9579 33.887C31.6 35.1378 32.4833 36.2492 33.557 37.157L48.068 27.126Z" fill="black"/>
<path id="Path 941" d="M37.918 45.581L38.737 56.86C38.737 56.86 41.007 59.96 47.644 60.012C52.588 60.055 54.234 58.818 54.234 58.818L53.134 53.155L52.054 47.634L39.954 45.878L37.918 45.581Z" fill="#F48462"/>
<path id="Path 942" d="M39.949 45.878C40.0289 46.2515 40.1662 46.6105 40.356 46.942C43.289 52.393 50.277 53.107 53.134 53.155L52.054 47.634L39.949 45.878Z" fill="black"/>
<path id="Path 943" d="M52.702 21.742C52.702 21.742 59.649 35.454 57.887 43.48C56.125 51.506 48.854 50.674 44.46 49.393C41.9759 48.7349 39.7152 47.419 37.916 45.584C36.7099 46.0155 35.3983 46.0551 34.1684 45.697C32.9384 45.3389 31.853 44.6015 31.067 43.59C28.167 40.003 29.575 35.612 31.815 34.497C34.055 33.382 36.882 34.884 36.882 34.884L34.508 30.919C34.508 30.919 42.331 9.637 52.702 21.742Z" fill="#F48462"/>
<path id="Path 944" d="M36.875 41.054C36.7828 41.0545 36.6923 41.0288 36.614 40.98L32.214 38.28C32.1564 38.2465 32.106 38.2018 32.0659 38.1485C32.0258 38.0953 31.9968 38.0346 31.9805 37.9699C31.9642 37.9053 31.961 37.838 31.9711 37.7721C31.9812 37.7062 32.0044 37.643 32.0392 37.5862C32.0741 37.5294 32.12 37.4801 32.1742 37.4413C32.2284 37.4025 32.2898 37.3749 32.3548 37.3602C32.4198 37.3454 32.4871 37.3438 32.5528 37.3555C32.6184 37.3671 32.681 37.3918 32.737 37.428L37.137 40.128C37.2298 40.185 37.3014 40.2708 37.341 40.3723C37.3806 40.4737 37.386 40.5853 37.3563 40.6901C37.3267 40.7949 37.2636 40.8872 37.1768 40.9529C37.0899 41.0185 36.9839 41.0541 36.875 41.054Z" fill="black"/>
<path id="Path 945" d="M33.224 41.352C33.1109 41.3522 33.0011 41.3141 32.9125 41.2439C32.8239 41.1737 32.7617 41.0755 32.736 40.9654C32.7104 40.8553 32.7228 40.7397 32.7713 40.6376C32.8198 40.5355 32.9015 40.4528 33.003 40.403L35.303 39.274C35.4223 39.2155 35.56 39.2069 35.6858 39.2499C35.8115 39.2929 35.915 39.3842 35.9735 39.5035C36.032 39.6229 36.0407 39.7606 35.9976 39.8863C35.9546 40.012 35.8633 40.1155 35.744 40.174L33.444 41.303C33.3754 41.3363 33.3002 41.3537 33.224 41.354" fill="black"/>
<path id="Path 946" d="M54.555 27.1C54.4513 27.1001 54.3502 27.0676 54.266 27.007C53.911 26.7526 53.4881 26.6102 53.0516 26.5979C52.615 26.5856 52.1848 26.704 51.816 26.938C51.7067 27.0132 51.5721 27.0419 51.4417 27.0178C51.3112 26.9937 51.1957 26.9188 51.1205 26.8095C51.0453 26.7002 51.0166 26.5656 51.0407 26.4351C51.0648 26.3047 51.1397 26.1892 51.249 26.114C51.7869 25.7622 52.4187 25.5814 53.0613 25.5955C53.7038 25.6096 54.3271 25.8179 54.849 26.193C54.9352 26.2545 54.9997 26.3418 55.0331 26.4423C55.0665 26.5429 55.0671 26.6514 55.0348 26.7523C55.0026 26.8532 54.9391 26.9412 54.8536 27.0037C54.7681 27.0662 54.6649 27.0999 54.559 27.1" fill="black"/>
<path id="Path 947" d="M52.725 39.875C52.6502 39.8751 52.5764 39.8584 52.5089 39.8262C52.4414 39.7939 52.382 39.7469 52.3351 39.6887C52.2881 39.6304 52.2549 39.5624 52.2377 39.4896C52.2206 39.4168 52.22 39.3411 52.236 39.268C52.5157 38.0655 52.5289 36.8163 52.2748 35.6082C52.0207 34.4 51.5054 33.262 50.765 32.274C50.7199 32.2247 50.6852 32.1669 50.6629 32.1039C50.6405 32.0409 50.631 31.9741 50.6349 31.9074C50.6388 31.8407 50.6561 31.7755 50.6856 31.7156C50.7152 31.6556 50.7564 31.6022 50.8069 31.5585C50.8575 31.5148 50.9162 31.4817 50.9798 31.4611C51.0434 31.4405 51.1104 31.4328 51.177 31.4385C51.2435 31.4443 51.3083 31.4633 51.3674 31.4944C51.4265 31.5256 51.4787 31.5683 51.521 31.62C52.3694 32.7225 52.9615 34.0001 53.2542 35.3601C53.5469 36.7201 53.5328 38.1282 53.213 39.482C53.1886 39.5933 53.127 39.693 53.0382 39.7644C52.9495 39.8359 52.839 39.8749 52.725 39.875Z" fill="black"/>
<path id="Path 948" d="M54.397 33.745C54.2659 33.745 54.1401 33.6936 54.0466 33.6017C53.9531 33.5099 53.8994 33.385 53.897 33.254L53.85 30.565C53.8488 30.4993 53.8606 30.4341 53.8846 30.373C53.9086 30.3118 53.9445 30.2561 53.9901 30.2088C54.0357 30.1615 54.0901 30.1237 54.1503 30.0975C54.2106 30.0713 54.2753 30.0572 54.341 30.056C54.4725 30.0579 54.5984 30.1098 54.6929 30.2012C54.7875 30.2926 54.8437 30.4166 54.85 30.548L54.897 33.236C54.8982 33.3017 54.8864 33.3669 54.8624 33.428C54.8384 33.4892 54.8025 33.5449 54.757 33.5922C54.7114 33.6395 54.6569 33.6773 54.5967 33.7035C54.5365 33.7297 54.4717 33.7438 54.406 33.745H54.397Z" fill="black"/>
<path id="Path 949" d="M46.993 34.265C46.8619 34.265 46.7361 34.2136 46.6426 34.1218C46.5491 34.0299 46.4954 33.9051 46.493 33.774L46.446 31.086C46.4448 31.0204 46.4566 30.9551 46.4806 30.894C46.5046 30.8329 46.5405 30.7771 46.5861 30.7298C46.6317 30.6825 46.6861 30.6447 46.7463 30.6185C46.8065 30.5923 46.8713 30.5782 46.937 30.577C47.0027 30.5758 47.0681 30.5876 47.1293 30.6117C47.1905 30.6358 47.2463 30.6717 47.2936 30.7174C47.3408 30.7631 47.3786 30.8177 47.4048 30.878C47.431 30.9384 47.445 31.0033 47.446 31.069L47.493 33.756C47.4942 33.8217 47.4824 33.8869 47.4584 33.9481C47.4344 34.0092 47.3985 34.065 47.3529 34.1122C47.3074 34.1595 47.2529 34.1973 47.1927 34.2235C47.1325 34.2498 47.0677 34.2638 47.002 34.265H46.993Z" fill="black"/>
<path id="Path 950" d="M54.121 24.842C53.6482 24.1788 53.0137 23.6476 52.2777 23.2987C51.5417 22.9499 50.7287 22.7951 49.916 22.849C49.0784 22.9123 48.2628 23.1479 47.5205 23.5411C46.7781 23.9343 46.125 24.4766 45.602 25.134C45.602 25.134 47.181 29.783 43.537 32.578C39.893 35.373 36.88 34.883 36.88 34.883L34.036 34.1L31.705 30.192L39.105 20.957L49.098 14.718L54.742 19.141L54.121 24.842Z" fill="black"/>
<path id="Path 951" d="M50.428 42.7C49.6672 42.7253 48.914 42.5415 48.2504 42.1686C47.5868 41.7957 47.0381 41.248 46.664 40.585C46.6302 40.5277 46.6081 40.4641 46.5991 40.3981C46.5902 40.3322 46.5945 40.265 46.6118 40.2007C46.6291 40.1364 46.6591 40.0762 46.7 40.0237C46.7409 39.9711 46.7919 39.9273 46.85 39.8947C46.9081 39.8621 46.9721 39.8415 47.0383 39.834C47.1045 39.8265 47.1715 39.8323 47.2354 39.851C47.2993 39.8698 47.3588 39.9011 47.4104 39.9432C47.462 39.9853 47.5047 40.0372 47.536 40.096C47.8755 40.6596 48.3742 41.11 48.9693 41.3905C49.5644 41.671 50.2293 41.7689 50.88 41.672C51.0098 41.6523 51.1421 41.6843 51.2484 41.7613C51.3547 41.8382 51.4265 41.9539 51.4483 42.0833C51.4701 42.2127 51.4401 42.3455 51.3649 42.4531C51.2896 42.5606 51.1751 42.6342 51.046 42.658C50.8401 42.6882 50.6321 42.7026 50.424 42.701" fill="black"/>
<path id="Path 952" d="M57.364 37.872H57.244C55.9514 37.819 54.7326 37.255 53.8555 36.304C52.9784 35.353 52.5146 34.0927 52.566 32.8C52.5919 31.4974 53.1259 30.2564 54.054 29.342C54.5041 28.8922 55.041 28.5388 55.6321 28.3033C56.2231 28.0678 56.856 27.955 57.492 27.972C58.7839 28.0253 60.0018 28.5888 60.8788 29.5389C61.7557 30.4889 62.2201 31.748 62.17 33.04C62.1445 34.3437 61.6097 35.5856 60.68 36.5C59.799 37.378 58.6059 37.8711 57.362 37.871M57.371 28.971C56.3894 28.9723 55.4482 29.362 54.753 30.055C54.0106 30.788 53.584 31.7819 53.564 32.825C53.5206 33.8512 53.8856 34.8527 54.5791 35.6103C55.2726 36.3679 56.238 36.8198 57.264 36.867C57.7666 36.884 58.2673 36.7969 58.7347 36.6112C59.2021 36.4255 59.6261 36.1453 59.98 35.788C60.7228 35.0557 61.1496 34.0619 61.169 33.019C61.2124 31.9928 60.8475 30.9911 60.154 30.2334C59.4605 29.4756 58.4951 29.0235 57.469 28.976H57.375" fill="white"/>
<path id="Path 953" d="M45.954 38.687H45.828C44.5149 38.6704 43.2617 38.1349 42.342 37.1976C41.4223 36.2602 40.9108 34.9971 40.9191 33.6839C40.9274 32.3707 41.4549 31.1142 42.3864 30.1886C43.3179 29.2629 44.5778 28.7434 45.891 28.7434C47.2042 28.7434 48.4641 29.2629 49.3956 30.1886C50.3271 31.1142 50.8546 32.3707 50.8629 33.6839C50.8712 34.9971 50.3597 36.2602 49.44 37.1976C48.5203 38.1349 47.2671 38.6704 45.954 38.687ZM45.954 29.787C44.9135 29.8002 43.9204 30.2245 43.1916 30.9673C42.4628 31.7101 42.0575 32.7111 42.0641 33.7517C42.0707 34.7923 42.4887 35.788 43.2269 36.5215C43.965 37.255 44.9634 37.6667 46.004 37.6667C47.0446 37.6667 48.043 37.255 48.7812 36.5215C49.5193 35.788 49.9373 34.7923 49.9439 33.7517C49.9505 32.7111 49.5452 31.7101 48.8164 30.9673C48.0876 30.2245 47.0945 29.8002 46.054 29.787H45.954Z" fill="white"/>
<path id="Path 954" d="M49.935 33.824C49.8024 33.8277 49.6737 33.7786 49.5773 33.6875C49.481 33.5963 49.4247 33.4706 49.421 33.338C49.4173 33.2054 49.4664 33.0767 49.5576 32.9803C49.6487 32.884 49.7744 32.8277 49.907 32.824L53.392 32.624C53.4577 32.6191 53.5237 32.6275 53.5861 32.6487C53.6485 32.6698 53.706 32.7034 53.7552 32.7472C53.8044 32.7911 53.8442 32.8444 53.8724 32.904C53.9005 32.9635 53.9164 33.0282 53.919 33.094C53.9267 33.2263 53.8814 33.3563 53.7933 33.4553C53.7052 33.5543 53.5813 33.6143 53.449 33.622L49.964 33.822H49.935" fill="white"/>
<path id="Path 955" d="M41.488 34.783C41.4048 34.7828 41.323 34.7618 41.25 34.722C41.204 34.697 36.583 32.231 34.391 34.448C34.2962 34.5322 34.1729 34.5773 34.0461 34.574C33.9194 34.5707 33.7986 34.5194 33.7082 34.4305C33.6178 34.3415 33.5647 34.2215 33.5594 34.0948C33.5542 33.9681 33.5973 33.8441 33.68 33.748C36.4 30.998 41.511 33.729 41.727 33.848C41.8245 33.9012 41.9016 33.9853 41.946 34.0872C41.9904 34.189 41.9996 34.3027 41.9722 34.4103C41.9448 34.518 41.8824 34.6135 41.7947 34.6817C41.707 34.7499 41.5991 34.7869 41.488 34.787" fill="white"/>
<path id="Path 956" d="M48.08 60.747C44.3264 60.6789 40.6835 59.4634 37.641 57.264C37.5335 57.1886 37.46 57.0739 37.4364 56.9447C37.4128 56.8156 37.4409 56.6823 37.5147 56.5737C37.5885 56.4651 37.702 56.3899 37.8308 56.3643C37.9596 56.3387 38.0933 56.3648 38.203 56.437C47.322 62.637 54.188 58.373 54.476 58.189C54.5873 58.1211 54.7208 58.0993 54.8479 58.1284C54.9751 58.1575 55.0858 58.2352 55.1565 58.3448C55.2272 58.4543 55.2523 58.5872 55.2265 58.7151C55.2006 58.8429 55.1258 58.9556 55.018 59.029C52.8947 60.1969 50.5029 60.7892 48.08 60.747Z" fill="white"/>
<path id="Path 957" d="M43.654 28.427C43.5564 28.4273 43.461 28.3984 43.38 28.344C43.3251 28.3078 43.278 28.2612 43.2411 28.2068C43.2043 28.1524 43.1786 28.0913 43.1654 28.0269C43.1522 27.9626 43.1518 27.8962 43.1643 27.8317C43.1767 27.7672 43.2018 27.7058 43.238 27.651C43.6698 26.9118 44.3544 26.3537 45.1656 26.0799C45.9767 25.806 46.8595 25.8348 47.651 26.161C47.7721 26.2152 47.8666 26.3154 47.9139 26.4393C47.9612 26.5633 47.9572 26.7009 47.903 26.822C47.8488 26.9431 47.7486 27.0376 47.6247 27.0849C47.5007 27.1322 47.3631 27.1282 47.242 27.074C46.6665 26.8459 46.0278 26.8346 45.4447 27.0423C44.8615 27.25 44.3737 27.6625 44.072 28.203C44.0264 28.2719 43.9645 28.3284 43.8917 28.3675C43.8189 28.4066 43.7376 28.427 43.655 28.427" fill="black"/>
</g>
</g>
</g>
</g>
</svg>
