<svg width="72" height="74" viewBox="0 0 72 74" fill="none" xmlns="http://www.w3.org/2000/svg">
<g id="Group 300">
<g id="Clip path group">
<mask id="mask0_0_881" style="mask-type:luminance" maskUnits="userSpaceOnUse" x="0" y="0" width="72" height="74">
<g id="clip-path-53">
<path id="Rectangle 123" d="M71.229 0.548096H0V73.4871H71.229V0.548096Z" fill="white"/>
</g>
</mask>
<g mask="url(#mask0_0_881)">
<g id="Group 299">
<path id="Path 886" d="M24.372 12.4241C39.517 11.7561 55.679 11.7051 70.701 12.3181C70.701 30.2181 71.058 41.6781 69.449 58.9031C69.038 63.3031 67.049 72.9881 55.467 72.9881C43.806 72.7971 32.397 71.2471 20.491 70.6651C26.148 51.4911 23.974 32.0981 24.372 12.4241Z" fill="white"/>
<path id="Path 887" d="M55.459 73.4831C66.88 73.4831 69.435 64.3771 69.941 58.9501C71.295 44.4601 71.259 33.8741 71.213 20.4721C71.205 17.8861 71.196 15.1851 71.196 12.3191C71.1949 12.1916 71.1451 12.0693 71.0568 11.9773C70.9685 11.8852 70.8484 11.8304 70.721 11.8241C55.784 11.2151 39.75 11.2511 24.35 11.9301C24.2248 11.9368 24.1068 11.9903 24.0192 12.0799C23.9316 12.1695 23.8808 12.2888 23.877 12.4141C23.777 17.2931 23.839 22.2231 23.897 26.9911C24.08 41.9911 24.252 56.1691 20.017 70.5251C19.9959 70.5969 19.9913 70.6725 20.0037 70.7463C20.016 70.8201 20.0449 70.8902 20.0882 70.9512C20.1315 71.0122 20.1881 71.0626 20.2537 71.0987C20.3193 71.1347 20.3922 71.1553 20.467 71.1591C25.467 71.4061 30.445 71.8281 35.267 72.2351C41.867 72.7941 48.69 73.3731 55.467 73.4831M70.206 12.7941C70.206 15.4851 70.216 18.0321 70.224 20.4761C70.269 33.8511 70.305 44.4151 68.956 58.8581C68.481 63.9501 66.096 72.4931 55.466 72.4931C48.735 72.3841 41.928 71.8071 35.346 71.2491C30.72 70.8581 25.946 70.4491 21.141 70.2031C25.241 55.8941 25.059 41.1971 24.886 26.9791C24.83 22.3701 24.772 17.6101 24.857 12.8991C39.923 12.2471 55.583 12.2111 70.206 12.7941Z" fill="black"/>
<path id="Path 888" d="M7.04398 60.1291C21.68 59.8731 36.321 59.9791 50.69 60.1941C48.375 68.1111 52.961 73.1491 55.466 72.9881C41.79 72.8631 28.538 72.9881 14.59 72.9881C12.015 72.6491 8.61999 71.5321 7.21499 67.9801C6.65944 66.7502 6.35793 65.4208 6.32855 64.0715C6.29916 62.7223 6.54251 61.382 7.04398 60.1291Z" fill="white"/>
<path id="Path 889" d="M55.356 73.4861C55.405 73.4861 55.456 73.4861 55.503 73.4861C55.6212 73.4654 55.728 73.4029 55.804 73.31C55.8799 73.217 55.9199 73.0999 55.9166 72.9799C55.9133 72.86 55.867 72.7452 55.7861 72.6565C55.7052 72.5679 55.5952 72.5113 55.476 72.4971H55.21C54.1391 72.2561 53.1979 71.6215 52.573 70.7191C50.537 68.1771 50.013 64.2971 51.173 60.3401C51.1934 60.2669 51.1968 60.1901 51.1831 60.1154C51.1693 60.0407 51.1387 59.9701 51.0936 59.909C51.0485 59.8478 50.9901 59.7978 50.9227 59.7627C50.8554 59.7275 50.7809 59.7082 50.705 59.7061C33.066 59.4421 19.605 59.4211 7.04299 59.6411C6.94917 59.6427 6.85774 59.671 6.77944 59.7227C6.70115 59.7744 6.63924 59.8474 6.60099 59.9331C6.07701 61.2472 5.8214 62.653 5.84922 64.0675C5.87704 65.482 6.18774 66.8766 6.763 68.1691C7.936 71.1331 10.623 72.9691 14.534 73.4861C14.5556 73.4876 14.5774 73.4876 14.599 73.4861C19.299 73.4861 23.924 73.4721 28.511 73.4581C37.617 73.4291 46.223 73.4021 55.184 73.4821C55.243 73.4821 55.301 73.4881 55.359 73.4881M42.017 72.4381C37.564 72.4381 33.096 72.4521 28.499 72.4661C23.924 72.4801 19.313 72.4951 14.623 72.4951C12.164 72.1661 8.97399 71.0831 7.67499 67.7951C6.66845 65.5263 6.56122 62.9599 7.37499 60.6151C19.675 60.4031 32.882 60.4231 50.047 60.6761C49.031 64.7271 49.669 68.6701 51.798 71.3281C52.1319 71.7485 52.5108 72.1311 52.928 72.4691C49.264 72.4431 45.647 72.4341 42.019 72.4341" fill="black"/>
<path id="Path 890" d="M35.614 18.2581C35.5289 13.6571 33.6415 9.27327 30.3576 6.04953C27.0737 2.82579 22.6558 1.01968 18.054 1.01968C13.4522 1.01968 9.03425 2.82579 5.75037 6.04953C2.46649 9.27327 0.57904 13.6571 0.493988 18.2581C0.57904 22.8591 2.46649 27.2429 5.75037 30.4666C9.03425 33.6904 13.4522 35.4965 18.054 35.4965C22.6558 35.4965 27.0737 33.6904 30.3576 30.4666C33.6415 27.2429 35.5289 22.8591 35.614 18.2581Z" fill="white"/>
<path id="Path 891" d="M18.054 35.9681C22.7949 36.0078 27.3581 34.1657 30.7428 30.8457C34.1275 27.5257 36.0573 22.9989 36.109 18.2581C36.0227 13.5266 34.0826 9.01804 30.706 5.70246C27.3294 2.38687 22.7863 0.529236 18.054 0.529236C13.3217 0.529236 8.77855 2.38687 5.40197 5.70246C2.02538 9.01804 0.0852496 13.5266 -0.00100708 18.2581C0.0507229 22.9989 1.98054 27.5257 5.36519 30.8457C8.74985 34.1657 13.313 36.0078 18.054 35.9681ZM18.054 1.53809C22.5325 1.49781 26.8442 3.23546 30.0434 6.3699C33.2425 9.50434 35.0678 13.7796 35.119 18.2581C35.0224 22.72 33.182 26.9667 29.9922 30.0881C26.8025 33.2096 22.517 34.9576 18.054 34.9576C13.591 34.9576 9.30553 33.2096 6.11575 30.0881C2.92596 26.9667 1.08561 22.72 0.988995 18.2581C1.04018 13.7796 2.86552 9.50434 6.06463 6.3699C9.26375 3.23546 13.5754 1.49781 18.054 1.53809Z" fill="black"/>
<path id="Path 892" d="M17.733 21.6101H17.748C17.8184 21.608 17.8876 21.5911 17.951 21.5604C18.0144 21.5298 18.0707 21.486 18.116 21.4321L23.984 14.3911C24.0644 14.2899 24.1021 14.1613 24.089 14.0327C24.0758 13.9041 24.0129 13.7858 23.9136 13.703C23.8144 13.6201 23.6867 13.5795 23.5578 13.5896C23.4289 13.5997 23.3091 13.6598 23.224 13.7571L17.718 20.3631L10.044 11.9831C10.0008 11.9328 9.94793 11.8917 9.88852 11.8622C9.82912 11.8327 9.7644 11.8155 9.6982 11.8115C9.632 11.8075 9.56567 11.8168 9.50316 11.839C9.44065 11.8611 9.38322 11.8956 9.3343 11.9404C9.28537 11.9852 9.24594 12.0393 9.21835 12.0996C9.19075 12.1599 9.17556 12.2252 9.17366 12.2915C9.17177 12.3577 9.18322 12.4237 9.20733 12.4855C9.23144 12.5473 9.26771 12.6036 9.31401 12.6511L17.371 21.4511C17.4173 21.5019 17.4736 21.5424 17.5365 21.5702C17.5993 21.5979 17.6673 21.6122 17.736 21.6121" fill="black"/>
<path id="Path 893" d="M18.054 5.32509C18.0977 5.32509 18.1397 5.30771 18.1707 5.27677C18.2016 5.24582 18.219 5.20386 18.219 5.16009V2.68709C18.219 2.64333 18.2016 2.60137 18.1707 2.57042C18.1397 2.53948 18.0977 2.52209 18.054 2.52209C18.0102 2.52209 17.9682 2.53948 17.9373 2.57042C17.9064 2.60137 17.889 2.64333 17.889 2.68709V5.16009C17.889 5.20386 17.9064 5.24582 17.9373 5.27677C17.9682 5.30771 18.0102 5.32509 18.054 5.32509Z" fill="black"/>
<path id="Path 894" d="M18.054 33.9931C18.0977 33.9931 18.1397 33.9757 18.1707 33.9448C18.2016 33.9138 18.219 33.8719 18.219 33.8281V31.3551C18.219 31.3113 18.2016 31.2694 18.1707 31.2384C18.1397 31.2075 18.0977 31.1901 18.054 31.1901C18.0102 31.1901 17.9682 31.2075 17.9373 31.2384C17.9064 31.2694 17.889 31.3113 17.889 31.3551V33.8281C17.889 33.8719 17.9064 33.9138 17.9373 33.9448C17.9682 33.9757 18.0102 33.9931 18.054 33.9931Z" fill="black"/>
<path id="Path 895" d="M2.17098 18.4221H4.69298C4.73465 18.4189 4.77356 18.4 4.80195 18.3693C4.83033 18.3387 4.84611 18.2984 4.84611 18.2566C4.84611 18.2148 4.83033 18.1745 4.80195 18.1439C4.77356 18.1132 4.73465 18.0943 4.69298 18.0911H2.17098C2.12931 18.0943 2.09039 18.1132 2.062 18.1439C2.03362 18.1745 2.01785 18.2148 2.01785 18.2566C2.01785 18.2984 2.03362 18.3387 2.062 18.3693C2.09039 18.4 2.12931 18.4189 2.17098 18.4221Z" fill="black"/>
<path id="Path 896" d="M31.415 18.4221H33.937C33.9787 18.4189 34.0176 18.4 34.046 18.3693C34.0744 18.3387 34.0901 18.2984 34.0901 18.2566C34.0901 18.2148 34.0744 18.1745 34.046 18.1439C34.0176 18.1132 33.9787 18.0943 33.937 18.0911H31.415C31.3733 18.0943 31.3344 18.1132 31.306 18.1439C31.2776 18.1745 31.2619 18.2148 31.2619 18.2566C31.2619 18.2984 31.2776 18.3387 31.306 18.3693C31.3344 18.4 31.3733 18.4189 31.415 18.4221Z" fill="black"/>
<g id="Group 304">
<path id="Path 897" d="M59.51 25.4821C59.0141 25.4858 58.5299 25.6327 58.1156 25.9052C57.7014 26.1778 57.3747 26.5642 57.175 27.0181C57.0474 27.3055 56.9816 27.6165 56.9818 27.931C56.9821 28.2454 57.0484 28.5564 57.1764 28.8436C57.3044 29.1308 57.4913 29.388 57.725 29.5984C57.9587 29.8088 58.2339 29.9678 58.533 30.0651C59.1555 30.2201 59.8137 30.1341 60.3756 29.8244C60.9374 29.5148 61.3616 29.0042 61.563 28.3951C61.6397 28.0673 61.6461 27.727 61.5818 27.3966C61.5176 27.0661 61.3841 26.753 61.1902 26.4779C60.9962 26.2027 60.7463 25.9717 60.4567 25.8001C60.1671 25.6285 59.8445 25.5201 59.51 25.4821Z" fill="#0086D5"/>
<path id="Path 898" d="M59.147 30.6481C59.6506 30.6449 60.1455 30.5163 60.587 30.2741C61.2807 29.9076 61.8021 29.2824 62.038 28.5341C62.1412 28.115 62.1487 27.678 62.0599 27.2556C61.9711 26.8332 61.7882 26.4362 61.525 26.0941C61.299 25.767 61.0003 25.4968 60.6522 25.3047C60.3041 25.1126 59.9162 25.0039 59.519 24.9871C58.9317 24.9878 58.357 25.158 57.8641 25.4773C57.3711 25.7966 56.9808 26.2514 56.74 26.7871C56.5716 27.1208 56.4793 27.4877 56.4698 27.8614C56.4602 28.2351 56.5338 28.6062 56.685 28.9481C56.8358 29.3214 57.0667 29.657 57.3615 29.9313C57.6563 30.2055 58.0078 30.4116 58.391 30.5351C58.6363 30.608 58.891 30.6448 59.147 30.6441M59.503 25.9731C59.7473 25.9874 59.985 26.058 60.1976 26.1795C60.4101 26.3009 60.5916 26.4699 60.728 26.6731C60.9006 26.8929 61.0223 27.1483 61.0846 27.4208C61.1468 27.6932 61.148 27.9761 61.088 28.2491C60.9275 28.7453 60.5774 29.1579 60.114 29.3971C59.6777 29.6465 59.1606 29.7137 58.675 29.5841C58.4317 29.5032 58.209 29.37 58.0228 29.1937C57.8365 29.0175 57.6912 28.8026 57.597 28.5641C57.5019 28.3566 57.4539 28.1306 57.4565 27.9024C57.4591 27.6742 57.5122 27.4494 57.612 27.2441C57.7725 26.8807 58.0315 26.5694 58.3596 26.3455C58.6878 26.1216 59.0721 25.994 59.469 25.9771H59.502" fill="black"/>
</g>
<g id="Group 305">
<path id="Path 897_2" d="M59.51 37.7821C59.0141 37.7858 58.5299 37.9327 58.1156 38.2052C57.7014 38.4777 57.3747 38.8642 57.175 39.3181C57.0474 39.6055 56.9816 39.9165 56.9818 40.231C56.9821 40.5454 57.0484 40.8563 57.1764 41.1436C57.3044 41.4308 57.4913 41.688 57.725 41.8984C57.9587 42.1088 58.2339 42.2678 58.533 42.3651C59.1555 42.5201 59.8137 42.4341 60.3756 42.1244C60.9374 41.8148 61.3616 41.3042 61.563 40.6951C61.6397 40.3673 61.6461 40.027 61.5818 39.6966C61.5176 39.3661 61.3841 39.053 61.1902 38.7779C60.9962 38.5027 60.7463 38.2717 60.4567 38.1001C60.1671 37.9285 59.8445 37.8201 59.51 37.7821Z" fill="#0086D5"/>
<path id="Path 898_2" d="M59.147 42.9481C59.6506 42.9449 60.1455 42.8163 60.587 42.5741C61.2807 42.2076 61.8021 41.5824 62.038 40.8341C62.1412 40.415 62.1487 39.978 62.0599 39.5556C61.9711 39.1331 61.7882 38.7362 61.525 38.3941C61.299 38.067 61.0003 37.7968 60.6522 37.6047C60.3041 37.4126 59.9162 37.3039 59.519 37.2871C58.9317 37.2878 58.357 37.458 57.8641 37.7773C57.3711 38.0966 56.9808 38.5514 56.74 39.0871C56.5716 39.4208 56.4793 39.7877 56.4698 40.1614C56.4602 40.5351 56.5338 40.9062 56.685 41.2481C56.8358 41.6214 57.0667 41.957 57.3615 42.2313C57.6563 42.5055 58.0078 42.7116 58.391 42.8351C58.6363 42.908 58.891 42.9448 59.147 42.9441M59.503 38.2731C59.7473 38.2874 59.985 38.358 60.1976 38.4795C60.4101 38.6009 60.5916 38.7698 60.728 38.9731C60.9006 39.1929 61.0223 39.4483 61.0846 39.7207C61.1468 39.9932 61.148 40.2761 61.088 40.5491C60.9275 41.0453 60.5774 41.4579 60.114 41.6971C59.6777 41.9465 59.1606 42.0137 58.675 41.8841C58.4317 41.8032 58.209 41.6699 58.0228 41.4937C57.8365 41.3175 57.6912 41.1026 57.597 40.8641C57.5019 40.6566 57.4539 40.4306 57.4565 40.2024C57.4591 39.9742 57.5122 39.7494 57.612 39.5441C57.7725 39.1807 58.0315 38.8694 58.3596 38.6455C58.6878 38.4216 59.0721 38.294 59.469 38.2771H59.502" fill="black"/>
</g>
<g id="Group 306">
<path id="Path 897_3" d="M59.51 49.0411C59.0141 49.0448 58.5299 49.1917 58.1156 49.4642C57.7014 49.7367 57.3747 50.1232 57.175 50.5771C57.0474 50.8645 56.9816 51.1755 56.9818 51.49C56.9821 51.8044 57.0484 52.1153 57.1764 52.4026C57.3044 52.6898 57.4913 52.947 57.725 53.1574C57.9587 53.3678 58.2339 53.5268 58.533 53.6241C59.1555 53.7791 59.8137 53.6931 60.3756 53.3834C60.9374 53.0738 61.3616 52.5632 61.563 51.9541C61.6397 51.6263 61.6461 51.286 61.5818 50.9556C61.5176 50.6251 61.3841 50.312 61.1902 50.0369C60.9962 49.7617 60.7463 49.5307 60.4567 49.3591C60.1671 49.1875 59.8445 49.0791 59.51 49.0411Z" fill="#0086D5"/>
<path id="Path 898_3" d="M59.147 54.2071C59.6506 54.2039 60.1455 54.0753 60.587 53.8331C61.2807 53.4666 61.8021 52.8414 62.038 52.0931C62.1412 51.674 62.1487 51.237 62.0599 50.8146C61.9711 50.3921 61.7882 49.9952 61.525 49.6531C61.299 49.326 61.0003 49.0558 60.6522 48.8637C60.3041 48.6716 59.9162 48.5629 59.519 48.5461C58.9317 48.5468 58.357 48.717 57.8641 49.0363C57.3711 49.3556 56.9808 49.8104 56.74 50.3461C56.5716 50.6798 56.4793 51.0467 56.4698 51.4204C56.4602 51.7941 56.5338 52.1652 56.685 52.5071C56.8358 52.8804 57.0667 53.216 57.3615 53.4903C57.6563 53.7645 58.0078 53.9706 58.391 54.0941C58.6363 54.167 58.891 54.2038 59.147 54.2031M59.503 49.5321C59.7473 49.5464 59.985 49.617 60.1976 49.7385C60.4101 49.8599 60.5916 50.0288 60.728 50.2321C60.9006 50.4519 61.0223 50.7073 61.0846 50.9797C61.1468 51.2522 61.148 51.5351 61.088 51.8081C60.9275 52.3043 60.5774 52.7169 60.114 52.9561C59.6777 53.2055 59.1606 53.2727 58.675 53.1431C58.4317 53.0622 58.209 52.9289 58.0228 52.7527C57.8365 52.5765 57.6912 52.3616 57.597 52.1231C57.5019 51.9156 57.4539 51.6896 57.4565 51.4614C57.4591 51.2332 57.5122 51.0084 57.612 50.8031C57.7725 50.4397 58.0315 50.1284 58.3596 49.9045C58.6878 49.6806 59.0721 49.553 59.469 49.5361H59.502" fill="black"/>
</g>
<path id="Path 903" d="M38.109 27.8701H52.609C52.6528 27.8701 52.6947 27.8527 52.7257 27.8218C52.7566 27.7908 52.774 27.7489 52.774 27.7051C52.774 27.6613 52.7566 27.6194 52.7257 27.5884C52.6947 27.5575 52.6528 27.5401 52.609 27.5401H38.109C38.0652 27.5401 38.0233 27.5575 37.9923 27.5884C37.9614 27.6194 37.944 27.6613 37.944 27.7051C37.944 27.7489 37.9614 27.7908 37.9923 27.8218C38.0233 27.8527 38.0652 27.8701 38.109 27.8701Z" fill="black"/>
<path id="Path 904" d="M32.02 40.1161H52.612C52.6557 40.1161 52.6977 40.0987 52.7287 40.0677C52.7596 40.0368 52.777 39.9948 52.777 39.9511C52.777 39.9073 52.7596 39.8653 52.7287 39.8344C52.6977 39.8035 52.6557 39.7861 52.612 39.7861H32.02C31.9762 39.7861 31.9343 39.8035 31.9033 39.8344C31.8724 39.8653 31.855 39.9073 31.855 39.9511C31.855 39.9948 31.8724 40.0368 31.9033 40.0677C31.9343 40.0987 31.9762 40.1161 32.02 40.1161Z" fill="black"/>
<path id="Path 905" d="M31.521 51.7051H52.113C52.1567 51.7051 52.1987 51.6877 52.2297 51.6568C52.2606 51.6258 52.278 51.5839 52.278 51.5401C52.278 51.4963 52.2606 51.4544 52.2297 51.4234C52.1987 51.3925 52.1567 51.3751 52.113 51.3751H31.521C31.4772 51.3751 31.4353 51.3925 31.4043 51.4234C31.3734 51.4544 31.356 51.4963 31.356 51.5401C31.356 51.5839 31.3734 51.6258 31.4043 51.6568C31.4353 51.6877 31.4772 51.7051 31.521 51.7051Z" fill="black"/>
</g>
</g>
</g>
</g>
</svg>
