<svg width="11" height="16" viewBox="0 0 11 16" fill="none" xmlns="http://www.w3.org/2000/svg">
<g id="Group 319">
<g id="Clip path group">
<mask id="mask0_0_1014" style="mask-type:luminance" maskUnits="userSpaceOnUse" x="0" y="0" width="11" height="16">
<g id="clip-path-57">
<path id="Rectangle 132" d="M0.424011 -5.72205e-06L0.424011 15.094H10.671L10.671 -5.72205e-06H0.424011Z" fill="white"/>
</g>
</mask>
<g mask="url(#mask0_0_1014)">
<g id="Group 317">
<path id="Path 979" d="M10.672 7.80395V7.82395C10.6745 7.99839 10.6371 8.17109 10.5626 8.32883C10.488 8.48656 10.3784 8.62514 10.242 8.73395L1.75301 14.9429C1.65318 15.0133 1.53847 15.0597 1.4178 15.0784C1.29713 15.0972 1.17376 15.0879 1.05727 15.0513C0.940781 15.0146 0.834321 14.9515 0.746169 14.867C0.658018 14.7825 0.59055 14.6788 0.549013 14.5639C0.427416 14.3179 0.391582 14.0383 0.447212 13.7696C0.502841 13.5009 0.646739 13.2585 0.856013 13.0809L8.12501 7.76395L0.874013 1.99395C0.669923 1.80853 0.533458 1.56038 0.486189 1.28872C0.438921 1.01707 0.483547 0.737404 0.613013 0.493949C0.65909 0.381541 0.730628 0.281362 0.821995 0.201296C0.913363 0.12123 1.02207 0.0634632 1.13955 0.0325413C1.25703 0.00161934 1.38009 -0.00161362 1.49904 0.023098C1.61798 0.0478096 1.72957 0.0997906 1.82501 0.17495L10.271 6.89395C10.4006 7.00683 10.5036 7.14692 10.5727 7.30423C10.6419 7.46154 10.6764 7.63217 10.672 7.80395Z" fill="black"/>
</g>
</g>
</g>
</g>
</svg>
