<svg width="150" height="35" viewBox="0 0 150 35" fill="none" xmlns="http://www.w3.org/2000/svg">
<g id="Group 362">
<g id="Group 1">
<path id="Path 1" d="M15.343 13.0342C14.6291 13.3746 14.0074 13.8814 13.5301 14.5119C13.0527 15.1425 12.7336 15.8784 12.5997 16.6578C12.4657 17.4372 12.5208 18.2374 12.7602 18.9912C12.9997 19.7449 13.4165 20.4302 13.9757 20.9894C14.535 21.5487 15.2202 21.9655 15.974 22.2049C16.7277 22.4444 17.5279 22.4995 18.3074 22.3655C19.0868 22.2315 19.8227 21.9125 20.4532 21.4351C21.0838 20.9577 21.5906 20.336 21.931 19.6222" stroke="#0086D3" stroke-width="1.7" stroke-linecap="round" stroke-linejoin="round"/>
<path id="Path 2" d="M20.994 7.38312C18.7072 6.58775 16.2183 6.59182 13.9341 7.39469C11.6499 8.19755 9.70577 9.75169 8.41956 11.8029C7.13335 13.8542 6.5812 16.2812 6.85341 18.687C7.12562 21.0928 8.20608 23.335 9.91809 25.0471C11.6301 26.7591 13.8724 27.8395 16.2782 28.1117C18.684 28.384 21.1109 27.8318 23.1622 26.5456C25.2135 25.2594 26.7676 23.3152 27.5705 21.0311C28.3733 18.7469 28.3774 16.2579 27.582 13.9711" stroke="#0086D3" stroke-width="1.7" stroke-linecap="round" stroke-linejoin="round"/>
<path id="Path 3" d="M25.349 3.02807C21.8727 1.13579 17.8309 0.559431 13.9642 1.40459C10.0975 2.24974 6.66478 4.45982 4.29494 7.62991C1.9251 10.8 0.776817 14.7178 1.06048 18.6657C1.34414 22.6135 3.04074 26.3269 5.83946 29.1256C8.63818 31.9243 12.3516 33.6209 16.2994 33.9046C20.2472 34.1883 24.1651 33.04 27.3352 30.6701C30.5053 28.3003 32.7153 24.8676 33.5605 21.0009C34.4057 17.1342 33.8293 13.0924 31.937 9.61607" stroke="#0086D3" stroke-width="1.7" stroke-linecap="round" stroke-linejoin="round"/>
<path id="Path 4" d="M33.94 1.02515L17.47 17.4951" stroke="#0086D3" stroke-width="1.7" stroke-linecap="round" stroke-linejoin="round"/>
</g>
<path id="Path 5" d="M62.977 4.12613V7.95613H55.493V28.4751H51.031V7.95613H43.547V4.12613H62.977ZM71.201 25.4891C72.2011 25.5134 73.2012 25.4428 74.188 25.2781V20.5701C73.8531 20.4785 73.5128 20.408 73.169 20.3591C72.6805 20.2858 72.187 20.2507 71.693 20.2541C71.2108 20.255 70.7292 20.2901 70.252 20.3591C69.8022 20.4237 69.3642 20.5537 68.952 20.7451C68.5812 20.9288 68.2658 21.2076 68.038 21.5531C67.7904 21.9272 67.6675 22.37 67.687 22.8181C67.6443 23.2221 67.7097 23.6301 67.8764 24.0005C68.0431 24.3709 68.3053 24.6903 68.636 24.9261C69.4259 25.3381 70.3112 25.5324 71.201 25.4891ZM70.85 9.64314C72.0546 9.61187 73.2555 9.79019 74.399 10.1701C75.2721 10.4635 76.0579 10.9705 76.685 11.6451C77.2839 12.3021 77.707 13.0998 77.915 13.9641C78.1819 14.9247 78.3119 15.9182 78.301 16.9151V28.0541C77.645 28.1948 76.6493 28.3588 75.314 28.5461C73.8373 28.7689 72.3453 28.8746 70.852 28.8621C69.836 28.8713 68.8222 28.7653 67.83 28.5461C66.9857 28.3655 66.1855 28.0192 65.476 27.5271C64.834 27.0472 64.3159 26.4208 63.965 25.7001C63.5885 24.8244 63.4086 23.8769 63.438 22.9241C63.4093 21.9977 63.6157 21.0792 64.038 20.2541C64.4485 19.5396 65.0277 18.9363 65.725 18.4971C66.4614 18.0148 67.2847 17.6806 68.149 17.5131C69.1063 17.3002 70.0843 17.1942 71.065 17.1971C71.5588 17.1988 72.0519 17.2338 72.541 17.3021C73.0974 17.3559 73.6491 17.4498 74.192 17.5831V16.8831C74.1941 16.4092 74.135 15.9369 74.016 15.4781C73.8902 15.0337 73.6628 14.6246 73.3518 14.283C73.0408 13.9415 72.6547 13.6769 72.224 13.5101C71.6495 13.3051 71.0417 13.2098 70.432 13.2291C69.526 13.223 68.6211 13.2936 67.727 13.4401C67.0474 13.546 66.3782 13.7106 65.727 13.9321L65.2 10.4891C65.9701 10.2452 66.7568 10.0574 67.554 9.92714C68.642 9.73402 69.745 9.63897 70.85 9.64314ZM88.108 25.4191C88.9462 25.4695 89.7855 25.3378 90.568 25.0331C90.8187 24.8985 91.0251 24.6943 91.1623 24.445C91.2994 24.1956 91.3615 23.912 91.341 23.6281C91.3396 23.3256 91.2616 23.0283 91.1142 22.764C90.9668 22.4998 90.7548 22.2772 90.498 22.1171C89.6561 21.5691 88.7469 21.1321 87.793 20.8171C87.0203 20.5358 86.306 20.2431 85.65 19.9391C85.0541 19.6362 84.4993 19.2585 83.999 18.8151C83.5284 18.3905 83.1464 17.877 82.875 17.3041C82.5985 16.5992 82.4659 15.8461 82.485 15.0891C82.4529 14.3264 82.6054 13.5672 82.9296 12.876C83.2537 12.1848 83.74 11.5821 84.347 11.1191C85.8161 10.0647 87.6014 9.54388 89.407 9.64314C90.4459 9.63908 91.4824 9.745 92.499 9.95914C93.251 10.086 93.9915 10.2739 94.713 10.5211L93.94 13.9641C93.3625 13.7186 92.7623 13.5304 92.148 13.4021C91.3197 13.203 90.4698 13.1086 89.618 13.1211C88.8878 13.0902 88.1619 13.2476 87.51 13.5781C87.2585 13.696 87.0476 13.8857 86.9038 14.1233C86.76 14.3608 86.6898 14.6357 86.702 14.9131C86.6971 15.189 86.7449 15.4633 86.843 15.7211C86.9811 15.9809 87.1726 16.2086 87.405 16.3891C87.728 16.6162 88.0688 16.8168 88.424 16.9891C88.8453 17.1765 89.3607 17.3765 89.97 17.5891C90.8487 17.9071 91.7056 18.2826 92.535 18.7131C93.1761 19.02 93.7588 19.4363 94.257 19.9431C94.714 20.3708 95.0632 20.9006 95.276 21.4891C95.5014 22.1685 95.6083 22.8815 95.592 23.5971C95.6334 24.3772 95.4743 25.1549 95.1298 25.856C94.7853 26.5572 94.2669 27.1583 93.624 27.6021C91.9487 28.5918 90.0149 29.0559 88.073 28.9341C86.7599 28.9691 85.4482 28.8272 84.173 28.5121C83.4702 28.3422 82.778 28.1312 82.1 27.8801L82.838 24.3311C83.572 24.6224 84.3231 24.8689 85.087 25.0691C86.0749 25.3145 87.0902 25.4322 88.108 25.4191ZM103.815 17.2671C104.354 16.7051 104.928 16.1078 105.537 15.4751L107.329 13.5431C107.914 12.8871 108.465 12.2665 108.98 11.6811C109.519 11.0718 109.975 10.5448 110.35 10.1001H115.374C114.203 11.4121 112.961 12.7708 111.65 14.1761C110.362 15.5815 109.062 16.9518 107.75 18.2871C108.534 18.9529 109.274 19.6702 109.963 20.4341C110.736 21.2541 111.485 22.1325 112.212 23.0691C112.939 24.0058 113.618 24.9428 114.25 25.8801C114.823 26.7183 115.35 27.5862 115.831 28.4801H110.912C110.491 27.7541 109.999 26.9928 109.436 26.1961C108.892 25.3926 108.305 24.6185 107.679 23.8771C107.046 23.1278 106.402 22.4251 105.747 21.7691C105.151 21.1431 104.505 20.5671 103.815 20.0471V28.4801H99.563V1.91313L103.814 1.21313L103.815 17.2671ZM117.073 19.3751C117.044 17.9272 117.281 16.4862 117.773 15.1241C118.206 13.9967 118.864 12.9687 119.705 12.1021C120.474 11.3004 121.41 10.6768 122.446 10.2751C123.448 9.85931 124.523 9.64458 125.608 9.64314C126.704 9.58085 127.8 9.75932 128.819 10.166C129.838 10.5727 130.756 11.1977 131.508 11.9971C132.937 13.5665 133.651 15.9088 133.651 19.0241C133.651 19.2581 133.639 19.5275 133.616 19.8321C133.616 20.1135 133.604 20.3711 133.581 20.6051H121.465C121.505 21.912 122.061 23.1499 123.011 24.0481C124.172 24.9161 125.606 25.34 127.052 25.2431C127.996 25.252 128.939 25.1578 129.863 24.9621C130.559 24.8249 131.241 24.6241 131.901 24.3621L132.463 27.8401C132.144 27.9908 131.815 28.1197 131.479 28.2261C131.017 28.3577 130.548 28.4632 130.074 28.5421C129.517 28.6662 128.954 28.76 128.387 28.8231C127.769 28.8938 127.147 28.9288 126.525 28.9281C125.088 28.9598 123.658 28.7224 122.309 28.2281C121.189 27.788 120.182 27.1049 119.358 26.2281C118.579 25.352 117.993 24.3226 117.636 23.2061C117.251 21.9661 117.061 20.6736 117.073 19.3751ZM129.406 17.4751C129.41 16.9154 129.327 16.3584 129.16 15.8241C129.015 15.32 128.763 14.8529 128.422 14.4541C128.119 14.0567 127.72 13.7423 127.263 13.5401C126.761 13.2932 126.206 13.1727 125.647 13.1891C125.05 13.1754 124.459 13.3079 123.925 13.5751C123.443 13.8019 123.013 14.1249 122.66 14.5241C122.326 14.9332 122.064 15.3966 121.887 15.8941C121.701 16.4054 121.571 16.9356 121.501 17.4751H129.406ZM148.636 13.9261C148.152 13.777 147.659 13.6597 147.16 13.5751C146.455 13.4247 145.736 13.354 145.016 13.3641C144.509 13.3678 144.004 13.4149 143.505 13.5051C143.137 13.5646 142.774 13.6467 142.416 13.7511V28.4751H138.165V10.9751C139.162 10.6211 140.184 10.3394 141.222 10.1321C142.572 9.83948 143.951 9.69794 145.333 9.71013C145.662 9.71336 145.991 9.73674 146.317 9.78013C146.694 9.80404 147.07 9.85113 147.441 9.92113C147.808 9.96663 148.172 10.0371 148.53 10.1321C148.815 10.1856 149.096 10.2561 149.373 10.3431L148.636 13.9261Z" fill="#303030"/>
</g>
</svg>
