<svg width="39" height="29" viewBox="0 0 39 29" fill="none" xmlns="http://www.w3.org/2000/svg">
<g id="Group 246">
<g id="Clip path group">
<mask id="mask0_0_504" style="mask-type:luminance" maskUnits="userSpaceOnUse" x="0" y="0" width="39" height="29">
<g id="clip-path-33">
<path id="Rectangle 103" d="M38.973 0.13501H0.0269775V28.865H38.973V0.13501Z" fill="white"/>
</g>
</mask>
<g mask="url(#mask0_0_504)">
<g id="Group 245">
<g id="Group 244">
<g id="Clip path group_2">
<mask id="mask1_0_504" style="mask-type:luminance" maskUnits="userSpaceOnUse" x="0" y="0" width="39" height="29">
<g id="clip-path-33_2">
<path id="Rectangle 103_2" d="M38.973 0.13501H0.0269775V28.865H38.973V0.13501Z" fill="white"/>
</g>
</mask>
<g mask="url(#mask1_0_504)">
<g id="Group 243">
<path id="Path 645" d="M35.997 28.6211C35.0158 27.2886 33.7658 26.177 32.328 25.3581C30.422 24.4461 28.2 24.622 26.094 24.793C22.1879 25.1673 18.2614 25.2838 14.34 25.1421C13.1819 25.1975 12.0388 24.8615 11.095 24.188C10.407 23.4532 9.95188 22.5311 9.78697 21.538C9.3312 19.7539 8.98489 17.9435 8.74997 16.1171C8.46779 14.3591 8.45733 12.5682 8.71897 10.8071C8.98868 9.03411 9.85715 7.40692 11.18 6.19605C13.286 4.40105 16.29 4.24505 19.056 4.17605L31.008 3.87605C32.958 3.82705 35.15 3.87605 36.508 5.26705C37.2369 6.14438 37.7392 7.18723 37.971 8.30405C39.071 12.1181 39.122 19.104 37.093 21.722C36.4497 22.3401 35.9095 23.0572 35.493 23.8461C34.947 25.4071 36.069 27.032 36 28.619" fill="white"/>
<path id="Path 646" d="M35.998 28.865C35.9626 28.865 35.9276 28.8572 35.8955 28.8424C35.8634 28.8276 35.8349 28.8059 35.812 28.779C34.8501 27.4757 33.6284 26.3861 32.224 25.579C30.369 24.692 28.207 24.868 26.115 25.037C22.1966 25.4124 18.2577 25.5297 14.324 25.388C13.1104 25.4422 11.9142 25.0841 10.93 24.372C10.206 23.6045 9.72522 22.6401 9.54796 21.6C9.09014 19.8059 8.74216 17.9855 8.50596 16.149C8.22113 14.3664 8.21135 12.5506 8.47696 10.765C8.75649 8.93661 9.65399 7.25915 11.02 6.01201C13.12 4.22601 16.013 4.01202 19.048 3.93402L31 3.63402C33.1 3.58302 35.272 3.65102 36.684 5.09902C37.4427 6.00376 37.9659 7.08211 38.207 8.23801C39.275 11.938 39.447 19.089 37.288 21.874C37.107 22.108 36.903 22.327 36.706 22.54C36.2862 22.9307 35.9513 23.4035 35.722 23.929C35.5165 24.8049 35.581 25.7225 35.907 26.561C36.1226 27.2305 36.2359 27.9287 36.243 28.632C36.2409 28.6811 36.224 28.7283 36.1946 28.7676C36.1651 28.8069 36.1245 28.8363 36.078 28.852C36.0525 28.8608 36.0248 28.8652 35.998 28.865ZM28.633 24.413C29.9379 24.3676 31.2364 24.6154 32.433 25.138C33.7043 25.829 34.8203 26.7735 35.712 27.913C35.6424 27.4994 35.5492 27.09 35.433 26.687C35.0772 25.7549 35.0158 24.7361 35.257 23.768C35.5067 23.178 35.8769 22.6466 36.344 22.208C36.534 22.008 36.73 21.792 36.898 21.575C38.774 19.156 38.889 12.375 37.734 8.37502C37.5161 7.29661 37.0352 6.28874 36.334 5.44102C35.058 4.13402 33.005 4.07201 31.011 4.12301L19.059 4.42301C16.115 4.49701 13.309 4.70201 11.336 6.38501C10.0556 7.55952 9.21607 9.13701 8.95696 10.855C8.70122 12.5915 8.71234 14.3569 8.98996 16.09C9.22391 17.9066 9.56822 19.7073 10.021 21.482C10.1761 22.4268 10.6059 23.305 11.257 24.007C12.1627 24.6401 13.2532 24.9543 14.357 24.9C18.2691 25.0404 22.1862 24.9235 26.083 24.55C26.905 24.483 27.771 24.413 28.64 24.413" fill="black"/>
<path id="Path 647" d="M2.89997 26.933C3.72997 25.3697 4.63431 23.8493 5.61297 22.372C5.84633 21.9796 6.14184 21.6277 6.48797 21.33C6.94756 21.0142 7.46971 20.8011 8.01897 20.705C10.0319 20.3039 12.0776 20.089 14.13 20.063L24.685 19.607C26.1745 19.6801 27.6544 19.3306 28.954 18.599C29.6431 18.0744 30.2121 17.4085 30.623 16.646C31.1534 15.7769 31.5384 14.8271 31.763 13.834C31.9792 12.5379 31.9964 11.2163 31.814 9.91501C31.589 7.66901 31.179 5.29901 29.687 3.60501C27.957 1.64001 25.175 1.02701 22.574 0.72901C17.9828 0.252365 13.3538 0.268121 8.76597 0.77601C6.46597 1.00701 3.97797 1.42701 2.43397 3.14101C1.49942 4.31433 0.907598 5.72327 0.723974 7.21201C0.324328 9.88797 0.17335 12.5952 0.272974 15.299C0.218239 16.1242 0.348051 16.9513 0.652974 17.72C1.05755 18.3634 1.51514 18.9718 2.02097 19.539C3.46997 21.571 3.08197 24.339 2.89997 26.939" fill="white"/>
<path id="Path 648" d="M2.89897 27.177C2.87633 27.1771 2.85379 27.1741 2.83197 27.168C2.77819 27.1526 2.73135 27.1191 2.6993 27.0732C2.66726 27.0274 2.65196 26.9719 2.65597 26.916C2.67397 26.66 2.69397 26.403 2.71397 26.144C2.89297 23.829 3.07697 21.436 1.82197 19.675C1.66397 19.453 1.47897 19.238 1.29997 19.029C0.96024 18.6656 0.66914 18.2595 0.433971 17.821C0.114253 17.0207 -0.0224164 16.159 0.0339713 15.299C-0.0659687 12.5802 0.0856767 9.85796 0.486971 7.16704C0.685851 5.63552 1.29732 4.18687 2.25597 2.97604C3.81697 1.24304 6.29797 0.777043 8.74497 0.535043C13.3498 0.0212193 17.9966 0.00445607 22.605 0.485043C25.02 0.762043 28.029 1.34704 29.873 3.44204C31.402 5.17904 31.827 7.56704 32.06 9.88904C32.2435 11.2155 32.225 12.5621 32.005 13.883C31.7767 14.9028 31.3817 15.8779 30.836 16.769C30.4095 17.5633 29.8159 18.2555 29.096 18.798C27.7575 19.5557 26.2324 19.9203 24.696 19.85L14.14 20.306C12.1028 20.3322 10.0723 20.5451 8.07397 20.942C7.55958 21.0319 7.07012 21.2299 6.63797 21.523C6.31264 21.8045 6.03505 22.1368 5.81597 22.507C4.84397 23.97 3.93497 25.498 3.11597 27.048C3.09508 27.0871 3.06394 27.1198 3.02588 27.1425C2.98782 27.1653 2.9433 27.1772 2.89897 27.177ZM16.227 0.622043C13.88 0.622043 11.413 0.754043 8.79097 1.01604C6.44097 1.25204 4.06597 1.69204 2.61597 3.30204C1.70249 4.43625 1.13056 5.80694 0.966971 7.25404C0.571143 9.91528 0.421509 12.6073 0.519971 15.296C0.467116 16.0831 0.586911 16.8722 0.870971 17.608C1.08929 18.0075 1.35817 18.3773 1.67097 18.708C1.85697 18.925 2.04897 19.149 2.22097 19.388C3.50797 21.201 3.39997 23.535 3.22697 25.819C3.90797 24.598 4.64097 23.397 5.41197 22.236C5.65879 21.82 5.97308 21.448 6.34197 21.135C6.82897 20.7971 7.38332 20.5686 7.96697 20.465C9.99439 20.0605 12.0548 19.8436 14.122 19.817L24.678 19.361C26.1206 19.4289 27.5537 19.0952 28.818 18.397C29.4803 17.8939 30.0261 17.2537 30.418 16.52C30.9355 15.6748 31.3101 14.7501 31.527 13.783C31.7365 12.5101 31.7527 11.2128 31.575 9.93504C31.351 7.69404 30.945 5.39504 29.507 3.76204C27.773 1.79504 24.878 1.23504 22.55 0.970043C20.4507 0.733653 18.3395 0.617464 16.227 0.622043Z" fill="black"/>
<path id="Path 649" d="M6.47297 13.5011C6.40825 13.5023 6.34572 13.4777 6.29912 13.4328C6.25251 13.3879 6.22566 13.3263 6.22447 13.2616C6.22327 13.1969 6.24784 13.1343 6.29275 13.0877C6.33767 13.0411 6.39926 13.0143 6.46397 13.0131L25.037 12.2771C25.0692 12.2751 25.1015 12.2796 25.1319 12.2903C25.1623 12.3011 25.1902 12.318 25.2139 12.3398C25.2377 12.3617 25.2567 12.3881 25.27 12.4176C25.2832 12.447 25.2904 12.4788 25.291 12.5111C25.2934 12.5756 25.2701 12.6385 25.2263 12.686C25.1824 12.7334 25.1215 12.7615 25.057 12.7641L6.48297 13.5021L6.47297 13.5011Z" fill="black"/>
<path id="Path 650" d="M6.12597 8.12304C6.06126 8.12437 5.99867 8.09993 5.95198 8.05511C5.90528 8.01029 5.8783 7.94876 5.87697 7.88404C5.87565 7.81933 5.90008 7.75674 5.9449 7.71004C5.98973 7.66335 6.05126 7.63637 6.11597 7.63504L25.036 6.85304C25.0689 6.85007 25.1021 6.85381 25.1335 6.86404C25.1649 6.87427 25.194 6.89078 25.2188 6.91257C25.2437 6.93436 25.2638 6.96097 25.2781 6.99079C25.2923 7.02061 25.3004 7.05301 25.3018 7.08604C25.3031 7.11906 25.2977 7.15202 25.286 7.18291C25.2742 7.21379 25.2563 7.24197 25.2333 7.26572C25.2103 7.28947 25.1828 7.30831 25.1523 7.32109C25.1218 7.33386 25.089 7.34031 25.056 7.34004L6.13597 8.12204H6.12597" fill="black"/>
<path id="Path 651" d="M11.569 22.803C11.5529 22.8028 11.5373 22.7979 11.524 22.789C11.5151 22.7831 11.5074 22.7754 11.5015 22.7665C11.4956 22.7576 11.4915 22.7476 11.4894 22.7371C11.4874 22.7266 11.4874 22.7158 11.4896 22.7053C11.4917 22.6948 11.496 22.6849 11.502 22.676L12.692 20.891C12.7039 20.873 12.7225 20.8604 12.7437 20.8561C12.7649 20.8518 12.7869 20.8561 12.805 20.868C12.823 20.88 12.8356 20.8986 12.8399 20.9198C12.8442 20.941 12.8399 20.963 12.828 20.981L11.637 22.767C11.6295 22.7781 11.6193 22.7872 11.6075 22.7935C11.5956 22.7998 11.5824 22.803 11.569 22.803Z" fill="black"/>
<path id="Path 652" d="M13.023 23.717C13.0081 23.717 12.9936 23.7128 12.981 23.705C12.9718 23.6994 12.9638 23.6921 12.9575 23.6835C12.9512 23.6749 12.9466 23.665 12.9441 23.6546C12.9416 23.6442 12.9412 23.6334 12.9429 23.6228C12.9446 23.6122 12.9483 23.6021 12.954 23.593C13.578 22.571 14.254 21.56 14.954 20.593C14.9672 20.5755 14.9869 20.564 15.0087 20.561C15.0304 20.558 15.0525 20.5637 15.07 20.577C15.0875 20.5902 15.099 20.6099 15.102 20.6317C15.105 20.6534 15.0992 20.6755 15.086 20.693C14.386 21.661 13.716 22.667 13.094 23.686C13.0868 23.6979 13.0767 23.7077 13.0646 23.7145C13.0525 23.7213 13.0389 23.7249 13.025 23.725" fill="black"/>
<path id="Path 653" d="M15.469 23.9871C15.4568 23.9872 15.4449 23.9844 15.434 23.9791C15.4146 23.9698 15.3997 23.9532 15.3926 23.933C15.3855 23.9127 15.3867 23.8905 15.396 23.8711C15.9473 22.7318 16.5876 21.6377 17.311 20.5991C17.3171 20.5904 17.3248 20.5829 17.3338 20.5772C17.3428 20.5715 17.3528 20.5676 17.3633 20.5657C17.3738 20.5638 17.3846 20.5641 17.395 20.5664C17.4054 20.5687 17.4152 20.573 17.424 20.5791C17.4327 20.5852 17.4402 20.593 17.4459 20.602C17.4516 20.6109 17.4555 20.621 17.4574 20.6315C17.4592 20.6419 17.459 20.6527 17.4567 20.6631C17.4544 20.6735 17.4501 20.6834 17.444 20.6921C16.7264 21.7222 16.0911 22.8072 15.544 23.9371C15.5373 23.9508 15.5269 23.9623 15.514 23.9705C15.5011 23.9786 15.4862 23.983 15.471 23.9831" fill="black"/>
<path id="Path 654" d="M17.821 24.0731C17.8068 24.0731 17.7928 24.0695 17.7804 24.0625C17.768 24.0555 17.7577 24.0453 17.7505 24.033C17.7434 24.0208 17.7395 24.0068 17.7394 23.9926C17.7393 23.9784 17.743 23.9644 17.75 23.9521L19.557 20.7421C19.5676 20.7232 19.5852 20.7094 19.6061 20.7036C19.6269 20.6978 19.6491 20.7004 19.668 20.7111C19.6868 20.7217 19.7007 20.7393 19.7065 20.7601C19.7123 20.7809 19.7096 20.8032 19.699 20.8221L17.892 24.032C17.885 24.0448 17.8747 24.0554 17.8622 24.0628C17.8497 24.0702 17.8355 24.0731 17.821 24.0731Z" fill="black"/>
<path id="Path 655" d="M20.33 24.1131C20.3179 24.113 20.3059 24.1103 20.295 24.1051C20.2756 24.0958 20.2607 24.0792 20.2536 24.0589C20.2465 24.0387 20.2477 24.0164 20.257 23.9971C20.819 22.8221 21.447 21.6631 22.124 20.5501C22.1351 20.5316 22.1531 20.5184 22.174 20.5132C22.1949 20.5081 22.217 20.5114 22.2355 20.5226C22.2539 20.5337 22.2672 20.5517 22.2723 20.5726C22.2775 20.5935 22.2741 20.6156 22.263 20.6341C21.589 21.7431 20.963 22.8971 20.404 24.0671C20.3974 24.0808 20.387 24.0925 20.3741 24.1006C20.3612 24.1087 20.3452 24.1131 20.33 24.1131Z" fill="black"/>
<path id="Path 656" d="M22.988 23.9941C22.9773 23.9942 22.9668 23.9921 22.957 23.9881C22.9471 23.984 22.9381 23.9781 22.9306 23.9705C22.923 23.963 22.917 23.9541 22.913 23.9442C22.9089 23.9344 22.9068 23.9238 22.9068 23.9131C22.9068 23.9025 22.9089 23.8919 22.913 23.8821C23.395 22.7181 23.935 21.5631 24.52 20.4481C24.53 20.429 24.5473 20.4147 24.5679 20.4083C24.5886 20.4019 24.6109 20.404 24.63 20.4141C24.6491 20.4242 24.6634 20.4414 24.6697 20.462C24.6761 20.4827 24.674 20.505 24.664 20.5241C24.082 21.6341 23.544 22.7841 23.064 23.9441C23.0577 23.9588 23.0473 23.9714 23.034 23.9803C23.0206 23.9892 23.004 23.994 22.988 23.9941Z" fill="black"/>
<path id="Path 657" d="M25.571 23.6371C25.5614 23.637 25.552 23.6353 25.543 23.6321C25.5238 23.6246 25.5081 23.6101 25.4992 23.5916C25.4903 23.573 25.4888 23.5517 25.495 23.5321C25.89 22.4731 26.337 21.4191 26.825 20.3991C26.8296 20.3894 26.836 20.3808 26.844 20.3736C26.8519 20.3664 26.8612 20.3609 26.8713 20.3573C26.8813 20.3538 26.892 20.3522 26.9027 20.3528C26.9134 20.3533 26.9238 20.356 26.9335 20.3606C26.9431 20.3652 26.9518 20.3716 26.9589 20.3796C26.9661 20.3875 26.9716 20.3968 26.9752 20.4068C26.9788 20.4169 26.9803 20.4276 26.9798 20.4383C26.9792 20.4489 26.9766 20.4594 26.972 20.4691C26.486 21.4841 26.041 22.5331 25.648 23.5881C25.6423 23.6036 25.6319 23.617 25.6183 23.6265C25.6047 23.636 25.5886 23.6411 25.572 23.6411" fill="black"/>
<path id="Path 658" d="M27.91 23.6351C27.8975 23.6351 27.8852 23.6324 27.874 23.6271C27.8547 23.6174 27.84 23.6006 27.8331 23.5802C27.8262 23.5598 27.8276 23.5375 27.837 23.5181L30.459 18.1781C30.4637 18.1685 30.4703 18.1599 30.4783 18.1529C30.4863 18.1458 30.4957 18.1404 30.5058 18.137C30.5159 18.1336 30.5266 18.1322 30.5373 18.1329C30.5479 18.1336 30.5584 18.1364 30.568 18.1411C30.5775 18.1458 30.5861 18.1524 30.5932 18.1604C30.6002 18.1685 30.6056 18.1778 30.609 18.1879C30.6125 18.198 30.6139 18.2087 30.6132 18.2194C30.6125 18.2301 30.6097 18.2405 30.605 18.2501L27.984 23.5901C27.9771 23.6036 27.9667 23.6149 27.9538 23.6229C27.9409 23.6308 27.9251 23.6351 27.91 23.6351Z" fill="black"/>
<path id="Path 659" d="M32.982 12.433C32.9717 12.433 32.9615 12.431 32.952 12.427C32.942 12.4231 32.933 12.4173 32.9253 12.41C32.9176 12.4026 32.9115 12.3938 32.9072 12.384C32.9029 12.3743 32.9006 12.3638 32.9004 12.3531C32.9002 12.3425 32.9021 12.3319 32.906 12.322C33.711 10.256 34.606 8.198 35.576 6.204C35.5854 6.18464 35.6021 6.16981 35.6224 6.16278C35.6428 6.15575 35.6651 6.15708 35.6845 6.1665C35.7038 6.17591 35.7187 6.19263 35.7257 6.21298C35.7327 6.23333 35.7314 6.25564 35.722 6.275C34.758 8.265 33.861 10.32 33.057 12.381C33.0511 12.3964 33.0406 12.4096 33.0271 12.4188C33.0135 12.4281 32.9984 12.4331 32.982 12.433Z" fill="black"/>
<path id="Path 660" d="M32.188 7.39308C32.1738 7.39326 32.1599 7.38972 32.1475 7.38282C32.1351 7.37593 32.1248 7.36591 32.1175 7.35376C32.1102 7.34162 32.1062 7.32778 32.106 7.31363C32.1057 7.29947 32.1092 7.28549 32.116 7.27308L33.179 5.28308C33.1838 5.2734 33.1905 5.26477 33.1987 5.25772C33.2069 5.25067 33.2165 5.24533 33.2268 5.24203C33.2371 5.23873 33.2479 5.23752 33.2587 5.23848C33.2695 5.23944 33.2799 5.24256 33.2895 5.24763C33.2991 5.25271 33.3075 5.25965 33.3143 5.26805C33.3212 5.27644 33.3262 5.28612 33.3293 5.29651C33.3323 5.3069 33.3332 5.31779 33.3319 5.32853C33.3307 5.33928 33.3273 5.34967 33.322 5.35908L32.259 7.35008C32.252 7.36314 32.2417 7.37405 32.229 7.38163C32.2163 7.38921 32.2028 7.39317 32.188 7.39308Z" fill="black"/>
<path id="Path 661" d="M30.257 23.661C30.2467 23.661 30.2365 23.659 30.227 23.655C30.217 23.6512 30.208 23.6454 30.2003 23.638C30.1926 23.6306 30.1865 23.6218 30.1822 23.6121C30.1779 23.6023 30.1756 23.5918 30.1754 23.5812C30.1752 23.5705 30.1771 23.56 30.181 23.55C32.119 18.6203 34.311 13.7942 36.748 9.09104C36.7579 9.07195 36.775 9.05759 36.7956 9.05112C36.8057 9.04791 36.8164 9.04674 36.8271 9.04767C36.8377 9.0486 36.848 9.05162 36.8575 9.05654C36.8669 9.06147 36.8753 9.06821 36.8822 9.07638C36.889 9.08454 36.8942 9.09398 36.8974 9.10415C36.9006 9.11432 36.9018 9.12502 36.9008 9.13564C36.8999 9.14626 36.8969 9.15659 36.892 9.16604C34.4575 13.8643 32.2679 18.6854 30.332 23.61C30.3259 23.6252 30.3154 23.6382 30.3019 23.6473C30.2883 23.6564 30.2733 23.6612 30.257 23.661Z" fill="black"/>
<path id="Path 662" d="M32.407 23.859C32.3931 23.8591 32.3795 23.8556 32.3674 23.8489C32.3553 23.8423 32.3451 23.8326 32.3378 23.8209C32.3305 23.8092 32.3263 23.7957 32.3256 23.7819C32.325 23.7681 32.3278 23.7544 32.334 23.742L37.093 14.011C37.1024 13.9916 37.1191 13.9768 37.1395 13.9698C37.1598 13.9628 37.1821 13.9641 37.2015 13.9735C37.2208 13.9829 37.2357 13.9996 37.2427 14.02C37.2497 14.0403 37.2484 14.0626 37.239 14.082L32.48 23.814C32.4731 23.8275 32.4627 23.8389 32.4498 23.8468C32.4369 23.8547 32.4221 23.859 32.407 23.859Z" fill="black"/>
<path id="Path 663" d="M35.245 21.883C35.2311 21.8831 35.2175 21.8796 35.2054 21.8729C35.1933 21.8663 35.1831 21.8566 35.1758 21.8449C35.1685 21.8331 35.1643 21.8197 35.1636 21.8059C35.1629 21.7921 35.1658 21.7784 35.172 21.766L37.192 17.713C37.1967 17.7034 37.2032 17.6949 37.2113 17.6878C37.2193 17.6808 37.2287 17.6754 37.2388 17.6719C37.2489 17.6685 37.2596 17.6671 37.2703 17.6678C37.2809 17.6685 37.2914 17.6713 37.301 17.676C37.3105 17.6807 37.3191 17.6873 37.3261 17.6953C37.3332 17.7034 37.3386 17.7127 37.342 17.7228C37.3455 17.733 37.3469 17.7437 37.3462 17.7543C37.3455 17.765 37.3427 17.7754 37.338 17.785L35.318 21.838C35.3112 21.8516 35.3008 21.863 35.2879 21.8709C35.275 21.8789 35.2601 21.8831 35.245 21.883Z" fill="black"/>
<g id="Group 242" opacity="0.129">
<g id="Group 241">
<g id="Clip path group_3">
<mask id="mask2_0_504" style="mask-type:luminance" maskUnits="userSpaceOnUse" x="9" y="5" width="25" height="17">
<g id="clip-path-35">
<path id="Rectangle 101" d="M33.42 5.198H9.97397V21.774H33.42V5.198Z" fill="white"/>
</g>
</mask>
<g mask="url(#mask2_0_504)">
<g id="Group 240">
<path id="Path 664" d="M33.136 8.49103C33.0581 8.17199 32.9496 7.86121 32.812 7.56303C32.828 7.58503 32.869 7.71303 32.86 7.67103C32.74 7.31503 32.627 6.95503 32.479 6.60903C32.596 6.88803 32.357 6.30903 32.293 6.19703C32.1606 5.9227 31.9993 5.66324 31.812 5.42303C31.7766 5.36391 31.7283 5.31357 31.6707 5.2758C31.613 5.23803 31.5476 5.21381 31.4793 5.20495C31.4109 5.1961 31.3415 5.20284 31.2761 5.22468C31.2108 5.24652 31.1513 5.28288 31.102 5.33103C30.84 5.60603 31.018 5.88503 31.202 6.13103C31.3184 6.2945 31.4057 6.47685 31.46 6.67003C31.612 7.17003 31.714 7.52603 31.786 7.80303C31.7616 7.82722 31.7404 7.85444 31.723 7.88403C31.6174 8.45584 31.5437 9.03306 31.502 9.61303C31.488 9.69003 31.488 9.70703 31.491 9.69403C31.402 10.3 31.272 10.941 31.168 11.706C31.0026 12.612 30.7518 13.5003 30.419 14.359C30.0093 15.3307 29.3415 16.1717 28.488 16.791C27.4921 17.43 26.4161 17.9344 25.288 18.291C23.9767 18.664 22.6288 18.8933 21.268 18.975C19.615 19.138 17.961 19.275 16.311 19.475C15.163 19.575 14.239 19.602 13.368 19.755C13.023 19.809 12.682 19.882 12.341 19.955L12.312 19.966L11.825 19.985C11.7251 19.9831 11.6263 20.0062 11.5376 20.0521C11.4489 20.098 11.3731 20.1654 11.317 20.248L10.955 20.21C10.7623 20.157 10.5582 20.1629 10.369 20.227C10.2324 20.2864 10.1203 20.3908 10.0514 20.5228C9.98244 20.6548 9.96087 20.8065 9.99023 20.9524C10.0196 21.0984 10.0981 21.23 10.2127 21.3251C10.3273 21.4202 10.4711 21.4731 10.62 21.475C12.8653 21.7348 15.127 21.8257 17.386 21.747C18.546 21.706 19.693 21.53 20.845 21.404C22.9969 21.2344 25.1351 20.9203 27.245 20.464C28.1803 20.3119 29.0761 19.9756 29.8805 19.4747C30.6848 18.9738 31.3818 18.3183 31.931 17.546C33.3302 14.7462 33.7544 11.5593 33.136 8.49103ZM30.888 16.745C30.6997 17.1221 30.4367 17.4569 30.115 17.729C30.0942 17.6518 30.0565 17.5801 30.0046 17.5192C29.9528 17.4583 29.888 17.4098 29.815 17.377C30.5813 16.6847 31.1914 15.8373 31.605 14.891C31.582 14.977 31.559 15.062 31.534 15.149C31.4022 15.7097 31.1854 16.247 30.891 16.742" fill="black"/>
</g>
</g>
</g>
</g>
</g>
</g>
</g>
</g>
</g>
</g>
</g>
</g>
</g>
</svg>
