<svg width="83" height="75" viewBox="0 0 83 75" fill="none" xmlns="http://www.w3.org/2000/svg">
<g id="Group 303">
<path id="Path 906" d="M0.5 74.1201L81.4 74.0871L81.564 25.2211L0.659 24.9591L0.5 74.1201Z" fill="white"/>
<g id="Group 302">
<g id="Clip path group">
<mask id="mask0_0_909" style="mask-type:luminance" maskUnits="userSpaceOnUse" x="0" y="0" width="83" height="75">
<g id="clip-path-54">
<path id="Rectangle 124" d="M82.063 0.487061H0V74.6151H82.063V0.487061Z" fill="white"/>
</g>
</mask>
<g mask="url(#mask0_0_909)">
<g id="Group 301">
<path id="Path 907" d="M0.5 74.6151C0.367392 74.6151 0.240215 74.5624 0.146447 74.4686C0.0526784 74.3748 0 74.2477 0 74.1151L0.164 24.9581C0.164131 24.8932 0.177039 24.829 0.201986 24.7691C0.226933 24.7092 0.263431 24.6548 0.309396 24.609C0.355361 24.5633 0.409893 24.527 0.469878 24.5023C0.529863 24.4776 0.594127 24.4649 0.659 24.4651L81.569 24.7221C81.7004 24.7239 81.8258 24.7774 81.918 24.871C82.0103 24.9645 82.062 25.0907 82.062 25.2221L81.9 74.0871C81.8982 74.2174 81.8455 74.3419 81.7532 74.434C81.661 74.5261 81.5364 74.5785 81.406 74.5801L0.5 74.6151ZM1.157 25.4561L0.992 73.6251L80.911 73.5871L81.072 25.7081L1.157 25.4561Z" fill="black"/>
<path id="Path 908" d="M29.025 35.9501C28.996 37.9261 29.125 40.0711 29.098 42.0501C31.598 41.8241 34.098 41.9861 36.598 41.9191C36.477 39.9361 36.515 37.8751 36.398 35.8921C34.024 36.0401 31.331 35.7921 29.025 35.9531" fill="white"/>
<path id="Path 909" d="M29.1 42.2121C29.0781 42.2121 29.0564 42.2077 29.0361 42.1992C29.0159 42.1907 28.9976 42.1783 28.9822 42.1627C28.9669 42.147 28.9548 42.1285 28.9467 42.1081C28.9386 42.0878 28.9346 42.066 28.935 42.0441C28.949 41.0591 28.924 40.0131 28.898 39.0021C28.872 37.9911 28.848 36.9391 28.862 35.9471C28.8626 35.9058 28.8787 35.8663 28.907 35.8363C28.9353 35.8063 28.9739 35.7881 29.015 35.7851C30.197 35.7011 31.5 35.7261 32.761 35.7501C33.976 35.7731 35.232 35.7971 36.389 35.7251C36.4106 35.7234 36.4324 35.7261 36.453 35.733C36.4736 35.7399 36.4926 35.7509 36.5089 35.7652C36.5252 35.7796 36.5385 35.797 36.5479 35.8166C36.5574 35.8361 36.5629 35.8574 36.564 35.8791C36.625 36.8791 36.646 37.9031 36.664 38.8991C36.682 39.8951 36.705 40.9171 36.764 41.9051C36.7662 41.9498 36.7508 41.9936 36.721 42.0271C36.706 42.0432 36.6879 42.0562 36.6678 42.0653C36.6477 42.0744 36.626 42.0794 36.604 42.0801C35.671 42.1051 34.725 42.0981 33.811 42.0921C32.268 42.0801 30.671 42.0691 29.111 42.2111L29.1 42.2121ZM29.19 36.1031C29.18 37.0431 29.204 38.0341 29.228 38.9931C29.252 39.9521 29.276 40.9291 29.267 41.8661C30.786 41.7391 32.326 41.7501 33.818 41.7661C34.674 41.7721 35.557 41.7781 36.429 41.7581C36.376 40.8171 36.356 39.8481 36.337 38.9101C36.318 37.9721 36.298 37.0041 36.245 36.0671C35.12 36.1281 33.919 36.1061 32.755 36.0841C31.555 36.0611 30.317 36.0381 29.19 36.1081" fill="black"/>
<path id="Path 910" d="M41.427 35.9501C41.398 37.9261 41.527 40.0711 41.5 42.0501C43.995 41.8241 46.5 41.9861 49 41.9191C48.879 39.9361 48.917 37.8751 48.8 35.8921C46.426 36.0401 43.733 35.7921 41.427 35.9531" fill="white"/>
<path id="Path 911" d="M41.5 42.2121C41.4587 42.2123 41.4189 42.1965 41.389 42.1681C41.3717 42.1524 41.3579 42.1333 41.3486 42.1119C41.3393 42.0905 41.3347 42.0674 41.335 42.0441C41.349 41.0591 41.325 40.0131 41.299 39.0021C41.273 37.9911 41.249 36.9391 41.263 35.9471C41.2636 35.9058 41.2797 35.8663 41.308 35.8363C41.3363 35.8063 41.3749 35.7881 41.416 35.7851C42.597 35.7011 43.901 35.7261 45.161 35.7501C46.376 35.7731 47.632 35.7971 48.791 35.7251C48.8126 35.7234 48.8343 35.7262 48.8548 35.7331C48.8754 35.74 48.8943 35.7509 48.9105 35.7653C48.9268 35.7797 48.9399 35.7971 48.9493 35.8167C48.9586 35.8362 48.964 35.8574 48.965 35.8791C49.026 36.8791 49.047 37.9031 49.065 38.8991C49.083 39.8951 49.106 40.9171 49.165 41.9051C49.1665 41.9272 49.1635 41.9494 49.1562 41.9703C49.1488 41.9912 49.1374 42.0104 49.1224 42.0268C49.1075 42.0431 49.0893 42.0563 49.0692 42.0654C49.049 42.0746 49.0272 42.0796 49.005 42.0801C48.072 42.1061 47.127 42.0981 46.212 42.0921C44.669 42.0801 43.073 42.0691 41.512 42.2111L41.5 42.2121ZM41.59 36.1031C41.581 37.0431 41.605 38.0341 41.628 38.9931C41.651 39.9521 41.676 40.9291 41.667 41.8661C43.187 41.7391 44.727 41.7501 46.218 41.7661C47.075 41.7721 47.958 41.7781 48.829 41.7581C48.777 40.8171 48.757 39.8481 48.737 38.9101C48.717 37.9721 48.699 37.0041 48.646 36.0671C47.521 36.1281 46.319 36.1061 45.155 36.0841C43.955 36.0611 42.717 36.0381 41.59 36.1081" fill="black"/>
<path id="Path 912" d="M53.83 35.9501C53.801 37.9261 53.93 40.0711 53.903 42.0501C56.398 41.8241 58.903 41.9861 61.403 41.9191C61.282 39.9361 61.32 37.8751 61.203 35.8921C58.829 36.0401 56.136 35.7921 53.83 35.9531" fill="#0086D5"/>
<path id="Path 913" d="M53.9 42.2121C53.8781 42.2121 53.8564 42.2077 53.8362 42.1992C53.8159 42.1907 53.7976 42.1783 53.7823 42.1627C53.7669 42.147 53.7548 42.1285 53.7467 42.1081C53.7386 42.0878 53.7346 42.066 53.735 42.0441C53.749 41.0591 53.724 40.0131 53.698 39.0021C53.672 37.9911 53.648 36.9391 53.662 35.9471C53.6627 35.9057 53.6789 35.866 53.7074 35.836C53.7359 35.806 53.7747 35.7878 53.816 35.7851C54.997 35.7011 56.3 35.7261 57.561 35.7501C58.776 35.7731 60.031 35.7971 61.189 35.7251C61.2107 35.7234 61.2324 35.7261 61.253 35.733C61.2736 35.7399 61.2926 35.7509 61.3089 35.7652C61.3252 35.7796 61.3385 35.797 61.3479 35.8166C61.3574 35.8361 61.3629 35.8574 61.364 35.8791C61.425 36.8791 61.446 37.9031 61.464 38.8991C61.482 39.8951 61.505 40.9171 61.564 41.9051C61.5662 41.9498 61.5508 41.9936 61.521 42.0271C61.506 42.0432 61.4879 42.0562 61.4678 42.0653C61.4477 42.0744 61.426 42.0794 61.404 42.0801C60.471 42.1061 59.525 42.0981 58.611 42.0921C57.068 42.0801 55.472 42.0691 53.911 42.2111L53.9 42.2121ZM53.99 36.1031C53.98 37.0431 54.004 38.0341 54.028 38.9931C54.052 39.9521 54.076 40.9291 54.067 41.8661C55.586 41.7391 57.126 41.7501 58.618 41.7661C59.474 41.7721 60.358 41.7781 61.229 41.7581C61.176 40.8171 61.156 39.8481 61.137 38.9101C61.118 37.9721 61.098 37.0041 61.045 36.0671C59.92 36.1281 58.719 36.1061 57.555 36.0841C56.355 36.0611 55.117 36.0381 53.99 36.1081" fill="black"/>
<path id="Path 914" d="M29.025 47.7251C28.996 49.7011 29.125 51.8461 29.098 53.8251C31.598 53.5991 34.098 53.7611 36.598 53.6931C36.477 51.7111 36.515 49.6501 36.398 47.6671C34.024 47.8151 31.331 47.5671 29.025 47.7281" fill="white"/>
<path id="Path 915" d="M29.1 53.9871C29.0782 53.9871 29.0565 53.9827 29.0364 53.9743C29.0162 53.9659 28.998 53.9536 28.9826 53.938C28.9673 53.9225 28.9551 53.9041 28.947 53.8838C28.9388 53.8636 28.9347 53.8419 28.935 53.8201C28.949 52.8351 28.924 51.7891 28.898 50.7781C28.872 49.7671 28.848 48.7151 28.862 47.7231C28.8626 47.6818 28.8787 47.6423 28.907 47.6123C28.9353 47.5823 28.9739 47.5641 29.015 47.5611C30.197 47.4771 31.5 47.5021 32.761 47.5261C33.976 47.5491 35.232 47.5731 36.389 47.5001C36.4107 47.4986 36.4325 47.5015 36.4531 47.5086C36.4737 47.5156 36.4927 47.5267 36.509 47.5411C36.5253 47.5554 36.5386 47.5729 36.5481 47.5925C36.5575 47.6121 36.5629 47.6333 36.564 47.6551C36.625 48.6501 36.646 49.6791 36.664 50.6751C36.682 51.6711 36.705 52.6931 36.764 53.6811C36.7655 53.7032 36.7625 53.7254 36.7552 53.7463C36.7478 53.7672 36.7364 53.7864 36.7214 53.8028C36.7064 53.8191 36.6883 53.8323 36.6682 53.8414C36.648 53.8506 36.6262 53.8556 36.604 53.8561C35.671 53.8811 34.725 53.8741 33.811 53.8681C32.267 53.8571 30.671 53.8451 29.111 53.9871H29.1ZM29.19 47.8801C29.18 48.8201 29.204 49.8111 29.228 50.7701C29.252 51.7291 29.276 52.7061 29.267 53.6421C30.786 53.5161 32.326 53.5281 33.818 53.5421C34.674 53.5481 35.557 53.5551 36.429 53.5341C36.376 52.5931 36.356 51.6241 36.337 50.6861C36.318 49.7481 36.298 48.7801 36.245 47.8431C35.12 47.9051 33.919 47.8821 32.755 47.8591C31.555 47.8371 30.317 47.8131 29.19 47.8841" fill="black"/>
<path id="Path 916" d="M41.427 47.7251C41.398 49.7011 41.527 51.8461 41.5 53.8251C43.995 53.5991 46.5 53.7611 49 53.6931C48.879 51.7111 48.917 49.6501 48.8 47.6671C46.426 47.8151 43.733 47.5671 41.427 47.7281" fill="#0086D5"/>
<path id="Path 917" d="M41.5 53.9871C41.4795 53.9874 41.4592 53.9837 41.4401 53.9761C41.4211 53.9686 41.4037 53.9573 41.389 53.9431C41.3716 53.9277 41.3578 53.9087 41.3485 53.8875C41.3391 53.8663 41.3345 53.8433 41.335 53.8201C41.349 52.8351 41.325 51.7891 41.299 50.7781C41.273 49.7671 41.249 48.7151 41.263 47.7231C41.2636 47.6818 41.2797 47.6423 41.308 47.6123C41.3363 47.5823 41.3749 47.5641 41.416 47.5611C42.597 47.4771 43.901 47.5021 45.161 47.5261C46.376 47.5491 47.632 47.5731 48.791 47.5001C48.8345 47.4975 48.8773 47.5122 48.91 47.5411C48.9263 47.5554 48.9396 47.5729 48.9491 47.5925C48.9585 47.6121 48.9639 47.6333 48.965 47.6551C49.026 48.6501 49.047 49.6791 49.065 50.6751C49.083 51.6711 49.106 52.6931 49.165 53.6811C49.1668 53.7033 49.1639 53.7256 49.1565 53.7466C49.1491 53.7677 49.1373 53.7869 49.122 53.8031C49.1071 53.8193 49.089 53.8324 49.0689 53.8415C49.0488 53.8506 49.0271 53.8556 49.005 53.8561C48.072 53.8811 47.127 53.8741 46.211 53.8681C44.669 53.8571 43.073 53.8451 41.511 53.9871H41.5ZM41.59 47.8801C41.581 48.8201 41.605 49.8111 41.628 50.7701C41.651 51.7291 41.676 52.7061 41.667 53.6421C43.186 53.5161 44.727 53.5281 46.218 53.5421C47.075 53.5481 47.958 53.5551 48.829 53.5341C48.777 52.5931 48.757 51.6241 48.737 50.6861C48.717 49.7481 48.699 48.7801 48.646 47.8431C47.521 47.9051 46.319 47.8821 45.155 47.8591C43.955 47.8371 42.717 47.8131 41.59 47.8841" fill="black"/>
<path id="Path 918" d="M53.83 47.7251C53.801 49.7011 53.93 51.8461 53.903 53.8251C56.398 53.5991 58.903 53.7611 61.403 53.6931C61.282 51.7111 61.32 49.6501 61.203 47.6671C58.829 47.8151 56.136 47.5671 53.83 47.7281" fill="white"/>
<path id="Path 919" d="M53.9 53.9871C53.8782 53.9871 53.8565 53.9827 53.8364 53.9743C53.8162 53.9659 53.798 53.9536 53.7826 53.938C53.7673 53.9225 53.7552 53.9041 53.747 53.8838C53.7388 53.8636 53.7347 53.8419 53.735 53.8201C53.749 52.8351 53.724 51.7891 53.698 50.7781C53.672 49.7671 53.648 48.7151 53.662 47.7231C53.6627 47.6817 53.6789 47.642 53.7074 47.612C53.7359 47.582 53.7747 47.5638 53.816 47.5611C54.997 47.4771 56.3 47.5021 57.561 47.5261C58.776 47.5491 60.031 47.5731 61.189 47.5001C61.2107 47.4985 61.2325 47.5014 61.2531 47.5084C61.2738 47.5155 61.2927 47.5266 61.309 47.5411C61.3253 47.5554 61.3386 47.5729 61.3481 47.5925C61.3575 47.6121 61.3629 47.6333 61.364 47.6551C61.425 48.6501 61.446 49.6791 61.464 50.6751C61.482 51.6711 61.505 52.6931 61.564 53.6811C61.5655 53.7032 61.5625 53.7254 61.5552 53.7463C61.5478 53.7672 61.5364 53.7864 61.5214 53.8028C61.5065 53.8191 61.4883 53.8323 61.4682 53.8414C61.448 53.8506 61.4262 53.8556 61.404 53.8561C60.471 53.8811 59.525 53.8741 58.61 53.8681C57.067 53.8571 55.472 53.8451 53.91 53.9871H53.9ZM53.99 47.8801C53.98 48.8201 54.004 49.8111 54.028 50.7701C54.052 51.7291 54.076 52.7061 54.067 53.6421C55.585 53.5161 57.125 53.5281 58.618 53.5421C59.474 53.5481 60.357 53.5551 61.229 53.5341C61.176 52.5931 61.156 51.6241 61.137 50.6861C61.118 49.7481 61.098 48.7801 61.045 47.8431C59.92 47.9051 58.719 47.8821 57.555 47.8591C56.355 47.8371 55.117 47.8131 53.99 47.8841" fill="black"/>
<path id="Path 920" d="M29.025 59.5011C28.996 61.4771 29.125 63.6221 29.098 65.6011C31.598 65.3751 34.098 65.5361 36.598 65.4691C36.477 63.4871 36.515 61.4261 36.398 59.4431C34.024 59.5911 31.331 59.3431 29.025 59.5041" fill="white"/>
<path id="Path 921" d="M29.1 65.7621C29.0782 65.7621 29.0565 65.7577 29.0364 65.7493C29.0162 65.7409 28.998 65.7286 28.9826 65.713C28.9673 65.6975 28.9551 65.6791 28.947 65.6588C28.9388 65.6386 28.9347 65.6169 28.935 65.5951C28.949 64.6101 28.924 63.5651 28.898 62.5531C28.872 61.5411 28.848 60.4901 28.862 59.4981C28.8626 59.4568 28.8787 59.4173 28.907 59.3873C28.9353 59.3573 28.9739 59.339 29.015 59.3361C30.197 59.2521 31.5 59.2771 32.761 59.3011C33.976 59.3241 35.232 59.3481 36.389 59.2761C36.4327 59.2732 36.4757 59.2876 36.509 59.3161C36.5253 59.3304 36.5386 59.3479 36.548 59.3675C36.5575 59.3871 36.5629 59.4083 36.564 59.4301C36.625 60.4251 36.646 61.4541 36.664 62.4501C36.682 63.4461 36.705 64.4681 36.764 65.4561C36.7662 65.5008 36.7508 65.5446 36.721 65.5781C36.706 65.5942 36.6879 65.6072 36.6678 65.6163C36.6477 65.6254 36.626 65.6304 36.604 65.6311C35.671 65.6561 34.725 65.6491 33.811 65.6431C32.267 65.6321 30.671 65.6201 29.111 65.7621H29.1ZM29.19 59.6551C29.18 60.5951 29.204 61.5861 29.228 62.5451C29.252 63.5041 29.276 64.4811 29.267 65.4181C30.786 65.2911 32.326 65.3031 33.818 65.3131C34.674 65.3191 35.557 65.3251 36.429 65.3051C36.376 64.3641 36.356 63.3951 36.337 62.4571C36.318 61.5191 36.298 60.5511 36.245 59.6141C35.12 59.6751 33.919 59.6531 32.755 59.6311C31.555 59.6081 30.317 59.5851 29.19 59.6551Z" fill="black"/>
<path id="Path 922" d="M41.427 59.5011C41.398 61.4771 41.527 63.6221 41.5 65.6011C43.995 65.3751 46.5 65.5361 49 65.4691C48.879 63.4871 48.917 61.4261 48.8 59.4431C46.426 59.5911 43.733 59.3431 41.427 59.5041" fill="white"/>
<path id="Path 923" d="M41.5 65.7621C41.4795 65.7624 41.4592 65.7586 41.4401 65.7511C41.4211 65.7435 41.4037 65.7323 41.389 65.7181C41.3716 65.7027 41.3578 65.6837 41.3485 65.6625C41.3391 65.6413 41.3345 65.6183 41.335 65.5951C41.349 64.6101 41.325 63.5651 41.299 62.5531C41.273 61.5411 41.249 60.4901 41.263 59.4981C41.2636 59.4568 41.2797 59.4173 41.308 59.3873C41.3363 59.3573 41.3749 59.3391 41.416 59.3361C42.597 59.2521 43.901 59.2771 45.161 59.3011C46.376 59.3241 47.632 59.3481 48.791 59.2761C48.8343 59.2736 48.8769 59.2879 48.91 59.3161C48.9263 59.3304 48.9396 59.3479 48.949 59.3675C48.9585 59.3871 48.9639 59.4084 48.965 59.4301C49.026 60.4251 49.047 61.4541 49.065 62.4501C49.083 63.4461 49.106 64.4681 49.165 65.4561C49.1665 65.4782 49.1635 65.5004 49.1562 65.5213C49.1488 65.5422 49.1374 65.5614 49.1224 65.5778C49.1075 65.5941 49.0893 65.6073 49.0692 65.6164C49.049 65.6256 49.0272 65.6306 49.005 65.6311C48.072 65.6561 47.127 65.6491 46.211 65.6431C44.669 65.6321 43.073 65.6201 41.511 65.7621H41.5ZM41.59 59.6551C41.581 60.5951 41.605 61.5861 41.628 62.5451C41.651 63.5041 41.676 64.4811 41.667 65.4181C43.186 65.2911 44.727 65.3031 46.218 65.3131C47.075 65.3191 47.958 65.3261 48.829 65.3051C48.777 64.3641 48.757 63.3951 48.737 62.4571C48.717 61.5191 48.699 60.5511 48.646 59.6141C47.521 59.6751 46.319 59.6531 45.155 59.6311C43.955 59.6081 42.717 59.5851 41.59 59.6551Z" fill="black"/>
<path id="Path 924" d="M53.83 59.5011C53.801 61.4771 53.93 63.6221 53.903 65.6011C56.398 65.3751 58.903 65.5361 61.403 65.4691C61.282 63.4871 61.32 61.4261 61.203 59.4431C58.829 59.5911 56.136 59.3431 53.83 59.5041" fill="white"/>
<path id="Path 925" d="M53.9 65.7621C53.8782 65.7621 53.8565 65.7577 53.8364 65.7493C53.8162 65.7409 53.798 65.7286 53.7826 65.713C53.7673 65.6975 53.7552 65.6791 53.747 65.6588C53.7388 65.6386 53.7347 65.6169 53.735 65.5951C53.749 64.6101 53.724 63.5651 53.698 62.5531C53.672 61.5411 53.648 60.4901 53.662 59.4981C53.6627 59.4567 53.6789 59.417 53.7074 59.387C53.7359 59.357 53.7747 59.3388 53.816 59.3361C54.997 59.2521 56.3 59.2771 57.561 59.3011C58.776 59.3241 60.031 59.3481 61.189 59.2761C61.2327 59.2731 61.2758 59.2875 61.309 59.3161C61.3253 59.3304 61.3386 59.3479 61.348 59.3675C61.3575 59.3871 61.3629 59.4084 61.364 59.4301C61.425 60.4251 61.446 61.4541 61.464 62.4501C61.482 63.4461 61.505 64.4681 61.564 65.4561C61.5662 65.5008 61.5508 65.5446 61.521 65.5781C61.506 65.5942 61.4879 65.6072 61.4678 65.6163C61.4477 65.6254 61.426 65.6304 61.404 65.6311C60.471 65.6561 59.525 65.6491 58.61 65.6431C57.067 65.6321 55.472 65.6201 53.91 65.7621H53.9ZM53.99 59.6551C53.98 60.5951 54.004 61.5861 54.028 62.5451C54.052 63.5041 54.076 64.4811 54.067 65.4181C55.585 65.2911 57.125 65.3031 58.618 65.3131C59.474 65.3191 60.357 65.3261 61.229 65.3051C61.176 64.3641 61.156 63.3951 61.137 62.4571C61.118 61.5191 61.098 60.5511 61.045 59.6141C59.92 59.6751 58.719 59.6531 57.555 59.6311C56.355 59.6081 55.117 59.5851 53.99 59.6551Z" fill="black"/>
<path id="Path 926" d="M66.329 35.9501C66.3 37.9261 66.429 40.0711 66.402 42.0501C68.902 41.8241 71.402 41.9861 73.902 41.9191C73.781 39.9361 73.819 37.8751 73.702 35.8921C71.328 36.0401 68.635 35.7921 66.329 35.9531" fill="#0086D5"/>
<path id="Path 927" d="M66.4 42.2121C66.378 42.2122 66.3563 42.2079 66.336 42.1995C66.3157 42.1911 66.2973 42.1786 66.2819 42.163C66.2666 42.1473 66.2545 42.1287 66.2464 42.1083C66.2383 42.0879 66.2345 42.066 66.235 42.0441C66.25 41.0591 66.224 40.0131 66.199 39.0021C66.174 37.9911 66.147 36.9391 66.161 35.9471C66.1616 35.9058 66.1777 35.8663 66.206 35.8363C66.2343 35.8063 66.2729 35.7881 66.314 35.7851C67.497 35.7011 68.799 35.7261 70.061 35.7501C71.275 35.7731 72.531 35.7971 73.689 35.7251C73.7107 35.7235 73.7324 35.7262 73.753 35.733C73.7736 35.7399 73.7926 35.7508 73.809 35.7651C73.8414 35.7946 73.8615 35.8353 73.865 35.8791C73.925 36.8791 73.947 37.9031 73.965 38.8991C73.983 39.8951 74.007 40.9171 74.065 41.9051C74.0665 41.9273 74.0635 41.9495 74.0561 41.9705C74.0487 41.9915 74.0371 42.0107 74.0221 42.0271C74.007 42.0435 73.9888 42.0566 73.9685 42.0657C73.9482 42.0748 73.9262 42.0797 73.904 42.0801C72.972 42.1061 72.026 42.0981 71.112 42.0921C69.569 42.0801 67.973 42.0691 66.412 42.2111L66.4 42.2121ZM66.49 36.1031C66.479 37.0431 66.505 38.0341 66.528 38.9931C66.551 39.9521 66.575 40.9291 66.567 41.8661C68.086 41.7391 69.627 41.7501 71.117 41.7661C71.974 41.7721 72.857 41.7781 73.729 41.7581C73.676 40.8171 73.657 39.8481 73.637 38.9101C73.617 37.9721 73.598 37.0041 73.545 36.0671C72.421 36.1281 71.219 36.1061 70.055 36.0841C68.855 36.0611 67.616 36.0381 66.49 36.1081" fill="black"/>
<path id="Path 928" d="M66.329 47.7251C66.3 49.7011 66.429 51.8461 66.402 53.8251C68.902 53.5991 71.402 53.7611 73.902 53.6931C73.781 51.7111 73.819 49.6501 73.702 47.6671C71.328 47.8151 68.635 47.5671 66.329 47.7281" fill="white"/>
<path id="Path 929" d="M66.4 53.9871C66.3781 53.9872 66.3564 53.983 66.3362 53.9746C66.316 53.9662 66.2977 53.9539 66.2823 53.9383C66.2669 53.9228 66.2548 53.9043 66.2467 53.884C66.2386 53.8637 66.2346 53.8419 66.235 53.8201C66.25 52.8351 66.224 51.7891 66.199 50.7781C66.174 49.7671 66.147 48.7151 66.161 47.7231C66.1616 47.6818 66.1777 47.6423 66.206 47.6123C66.2343 47.5823 66.2729 47.5641 66.314 47.5611C67.497 47.4771 68.799 47.5021 70.061 47.5261C71.275 47.5491 72.531 47.5731 73.689 47.5001C73.7107 47.4986 73.7325 47.5015 73.7531 47.5086C73.7737 47.5156 73.7927 47.5267 73.809 47.5411C73.8416 47.5705 73.8617 47.6113 73.865 47.6551C73.925 48.6501 73.947 49.6791 73.965 50.6751C73.983 51.6711 74.007 52.6931 74.065 53.6811C74.0663 53.7032 74.0632 53.7254 74.0558 53.7464C74.0484 53.7673 74.0369 53.7866 74.022 53.8031C73.9911 53.8354 73.9487 53.8544 73.904 53.8561C72.972 53.8811 72.027 53.8741 71.112 53.8681C69.569 53.8571 67.973 53.8451 66.412 53.9871H66.4ZM66.49 47.8801C66.479 48.8201 66.505 49.8111 66.528 50.7701C66.551 51.7291 66.575 52.7061 66.567 53.6421C68.085 53.5161 69.626 53.5281 71.117 53.5421C71.974 53.5481 72.857 53.5551 73.729 53.5341C73.676 52.5931 73.657 51.6241 73.637 50.6861C73.617 49.7481 73.598 48.7801 73.545 47.8431C72.421 47.9051 71.219 47.8821 70.055 47.8591C68.855 47.8371 67.616 47.8131 66.49 47.8841" fill="black"/>
<path id="Path 930" d="M66.329 59.5011C66.3 61.4771 66.429 63.6221 66.402 65.6011C68.902 65.3751 71.402 65.5361 73.902 65.4691C73.781 63.4871 73.819 61.4261 73.702 59.4431C71.328 59.5911 68.635 59.3431 66.329 59.5041" fill="white"/>
<path id="Path 931" d="M66.4 65.7621C66.3781 65.7622 66.3564 65.758 66.3362 65.7496C66.316 65.7412 66.2977 65.7289 66.2823 65.7133C66.2669 65.6978 66.2548 65.6793 66.2467 65.659C66.2386 65.6387 66.2346 65.6169 66.235 65.5951C66.25 64.6101 66.224 63.5651 66.199 62.5531C66.174 61.5411 66.147 60.4901 66.161 59.4981C66.1616 59.4568 66.1777 59.4173 66.206 59.3873C66.2343 59.3573 66.2729 59.339 66.314 59.3361C67.497 59.2521 68.799 59.2771 70.061 59.3011C71.275 59.3241 72.531 59.3481 73.689 59.2761C73.7327 59.2732 73.7757 59.2876 73.809 59.3161C73.8414 59.3456 73.8615 59.3863 73.865 59.4301C73.925 60.4251 73.947 61.4541 73.965 62.4501C73.983 63.4461 74.007 64.4681 74.065 65.4561C74.0665 65.4783 74.0635 65.5005 74.0561 65.5215C74.0487 65.5425 74.0371 65.5617 74.0221 65.5781C74.007 65.5945 73.9888 65.6076 73.9685 65.6167C73.9482 65.6258 73.9262 65.6307 73.904 65.6311C72.972 65.6561 72.027 65.6491 71.112 65.6431C69.569 65.6321 67.973 65.6201 66.412 65.7621H66.4ZM66.49 59.6551C66.479 60.5951 66.505 61.5861 66.528 62.5451C66.551 63.5041 66.575 64.4811 66.567 65.4181C68.085 65.2911 69.626 65.3031 71.117 65.3131C71.974 65.3191 72.857 65.3261 73.729 65.3051C73.676 64.3641 73.657 63.3951 73.637 62.4571C73.617 61.5191 73.598 60.5511 73.545 59.6141C72.421 59.6751 71.219 59.6531 70.055 59.6311C68.855 59.6081 67.616 59.5851 66.49 59.6551Z" fill="black"/>
<path id="Path 932" d="M14.938 46.9061C14.8103 46.9047 14.688 46.8545 14.5962 46.7658C14.5043 46.6771 14.4499 46.5566 14.444 46.4291C14.333 43.3591 14.256 40.2491 14.186 37.1991C13.3242 38.5861 12.0449 39.6644 10.532 40.2791C10.4097 40.3261 10.2737 40.3228 10.1539 40.2697C10.034 40.2167 9.94013 40.1183 9.89274 39.9961C9.84535 39.8739 9.84834 39.7379 9.90107 39.6179C9.95379 39.4979 10.0519 39.4038 10.174 39.3561C11.1276 38.9575 11.9802 38.3511 12.6696 37.581C13.3591 36.811 13.8679 35.8968 14.159 34.9051C14.1978 34.7974 14.2724 34.7062 14.3703 34.6469C14.4682 34.5876 14.5835 34.5636 14.6969 34.5791C14.8103 34.5946 14.915 34.6485 14.9935 34.7318C15.0719 34.8152 15.1194 34.9229 15.128 35.0371C15.211 38.7591 15.296 42.6091 15.428 46.3941C15.4313 46.5248 15.3832 46.6517 15.294 46.7474C15.2048 46.8431 15.0817 46.9001 14.951 46.9061H14.933" fill="black"/>
<path id="Path 933" d="M9.94601 53.1571C9.82682 53.1401 9.71777 53.0807 9.63887 52.9897C9.55998 52.8988 9.51654 52.7824 9.51654 52.6621C9.51654 52.5417 9.55998 52.4253 9.63887 52.3344C9.71777 52.2435 9.82682 52.184 9.94601 52.1671L19.5 52.1291C19.6192 52.146 19.7282 52.2055 19.8071 52.2964C19.886 52.3873 19.9295 52.5037 19.9295 52.6241C19.9295 52.7444 19.886 52.8608 19.8071 52.9517C19.7282 53.0427 19.6192 53.1021 19.5 53.1191L9.94601 53.1571Z" fill="black"/>
<path id="Path 934" d="M0.495003 21.1181L0.646003 28.9451L81.568 28.8531V21.0061L0.495003 21.1181Z" fill="#0086D5"/>
<path id="Path 935" d="M0.645002 29.4401C0.515819 29.4388 0.392128 29.3876 0.29985 29.2972C0.207572 29.2068 0.153872 29.0842 0.150002 28.9551L1.86104e-06 21.1281C-0.00142639 21.0623 0.0103126 20.997 0.0345276 20.9358C0.0587427 20.8747 0.0949445 20.819 0.141002 20.7721C0.187155 20.7252 0.242091 20.688 0.302663 20.6624C0.363235 20.6368 0.428256 20.6235 0.494002 20.6231L81.567 20.5111C81.6977 20.5126 81.8226 20.5653 81.9149 20.6578C82.0073 20.7504 82.0597 20.8754 82.061 21.0061V28.8531C82.061 28.9846 82.0092 29.1109 81.9167 29.2045C81.8242 29.2981 81.6986 29.3515 81.567 29.3531L0.646002 29.4401H0.645002ZM1 21.6121L1.132 28.4501L81.074 28.3591V21.5011L1 21.6121Z" fill="black"/>
<path id="Path 936" d="M21.905 25.6581C21.8166 25.6582 21.7299 25.6344 21.654 25.5891C21.5979 25.5562 21.5488 25.5125 21.5096 25.4605C21.4705 25.4085 21.442 25.3493 21.4258 25.2863C21.4096 25.2233 21.4061 25.1577 21.4154 25.0933C21.4247 25.0289 21.4466 24.9669 21.48 24.9111C25.83 17.5521 31.364 10.7681 36.716 4.21106L37.486 3.26706C38.582 1.92006 39.888 0.487061 41.531 0.487061H41.538C43.444 0.487061 44.584 1.85706 45.79 3.30106C45.915 3.45106 46.043 3.60106 46.173 3.75706C50.435 8.78706 56.867 17.7141 61.351 24.3351C61.4201 24.4438 61.444 24.5753 61.4178 24.7014C61.3915 24.8276 61.317 24.9385 61.2103 25.0106C61.1035 25.0828 60.9728 25.1104 60.846 25.0877C60.7191 25.065 60.6061 24.9938 60.531 24.8891C56.063 18.2871 49.657 9.39506 45.418 4.39706C45.286 4.24206 45.158 4.08706 45.03 3.93506C43.885 2.56406 42.98 1.48106 41.535 1.47706C40.325 1.47706 39.209 2.72206 38.257 3.88906L37.487 4.83306C32.158 11.3651 26.647 18.1191 22.335 25.4151C22.2913 25.4891 22.229 25.5505 22.1543 25.5932C22.0796 25.6358 21.995 25.6581 21.909 25.6581" fill="black"/>
</g>
</g>
</g>
</g>
</g>
</svg>
