<svg width="17" height="14" viewBox="0 0 17 14" fill="none" xmlns="http://www.w3.org/2000/svg">
<path id="Icon material-email" d="M14.632 0.722168H1.626C1.19598 0.723756 0.784149 0.895831 0.480829 1.20065C0.177509 1.50547 0.00746738 1.91815 0.0079999 2.34817L0 12.1032C0.00131876 12.534 0.173052 12.9468 0.477701 13.2515C0.78235 13.5561 1.19516 13.7278 1.626 13.7292H14.632C15.0628 13.7278 15.4756 13.5561 15.7803 13.2515C16.0849 12.9468 16.2567 12.534 16.258 12.1032V2.34817C16.2567 1.91733 16.0849 1.50452 15.7803 1.19987C15.4756 0.89522 15.0628 0.723487 14.632 0.722168ZM14.632 3.97417L8.132 8.03917L1.632 3.97417V2.34817L8.132 6.41317L14.632 2.34817V3.97417Z" fill="white"/>
</svg>
