<svg width="32" height="32" viewBox="0 0 32 32" fill="none" xmlns="http://www.w3.org/2000/svg">
<path id="Path 1067" fill-rule="evenodd" clip-rule="evenodd" d="M0 16.0062C0 12.8474 0.936683 9.75957 2.6916 7.13315C4.44652 4.50673 6.94084 2.45969 9.85916 1.25089C12.7775 0.0420779 15.9887 -0.274203 19.0868 0.342041C22.1849 0.958286 25.0306 2.47937 27.2642 4.71296C29.4978 6.94654 31.0189 9.7923 31.6351 12.8904C32.2514 15.9884 31.9351 19.1997 30.7263 22.118C29.5175 25.0363 27.4704 27.5307 24.844 29.2856C22.2176 31.0405 19.1298 31.9772 15.971 31.9772C13.8737 31.9772 11.7969 31.5641 9.85916 30.7614C7.92147 29.9588 6.16084 28.7824 4.6778 27.2994C3.19475 25.8163 2.01834 24.0557 1.21572 22.118C0.413102 20.1803 0 18.1035 0 16.0062ZM15.948 11.7612C16.9385 11.746 17.8963 12.1156 18.62 12.7922L20.57 10.8852C19.3198 9.70986 17.6628 9.06471 15.947 9.08517C14.7671 9.08675 13.6071 9.39001 12.5774 9.96615C11.5477 10.5423 10.6824 11.3721 10.0637 12.3769C9.44507 13.3816 9.0936 14.5279 9.04272 15.7067C8.99183 16.8856 9.24322 18.0578 9.773 19.1122L12.015 17.3742L9.78 19.1122C10.3519 20.2581 11.2317 21.2221 12.3209 21.8959C13.41 22.5698 14.6653 22.9269 15.946 22.9272C17.63 22.975 19.2681 22.3751 20.523 21.2512C21.2025 20.5933 21.7367 19.8005 22.0912 18.9236C22.4456 18.0468 22.6125 17.1054 22.581 16.1602C22.5892 15.6844 22.5402 15.2093 22.435 14.7452H15.948V17.3132H19.757C19.685 17.7634 19.5227 18.1945 19.2799 18.5805C19.0371 18.9664 18.7187 19.2993 18.344 19.5592C17.6358 20.0346 16.7966 20.2765 15.944 20.2512C15.0696 20.2456 14.2191 19.9648 13.5133 19.4485C12.8075 18.9323 12.2822 18.2068 12.012 17.3752C11.8611 16.9344 11.7834 16.472 11.782 16.0062C11.7849 15.541 11.8601 15.0792 12.005 14.6372C12.278 13.8051 12.8055 13.0798 13.5131 12.5638C14.2206 12.0477 15.0723 11.767 15.948 11.7612Z" fill="#0086D5"/>
</svg>
