<svg width="32" height="32" viewBox="0 0 32 32" fill="none" xmlns="http://www.w3.org/2000/svg">
<path id="Path 1066" fill-rule="evenodd" clip-rule="evenodd" d="M15.971 0.0351563C12.8122 0.0351563 9.72441 0.971839 7.09799 2.72676C4.47157 4.48167 2.42454 6.976 1.21573 9.89432C0.00692165 12.8126 -0.30936 16.0239 0.306885 19.1219C0.923129 22.22 2.44422 25.0658 4.6778 27.2994C6.91139 29.5329 9.75715 31.054 12.8552 31.6703C15.9533 32.2865 19.1645 31.9702 22.0828 30.7614C25.0012 29.5526 27.4955 27.5056 29.2504 24.8792C31.0053 22.2528 31.942 19.1649 31.942 16.0062C31.942 13.9088 31.5289 11.832 30.7263 9.89432C29.9237 7.95663 28.7473 6.196 27.2642 4.71295C25.7812 3.22991 24.0205 2.05349 22.0828 1.25088C20.1452 0.448258 18.0683 0.0351562 15.971 0.0351563ZM17.636 16.7082V25.3972H14.036V16.7082H12.236V13.7142H14.036V11.9142C14.036 9.47116 15.05 8.01416 17.936 8.01416H20.336V11.0152H18.836C17.714 11.0152 17.636 11.4332 17.636 12.2152V13.7152H20.352L20.034 16.7092L17.636 16.7082Z" fill="#0086D5"/>
</svg>
