<svg width="32" height="32" viewBox="0 0 32 32" fill="none" xmlns="http://www.w3.org/2000/svg">
<path id="Path 1071" fill-rule="evenodd" clip-rule="evenodd" d="M15.971 0.0351562C12.8122 0.0351562 9.72441 0.971845 7.098 2.72676C4.47158 4.48168 2.42452 6.976 1.21572 9.89432C0.00691032 12.8126 -0.309356 16.0239 0.306889 19.1219C0.923133 22.22 2.44422 25.0658 4.6778 27.2994C6.91138 29.5329 9.75714 31.054 12.8552 31.6703C15.9533 32.2865 19.1645 31.9702 22.0828 30.7614C25.0012 29.5526 27.4955 27.5056 29.2504 24.8792C31.0053 22.2527 31.942 19.1649 31.942 16.0061C31.942 11.7704 30.2594 7.7081 27.2642 4.71295C24.2691 1.71781 20.2068 0.0351562 15.971 0.0351562ZM7.67101 13.2632H11.291V24.1352H7.67101V13.2632ZM11.529 9.89915C11.5618 9.49094 11.4712 9.08228 11.2689 8.72621C11.0666 8.37014 10.7619 8.08308 10.3944 7.9023C10.027 7.72151 9.61366 7.65535 9.20812 7.71237C8.80258 7.76939 8.42352 7.94697 8.12015 8.22208C7.81678 8.49719 7.6031 8.85713 7.50682 9.25519C7.41055 9.65324 7.43612 10.071 7.58024 10.4544C7.72435 10.8377 7.98035 11.1689 8.31501 11.405C8.64966 11.641 9.04753 11.771 9.457 11.7782H9.48C9.74006 11.7999 10.0018 11.7674 10.2487 11.6829C10.4956 11.5983 10.7222 11.4635 10.9144 11.2869C11.1066 11.1104 11.26 10.8959 11.3651 10.657C11.4702 10.4182 11.5247 10.1601 11.525 9.89915H11.529ZM20.176 13.0072C22.558 13.0072 24.343 14.5622 24.343 17.9072V24.1352H20.723V18.3172C20.723 16.8562 20.199 15.8582 18.89 15.8582C18.482 15.8605 18.0847 15.9887 17.7523 16.2253C17.4199 16.4619 17.1687 16.7954 17.033 17.1802C16.9403 17.4645 16.8999 17.7634 16.914 18.0621V24.1352H13.294C13.294 24.1352 13.342 14.2812 13.294 13.2602H16.914V14.8012C17.2419 14.2334 17.7189 13.7662 18.2934 13.4501C18.8679 13.1341 19.5179 12.9812 20.173 13.0082L20.176 13.0072Z" fill="#0086D5"/>
</svg>
